<svg version="1.1" xmlns="http://www.w3.org/2000/svg" xmlns:xlink="http://www.w3.org/1999/xlink" width="64.54854" height="97.20303" viewBox="0,0,64.54854,97.20303"><g transform="translate(-156.20675,-286.30791)"><g data-paper-data="{&quot;isPaintingLayer&quot;:true}" fill-rule="nonzero" stroke-linecap="butt" stroke-linejoin="miter" stroke-dasharray="" stroke-dashoffset="0" style="mix-blend-mode: normal"><path d="M203.42167,289.14686c9.19995,-0.07975 16.72119,7.31229 16.80094,16.50926l0.53205,60.80296c0.07975,9.19995 -7.31229,16.72119 -16.50945,16.80094l-28.75076,0.25022c-9.19604,0.08384 -16.72119,-7.30932 -16.80094,-16.50926l-0.52815,-60.80296c-0.07975,-9.19604 7.3095,-16.72119 16.50945,-16.80094z" fill-opacity="0.69804" fill="#0f150e" stroke="none" stroke-width="1" stroke-miterlimit="10"/><path d="M201.46393,286.30856c9.1993,-0.08001 16.71871,7.311 16.79871,16.51226l0.52996,60.8083c0.08,9.20125 -7.30944,16.73229 -16.50873,16.81229l-28.7478,0.25003c-9.19929,0.08001 -16.71872,-7.311 -16.79871,-16.51225l-0.52996,-60.8183c-0.07999,-9.19126 7.30944,-16.72229 16.50873,-16.80229z" fill="#679a64" stroke="none" stroke-width="0.26458" stroke-miterlimit="10"/><path d="M212.94305,364.30923c-0.24998,2.2903 -0.66995,3.7605 -1.2799,4.41059c-0.59996,0.65009 -1.94985,1.13016 -4.0397,1.4302c-1.49988,0.17002 -5.67956,0.46006 -12.52904,0.88012c-6.86947,0.41006 -12.04907,0.6501 -15.5688,0.7201c-1.59988,0.06 -2.86978,0.08 -3.79971,0.05c-0.93993,-0.02001 -1.84986,-0.13002 -2.72979,-0.33005c-0.87993,-0.20003 -1.52988,-0.43006 -1.95985,-0.7001c-0.41997,-0.27003 -0.83994,-0.73009 -1.2399,-1.37018c-0.39997,-0.64009 -0.70995,-1.33018 -0.92993,-2.06028c-0.21998,-0.7401 -0.47996,-1.76024 -0.77994,-3.06042c-0.78994,-3.63049 -1.2999,-7.52102 -1.54988,-11.69159c-0.23998,-4.15057 -0.26998,-10.10138 -0.07999,-17.82244c0.07999,-6.23085 0.04,-10.84148 -0.11999,-13.83189c-0.15999,-2.9904 -0.51996,-5.85079 -1.06992,-8.57116c-1.07992,-4.88067 -1.48989,-8.18112 -1.21991,-9.90136c0.14999,-0.69009 0.32997,-1.20016 0.53996,-1.5202c0.20998,-0.32005 0.62995,-0.63009 1.2499,-0.94013c0.75994,-0.37005 3.9197,-0.90012 9.48927,-1.58022c5.55957,-0.69009 11.00915,-1.24017 16.33875,-1.66022c3.54973,-0.18003 5.39959,-0.31005 5.52958,-0.37005c0.04999,0 1.11991,0.02 3.22975,0.06c3.06977,0.18002 5.05962,0.68009 5.97955,1.5002c0.56995,0.49007 0.94992,1.24017 1.14991,2.2303c0.17998,0.99014 0.42996,3.43047 0.72994,7.301c0.33997,4.73065 0.91993,10.45143 1.72987,17.16234c0.99992,8.53117 1.63987,14.28195 1.90985,17.24236c0.26998,2.9604 0.54996,6.75092 0.83993,11.37155c0.30998,5.81079 0.36998,9.5013 0.17999,11.05151z" fill="#fefefe" stroke="none" stroke-width="0.26458" stroke-miterlimit="10"/><path d="M170.26632,358.09836c-0.08999,-0.33004 -0.13999,-0.7301 -0.12999,-1.17016c0,-0.43006 0.05,-0.89012 0.14999,-1.38019c0.10999,-0.48006 0.26998,-0.94013 0.48996,-1.38019c0.21998,-0.43005 0.52996,-0.79011 0.91993,-1.08014c0.38997,-0.28004 0.84994,-0.40006 1.38989,-0.35005c0.23998,0.01 0.73994,0 1.48989,-0.03c0.74994,-0.01 1.2499,-0.02 1.48989,-0.02c1.06992,0.01 2.06984,0.08 3.01977,0.21003c0.93993,0.13002 1.91985,0.20003 2.93977,0.21003l1.59988,0.01c0.14999,-0.04 0.25998,-0.22003 0.33997,-0.54008c0.06999,-0.31004 0.14999,-0.68009 0.21998,-1.09014c0.07999,-0.41006 0.12999,-0.82011 0.15999,-1.24017c0.03,-0.41006 0.07,-0.6801 0.11999,-0.83012c-0.02,-4.07055 0.06999,-8.02109 0.24998,-11.82161c0.17999,-3.81052 0.27998,-7.68105 0.30998,-11.61159c0.01,-0.19002 0,-0.44006 -0.02,-0.7601c-0.03,-0.32004 -0.03,-0.50007 -0.03,-0.55008c0,-0.63008 -0.01,-1.43019 -0.02,-2.40032c-0.02,-0.97013 -0.02999,-1.90026 -0.04999,-2.80038c-0.02,-0.90013 -0.07,-2.03028 -0.14999,-3.39047l-0.21999,-0.44006l-10.54919,-0.09c-0.81994,-0.01 -1.50988,-0.34005 -2.05984,-0.99013c-0.54996,-0.67009 -0.82994,-1.36019 -0.81994,-2.09029c0.01,-1.70023 0.51996,-2.76038 1.51988,-3.19043c0.99992,-0.42006 2.26983,-0.63009 3.81971,-0.62009h0.14999c0.43997,0 1.19991,0.03 2.28982,0.06c1.08992,0.03 2.22983,0.06 3.41974,0.11002c1.18991,0.03 2.30982,0.07 3.38974,0.13001c1.05992,0.06 1.80986,0.09 2.24983,0.09c0.76994,0.20003 1.40989,0.57008 1.91985,1.11016c0.49996,0.54007 0.87993,1.17016 1.14991,1.90026c0.24998,0.7301 0.42997,1.4902 0.51996,2.2603c0.09,0.78011 0.12999,1.53021 0.12999,2.26031c-0.01,0.97013 -0.08,1.89026 -0.20998,2.77038c-0.12999,0.86012 -0.19999,1.79024 -0.19999,2.76038c-0.01,0.97013 0.04,1.90026 0.14999,2.80038c0.10999,0.90012 0.16999,1.83025 0.15999,2.80038l-0.01,1.68023c-0.01,0.53007 -0.13999,1.06015 -0.37997,1.60022l-0.17999,20.73283l0.27998,0.58008c0.05,0.11001 0.14999,0.25003 0.28998,0.45006l9.67926,0.08c0.47996,0.01 0.92993,0.15002 1.3399,0.41006c0.40997,0.27003 0.76994,0.60008 1.07991,1.00013c0.30998,0.39006 0.55996,0.81012 0.75995,1.28018c0.18998,0.46006 0.27997,0.88012 0.27997,1.27017c-0.01,0.54008 -0.16998,1.01014 -0.48996,1.41019c-0.31997,0.42006 -0.71994,0.75011 -1.2099,1.01014c-0.48997,0.27004 -0.99993,0.47007 -1.52989,0.61009c-0.53996,0.14001 -1.04992,0.21002 -1.52988,0.21002c-0.77994,-0.01 -1.50989,-0.07 -2.17984,-0.17002c-0.67995,-0.10001 -1.43989,-0.16002 -2.25982,-0.17002c-0.57996,0 -1.24991,-0.02 -1.99985,-0.05c-0.74994,-0.03 -1.41989,0.12001 -1.99985,0.45006l-8.51934,-0.07c-0.33998,0.29004 -0.71995,0.53007 -1.12992,0.7201c-0.41997,0.19002 -0.83993,0.28004 -1.2799,0.28004c-0.57995,0 -1.00992,-0.13002 -1.2699,-0.37005c-0.25998,-0.25004 -0.65995,-0.42006 -1.18991,-0.52007c-0.09999,0 -0.30998,-0.02 -0.61995,-0.04c-0.31998,-0.03 -0.66995,-0.08 -1.05992,-0.13002c-0.38997,-0.05 -0.74994,-0.08 -1.08992,-0.11002c-0.33997,-0.03 -0.52996,-0.04 -0.57996,-0.04c-0.13999,0 -0.36997,-0.05 -0.68995,-0.12001c-0.31997,-0.08 -0.64995,-0.16002 -1.01992,-0.26004c-0.35997,-0.10001 -0.69995,-0.19002 -1.00992,-0.27003c-0.31997,-0.07 -0.54996,-0.13002 -0.68995,-0.19003c-0.62995,-0.25003 -0.98992,-0.54007 -1.08992,-0.88012z" fill="#3eb311" stroke="none" stroke-width="0.26458" stroke-miterlimit="10"/><path d="M173.50607,357.03821c-0.09999,-0.34004 -0.13999,-0.73009 -0.13999,-1.17015c0.01,-0.43006 0.05999,-0.89013 0.15999,-1.38019c0.09999,-0.48007 0.25998,-0.94013 0.47996,-1.38019c0.22998,-0.43006 0.52996,-0.79011 0.91993,-1.08015c0.39997,-0.29004 0.84993,-0.40005 1.38989,-0.35005c0.23998,0 0.73994,0 1.48989,-0.03c0.74994,-0.01 1.2499,-0.02 1.48989,-0.02c1.06992,0.01 2.07984,0.08 3.01977,0.21003c0.94993,0.13002 1.92985,0.20003 2.93977,0.21003l1.60988,0.01c0.13999,-0.04 0.24998,-0.23003 0.32997,-0.54007c0.07999,-0.32005 0.14999,-0.6801 0.22998,-1.09015c0.06999,-0.41006 0.12999,-0.82011 0.14999,-1.24017c0.03,-0.41006 0.06999,-0.68009 0.11999,-0.83011c-0.01,-4.07056 0.06999,-8.0211 0.24998,-11.83162c0.17999,-3.80052 0.27998,-7.67105 0.31998,-11.60158c0,-0.19003 -0.01,-0.45006 -0.03,-0.77011c-0.02,-0.31004 -0.03,-0.49007 -0.03,-0.54007c0,-0.63009 0,-1.4302 -0.02,-2.40033c-0.02,-0.97013 -0.03,-1.90026 -0.05,-2.80038c-0.01,-0.90013 -0.06,-2.03028 -0.14999,-3.39047l-0.20998,-0.44005l-10.54919,-0.09c-0.82994,-0.01 -1.51988,-0.34005 -2.06984,-1.00014c-0.54996,-0.66009 -0.82994,-1.35018 -0.81994,-2.08028c0.01,-1.70024 0.51996,-2.76038 1.51988,-3.19044c0.99992,-0.43006 2.26983,-0.63008 3.82971,-0.62008h0.13999c0.43997,0 1.20991,0.02 2.29982,0.06c1.07992,0.03 2.21983,0.06 3.40974,0.10001c1.18991,0.03 2.31982,0.08 3.38974,0.14002c1.05992,0.05 1.81986,0.09 2.24983,0.09c0.77994,0.20003 1.41989,0.57008 1.91985,1.11015c0.50996,0.54007 0.88993,1.17016 1.14991,1.90026c0.25998,0.7301 0.42997,1.4902 0.51996,2.26031c0.09,0.78011 0.13999,1.53021 0.12999,2.26031c-0.01,0.97013 -0.08,1.89026 -0.20998,2.76038c-0.11999,0.87011 -0.18999,1.79024 -0.19999,2.77037c-0.01,0.97014 0.04,1.90026 0.15999,2.80039c0.10999,0.90012 0.15999,1.83025 0.14999,2.80038l-0.01,1.68023c0,0.53007 -0.12999,1.06014 -0.37997,1.59021l-0.17999,20.74284l0.28998,0.58007c0.04,0.10002 0.13999,0.25004 0.27998,0.45007l9.67926,0.08c0.47996,0.01 0.92993,0.14002 1.3399,0.41005c0.40997,0.27004 0.77994,0.60008 1.08991,1.00014c0.30998,0.38005 0.55996,0.81011 0.74995,1.28017c0.18998,0.46007 0.27997,0.88012 0.27997,1.27018c-0.01,0.54007 -0.16998,1.01013 -0.48996,1.41019c-0.31997,0.42006 -0.71994,0.7501 -1.20991,1.01014c-0.47996,0.26003 -0.99992,0.47006 -1.52988,0.61008c-0.52996,0.14002 -1.04992,0.21003 -1.52988,0.21003c-0.77994,-0.01 -1.49989,-0.07 -2.17983,-0.17002c-0.67995,-0.10002 -1.42989,-0.16003 -2.24983,-0.17003c-0.58996,0 -1.24991,-0.02 -2.00985,-0.05c-0.74994,-0.03 -1.41989,0.12002 -1.99985,0.45006l-8.51934,-0.07c-0.33997,0.29004 -0.71994,0.53008 -1.12991,0.7201c-0.40997,0.19003 -0.83994,0.28004 -1.2699,0.28004c-0.58995,-0.01 -1.00992,-0.13002 -1.2799,-0.37005c-0.25998,-0.25004 -0.65995,-0.43006 -1.18991,-0.53007c-0.09999,0 -0.29998,-0.01 -0.61995,-0.03c-0.31997,-0.03 -0.66995,-0.08 -1.04992,-0.13002c-0.38997,-0.05 -0.74994,-0.09 -1.08992,-0.11002c-0.34997,-0.03 -0.53996,-0.04 -0.58995,-0.04c-0.13999,-0.01 -0.36997,-0.05 -0.68995,-0.12001c-0.30998,-0.08 -0.64995,-0.16002 -1.00992,-0.27004c-0.36996,-0.10003 -0.69993,-0.19004 -1.01991,-0.26005c-0.30998,-0.07 -0.53996,-0.13002 -0.68995,-0.19002c-0.62995,-0.25004 -0.98992,-0.54008 -1.07992,-0.88013z" fill="#141515" stroke="none" stroke-width="0.26458" stroke-miterlimit="10"/><path d="M173.50607,357.03821c-0.09999,-0.34004 -0.13999,-0.73009 -0.13999,-1.17015c0.01,-0.43006 0.05999,-0.89013 0.15999,-1.38019c0.09999,-0.48007 0.25998,-0.94013 0.47996,-1.38019c0.22998,-0.43006 0.52996,-0.79011 0.91993,-1.08015c0.39997,-0.29004 0.84993,-0.40005 1.38989,-0.35005c0.23998,0 0.73994,0 1.48989,-0.03c0.74994,-0.01 1.2499,-0.02 1.48989,-0.02c1.06992,0.01 2.07984,0.08 3.01977,0.21003c0.94993,0.13002 1.92985,0.20003 2.93977,0.21003l1.60988,0.01c0.13999,-0.04 0.24998,-0.23003 0.32997,-0.54007c0.07999,-0.32005 0.14999,-0.6801 0.22998,-1.09015c0.06999,-0.41006 0.12999,-0.82011 0.14999,-1.24017c0.03,-0.41006 0.06999,-0.68009 0.11999,-0.83011c-0.01,-4.07056 0.06999,-8.0211 0.24998,-11.83162c0.17999,-3.80052 0.27998,-7.67105 0.31998,-11.60158c0,-0.19003 -0.01,-0.45006 -0.03,-0.77011c-0.02,-0.31004 -0.03,-0.49007 -0.03,-0.54007c0,-0.63009 0,-1.4302 -0.02,-2.40033c-0.02,-0.97013 -0.03,-1.90026 -0.05,-2.80038c-0.01,-0.90013 -0.06,-2.03028 -0.14999,-3.39047l-0.20998,-0.44005l-10.54919,-0.09c-0.82994,-0.01 -1.51988,-0.34005 -2.06984,-1.00014c-0.54996,-0.66009 -0.82994,-1.35018 -0.81994,-2.08028c0.01,-1.70024 0.51996,-2.76038 1.51988,-3.19044c0.99992,-0.43006 2.26983,-0.63008 3.82971,-0.62008h0.13999c0.43997,0 1.20991,0.02 2.29982,0.06c1.07992,0.03 2.21983,0.06 3.40974,0.10001c1.18991,0.03 2.31982,0.08 3.38974,0.14002c1.05992,0.05 1.81986,0.09 2.24983,0.09c0.77994,0.20003 1.41989,0.57008 1.91985,1.11015c0.50996,0.54007 0.88993,1.17016 1.14991,1.90026c0.25998,0.7301 0.42997,1.4902 0.51996,2.26031c0.09,0.78011 0.13999,1.53021 0.12999,2.26031c-0.01,0.97013 -0.08,1.89026 -0.20998,2.76038c-0.11999,0.87011 -0.18999,1.79024 -0.19999,2.77037c-0.01,0.97014 0.04,1.90026 0.15999,2.80039c0.10999,0.90012 0.15999,1.83025 0.14999,2.80038l-0.01,1.68023c0,0.53007 -0.12999,1.06014 -0.37997,1.59021l-0.17999,20.74284l0.28998,0.58007c0.04,0.10002 0.13999,0.25004 0.27998,0.45007l9.67926,0.08c0.47996,0.01 0.92993,0.14002 1.3399,0.41005c0.40997,0.27004 0.77994,0.60008 1.08991,1.00014c0.30998,0.38005 0.55996,0.81011 0.74995,1.28017c0.18998,0.46007 0.27997,0.88012 0.27997,1.27018c-0.01,0.54007 -0.16998,1.01013 -0.48996,1.41019c-0.31997,0.42006 -0.71994,0.7501 -1.20991,1.01014c-0.47996,0.26003 -0.99992,0.47006 -1.52988,0.61008c-0.52996,0.14002 -1.04992,0.21003 -1.52988,0.21003c-0.77994,-0.01 -1.49989,-0.07 -2.17983,-0.17002c-0.67995,-0.10002 -1.42989,-0.16003 -2.24983,-0.17003c-0.58996,0 -1.24991,-0.02 -2.00985,-0.05c-0.74994,-0.03 -1.41989,0.12002 -1.99985,0.45006l-8.51934,-0.07c-0.33997,0.29004 -0.71994,0.53008 -1.12991,0.7201c-0.40997,0.19003 -0.83994,0.28004 -1.2699,0.28004c-0.58995,-0.01 -1.00992,-0.13002 -1.2799,-0.37005c-0.25998,-0.25004 -0.65995,-0.43006 -1.18991,-0.53007c-0.09999,0 -0.29998,-0.01 -0.61995,-0.03c-0.31997,-0.03 -0.66995,-0.08 -1.04992,-0.13002c-0.38997,-0.05 -0.74994,-0.09 -1.08992,-0.11002c-0.34997,-0.03 -0.53996,-0.04 -0.58995,-0.04c-0.13999,-0.01 -0.36997,-0.05 -0.68995,-0.12001c-0.30998,-0.08 -0.64995,-0.16002 -1.00992,-0.27004c-0.36996,-0.10003 -0.69993,-0.19004 -1.01991,-0.26005c-0.30998,-0.07 -0.53996,-0.13002 -0.68995,-0.19002c-0.62995,-0.25004 -0.98992,-0.54008 -1.07992,-0.88013" fill="none" stroke="#3eb311" stroke-width="0.10999" stroke-miterlimit="4"/></g></g></svg>