<svg version="1.1" xmlns="http://www.w3.org/2000/svg" xmlns:xlink="http://www.w3.org/1999/xlink" width="64.54855" height="97.20303" viewBox="0,0,64.54855,97.20303"><g transform="translate(-156.20675,-286.30791)"><g data-paper-data="{&quot;isPaintingLayer&quot;:true}" fill-rule="nonzero" stroke-linecap="butt" stroke-linejoin="miter" stroke-dasharray="" stroke-dashoffset="0" style="mix-blend-mode: normal"><path d="M203.42167,289.14686c9.19995,-0.07975 16.72119,7.31229 16.80094,16.50926l0.53205,60.80296c0.07975,9.19995 -7.31229,16.72119 -16.50945,16.80094l-28.75076,0.25022c-9.19604,0.08384 -16.72119,-7.30932 -16.80094,-16.50926l-0.52815,-60.80296c-0.07975,-9.19604 7.3095,-16.72119 16.50945,-16.80094z" fill-opacity="0.69804" fill="#0f150e" stroke="none" stroke-width="1" stroke-miterlimit="10"/><path d="M201.46393,286.30856c9.19929,-0.08001 16.71871,7.311 16.79871,16.51225l0.52996,60.8083c0.07999,9.20126 -7.30944,16.7323 -16.50873,16.8123l-28.7478,0.25003c-9.19929,0.08001 -16.71871,-7.311 -16.79871,-16.51225l-0.52996,-60.8183c-0.07999,-9.19126 7.30944,-16.72229 16.50874,-16.8023z" fill="#77b074" stroke="none" stroke-width="0.26458" stroke-miterlimit="10"/><path d="M210.98321,365.05932c-0.23998,2.29031 -0.65995,3.76052 -1.26991,4.4106c-0.60995,0.65009 -1.94985,1.13016 -4.03969,1.4302c-1.49988,0.17002 -5.67956,0.46006 -12.53903,0.88012c-6.85947,0.41005 -12.04908,0.6601 -15.56881,0.7301c-1.58987,0.05 -2.85978,0.07 -3.79971,0.04c-0.93992,-0.02 -1.84985,-0.13002 -2.72979,-0.33005c-0.87993,-0.19002 -1.52988,-0.43005 -1.94985,-0.70009c-0.42996,-0.27004 -0.83993,-0.7201 -1.2399,-1.37019c-0.39997,-0.64009 -0.70995,-1.33018 -0.93993,-2.06028c-0.20998,-0.7401 -0.46996,-1.76024 -0.76994,-3.06042c-0.78994,-3.63049 -1.2999,-7.52103 -1.54988,-11.69159c-0.23999,-4.15057 -0.26999,-10.10138 -0.09,-17.82243c0.07999,-6.22085 0.03999,-10.84149 -0.11999,-13.83189c-0.14999,-2.99041 -0.50997,-5.8508 -1.06992,-8.57117c-1.07992,-4.88067 -1.47989,-8.17112 -1.20991,-9.90135c0.14999,-0.6901 0.32998,-1.19017 0.53996,-1.52021c0.20998,-0.32005 0.62995,-0.63009 1.2499,-0.94013c0.75994,-0.37005 3.9197,-0.90012 9.48927,-1.58022c5.55958,-0.68009 11.00916,-1.24017 16.33875,-1.66022c3.54973,-0.18003 5.39959,-0.30005 5.52958,-0.37005c0.03999,0 1.11991,0.02 3.22975,0.06c3.06976,0.18002 5.05961,0.68009 5.97954,1.5002c0.56996,0.49007 0.94993,1.24017 1.13991,2.23031c0.18999,0.99013 0.42997,3.43046 0.72995,7.30099c0.33997,4.73065 0.91992,10.45143 1.73986,17.16235c0.99993,8.54116 1.62988,14.29195 1.89986,17.24235c0.27997,2.9604 0.55995,6.75092 0.84993,11.37155c0.30998,5.8208 0.35997,9.5013 0.16999,11.05151z" fill="#fefefe" stroke="none" stroke-width="0.26458" stroke-miterlimit="10"/><path d="M166.79659,358.82846c-0.1,-0.33005 -0.13999,-0.7301 -0.13999,-1.17016c0,-0.43006 0.06,-0.89012 0.15999,-1.37019c0.1,-0.49007 0.25998,-0.95013 0.48996,-1.39019c0.21998,-0.43006 0.51996,-0.79011 0.90993,-1.08015c0.39997,-0.28003 0.85994,-0.40005 1.38989,-0.35004c0.23999,0.01 0.73995,0 1.48989,-0.02c0.74994,-0.02 1.2499,-0.03 1.48989,-0.03c1.06991,0.01 2.07984,0.08 3.01976,0.21003c0.94993,0.14001 1.92986,0.20002 2.94978,0.21002l1.59987,0.02c0.13999,-0.05 0.24999,-0.23003 0.32998,-0.55007c0.08,-0.31005 0.14999,-0.6701 0.22998,-1.09015c0.07,-0.41006 0.12999,-0.82011 0.14999,-1.24017c0.03,-0.41006 0.07,-0.6801 0.11999,-0.83012c-0.01,-4.07055 0.07,-8.02109 0.24998,-11.82161c0.17999,-3.81052 0.27998,-7.68105 0.31998,-11.61158c0,-0.19003 -0.01,-0.44006 -0.03,-0.76011c-0.02,-0.32004 -0.03,-0.50007 -0.03,-0.55007c0.01,-0.63009 0,-1.4202 -0.02,-2.40033c-0.01,-0.97013 -0.03,-1.90026 -0.05,-2.80038c-0.01,-0.90013 -0.06,-2.03028 -0.14999,-3.39047l-0.20999,-0.44006l-10.54919,-0.09c-0.82993,-0.01 -1.51988,-0.34004 -2.06984,-0.99013c-0.54995,-0.67009 -0.81993,-1.36019 -0.81993,-2.09029c0.02,-1.70023 0.51996,-2.76037 1.51988,-3.19043c0.99992,-0.42006 2.26983,-0.63009 3.82971,-0.62009h0.13998c0.43997,0.01 1.20991,0.03 2.29983,0.06c1.08991,0.03 2.22983,0.06 3.40974,0.11002c1.18991,0.03 2.31982,0.07 3.38974,0.13002c1.05991,0.06 1.81986,0.09 2.24982,0.09c0.77994,0.20002 1.41989,0.58007 1.91986,1.11015c0.50996,0.54007 0.88993,1.17016 1.14991,1.90026c0.25998,0.7301 0.42997,1.4902 0.51996,2.26031c0.1,0.7801 0.13999,1.5302 0.12999,2.2603c-0.01,0.97014 -0.08,1.89026 -0.19999,2.77038c-0.12999,0.87012 -0.19998,1.79024 -0.20998,2.76038c-0.01,0.97013 0.04,1.90026 0.15999,2.80038c0.10999,0.90012 0.15998,1.83025 0.14999,2.81038l-0.01,1.67023c0,0.53008 -0.12999,1.06015 -0.37997,1.60022l-0.17999,20.74283l0.28998,0.58008c0.04,0.10001 0.13999,0.24003 0.27998,0.44006l9.67925,0.08c0.48997,0.01 0.92993,0.15002 1.3399,0.41006c0.40997,0.27003 0.77994,0.61008 1.08992,1.00013c0.30997,0.39006 0.55995,0.81011 0.74994,1.28018c0.18998,0.46006 0.27998,0.88012 0.27998,1.27017c-0.01,0.54008 -0.16999,1.01014 -0.48996,1.4102c-0.31998,0.42005 -0.71995,0.7501 -1.20991,1.01013c-0.47996,0.27004 -0.98993,0.47007 -1.52988,0.61009c-0.52996,0.14001 -1.03993,0.21002 -1.52989,0.21002c-0.77994,-0.01 -1.49988,-0.07 -2.17983,-0.17002c-0.67995,-0.10001 -1.42989,-0.16002 -2.24983,-0.17002c-0.58995,0 -1.2499,-0.02 -1.99984,-0.05c-0.75994,-0.03 -1.42989,0.12001 -2.00985,0.46006l-8.50935,-0.08c-0.34997,0.29004 -0.72994,0.53007 -1.13991,0.7201c-0.40997,0.19003 -0.83993,0.28004 -1.2699,0.28004c-0.58996,0 -1.00992,-0.13002 -1.2699,-0.37006c-0.26998,-0.25003 -0.66995,-0.42005 -1.19991,-0.52007c-0.1,0 -0.29998,-0.02 -0.61995,-0.04c-0.30998,-0.03 -0.65995,-0.08 -1.04992,-0.12001c-0.38997,-0.06 -0.74995,-0.09 -1.08992,-0.12002c-0.34997,-0.03 -0.53996,-0.04 -0.58995,-0.04c-0.13999,0 -0.36998,-0.05 -0.68995,-0.12002c-0.30998,-0.07 -0.64995,-0.16002 -1.00992,-0.26003c-0.35998,-0.10001 -0.69995,-0.19003 -1.01993,-0.27004c-0.30997,-0.07 -0.53995,-0.13002 -0.68994,-0.19002c-0.62995,-0.24004 -0.98993,-0.54008 -1.07992,-0.88012z" fill="#3eb311" stroke="none" stroke-width="0.26458" stroke-miterlimit="10"/><path d="M170.02634,357.78832c-0.09,-0.34005 -0.13999,-0.7301 -0.13999,-1.17016c0.01,-0.43006 0.06,-0.89012 0.15999,-1.38019c0.1,-0.48007 0.26998,-0.95013 0.48996,-1.38019c0.21999,-0.43006 0.52996,-0.80011 0.91993,-1.08015c0.38997,-0.29004 0.84994,-0.41005 1.3799,-0.35005c0.24998,0 0.73994,-0.01 1.48988,-0.03c0.75994,-0.02 1.24991,-0.03 1.49989,-0.02c1.05992,0.01 2.06984,0.08 3.00977,0.21003c0.94992,0.13002 1.92985,0.19003 2.94977,0.21003l1.59988,0.01c0.14999,-0.05 0.25998,-0.23003 0.32997,-0.54007c0.08,-0.32005 0.14999,-0.68009 0.22998,-1.09015c0.08,-0.41006 0.12999,-0.83012 0.15999,-1.24017c0.02,-0.41006 0.06,-0.6901 0.10999,-0.84011c-0.01,-4.07056 0.07,-8.0111 0.24998,-11.82162c0.17999,-3.81052 0.28998,-7.67104 0.31998,-11.60158c0,-0.19003 -0.01,-0.45006 -0.03,-0.77011c-0.02,-0.31004 -0.03,-0.50007 -0.03,-0.54007c0.01,-0.63009 0,-1.4302 -0.01,-2.40033c-0.02,-0.97013 -0.04,-1.91026 -0.05,-2.80038c-0.02,-0.91012 -0.07,-2.03028 -0.15999,-3.39046l-0.20998,-0.45007l-10.54919,-0.09c-0.82994,0 -1.51989,-0.34004 -2.06984,-0.99013c-0.54996,-0.66009 -0.81994,-1.36019 -0.81994,-2.08029c0.02,-1.70023 0.52996,-2.77037 1.52988,-3.19043c0.98992,-0.43006 2.26983,-0.64009 3.81971,-0.62009h0.14999c0.42996,0 1.1999,0.02 2.28982,0.05c1.08992,0.04 2.22983,0.07 3.41974,0.11002c1.18991,0.03 2.30982,0.08 3.37974,0.13002c1.06991,0.06 1.81986,0.09 2.24982,0.10001c0.77995,0.20003 1.4199,0.57008 1.92986,1.11015c0.49996,0.54007 0.87993,1.17016 1.13991,1.90026c0.25998,0.7301 0.43997,1.4802 0.52996,2.26031c0.09,0.7701 0.12999,1.53021 0.11999,2.26031c0,0.97013 -0.07,1.88025 -0.19998,2.76037c-0.12999,0.87012 -0.19999,1.79025 -0.20999,2.76038c-0.01,0.97013 0.04,1.90026 0.15999,2.80038c0.10999,0.91013 0.16999,1.84025 0.15999,2.81039l-0.02,1.67023c0,0.54007 -0.12999,1.07014 -0.37997,1.60021l-0.17999,20.74283l0.28998,0.58008c0.05,0.10001 0.13999,0.25003 0.28998,0.44006l9.66925,0.08c0.48997,0.01 0.93993,0.15002 1.3499,0.42006c0.40997,0.27003 0.76994,0.60008 1.07992,0.99013c0.30997,0.39005 0.55995,0.82011 0.74994,1.28017c0.18998,0.47007 0.28998,0.89012 0.27998,1.28018c0,0.53007 -0.15999,1.00013 -0.47997,1.41019c-0.31997,0.41006 -0.72994,0.7401 -1.2099,1.01014c-0.48997,0.26004 -0.99993,0.46006 -1.53988,0.61008c-0.52996,0.13002 -1.03992,0.21003 -1.51989,0.20003c-0.77994,0 -1.50988,-0.06 -2.18983,-0.16002c-0.66995,-0.11002 -1.42989,-0.17002 -2.24983,-0.18003c-0.57995,0 -1.2499,-0.02 -1.99984,-0.05c-0.75994,-0.03 -1.41989,0.13002 -2.00985,0.46007l-8.50934,-0.07c-0.33998,0.28004 -0.71995,0.52007 -1.13992,0.7201c-0.40997,0.19002 -0.83993,0.28004 -1.2699,0.27003c-0.58995,0 -1.00992,-0.12001 -1.2699,-0.37005c-0.26998,-0.25003 -0.65995,-0.42005 -1.19991,-0.52007c-0.1,0 -0.29998,-0.01 -0.60995,-0.04c-0.31998,-0.03 -0.66995,-0.07 -1.05992,-0.12001c-0.38997,-0.05 -0.74994,-0.09 -1.08992,-0.12002c-0.33997,-0.02 -0.52996,-0.04 -0.57995,-0.04c-0.14999,0 -0.37997,-0.04 -0.68995,-0.12002c-0.31998,-0.07 -0.64995,-0.15002 -1.01992,-0.26003c-0.35997,-0.10002 -0.69995,-0.19003 -1.00992,-0.26004c-0.31998,-0.08 -0.54996,-0.14002 -0.69995,-0.19003c-0.61995,-0.25003 -0.98993,-0.55007 -1.07992,-0.88011z" fill="#fefefe" stroke="none" stroke-width="0.26458" stroke-miterlimit="10"/><path d="M170.02634,357.78832c-0.09,-0.34005 -0.13999,-0.7301 -0.13999,-1.17016c0.01,-0.43006 0.06,-0.89012 0.15999,-1.38019c0.1,-0.48007 0.26998,-0.95013 0.48996,-1.38019c0.21999,-0.43006 0.52996,-0.80011 0.91993,-1.08015c0.38997,-0.29004 0.84994,-0.41005 1.3799,-0.35005c0.24998,0 0.73994,-0.01 1.48988,-0.03c0.75994,-0.02 1.24991,-0.03 1.49989,-0.02c1.05992,0.01 2.06984,0.08 3.00977,0.21003c0.94992,0.13002 1.92985,0.19003 2.94977,0.21003l1.59988,0.01c0.14999,-0.05 0.25998,-0.23003 0.32997,-0.54007c0.08,-0.32005 0.14999,-0.68009 0.22998,-1.09015c0.08,-0.41006 0.12999,-0.83012 0.15999,-1.24017c0.02,-0.41006 0.06,-0.6901 0.10999,-0.84011c-0.01,-4.07056 0.07,-8.0111 0.24998,-11.82162c0.17999,-3.81052 0.28998,-7.67104 0.31998,-11.60158c0,-0.19003 -0.01,-0.45006 -0.03,-0.77011c-0.02,-0.31004 -0.03,-0.50007 -0.03,-0.54007c0.01,-0.63009 0,-1.4302 -0.01,-2.40033c-0.02,-0.97013 -0.04,-1.91026 -0.05,-2.80038c-0.02,-0.91012 -0.07,-2.03028 -0.15999,-3.39046l-0.20998,-0.45007l-10.54919,-0.09c-0.82994,0 -1.51989,-0.34004 -2.06984,-0.99013c-0.54996,-0.66009 -0.81994,-1.36019 -0.81994,-2.08029c0.02,-1.70023 0.52996,-2.77037 1.52988,-3.19043c0.98992,-0.43006 2.26983,-0.64009 3.81971,-0.62009h0.14999c0.42996,0 1.1999,0.02 2.28982,0.05c1.08992,0.04 2.22983,0.07 3.41974,0.11002c1.18991,0.03 2.30982,0.08 3.37974,0.13002c1.06991,0.06 1.81986,0.09 2.24982,0.10001c0.77995,0.20003 1.4199,0.57008 1.92986,1.11015c0.49996,0.54007 0.87993,1.17016 1.13991,1.90026c0.25998,0.7301 0.43997,1.4802 0.52996,2.26031c0.09,0.7701 0.12999,1.53021 0.11999,2.26031c0,0.97013 -0.07,1.88025 -0.19998,2.76037c-0.12999,0.87012 -0.19999,1.79025 -0.20999,2.76038c-0.01,0.97013 0.04,1.90026 0.15999,2.80038c0.10999,0.91013 0.16999,1.84025 0.15999,2.81039l-0.02,1.67023c0,0.54007 -0.12999,1.07014 -0.37997,1.60021l-0.17999,20.74283l0.28998,0.58008c0.05,0.10001 0.13999,0.25003 0.28998,0.44006l9.66925,0.08c0.48997,0.01 0.93993,0.15002 1.3499,0.42006c0.40997,0.27003 0.76994,0.60008 1.07992,0.99013c0.30997,0.39005 0.55995,0.82011 0.74994,1.28017c0.18998,0.47007 0.28998,0.89012 0.27998,1.28018c0,0.53007 -0.15999,1.00013 -0.47997,1.41019c-0.31997,0.41006 -0.72994,0.7401 -1.2099,1.01014c-0.48997,0.26004 -0.99993,0.46006 -1.53988,0.61008c-0.52996,0.13002 -1.03992,0.21003 -1.51989,0.20003c-0.77994,0 -1.50988,-0.06 -2.18983,-0.16002c-0.66995,-0.11002 -1.42989,-0.17002 -2.24983,-0.18003c-0.57995,0 -1.2499,-0.02 -1.99984,-0.05c-0.75994,-0.03 -1.41989,0.13002 -2.00985,0.46007l-8.50934,-0.07c-0.33998,0.28004 -0.71995,0.52007 -1.13992,0.7201c-0.40997,0.19002 -0.83993,0.28004 -1.2699,0.27003c-0.58995,0 -1.00992,-0.12001 -1.2699,-0.37005c-0.26998,-0.25003 -0.65995,-0.42005 -1.19991,-0.52007c-0.1,0 -0.29998,-0.01 -0.60995,-0.04c-0.31998,-0.03 -0.66995,-0.07 -1.05992,-0.12001c-0.38997,-0.05 -0.74994,-0.09 -1.08992,-0.12002c-0.33997,-0.02 -0.52996,-0.04 -0.57995,-0.04c-0.14999,0 -0.37997,-0.04 -0.68995,-0.12002c-0.31998,-0.07 -0.64995,-0.15002 -1.01992,-0.26003c-0.35997,-0.10002 -0.69995,-0.19003 -1.00992,-0.26004c-0.31998,-0.08 -0.54996,-0.14002 -0.69995,-0.19003c-0.61995,-0.25003 -0.98993,-0.55007 -1.07992,-0.88011" fill="none" stroke="#3eb311" stroke-width="0.10999" stroke-miterlimit="4"/></g></g></svg>