<svg version="1.1" xmlns="http://www.w3.org/2000/svg" xmlns:xlink="http://www.w3.org/1999/xlink" width="64.54855" height="97.20302" viewBox="0,0,64.54855,97.20302"><g transform="translate(-156.20675,-286.30792)"><g data-paper-data="{&quot;isPaintingLayer&quot;:true}" fill-rule="nonzero" stroke-linecap="butt" stroke-linejoin="miter" stroke-dasharray="" stroke-dashoffset="0" style="mix-blend-mode: normal"><path d="M203.42167,289.14686c9.19995,-0.07975 16.72119,7.31229 16.80094,16.50926l0.53205,60.80296c0.07975,9.19995 -7.31229,16.72119 -16.50945,16.80094l-28.75076,0.25022c-9.19604,0.08384 -16.72119,-7.30932 -16.80094,-16.50926l-0.52815,-60.80296c-0.07975,-9.19604 7.3095,-16.72119 16.50945,-16.80094z" fill-opacity="0.69804" fill="#0f150e" stroke="none" stroke-width="1" stroke-miterlimit="10"/><path d="M201.46393,286.30856c9.19929,-0.08001 16.71871,7.311 16.79871,16.51226l0.52996,60.8083c0.07999,9.20126 -7.30944,16.73229 -16.50874,16.81229l-28.74779,0.25004c-9.19929,0.08001 -16.71872,-7.311 -16.79871,-16.51226l-0.52996,-60.8183c-0.07999,-9.19125 7.30944,-16.72228 16.50873,-16.80229z" fill="#77b074" stroke="none" stroke-width="0.26458" stroke-miterlimit="10"/><path d="M211.96311,365.59939c-0.23998,2.30032 -0.66995,3.77052 -1.2799,4.42061c-0.59996,0.65009 -1.94985,1.12015 -4.02969,1.43019c-1.49989,0.17003 -5.67957,0.46006 -12.53904,0.87012c-6.85947,0.42006 -12.04907,0.6601 -15.5688,0.7301c-1.58988,0.06 -2.85978,0.07 -3.79971,0.05c-0.93993,-0.02 -1.84986,-0.14002 -2.72979,-0.33004c-0.87993,-0.20003 -1.52988,-0.43006 -1.95985,-0.7001c-0.41997,-0.27004 -0.82994,-0.7301 -1.22991,-1.37019c-0.39997,-0.64008 -0.71994,-1.33018 -0.93993,-2.07028c-0.21998,-0.7301 -0.47996,-1.75024 -0.77994,-3.06042c-0.77994,-3.62049 -1.2999,-7.52102 -1.53988,-11.68159c-0.24998,-4.16057 -0.26998,-10.10138 -0.08999,-17.82244c0.07999,-6.23085 0.04,-10.84148 -0.11999,-13.83189c-0.15999,-3.00041 -0.50996,-5.8508 -1.06992,-8.58117c-1.07992,-4.87066 -1.48989,-8.17111 -1.20991,-9.89135c0.14999,-0.69009 0.31998,-1.20016 0.53996,-1.52021c0.20998,-0.32004 0.62995,-0.64008 1.2499,-0.95012c0.75994,-0.36005 3.9197,-0.89013 9.47927,-1.58022c5.56957,-0.68009 11.00915,-1.23017 16.33874,-1.65023c3.55973,-0.18002 5.39959,-0.31005 5.53958,-0.37005c0.04,0 1.11991,0.02 3.21975,0.06c3.07976,0.18003 5.06961,0.6701 5.97954,1.50021c0.57996,0.49007 0.95993,1.23017 1.14992,2.2303c0.18998,0.99014 0.42996,3.42047 0.72994,7.301c0.33997,4.73065 0.91993,10.45143 1.72987,17.16234c0.99992,8.53117 1.63987,14.28195 1.90985,17.24236c0.26998,2.9604 0.54996,6.75092 0.84993,11.37155c0.29998,5.8108 0.35998,9.4913 0.16999,11.04151z" fill="#fefefe" stroke="none" stroke-width="0.26458" stroke-miterlimit="10"/><path d="M181.94542,348.29702c0.77994,-2.85039 1.65988,-5.66078 2.6598,-8.41115c0.14999,-0.39006 0.36997,-0.7301 0.66995,-1.02014c0.28998,-0.28004 0.55996,-0.60008 0.79994,-0.94013c0.24998,-0.38005 0.42996,-0.81011 0.55995,-1.26017c0.12,-0.47007 0.30998,-0.88012 0.54996,-1.27018c0.49996,-0.7301 1.10992,-1.61022 1.84986,-2.65036c0.73994,-1.03014 1.44989,-2.10029 2.13984,-3.21044c0.68994,-1.11015 1.2699,-2.2203 1.73986,-3.34045c0.45997,-1.11016 0.69995,-2.08029 0.70995,-2.9004c0,-0.10001 -0.01,-0.22003 -0.03,-0.37005c-0.02,-0.14002 -0.12999,-0.24003 -0.31998,-0.29004c-0.14999,0 -0.37997,-0.02 -0.68995,-0.04c-0.31997,-0.03 -0.64994,-0.06 -0.98992,-0.08c-0.33997,-0.03 -0.66995,-0.07 -0.97992,-0.12001c-0.30998,-0.05 -0.53996,-0.08 -0.68995,-0.08c-0.14999,0 -0.42997,-0.06 -0.86993,-0.19003c-0.43997,-0.12002 -0.72995,-0.26004 -0.86994,-0.41005l-4.25967,-4.03056c-0.33997,-0.30004 -0.64995,-0.47006 -0.93992,-0.52007c-0.28998,-0.06 -0.62996,-0.08 -1.01993,-0.08c-0.77994,-0.01 -1.49988,0.15003 -2.18983,0.49007c-0.67995,0.33005 -1.2599,0.77011 -1.74986,1.33018c-0.48997,0.55008 -0.87994,1.19017 -1.14992,1.92027c-0.26998,0.72009 -0.40996,1.44019 -0.41996,2.17029c-0.01,0.78011 0.05,1.53021 0.15998,2.26031c0.11999,0.7301 0.16999,1.4602 0.16999,2.1903c-0.01,0.58008 -0.06,1.17016 -0.16999,1.78024c-0.1,0.60009 -0.28997,1.17016 -0.55995,1.70024c-0.26998,0.54007 -0.60996,0.97013 -1.02992,1.30017c-0.40997,0.34005 -0.93993,0.50007 -1.55988,0.50007c-0.82994,-0.01 -1.59988,-0.37005 -2.31982,-1.08015c-0.72994,-0.71009 -1.07992,-1.4902 -1.06992,-2.37032l0.09999,-12.22167c-0.23998,-0.54007 -0.35997,-0.99013 -0.38997,-1.35018c-0.02,-0.37005 -0.03,-0.82011 -0.02,-1.35019c0.01,-1.12015 0.26998,-2.18029 0.78994,-3.19043c0.51996,-1.02014 1.45989,-1.52021 2.81978,-1.51021c0.76994,0 1.39989,0.20003 1.87986,0.60008c0.48996,0.39006 1.08991,0.59008 1.81986,0.60009c0.42996,0 0.82993,-0.07 1.1999,-0.21003c0.35998,-0.14002 0.72995,-0.31005 1.08992,-0.50007c0.36997,-0.19003 0.72994,-0.36005 1.09992,-0.50007c0.36997,-0.14002 0.73994,-0.22003 1.12991,-0.21003c1.20991,0.01 2.30982,0.36005 3.29975,1.05014c0.98992,0.6801 1.92985,1.4602 2.81978,2.31032c0.88993,0.86012 1.71987,1.63022 2.48981,2.32032c0.76994,0.68009 1.53988,1.03014 2.31982,1.04014c0.76994,0.01 1.3399,-0.29004 1.67987,-0.86012c0.34997,-0.58008 0.63995,-1.21016 0.88993,-1.88026c0.24998,-0.68009 0.55996,-1.31017 0.92993,-1.89025c0.36997,-0.58008 0.95993,-0.86012 1.78986,-0.86012c0.67995,0.01 1.21991,0.23003 1.62988,0.67009c0.40997,0.44006 0.71994,0.98013 0.92993,1.62022c0.21998,0.62009 0.33997,1.28018 0.37997,1.96027c0.04,0.68009 0.07,1.26017 0.06,1.74024c0,0.25003 -0.03,0.7301 -0.08,1.4602c-0.25998,1.84025 -0.56996,3.57048 -0.91993,5.20071c-0.35997,1.62022 -0.78994,3.20043 -1.3199,4.75064c-0.51996,1.55022 -1.12991,3.09043 -1.81986,4.61063c-0.68995,1.52021 -1.47989,3.10043 -2.36982,4.74065c-0.58996,1.11015 -1.21991,2.22031 -1.87985,3.33045c-0.66995,1.11016 -1.29991,2.22031 -1.88986,3.33046c-0.58995,1.12016 -1.09992,2.27031 -1.51988,3.49048c-0.42997,1.20016 -0.68995,2.46034 -0.79994,3.77052c0,0.29004 -0.03,0.81011 -0.08,1.56021c-0.06,0.7501 -0.1,1.55021 -0.13999,2.41033c-0.03,0.84011 -0.06,1.64022 -0.09,2.39032c-0.03,0.76011 -0.05,1.28018 -0.05,1.57022c-0.14999,0.87012 -0.56996,1.70023 -1.25991,2.50034c-0.67994,0.79011 -1.50988,1.19016 -2.47981,1.18016c-0.67994,0 -1.2099,-0.21003 -1.59987,-0.60008c-0.37997,-0.39005 -0.78994,-0.85012 -1.21991,-1.39019c-0.38997,-0.49007 -0.57995,-1.14016 -0.56995,-1.97027l0.02,-2.04028c0.02,-2.9104 0.41996,-5.79079 1.1999,-8.65118z" fill="#3eb311" stroke="none" stroke-width="0.26458" stroke-miterlimit="10"/><path d="M185.18518,347.23687c0.76994,-2.85039 1.65987,-5.66077 2.64979,-8.41115c0.14999,-0.39005 0.36997,-0.7301 0.66995,-1.02014c0.28998,-0.28004 0.55996,-0.60008 0.80994,-0.94013c0.23998,-0.39005 0.42997,-0.81011 0.54996,-1.27017c0.12999,-0.46006 0.30997,-0.88012 0.55995,-1.26017c0.48997,-0.7301 1.10992,-1.61022 1.83986,-2.65036c0.73994,-1.04015 1.44989,-2.11029 2.13984,-3.21044c0.68995,-1.12016 1.2699,-2.23031 1.73986,-3.34046c0.46997,-1.11015 0.70995,-2.08028 0.70995,-2.90039c0.01,-0.10002 -0.01,-0.22003 -0.03,-0.37006c-0.02,-0.14001 -0.12999,-0.24003 -0.31998,-0.29003c-0.14998,0 -0.37997,-0.02 -0.68994,-0.05c-0.31998,-0.02 -0.63995,-0.05 -0.98993,-0.08c-0.33997,-0.02 -0.65995,-0.06 -0.97992,-0.11002c-0.30998,-0.06 -0.53996,-0.08 -0.68995,-0.08c-0.13999,0 -0.42996,-0.07 -0.86993,-0.19002c-0.42997,-0.13002 -0.71995,-0.26004 -0.86993,-0.41006l-4.25968,-4.04055c-0.32997,-0.29004 -0.64995,-0.47007 -0.93993,-0.51007c-0.28997,-0.06 -0.62995,-0.08 -1.01992,-0.08c-0.76994,-0.01 -1.49988,0.15002 -2.17983,0.49006c-0.68995,0.33005 -1.2699,0.77011 -1.75986,1.32018c-0.48997,0.56008 -0.86994,1.20017 -1.13992,1.93027c-0.27998,0.7201 -0.41996,1.44019 -0.42996,2.1703c0,0.7801 0.05,1.5302 0.16998,2.2603c0.10999,0.7301 0.15999,1.4602 0.15999,2.1903c-0.01,0.58008 -0.06,1.17016 -0.15999,1.78025c-0.10999,0.60008 -0.28997,1.17015 -0.55995,1.70023c-0.27998,0.53007 -0.61996,0.97013 -1.02992,1.30017c-0.41997,0.34005 -0.93993,0.50007 -1.56988,0.50007c-0.82994,-0.01 -1.59988,-0.37005 -2.31983,-1.08015c-0.71994,-0.71009 -1.07992,-1.5002 -1.06992,-2.37032l0.09999,-12.23167c-0.22998,-0.53007 -0.35997,-0.98013 -0.38997,-1.34018c-0.02,-0.37005 -0.02,-0.82011 -0.02,-1.36019c0.01,-1.11015 0.26998,-2.17029 0.78994,-3.19043c0.51996,-1.01014 1.45988,-1.52021 2.81978,-1.51021c0.76994,0.01 1.39989,0.21003 1.88985,0.61008c0.47997,0.39006 1.07992,0.59009 1.80987,0.59009c0.43996,0.01 0.83993,-0.06 1.1999,-0.20003c0.36998,-0.14002 0.72995,-0.31004 1.09992,-0.50007c0.36997,-0.19003 0.72994,-0.36005 1.09992,-0.51007c0.35997,-0.13002 0.73994,-0.21003 1.11991,-0.20003c1.20991,0.01 2.31982,0.36005 3.30975,1.05015c0.97992,0.68009 1.91985,1.4602 2.80978,2.31031c0.88993,0.86012 1.71987,1.63022 2.48981,2.32032c0.76994,0.68009 1.54988,1.03014 2.32982,1.04014c0.76994,0.01 1.3299,-0.29004 1.66987,-0.86012c0.34997,-0.58008 0.63995,-1.21016 0.88993,-1.88025c0.24998,-0.6801 0.55996,-1.32018 0.92993,-1.89026c0.36997,-0.58008 0.96993,-0.86012 1.78986,-0.86012c0.67995,0.01 1.21991,0.23003 1.62988,0.67009c0.40997,0.44006 0.71994,0.98014 0.92993,1.61022c0.21998,0.63009 0.33997,1.29018 0.38997,1.97027c0.04,0.68009 0.06,1.26017 0.06,1.74024c-0.01,0.24003 -0.04,0.7301 -0.09,1.4602c-0.25999,1.84025 -0.55996,3.57049 -0.91993,5.20071c-0.34998,1.62022 -0.78994,3.20043 -1.3099,4.75065c-0.52996,1.55021 -1.13991,3.09042 -1.82986,4.60062c-0.68995,1.53021 -1.47989,3.11043 -2.36982,4.75065c-0.58996,1.11015 -1.21991,2.22031 -1.87986,3.33046c-0.66995,1.11015 -1.2899,2.2203 -1.88985,3.33045c-0.58996,1.12016 -1.09992,2.27032 -1.51989,3.48048c-0.41996,1.21017 -0.68994,2.47034 -0.79993,3.78052c0,0.29004 -0.03,0.81011 -0.08,1.56021c-0.06,0.7501 -0.1,1.55021 -0.12999,2.41033c-0.03,0.84011 -0.07,1.64022 -0.1,2.39033c-0.03,0.7601 -0.04,1.28017 -0.05,1.57021c-0.14999,0.87012 -0.56996,1.70023 -1.24991,2.50034c-0.68995,0.79011 -1.51988,1.18016 -2.48981,1.18016c-0.67995,-0.01 -1.20991,-0.21003 -1.58988,-0.60008c-0.38997,-0.39005 -0.79994,-0.86012 -1.2299,-1.39019c-0.38997,-0.49007 -0.56996,-1.14016 -0.55996,-1.98027l0.01,-2.03028c0.03,-2.91039 0.42997,-5.79079 1.20991,-8.65118z" fill="#141515" stroke="none" stroke-width="0.26458" stroke-miterlimit="10"/><path d="M185.18518,347.23687c0.76994,-2.85039 1.65987,-5.66077 2.64979,-8.41115c0.14999,-0.39005 0.36997,-0.7301 0.66995,-1.02014c0.28998,-0.28004 0.55996,-0.60008 0.80994,-0.94013c0.23998,-0.39005 0.42997,-0.81011 0.54996,-1.27017c0.12999,-0.46006 0.30997,-0.88012 0.55995,-1.26017c0.48997,-0.7301 1.10992,-1.61022 1.83986,-2.65036c0.73994,-1.04015 1.44989,-2.11029 2.13984,-3.21044c0.68995,-1.12016 1.2699,-2.23031 1.73986,-3.34046c0.46997,-1.11015 0.70995,-2.08028 0.70995,-2.90039c0.01,-0.10002 -0.01,-0.22003 -0.03,-0.37006c-0.02,-0.14001 -0.12999,-0.24003 -0.31998,-0.29003c-0.14998,0 -0.37997,-0.02 -0.68994,-0.05c-0.31998,-0.02 -0.63995,-0.05 -0.98993,-0.08c-0.33997,-0.02 -0.65995,-0.06 -0.97992,-0.11002c-0.30998,-0.06 -0.53996,-0.08 -0.68995,-0.08c-0.13999,0 -0.42996,-0.07 -0.86993,-0.19002c-0.42997,-0.13002 -0.71995,-0.26004 -0.86993,-0.41006l-4.25968,-4.04055c-0.32997,-0.29004 -0.64995,-0.47007 -0.93993,-0.51007c-0.28997,-0.06 -0.62995,-0.08 -1.01992,-0.08c-0.76994,-0.01 -1.49988,0.15002 -2.17983,0.49006c-0.68995,0.33005 -1.2699,0.77011 -1.75986,1.32018c-0.48997,0.56008 -0.86994,1.20017 -1.13992,1.93027c-0.27998,0.7201 -0.41996,1.44019 -0.42996,2.1703c0,0.7801 0.05,1.5302 0.16998,2.2603c0.10999,0.7301 0.15999,1.4602 0.15999,2.1903c-0.01,0.58008 -0.06,1.17016 -0.15999,1.78025c-0.10999,0.60008 -0.28997,1.17015 -0.55995,1.70023c-0.27998,0.53007 -0.61996,0.97013 -1.02992,1.30017c-0.41997,0.34005 -0.93993,0.50007 -1.56988,0.50007c-0.82994,-0.01 -1.59988,-0.37005 -2.31983,-1.08015c-0.71994,-0.71009 -1.07992,-1.5002 -1.06992,-2.37032l0.09999,-12.23167c-0.22998,-0.53007 -0.35997,-0.98013 -0.38997,-1.34018c-0.02,-0.37005 -0.02,-0.82011 -0.02,-1.36019c0.01,-1.11015 0.26998,-2.17029 0.78994,-3.19043c0.51996,-1.01014 1.45988,-1.52021 2.81978,-1.51021c0.76994,0.01 1.39989,0.21003 1.88985,0.61008c0.47997,0.39006 1.07992,0.59009 1.80987,0.59009c0.43996,0.01 0.83993,-0.06 1.1999,-0.20003c0.36998,-0.14002 0.72995,-0.31004 1.09992,-0.50007c0.36997,-0.19003 0.72994,-0.36005 1.09992,-0.51007c0.35997,-0.13002 0.73994,-0.21003 1.11991,-0.20003c1.20991,0.01 2.31982,0.36005 3.30975,1.05015c0.97992,0.68009 1.91985,1.4602 2.80978,2.31031c0.88993,0.86012 1.71987,1.63022 2.48981,2.32032c0.76994,0.68009 1.54988,1.03014 2.32982,1.04014c0.76994,0.01 1.3299,-0.29004 1.66987,-0.86012c0.34997,-0.58008 0.63995,-1.21016 0.88993,-1.88025c0.24998,-0.6801 0.55996,-1.32018 0.92993,-1.89026c0.36997,-0.58008 0.96993,-0.86012 1.78986,-0.86012c0.67995,0.01 1.21991,0.23003 1.62988,0.67009c0.40997,0.44006 0.71994,0.98014 0.92993,1.61022c0.21998,0.63009 0.33997,1.29018 0.38997,1.97027c0.04,0.68009 0.06,1.26017 0.06,1.74024c-0.01,0.24003 -0.04,0.7301 -0.09,1.4602c-0.25999,1.84025 -0.55996,3.57049 -0.91993,5.20071c-0.34998,1.62022 -0.78994,3.20043 -1.3099,4.75065c-0.52996,1.55021 -1.13991,3.09042 -1.82986,4.60062c-0.68995,1.53021 -1.47989,3.11043 -2.36982,4.75065c-0.58996,1.11015 -1.21991,2.22031 -1.87986,3.33046c-0.66995,1.11015 -1.2899,2.2203 -1.88985,3.33045c-0.58996,1.12016 -1.09992,2.27032 -1.51989,3.48048c-0.41996,1.21017 -0.68994,2.47034 -0.79993,3.78052c0,0.29004 -0.03,0.81011 -0.08,1.56021c-0.06,0.7501 -0.1,1.55021 -0.12999,2.41033c-0.03,0.84011 -0.07,1.64022 -0.1,2.39033c-0.03,0.7601 -0.04,1.28017 -0.05,1.57021c-0.14999,0.87012 -0.56996,1.70023 -1.24991,2.50034c-0.68995,0.79011 -1.51988,1.18016 -2.48981,1.18016c-0.67995,-0.01 -1.20991,-0.21003 -1.58988,-0.60008c-0.38997,-0.39005 -0.79994,-0.86012 -1.2299,-1.39019c-0.38997,-0.49007 -0.56996,-1.14016 -0.55996,-1.98027l0.01,-2.03028c0.03,-2.91039 0.42997,-5.79079 1.20991,-8.65118" fill="none" stroke="#3eb311" stroke-width="0.10999" stroke-miterlimit="4"/></g></g></svg>