<svg version="1.1" xmlns="http://www.w3.org/2000/svg" xmlns:xlink="http://www.w3.org/1999/xlink" width="72.22952" height="10.10124" viewBox="0,0,72.22952,10.10124"><g transform="translate(-151.82274,-328.94938)"><g data-paper-data="{&quot;isPaintingLayer&quot;:true}" fill-rule="nonzero" stroke-linecap="butt" stroke-linejoin="miter" stroke-dasharray="" stroke-dashoffset="0" style="mix-blend-mode: normal"><path d="M152.69774,329.94938h66.55489c2.04984,0 4.79963,0.80011 4.79963,1.79024v5.52076c0,0.99013 -1.67987,1.79024 -3.72971,1.79024h-67.62481z" fill-opacity="0.53725" fill="#001712" stroke="none" stroke-width="0.26458" stroke-miterlimit="10"/><path d="M151.82274,328.94938h66.55489c2.04984,0 4.79963,0.80011 4.79963,1.79025v5.52075c0,0.99014 -1.67987,1.79025 -3.72971,1.79025h-67.62481z" fill="#008368" stroke="none" stroke-width="0.26458" stroke-miterlimit="10"/><path d="M153.23269,333.5999c0,-0.47006 0.07999,-0.93013 0.22998,-1.36019v0c0.04,-0.13001 0.08999,-0.26003 0.14999,-0.38005v0c0.01,-0.03 0.03,-0.06 0.04,-0.09v0c0.02,-0.04001 0.03,-0.07001 0.05,-0.10001v0c0.01,-0.03 0.03,-0.06 0.04,-0.09v0c0.02,-0.03 0.04,-0.06 0.05,-0.09v0c0.04,-0.05001 0.07,-0.11002 0.11,-0.17002v0c0.02,-0.03 0.04,-0.06 0.06,-0.09v0c0.01,-0.02 0.03,-0.05 0.05,-0.08v0c0.02,-0.03 0.04,-0.05 0.06,-0.08v0c0.02,-0.03 0.04,-0.06 0.07,-0.08c0.02,-0.03 0.04,-0.05 0.06,-0.08v0c0.02,-0.03 0.04,-0.05 0.06,-0.08v0c0.03,-0.02 0.05,-0.05 0.07,-0.07v0c0.02,-0.03 0.05,-0.05 0.07,-0.08v0c0.02,-0.02 0.05,-0.05 0.07,-0.07v0c0.03,-0.03 0.05,-0.05 0.07,-0.07v0c0.03,-0.03 0.05,-0.05 0.08,-0.07v0c0.02,-0.02 0.05,-0.05 0.07,-0.07v0c0.03,-0.02 0.06,-0.04 0.08,-0.06v0c0.03,-0.03 0.05,-0.05 0.08,-0.07v0c0.03,-0.02 0.06,-0.04 0.08,-0.06v0c0.03,-0.02 0.06,-0.04 0.08,-0.06v0c0.03,-0.02 0.06,-0.04 0.09,-0.06v0c0.03,-0.02 0.05,-0.04 0.08,-0.05v0c0.03,-0.02 0.06,-0.04 0.09,-0.06v0c0.03,-0.02 0.06,-0.03 0.09,-0.05v0c0.03,-0.02 0.06,-0.03 0.09,-0.05v0c0.06,-0.03 0.11999,-0.06 0.17999,-0.09v0c0.08999,-0.05002 0.18998,-0.09002 0.27998,-0.13002v0c0.03,-0.01 0.07,-0.02 0.1,-0.03v0c0.05999,-0.03 0.12998,-0.05 0.19998,-0.07v0c0.03,-0.01 0.06,-0.02 0.09,-0.03v0c0.03999,-0.01 0.06999,-0.02 0.10999,-0.03v0c0.32997,-0.08002 0.68995,-0.13002 1.04992,-0.13002v0c0.16998,0 0.33997,0.01 0.49996,0.03h0.02c0.03,0 0.06,0.01 0.09,0.01h0.01c0.03,0.01 0.06,0.01 0.09,0.02h0.01c0.03,0.01 0.06,0.01 0.09,0.02v0c0.03,0 0.07,0.01 0.1,0.02v0c0.03,0 0.06,0.01 0.09,0.02h0.01l0.08,0.02l0.03,0.01l0.07,0.02h0.02l0.08,0.03h0.01c0.03,0.01 0.06,0.02 0.08,0.03h0.01c0.30998,0.11002 0.59995,0.25004 0.86993,0.42006v0c0.03,0.02 0.05,0.04 0.08,0.05v0.01c0.03,0.01 0.05,0.03 0.08,0.05v0c0.03,0.02 0.05,0.04 0.08,0.05v0.01c0.02,0.01 0.05,0.03 0.07,0.05h0.01c0.02,0.02 0.05,0.04 0.07,0.06v0c0.34998,0.28004 0.65995,0.62008 0.90002,1.00004v0c0.02,0.02 0.04,0.05 0.05,0.08v0c0.02,0.03 0.04,0.05 0.05,0.08v0l0.05,0.08v0.01c0.03,0.05001 0.06,0.11002 0.09,0.16002v0.01c0.02,0.03 0.03,0.06 0.04,0.08l0.01,0.01l0.03,0.08l0.01,0.01c0.01,0.03 0.02,0.05 0.03,0.08v0.01c0.02,0.03 0.03,0.05 0.04,0.08v0.01c0.08999,0.24003 0.16998,0.49007 0.20998,0.7501v0.01c0.01,0.06 0.02,0.12002 0.03,0.18002l0.01,0.02c0,0.03 0,0.06 0.01,0.08v0.02c0,0.03 0,0.05 0.01,0.08v0.02v0.7201v0.02c-0.01,0.02 -0.01,0.05 -0.01,0.08v0.01l-0.01,0.08l-0.01,0.02c-0.01,0.11001 -0.03,0.23003 -0.06,0.35004v0.01l-0.02,0.07v0.03l-0.02,0.06l-0.01,0.04l-0.02,0.06v0.02l-0.03,0.07v0.02c-0.06,0.17003 -0.11998,0.34005 -0.19998,0.50007v0.01l-0.04,0.07v0.01l-0.04,0.07l-0.01,0.02l-0.03,0.06l-0.01,0.02l-0.04,0.07l-0.01,0.01l-0.04,0.07v0c-0.09,0.15002 -0.19999,0.30004 -0.30998,0.44006l-0.01,0.01c-0.01,0.02 -0.03,0.04 -0.05,0.06l-0.01,0.01l-0.05,0.06l-0.01,0.01c-0.10999,0.13002 -0.23998,0.26004 -0.36997,0.37005l-0.01,0.01l-0.06,0.05l-0.01,0.01l-0.06,0.05l-0.01,0.01c-0.02,0.02 -0.04,0.03 -0.07,0.05v0c-0.02,0.02 -0.04,0.04 -0.07,0.06v0c-0.03,0.02 -0.05,0.03 -0.07,0.05v0c-0.09999,0.07001 -0.19998,0.13003 -0.29998,0.19003l-0.01,0.01l-0.07,0.04h-0.01l-0.07,0.04l-0.02,0.01l-0.07,0.03l-0.01,0.01c-0.02,0.01 -0.05,0.02 -0.07,0.04h-0.01c-0.03,0.01 -0.05,0.02 -0.08,0.03l-0.01,0.01c-0.12999,0.06002 -0.25998,0.11002 -0.39997,0.15002l-0.03,0.01l-0.06,0.02l-0.03,0.01l-0.06,0.02l-0.04,0.01l-0.06,0.01l-0.03,0.01l-0.07,0.02h-0.01c-0.03,0.01 -0.06,0.01 -0.08,0.02h-0.01c-0.03,0 -0.06,0.01 -0.09,0.01v0c-0.05999,0.02 -0.11998,0.02 -0.17998,0.03h-0.01c-0.02,0.01 -0.05,0.01 -0.07,0.01l-0.02,0.01h-0.07h-0.03h-0.71995h-0.02h-0.07l-0.04,-0.01l-0.06,-0.01h-0.04l-0.06,-0.01l-0.04,-0.01l-0.06,-0.01h-0.04c-0.04999,-0.02 -0.10998,-0.03 -0.15998,-0.04c-0.04,-0.01 -0.07,-0.01 -0.1,-0.02l-0.07,-0.02l-0.03,-0.01l-0.05,-0.01l-0.05,-0.02l-0.06,-0.02l-0.03,-0.01l-0.06,-0.02l-0.04,-0.01l-0.05,-0.02l-0.04,-0.02l-0.06,-0.02l-0.03,-0.01l-0.06,-0.03l-0.03,-0.01l-0.06,-0.03l-0.04,-0.02l-0.05,-0.02l-0.03,-0.02l-0.06,-0.03l-0.03,-0.02l-0.06,-0.02l-0.03,-0.02l-0.05,-0.03l-0.04,-0.02l-0.04,-0.03l-0.05,-0.03l-0.04,-0.02l-0.04,-0.03l-0.04,-0.03l-0.04,-0.03l-0.04,-0.03l-0.04,-0.02l-0.04,-0.03l-0.03,-0.02l-0.05,-0.04c-0.03,-0.02 -0.05,-0.04 -0.08,-0.07l-0.05,-0.04l-0.02,-0.02l-0.04,-0.03l-0.04,-0.03l-0.03,-0.03l-0.04,-0.04l-0.02,-0.03l-0.05,-0.04l-0.02,-0.03l-0.05,-0.05l-0.02,-0.02l-0.05,-0.05l-0.03,-0.03l-0.03,-0.04l-0.03,-0.03l-0.04,-0.05l-0.02,-0.03l-0.04,-0.04l-0.02,-0.03l-0.04,-0.05l-0.03,-0.03l-0.03,-0.05l-0.02,-0.03l-0.04,-0.06l-0.02,-0.02l-0.05,-0.07v-0.01c-0.02,-0.03 -0.03,-0.05 -0.05,-0.08l-0.01,-0.01c-0.01,-0.03 -0.03,-0.05 -0.04,-0.08l-0.01,-0.01c-0.01,-0.02 -0.03,-0.05 -0.04,-0.08h-0.01c-0.08,-0.15002 -0.14999,-0.31004 -0.20999,-0.47007v0c-0.02,-0.03001 -0.03,-0.06001 -0.04,-0.10001v0c-0.01,-0.03 -0.02,-0.06 -0.03,-0.09l-0.01,-0.02c-0.01,-0.03 -0.02,-0.05 -0.03,-0.08v-0.01c-0.01,-0.03 -0.02,-0.06 -0.03,-0.09v0c-0.01,-0.04001 -0.01,-0.07001 -0.02,-0.10001v-0.01c-0.01,-0.03 -0.02,-0.06 -0.03,-0.09v-0.01c-0.01,-0.03 -0.01,-0.06 -0.02,-0.09v-0.02c-0.01,-0.03 -0.01,-0.05 -0.02,-0.08v-0.02l-0.02,-0.08v-0.02c0,-0.03002 -0.01,-0.07002 -0.01,-0.10002v0c-0.01,-0.04001 -0.01,-0.07001 -0.01,-0.11001h-0.01c-0.01,-0.14002 -0.02,-0.28004 -0.02,-0.43006zM156.01242,329.62947c0.05999,-0.03 0.12998,-0.05 0.19998,-0.07zM155.45246,329.8795c0.06,-0.03 0.11999,-0.06 0.17999,-0.09z" fill="#ffffff" stroke="none" stroke-width="0.26458" stroke-miterlimit="10"/><path d="M156.07241,333.64002c0.33998,0.40006 0.83994,0.65009 1.3999,0.65009c0.55995,0 1.04992,-0.25003 1.38989,-0.65009c0.74994,0.61009 1.3199,1.71024 1.51988,3.02042c-0.66995,0.65009 -1.56988,1.07014 -2.5598,1.15015h-0.71995v0c-0.97992,-0.08 -1.87985,-0.50006 -2.5498,-1.15015c0.19998,-1.31018 0.76994,-2.41033 1.51988,-3.02042z" fill="#3fa535" stroke="none" stroke-width="0.26458" stroke-miterlimit="10"/><path d="M160.48206,336.56042c-0.07999,0.09002 -0.16997,0.17004 -0.26997,0.25004c-0.18999,-1.19017 -0.66995,-2.33032 -1.3399,-2.9404c-0.36997,0.38005 -0.86993,0.59008 -1.39989,0.59008c-0.52996,0 -1.03992,-0.21003 -1.4099,-0.59008c-0.66994,0.61008 -1.14991,1.75023 -1.33989,2.9504c-0.09,-0.08001 -0.18998,-0.17004 -0.26998,-0.25004c0.23998,-1.27017 0.77994,-2.46033 1.51988,-3.06041l0.12999,-0.10002l0.1,0.12002c0.31998,0.38005 0.77994,0.59008 1.26991,0.59008c0.47996,0 0.93992,-0.21003 1.2599,-0.59008l0.10999,-0.12002l0.11999,0.10002c0.73994,0.60008 1.2799,1.79024 1.51988,3.05041z" fill="#ffffff" stroke="none" stroke-width="0.26458" stroke-miterlimit="10"/><path d="M157.47231,330.38958c0.99992,0 1.80986,0.81011 1.80986,1.82025c0,1.00014 -0.80994,1.81025 -1.80986,1.81025c-1.00993,0 -1.81986,-0.81011 -1.81986,-1.81025c0,-1.01014 0.80993,-1.82025 1.81986,-1.82025z" fill="#3fa535" stroke="none" stroke-width="0.26458" stroke-miterlimit="10"/><path d="M155.48246,332.20983c0,-1.10015 0.88993,-1.99027 1.98985,-1.99027c1.08991,0 1.97984,0.89012 1.97984,1.99027c0,1.09015 -0.88993,1.98027 -1.97984,1.98027c-1.09992,0 -1.98985,-0.89012 -1.98985,-1.98027zM155.82243,332.20983c0,0.91012 0.73995,1.65022 1.64988,1.65022c0.90993,0 1.64987,-0.7401 1.64987,-1.65022c0,-0.91012 -0.73994,-1.65023 -1.64987,-1.65023c-0.90993,0 -1.64988,0.74011 -1.64988,1.65023z" fill="#ffffff" stroke="none" stroke-width="0.26458" stroke-miterlimit="10"/><path d="M157.46231,329.36944c2.33982,0 4.22967,1.89026 4.22967,4.23058c0,2.34032 -1.88985,4.23058 -4.22967,4.23058c-2.32982,0 -4.22968,-1.89026 -4.22968,-4.23058c0,-2.34032 1.89986,-4.23058 4.22968,-4.23058z" fill="none" stroke="#3fa535" stroke-width="0.69995" stroke-miterlimit="4"/><path d="M158.14225,336.81046c0.04,0 0.07,0.01 0.1,0.04c0.03,0.03 0.05,0.07 0.05,0.11001v0.29004c0,0.04 -0.02,0.08 -0.05,0.10002c-0.03,0.03 -0.06,0.05 -0.1,0.05h-1.34989c-0.1,0 -0.14999,-0.02 -0.14999,-0.04c0,-0.03 0,-0.09 0.01,-0.19003l0.03,-0.06c0.07,-0.21003 0.23998,-0.42006 0.48996,-0.63009c0.29998,-0.25003 0.48996,-0.42005 0.56996,-0.52007c0.08,-0.11001 0.10999,-0.21003 0.10999,-0.30004c0,-0.09 -0.03,-0.17002 -0.1,-0.23003c-0.07,-0.06 -0.14999,-0.09 -0.25998,-0.09c-0.10999,0 -0.19999,0.03 -0.25998,0.10001c-0.07,0.06 -0.1,0.15002 -0.10999,0.26004c0,0.01 -0.02,0.03 -0.05,0.04c-0.03,0.01 -0.06,0.02 -0.1,0.02h-0.14c-0.1,0 -0.14998,-0.01 -0.13998,-0.04c0,-0.02 0.01,-0.08 0.04,-0.17002c0.04,-0.18003 0.10999,-0.31005 0.20999,-0.39006c0.14998,-0.13002 0.32997,-0.20003 0.55995,-0.20003c0.21999,0 0.39997,0.07 0.53996,0.19003c0.15999,0.13002 0.24998,0.30004 0.24998,0.52007c0,0.20003 -0.09,0.40006 -0.26998,0.59008c-0.06,0.08 -0.21998,0.21003 -0.44996,0.41006c-0.14999,0.12001 -0.25998,0.22003 -0.33998,0.32004h0.51996c0.04,0 0.08,-0.01 0.11,-0.03c0.03,-0.02 0.04,-0.04 0.04,-0.06c0,-0.02 0.01,-0.05 0.04,-0.06c0.03,-0.02 0.07,-0.03 0.10999,-0.03z" fill="#ffffff" stroke="none" stroke-width="0.26458" stroke-miterlimit="10"/><path d="M176.23587,335.38026v-1.54021c0,-0.39005 0.01,-0.7301 0.04,-1.05014l-1.13992,2.59035h-0.45996v-3.57049h0.46997v1.54021c0,0.39006 -0.02,0.7201 -0.04,1.04015l1.12991,-2.58036h0.46996v3.57049zM177.37578,331.80977h1.65987v0.53008h-1.17991v3.04041h-0.47996zM181.40547,332.98993c0,0.79011 -0.41997,1.17016 -1.01992,1.17016h-0.43997v1.22017h-0.47996v-3.57049h0.91993c0.59995,0 1.01992,0.38006 1.01992,1.18016zM179.94558,332.32984v1.31018h0.42997c0.35997,0 0.54996,-0.24003 0.54996,-0.65009c0,-0.43005 -0.18999,-0.66009 -0.54996,-0.66009zM182.41539,331.80977h0.48997l0.96992,3.57049h-0.48996l-0.18999,-0.7701h-1.05992l-0.19998,0.7701h-0.48996zM183.07534,334.12009l-0.26998,-1.05014c-0.04999,-0.21003 -0.09999,-0.43006 -0.13999,-0.65009c-0.04999,0.22003 -0.08999,0.44006 -0.14999,0.65009l-0.25998,1.05014zM186.91505,332.7199c0,0.46006 -0.18999,0.68009 -0.33998,0.79011c0.16999,0.07001 0.45997,0.33004 0.45997,0.88012c0,0.7901 -0.56996,0.99013 -0.95993,0.99013h-1.03992v-3.57049h1.01993c0.52995,0 0.85993,0.31005 0.85993,0.91013zM185.51516,332.30984v0.99014h0.51995c0.23998,0 0.40997,-0.16002 0.40997,-0.50007c0,-0.36005 -0.15999,-0.49007 -0.44996,-0.49007zM185.51516,333.78004v1.09015h0.47996c0.25998,0 0.55995,-0.04 0.55995,-0.54007c0,-0.48008 -0.29997,-0.55008 -0.51995,-0.55008zM187.26502,334.85019h0.31998c0.18997,-0.68009 0.26997,-1.68023 0.26997,-3.04042h1.73987v3.04042h0.33998v1.35018h-0.45997v-0.82011h-1.74986v0.82011h-0.45997zM189.11488,334.85019v-2.51034h-0.79994c0,0.99013 -0.07,1.80024 -0.21998,2.51034zM192.28463,332.7199c0,0.46006 -0.18998,0.68009 -0.33997,0.79011c0.16999,0.07001 0.45997,0.33004 0.45997,0.88012c0,0.7901 -0.56996,0.99013 -0.95993,0.99013h-1.03992v-3.57049h1.01992c0.52996,0 0.85993,0.31005 0.85993,0.91013zM190.87474,332.30984v0.99014h0.52996c0.23998,0 0.40997,-0.16002 0.40997,-0.50007c0,-0.36005 -0.15999,-0.49007 -0.45997,-0.49007zM190.87474,333.78004v1.09015h0.47996c0.25998,0 0.56996,-0.04 0.56996,-0.54007c0,-0.48008 -0.29998,-0.55008 -0.51996,-0.55008zM192.78459,333.59002c0,-1.11016 0.36998,-1.85026 1.13992,-1.85026c0.76994,0 1.13991,0.7401 1.13991,1.85026c0,1.12015 -0.36997,1.85025 -1.13991,1.85025c-0.76994,0 -1.13992,-0.7301 -1.13992,-1.85025zM194.57446,333.59002c0,-0.81011 -0.18999,-1.31018 -0.64995,-1.31018c-0.44997,0 -0.64995,0.50007 -0.64995,1.31018c0,0.82011 0.19998,1.31017 0.64995,1.31017c0.45996,0 0.64995,-0.49006 0.64995,-1.31017zM195.77436,331.11968c0,-0.18003 0.12,-0.32004 0.26998,-0.32004c0.14999,0 0.26998,0.14001 0.26998,0.32004c0,0.17002 -0.11999,0.32004 -0.26998,0.32004c-0.14998,0 -0.26998,-0.15002 -0.26998,-0.32004zM196.52431,331.11968c0,-0.18003 0.11999,-0.32004 0.26997,-0.32004c0.14999,0 0.26999,0.14001 0.26999,0.32004c0,0.17002 -0.12,0.32004 -0.26999,0.32004c-0.14998,0 -0.26997,-0.15002 -0.26997,-0.32004zM195.60438,331.80977h1.63987v0.51007h-1.15991v1.00014h1.03992v0.51007h-1.03992v1.03014h1.18991v0.52007h-1.66987zM197.80421,331.80977h0.46997l0.78993,1.88026l0.79994,-1.88026h0.45996v3.57049h-0.46997v-1.51021c0,-0.38005 0.01,-0.7401 0.05,-1.11015l-0.73994,1.75024h-0.19998l-0.72995,-1.75024c0.03,0.37005 0.04,0.7301 0.04,1.11015v1.51021h-0.46996z" fill="#ffffff" stroke="none" stroke-width="0.26458" stroke-miterlimit="10"/></g></g></svg>