<svg version="1.1" xmlns="http://www.w3.org/2000/svg" xmlns:xlink="http://www.w3.org/1999/xlink" width="64.54855" height="97.20302" viewBox="0,0,64.54855,97.20302"><g transform="translate(-156.20675,-286.30792)"><g data-paper-data="{&quot;isPaintingLayer&quot;:true}" fill-rule="nonzero" stroke-linecap="butt" stroke-linejoin="miter" stroke-dasharray="" stroke-dashoffset="0" style="mix-blend-mode: normal"><path d="M203.42167,289.14686c9.19995,-0.07975 16.72119,7.31229 16.80094,16.50926l0.53205,60.80296c0.07975,9.19995 -7.31229,16.72119 -16.50945,16.80094l-28.75076,0.25022c-9.19604,0.08384 -16.72119,-7.30932 -16.80094,-16.50926l-0.52815,-60.80296c-0.07975,-9.19604 7.3095,-16.72119 16.50945,-16.80094z" fill-opacity="0.69804" fill="#0f150e" stroke="none" stroke-width="1" stroke-miterlimit="10"/><path d="M201.46392,286.30856c9.1993,-0.08001 16.71872,7.311 16.79872,16.51226l0.52996,60.8083c0.07999,9.20126 -7.30944,16.73229 -16.50874,16.81229l-28.74779,0.25004c-9.19929,0.08001 -16.71872,-7.311 -16.79871,-16.51226l-0.52996,-60.8183c-0.07999,-9.19125 7.30944,-16.72229 16.50873,-16.80229z" fill="#77b074" stroke="none" stroke-width="0.26458" stroke-miterlimit="10"/><path d="M196.5843,361.07877c0.09,0 0.25998,0.09 0.46996,0.22003c0.29998,0.47007 0.46997,0.99014 0.46997,1.51021c-0.02,1.38019 -0.75994,2.37032 -2.22983,2.9204c-1.42989,0.37005 -2.76979,0.58008 -4.05969,0.57008c-0.51996,-0.01 -0.99992,-0.06 -1.37989,-0.11002c-0.90993,0 -2.24983,0.07 -4.14969,0.10001c-1.84985,0.03 -3.22975,0.06 -4.09968,0.05c-2.40982,-0.02 -3.74971,-0.08 -4.04969,-0.21002c-1.02992,-0.35005 -1.53988,-1.4402 -1.52988,-3.29045c0.01,-1.21017 0.83993,-2.11029 2.43981,-2.65037c0.68995,-0.22003 1.50989,-0.34004 2.50981,-0.33004c0.51996,0.01 1.2899,0.10001 2.36982,0.15002c1.03992,0.14002 1.84985,0.19003 2.36981,0.19003c0.47997,0.01 1.20991,-0.07 2.15984,-0.19003c0.86993,-0.21003 1.59988,-0.29004 2.11984,-0.29004c0.55995,0.01 0.98992,0.10001 1.33989,0.32004c0.67995,0.01 2.10984,-0.41005 2.6798,-0.41005c0.20998,0 0.37997,0.04 0.59995,0.18002c0.50996,0.30004 1.15991,0.7001 1.96985,1.27018z" fill="#c08adc" stroke="none" stroke-width="0.26458" stroke-miterlimit="10"/><path d="M196.5843,361.07877c0.09,0 0.25998,0.09 0.46996,0.22003c0.29998,0.47007 0.46997,0.99014 0.46997,1.51021c-0.02,1.38019 -0.75994,2.37032 -2.22983,2.9204c-1.42989,0.37005 -2.76979,0.58008 -4.05969,0.57008c-0.51996,-0.01 -0.99992,-0.06 -1.37989,-0.11002c-0.90993,0 -2.24983,0.07 -4.14969,0.10001c-1.84985,0.03 -3.22975,0.06 -4.09968,0.05c-2.40982,-0.02 -3.74971,-0.08 -4.04969,-0.21002c-1.02992,-0.35005 -1.53988,-1.4402 -1.52988,-3.29045c0.01,-1.21017 0.83993,-2.11029 2.43981,-2.65037c0.68995,-0.22003 1.50989,-0.34004 2.50981,-0.33004c0.51996,0.01 1.2899,0.10001 2.36982,0.15002c1.03992,0.14002 1.84985,0.19003 2.36981,0.19003c0.47997,0.01 1.20991,-0.07 2.15984,-0.19003c0.86993,-0.21003 1.59988,-0.29004 2.11984,-0.29004c0.55995,0.01 0.98992,0.10001 1.33989,0.32004c0.67995,0.01 2.10984,-0.41005 2.6798,-0.41005c0.20998,0 0.37997,0.04 0.59995,0.18002c0.50996,0.30004 1.15991,0.7001 1.96985,1.27018z" fill="#c08adc" stroke="none" stroke-width="0.26458" stroke-miterlimit="10"/><path d="M197.78421,360.48869c0.09,0 0.25998,0.09 0.47996,0.22003c0.29998,0.48007 0.45996,0.99014 0.45996,1.52021c-0.02,1.37019 -0.75994,2.36032 -2.22982,2.9104c-1.41989,0.37005 -2.76979,0.58008 -4.05969,0.57007c-0.51996,-0.01 -0.98993,-0.05 -1.3799,-0.10001c-0.90992,-0.01 -2.23982,0.07 -4.14968,0.09c-1.84985,0.03 -3.22975,0.06 -4.08968,0.05c-2.41982,-0.02 -3.75971,-0.07 -4.05969,-0.21003c-1.02992,-0.35004 -1.53988,-1.43019 -1.51988,-3.29045c0.01,-1.21016 0.82993,-2.11028 2.42981,-2.65036c0.69995,-0.22003 1.51988,-0.34004 2.50981,-0.33004c0.51996,0.01 1.2899,0.10001 2.36982,0.15002c1.03991,0.14002 1.85985,0.19003 2.37981,0.19003c0.46996,0.01 1.19991,-0.07 2.14984,-0.19003c0.86993,-0.21003 1.60987,-0.29004 2.11983,-0.29004c0.55996,0.01 0.98993,0.10001 1.3399,0.32004c0.68995,0.01 2.11984,-0.41005 2.6798,-0.41005c0.20998,0 0.37997,0.05 0.59995,0.18002c0.50996,0.30004 1.15991,0.7001 1.96985,1.27017z" fill="#f5edfb" stroke="none" stroke-width="0.26458" stroke-miterlimit="10"/><path d="M197.78421,360.48869c0.09,0 0.25998,0.09 0.47996,0.22003c0.29998,0.48007 0.45996,0.99014 0.45996,1.52021c-0.02,1.37019 -0.75994,2.36032 -2.22982,2.9104c-1.41989,0.37005 -2.76979,0.58008 -4.05969,0.57007c-0.51996,-0.01 -0.98993,-0.05 -1.3799,-0.10001c-0.90992,-0.01 -2.23982,0.07 -4.14968,0.09c-1.84985,0.03 -3.22975,0.06 -4.08968,0.05c-2.41982,-0.02 -3.75971,-0.07 -4.05969,-0.21003c-1.02992,-0.35004 -1.53988,-1.43019 -1.51988,-3.29045c0.01,-1.21016 0.82993,-2.11028 2.42981,-2.65036c0.69995,-0.22003 1.51988,-0.34004 2.50981,-0.33004c0.51996,0.01 1.2899,0.10001 2.36982,0.15002c1.03991,0.14002 1.85985,0.19003 2.37981,0.19003c0.46996,0.01 1.19991,-0.07 2.14984,-0.19003c0.86993,-0.21003 1.60987,-0.29004 2.11983,-0.29004c0.55996,0.01 0.98993,0.10001 1.3399,0.32004c0.68995,0.01 2.11984,-0.41005 2.6798,-0.41005c0.20998,0 0.37997,0.05 0.59995,0.18002c0.50996,0.30004 1.15991,0.7001 1.96985,1.27017" fill="none" stroke="#c08adc" stroke-width="0.07999" stroke-miterlimit="4"/><path d="M211.60316,362.24894c-0.24998,2.30031 -0.66995,3.77051 -1.2799,4.4206c-0.59996,0.65009 -1.94986,1.12016 -4.03969,1.4302c-1.49989,0.17002 -5.67957,0.46006 -12.52904,0.88012c-6.86948,0.41006 -12.04908,0.6501 -15.56881,0.7201c-1.59987,0.06 -2.86978,0.08 -3.79971,0.05c-0.93992,-0.02001 -1.84985,-0.13002 -2.72979,-0.33005c-0.87993,-0.20003 -1.52988,-0.43006 -1.95985,-0.7001c-0.41996,-0.27003 -0.83993,-0.73009 -1.2399,-1.37018c-0.39997,-0.64009 -0.70995,-1.33018 -0.92993,-2.06028c-0.21998,-0.7401 -0.47996,-1.76024 -0.77994,-3.06042c-0.78994,-3.6305 -1.2999,-7.52103 -1.54988,-11.6916c-0.23999,-4.16056 -0.26999,-10.10138 -0.08,-17.82243c0.07999,-6.23085 0.03999,-10.84148 -0.11999,-13.83189c-0.15999,-2.99041 -0.51996,-5.8508 -1.06992,-8.58116c-1.07992,-4.87067 -1.48989,-8.17112 -1.21991,-9.89135c0.14999,-0.6901 0.32998,-1.20017 0.53996,-1.52021c0.20998,-0.32005 0.62995,-0.64009 1.2499,-0.94013c0.75995,-0.37005 3.9197,-0.90012 9.48927,-1.59022c5.55958,-0.68009 11.00916,-1.23017 16.33875,-1.65022c3.54973,-0.18003 5.39959,-0.31005 5.52958,-0.37005c0.04999,0 1.11991,0.02 3.22975,0.06c3.06976,0.17002 5.05961,0.67009 5.97954,1.5002c0.56995,0.49007 0.94993,1.24017 1.14991,2.23031c0.17999,0.99013 0.42997,3.43046 0.72994,7.30099c0.33998,4.73065 0.91993,10.45143 1.72987,17.16235c0.99992,8.53116 1.63987,14.28195 1.90986,17.24235c0.26997,2.96041 0.54995,6.75092 0.83993,11.37155c0.30998,5.8108 0.36997,9.4913 0.17999,11.04151z" fill="#fefefe" stroke="none" stroke-width="0.26458" stroke-miterlimit="10"/><path d="M172.69613,345.9267c0.85994,-0.92012 2.10984,-1.37018 3.75972,-1.35018c1.40989,0.01 2.39981,0.34005 2.97977,0.97013c0.56995,0.63009 0.98992,1.33018 1.2499,2.08028c0.25998,0.76011 0.50996,1.4502 0.74994,2.08029c0.22999,0.64009 0.68995,0.96013 1.3699,0.96013c0.91993,0.01 2.01984,-0.48006 3.28974,-1.4602c1.26991,-0.99013 2.47981,-2.1903 3.62973,-3.61049c1.15991,-1.4202 2.13983,-2.8904 2.94977,-4.4106c0.81994,-1.52021 1.22991,-2.79038 1.2399,-3.81052c-0.72994,-0.01 -1.34989,0.21003 -1.85985,0.64009c-0.51996,0.43005 -1.10992,0.7701 -1.78987,1.00013c-0.97992,0.38005 -1.99984,0.7001 -3.06976,0.96013c-1.06992,0.26004 -2.15983,0.38005 -3.27975,0.37005c-2.17983,-0.02 -4.22967,-0.56007 -6.12953,-1.63022c-1.90985,-1.06015 -3.58972,-2.42033 -5.01961,-4.08056c-1.44989,-1.67022 -2.5798,-3.54048 -3.40974,-5.61076c-0.82994,-2.08029 -1.2399,-4.13057 -1.21991,-6.18085c0,-0.09 0.02,-0.38005 0.08,-0.87011l2.6198,-8.58118c0.1,-0.34004 0.32998,-0.7101 0.69995,-1.12015c0.36997,-0.41006 0.61995,-0.6901 0.76994,-0.84012c1.51988,-2.02027 3.36974,-3.58049 5.53957,-4.65063c2.16984,-1.08015 4.50966,-1.60022 7.02946,-1.58022c1.64988,0.01 3.29975,0.33005 4.93963,0.96013c1.64987,0.61009 3.17975,1.4702 4.59964,2.55035c1.41989,1.08015 2.6398,2.34032 3.63972,3.78052c1.00992,1.4402 1.72987,2.9704 2.14984,4.58062c0.09,0.43006 0.20998,1.00014 0.34997,1.71024c0.13999,0.70009 0.27998,1.39019 0.40997,2.05028c0.13999,0.66009 0.26998,1.22017 0.38997,1.71023c0.10999,0.49007 0.16999,0.7501 0.16999,0.80011l-0.08,9.40129c-0.39997,1.36018 -0.59996,2.72036 -0.60996,4.08055c-0.02,1.31018 -0.28998,2.62036 -0.83993,3.93054c-0.05,0.10001 -0.17999,0.35005 -0.39997,0.7601c-0.22998,0.41006 -0.46996,0.88012 -0.74994,1.41019c-0.26998,0.54008 -0.54996,1.08015 -0.84994,1.63023c-0.28998,0.56007 -0.51996,0.99013 -0.66995,1.28017c-0.43996,0.87012 -1.15991,1.95027 -2.16983,3.26045c-0.99992,1.30017 -2.12984,2.58035 -3.37974,3.83052c-1.2499,1.25017 -2.51981,2.32032 -3.80971,3.21044c-1.2899,0.88012 -2.47981,1.33018 -3.53973,1.32018l-7.7194,-0.07c-0.42997,0 -0.85994,-0.12002 -1.25991,-0.34005c-0.41996,-0.22003 -0.79994,-0.50007 -1.15991,-0.85011c-0.35997,-0.34005 -0.68995,-0.7001 -0.96992,-1.06015c-0.28998,-0.36005 -0.55996,-0.67009 -0.79994,-0.92013c-0.47997,-0.54007 -0.78994,-1.24016 -0.92993,-2.12028c-0.12999,-0.87012 -0.19999,-1.64023 -0.18999,-2.33032c0.01,-1.65023 0.44997,-2.9304 1.2999,-3.84053zM174.55599,324.39376c0.07,0.88012 0.22998,1.67023 0.48996,2.38033c0.25998,0.7001 0.65995,1.38019 1.18991,2.04028c0.51996,0.66009 1.24991,1.36018 2.15984,2.09028c0.52996,0.45007 1.15991,0.99014 1.87985,1.62023c0.71995,0.64008 1.51989,0.96013 2.38982,0.97013l5.38958,0.04c0.09,0.01 0.39997,-0.10002 0.90994,-0.31004c0.50996,-0.22003 0.86993,-0.40006 1.05991,-0.54008c0.87994,-0.58008 1.61988,-1.15016 2.22983,-1.73023c0.61995,-0.58008 1.10992,-1.20017 1.46989,-1.88026c0.37997,-0.67009 0.63995,-1.4102 0.78994,-2.2103c0.14999,-0.80011 0.22998,-1.73024 0.23998,-2.80038c0.02,-2.66037 -0.51996,-4.95068 -1.64987,-6.86094c-1.11992,-1.89026 -2.93978,-3.39047 -5.44959,-4.48062c-0.19998,0 -0.62995,-0.02 -1.30989,-0.05c-0.67995,-0.03 -1.13992,-0.05 -1.3799,-0.05c-1.2699,-0.01 -2.26982,0.03 -3.02977,0.12002c-0.74994,0.09 -1.41989,0.28004 -1.99984,0.56008c-0.58996,0.29004 -1.12992,0.70009 -1.60988,1.23017c-0.48996,0.53007 -1.07992,1.23017 -1.76986,2.10028c-0.68995,0.81011 -1.19991,1.53021 -1.54988,2.13029c-0.33998,0.60009 -0.51996,1.4602 -0.52996,2.58036c-0.01,1.16015 0.02,2.18029 0.08,3.05041z" fill="#3eb311" stroke="none" stroke-width="0.26458" stroke-miterlimit="10"/><path d="M175.93589,344.87656c0.84993,-0.91012 2.10983,-1.37019 3.74971,-1.35018c1.40989,0.01 2.40981,0.34004 2.97977,0.98013c0.57995,0.63009 0.99992,1.32018 1.2599,2.08028c0.25998,0.75011 0.49996,1.4502 0.73994,2.08029c0.23999,0.64009 0.69995,0.95013 1.3799,0.96013c0.91993,0.01 2.00984,-0.48007 3.27975,-1.4602c1.2699,-0.99014 2.47981,-2.1903 3.63972,-3.61049c1.14991,-1.4202 2.12983,-2.8904 2.94977,-4.42061c0.80994,-1.5202 1.21991,-2.79038 1.22991,-3.81052c-0.72995,0 -1.3499,0.21003 -1.85986,0.65009c-0.50996,0.42006 -1.10992,0.7601 -1.78986,1.00014c-0.97993,0.37005 -1.99985,0.70009 -3.06977,0.95013c-1.06991,0.26003 -2.15983,0.38005 -3.26975,0.37005c-2.18983,-0.02 -4.22967,-0.55008 -6.13952,-1.62022c-1.90986,-1.06015 -3.57973,-2.42033 -5.01962,-4.09056c-1.43989,-1.66023 -2.5798,-3.53048 -3.40974,-5.61077c-0.82993,-2.07028 -1.2399,-4.13056 -1.2199,-6.17084c0,-0.10001 0.03,-0.39005 0.08,-0.87012l2.6198,-8.58117c0.1,-0.35005 0.33997,-0.7201 0.70994,-1.13016c0.35997,-0.41005 0.61995,-0.69009 0.75994,-0.84011c1.52989,-2.02028 3.36974,-3.57049 5.53958,-4.65064c2.16983,-1.08014 4.51965,-1.60022 7.03946,-1.58021c1.64987,0.02 3.28974,0.33004 4.93962,0.96013c1.63987,0.62008 3.16975,1.4702 4.59965,2.55035c1.41989,1.08014 2.62979,2.34032 3.63971,3.78051c0.99993,1.4502 1.71987,2.97041 2.13984,4.58063c0.09,0.44006 0.20998,1.01014 0.34997,1.71023c0.13999,0.7101 0.27998,1.39019 0.41997,2.05028c0.13999,0.6601 0.25998,1.23017 0.37997,1.71024c0.11999,0.49007 0.17999,0.7601 0.17999,0.81011l-0.08,9.40128c-0.39997,1.35019 -0.60995,2.71037 -0.61995,4.07056c-0.01,1.32018 -0.28998,2.63036 -0.83994,3.93054c-0.05,0.10001 -0.17998,0.35004 -0.39997,0.7701c-0.22998,0.40005 -0.46996,0.87012 -0.73994,1.40019c-0.26998,0.54008 -0.55996,1.08015 -0.84994,1.64022c-0.29997,0.56008 -0.51996,0.98014 -0.66994,1.27018c-0.43997,0.87012 -1.16992,1.96027 -2.16984,3.26044c-1.00992,1.30018 -2.13983,2.58035 -3.38974,3.83053c-1.2399,1.25017 -2.5198,2.33031 -3.80971,3.21043c-1.2899,0.89013 -2.46981,1.33019 -3.53972,1.32019l-7.70941,-0.07c-0.43997,0 -0.85994,-0.12002 -1.2699,-0.33005c-0.41997,-0.23003 -0.79994,-0.51007 -1.15992,-0.86012c-0.35997,-0.34004 -0.67994,-0.69009 -0.96992,-1.06014c-0.28998,-0.36005 -0.54996,-0.67009 -0.78994,-0.92013c-0.48996,-0.53007 -0.79994,-1.23017 -0.92993,-2.11029c-0.13999,-0.88012 -0.20998,-1.65022 -0.19998,-2.33031c0.01,-1.65023 0.44996,-2.94041 1.3099,-3.85053zM177.79574,323.35362c0.06,0.87012 0.22998,1.66023 0.48996,2.37033c0.25998,0.71009 0.64995,1.38018 1.17991,2.05028c0.52996,0.65009 1.24991,1.35018 2.15984,2.09028c0.52996,0.44006 1.15991,0.98013 1.87985,1.61022c0.71995,0.64009 1.51989,0.96013 2.38982,0.97013l5.38959,0.05c0.1,0 0.39997,-0.10001 0.90993,-0.32004c0.50996,-0.21003 0.86993,-0.39006 1.05991,-0.54008c0.87994,-0.57007 1.62988,-1.14015 2.23983,-1.72023c0.60996,-0.58008 1.09992,-1.21017 1.46989,-1.89026c0.36997,-0.67009 0.62995,-1.40019 0.77994,-2.2103c0.15999,-0.80011 0.23998,-1.73024 0.24998,-2.80038c0.02,-2.66036 -0.52996,-4.95068 -1.64987,-6.85094c-1.12991,-1.90026 -2.94977,-3.40047 -5.45958,-4.49061c-0.19999,0 -0.62995,-0.01 -1.3099,-0.04c-0.67995,-0.03 -1.13991,-0.05 -1.3799,-0.06c-1.2599,-0.01 -2.26982,0.04 -3.02976,0.13001c-0.74994,0.09 -1.40989,0.27004 -1.99985,0.56008c-0.57996,0.28004 -1.11991,0.6901 -1.60988,1.22017c-0.48996,0.53007 -1.07991,1.23017 -1.76986,2.10029c-0.67995,0.82011 -1.19991,1.53021 -1.53988,2.13029c-0.34998,0.61008 -0.51996,1.4602 -0.52996,2.58035c-0.01,1.16016 0.01,2.1803 0.08,3.06042z" fill="#fefefe" stroke="none" stroke-width="0.26458" stroke-miterlimit="10"/><path d="M175.93589,344.87656c0.84993,-0.91012 2.10983,-1.37019 3.74971,-1.35018c1.40989,0.01 2.40981,0.34004 2.97977,0.98013c0.57995,0.63009 0.99992,1.32018 1.2599,2.08028c0.25998,0.75011 0.49996,1.4502 0.73994,2.08029c0.23999,0.64009 0.69995,0.95013 1.3799,0.96013c0.91993,0.01 2.00984,-0.48007 3.27975,-1.4602c1.2699,-0.99014 2.47981,-2.1903 3.63972,-3.61049c1.14991,-1.4202 2.12983,-2.8904 2.94977,-4.42061c0.80994,-1.5202 1.21991,-2.79038 1.22991,-3.81052c-0.72995,0 -1.3499,0.21003 -1.85986,0.65009c-0.50996,0.42006 -1.10992,0.7601 -1.78986,1.00014c-0.97993,0.37005 -1.99985,0.70009 -3.06977,0.95013c-1.06991,0.26003 -2.15983,0.38005 -3.26975,0.37005c-2.18983,-0.02 -4.22967,-0.55008 -6.13952,-1.62022c-1.90986,-1.06015 -3.57973,-2.42033 -5.01962,-4.09056c-1.43989,-1.66023 -2.5798,-3.53048 -3.40974,-5.61077c-0.82993,-2.07028 -1.2399,-4.13056 -1.2199,-6.17084c0,-0.10001 0.03,-0.39005 0.08,-0.87012l2.6198,-8.58117c0.1,-0.35005 0.33997,-0.7201 0.70994,-1.13016c0.35997,-0.41005 0.61995,-0.69009 0.75994,-0.84011c1.52989,-2.02028 3.36974,-3.57049 5.53958,-4.65064c2.16983,-1.08014 4.51965,-1.60022 7.03946,-1.58021c1.64987,0.02 3.28974,0.33004 4.93962,0.96013c1.63987,0.62008 3.16975,1.4702 4.59965,2.55035c1.41989,1.08014 2.62979,2.34032 3.63971,3.78051c0.99993,1.4502 1.71987,2.97041 2.13984,4.58063c0.09,0.44006 0.20998,1.01014 0.34997,1.71023c0.13999,0.7101 0.27998,1.39019 0.41997,2.05028c0.13999,0.6601 0.25998,1.23017 0.37997,1.71024c0.11999,0.49007 0.17999,0.7601 0.17999,0.81011l-0.08,9.40128c-0.39997,1.35019 -0.60995,2.71037 -0.61995,4.07056c-0.01,1.32018 -0.28998,2.63036 -0.83994,3.93054c-0.05,0.10001 -0.17998,0.35004 -0.39997,0.7701c-0.22998,0.40005 -0.46996,0.87012 -0.73994,1.40019c-0.26998,0.54008 -0.55996,1.08015 -0.84994,1.64022c-0.29997,0.56008 -0.51996,0.98014 -0.66994,1.27018c-0.43997,0.87012 -1.16992,1.96027 -2.16984,3.26044c-1.00992,1.30018 -2.13983,2.58035 -3.38974,3.83053c-1.2399,1.25017 -2.5198,2.33031 -3.80971,3.21043c-1.2899,0.89013 -2.46981,1.33019 -3.53972,1.32019l-7.70941,-0.07c-0.43997,0 -0.85994,-0.12002 -1.2699,-0.33005c-0.41997,-0.23003 -0.79994,-0.51007 -1.15992,-0.86012c-0.35997,-0.34004 -0.67994,-0.69009 -0.96992,-1.06014c-0.28998,-0.36005 -0.54996,-0.67009 -0.78994,-0.92013c-0.48996,-0.53007 -0.79994,-1.23017 -0.92993,-2.11029c-0.13999,-0.88012 -0.20998,-1.65022 -0.19998,-2.33031c0.01,-1.65023 0.44996,-2.94041 1.3099,-3.85053M177.79574,323.35363c0.06,0.87012 0.22998,1.66023 0.48996,2.37033c0.25998,0.71009 0.64995,1.38018 1.17991,2.05028c0.52996,0.65009 1.24991,1.35018 2.15984,2.09028c0.52996,0.44006 1.15991,0.98013 1.87985,1.61022c0.71995,0.64009 1.51989,0.96013 2.38982,0.97013l5.38959,0.05c0.1,0 0.39997,-0.10001 0.90993,-0.32004c0.50996,-0.21003 0.86993,-0.39006 1.05991,-0.54008c0.87994,-0.57007 1.62988,-1.14015 2.23983,-1.72023c0.60996,-0.58008 1.09992,-1.21017 1.46989,-1.89026c0.36997,-0.67009 0.62995,-1.40019 0.77994,-2.2103c0.15999,-0.80011 0.23998,-1.73024 0.24998,-2.80038c0.02,-2.66036 -0.52996,-4.95068 -1.64987,-6.85094c-1.12991,-1.90026 -2.94977,-3.40047 -5.45958,-4.49061c-0.19999,0 -0.62995,-0.01 -1.3099,-0.04c-0.67995,-0.03 -1.13991,-0.05 -1.3799,-0.06c-1.2599,-0.01 -2.26982,0.04 -3.02976,0.13001c-0.74994,0.09 -1.40989,0.27004 -1.99985,0.56008c-0.57996,0.28004 -1.11991,0.6901 -1.60988,1.22017c-0.48996,0.53007 -1.07991,1.23017 -1.76986,2.10029c-0.67995,0.82011 -1.19991,1.53021 -1.53988,2.13029c-0.34998,0.61008 -0.51996,1.4602 -0.52996,2.58035c-0.01,1.16016 0.01,2.1803 0.08,3.06042" fill="none" stroke="#3eb311" stroke-width="0.10999" stroke-miterlimit="4"/><path d="M194.99442,361.84888c0.09,0 0.25998,0.08 0.46997,0.20002c0.29997,0.45007 0.46996,0.93013 0.45996,1.4102c-0.01,1.29017 -0.74994,2.2003 -2.20983,2.71037c-1.41989,0.35005 -2.75979,0.54007 -4.04969,0.53007c-0.51996,0 -0.98992,-0.05 -1.37989,-0.09c-0.89993,-0.01 -2.23983,0.06 -4.12969,0.08c-1.84985,0.03 -3.21975,0.05 -4.08968,0.05c-2.39982,-0.02 -3.73971,-0.08 -4.03969,-0.20003c-1.02992,-0.33005 -1.52988,-1.34018 -1.51988,-3.06042c0.01,-1.13015 0.82993,-1.96026 2.42981,-2.47033c0.68995,-0.20003 1.50988,-0.31005 2.49981,-0.30005c0.51996,0 1.2899,0.09 2.35982,0.14002c1.02992,0.13002 1.84985,0.18003 2.36981,0.18003c0.46997,0 1.20991,-0.07 2.14984,-0.18003c0.85993,-0.19002 1.59988,-0.27003 2.10984,-0.26003c0.55995,0 0.98992,0.09 1.32989,0.29004c0.68995,0 2.10984,-0.39006 2.6698,-0.38006c0.21998,0 0.38997,0.04 0.59995,0.16003c0.51996,0.29004 1.15991,0.66009 1.96985,1.19016z" fill="#3eb311" stroke="none" stroke-width="0.26458" stroke-miterlimit="10"/><path d="M197.28425,361.86888c0.08,0 0.24998,0.08 0.46996,0.20003c0.29998,0.45006 0.45996,0.93012 0.45996,1.41019c-0.01,1.29018 -0.74994,2.2003 -2.21983,2.71037c-1.41989,0.35005 -2.74978,0.54007 -4.04968,0.53007c-0.50997,-0.01 -0.98993,-0.05 -1.3699,-0.09c-0.89993,-0.01 -2.23983,0.06 -4.12968,0.08c-1.84986,0.03 -3.22975,0.05 -4.08969,0.05c-2.40981,-0.02 -3.73971,-0.08 -4.03969,-0.20003c-1.02992,-0.33004 -1.53988,-1.34018 -1.52988,-3.06042c0.01,-1.13015 0.83994,-1.96026 2.43981,-2.47033c0.68995,-0.20003 1.49989,-0.31005 2.48981,-0.30004c0.51996,0 1.2899,0.09 2.36982,0.14002c1.02992,0.13001 1.84986,0.18002 2.35982,0.18002c0.47996,0 1.2099,-0.07 2.14983,-0.18002c0.86994,-0.19003 1.59988,-0.27004 2.10984,-0.26004c0.55996,0 0.99993,0.09 1.3399,0.29004c0.67995,0 2.10984,-0.39005 2.66979,-0.38005c0.20999,0 0.37997,0.04 0.59996,0.16002c0.50996,0.29004 1.14991,0.66009 1.96985,1.19016z" fill="#fefefe" stroke="none" stroke-width="0.26458" stroke-miterlimit="10"/><path d="M197.28425,361.86888c0.08,0 0.24998,0.08 0.46996,0.20003c0.29998,0.45006 0.45996,0.93012 0.45996,1.41019c-0.01,1.29018 -0.74994,2.2003 -2.21983,2.71037c-1.41989,0.35005 -2.74978,0.54007 -4.04968,0.53007c-0.50997,-0.01 -0.98993,-0.05 -1.3699,-0.09c-0.89993,-0.01 -2.23983,0.06 -4.12968,0.08c-1.84986,0.03 -3.22975,0.05 -4.08969,0.05c-2.40981,-0.02 -3.73971,-0.08 -4.03969,-0.20003c-1.02992,-0.33004 -1.53988,-1.34018 -1.52988,-3.06042c0.01,-1.13015 0.83994,-1.96026 2.43981,-2.47033c0.68995,-0.20003 1.49989,-0.31005 2.48981,-0.30004c0.51996,0 1.2899,0.09 2.36982,0.14002c1.02992,0.13001 1.84986,0.18002 2.35982,0.18002c0.47996,0 1.2099,-0.07 2.14983,-0.18002c0.86994,-0.19003 1.59988,-0.27004 2.10984,-0.26004c0.55996,0 0.99993,0.09 1.3399,0.29004c0.67995,0 2.10984,-0.39005 2.66979,-0.38005c0.20999,0 0.37997,0.04 0.59996,0.16002c0.50996,0.29004 1.14991,0.66009 1.96985,1.19016" fill="none" stroke="#3eb311" stroke-width="0.10999" stroke-miterlimit="4"/></g></g></svg>