<svg version="1.1" xmlns="http://www.w3.org/2000/svg" xmlns:xlink="http://www.w3.org/1999/xlink" width="64.54854" height="97.20303" viewBox="0,0,64.54854,97.20303"><g transform="translate(-156.20676,-286.30792)"><g data-paper-data="{&quot;isPaintingLayer&quot;:true}" fill-rule="nonzero" stroke-linecap="butt" stroke-linejoin="miter" stroke-dasharray="" stroke-dashoffset="0" style="mix-blend-mode: normal"><path d="M203.42167,289.14686c9.19995,-0.07975 16.72119,7.31229 16.80094,16.50926l0.53205,60.80296c0.07975,9.19995 -7.31229,16.72119 -16.50945,16.80094l-28.75076,0.25022c-9.19604,0.08384 -16.72119,-7.30932 -16.80094,-16.50926l-0.52815,-60.80296c-0.07975,-9.19604 7.3095,-16.72119 16.50945,-16.80094z" fill-opacity="0.69804" fill="#0f150e" stroke="none" stroke-width="1" stroke-miterlimit="10"/><path d="M201.46393,286.30856c9.19929,-0.08001 16.71871,7.31099 16.79871,16.51225l0.52996,60.8083c0.07999,9.20126 -7.30944,16.73229 -16.50874,16.81229l-28.74779,0.25003c-9.19929,0.08002 -16.71871,-7.31099 -16.79871,-16.51225l-0.52996,-60.8183c-0.07999,-9.19125 7.30944,-16.72228 16.50873,-16.80229z" fill="#77b074" stroke="none" stroke-width="0.26458" stroke-miterlimit="10"/><path d="M213.96297,364.46925c-0.23998,2.29031 -0.65995,3.76051 -1.2699,4.4106c-0.60995,0.65009 -1.94985,1.13015 -4.03969,1.43019c-1.49988,0.17003 -5.67956,0.46007 -12.53904,0.88012c-6.85947,0.41006 -12.04907,0.6601 -15.5588,0.7301c-1.59988,0.05 -2.86978,0.07 -3.80971,0.05c-0.92993,-0.03 -1.83986,-0.14001 -2.71979,-0.33004c-0.87993,-0.20003 -1.52988,-0.44006 -1.95985,-0.7101c-0.41997,-0.27003 -0.83994,-0.72009 -1.2399,-1.37018c-0.39997,-0.64009 -0.70995,-1.33019 -0.92993,-2.06029c-0.21999,-0.7401 -0.47997,-1.76024 -0.77994,-3.06041c-0.78994,-3.6205 -1.2999,-7.52103 -1.54988,-11.6816c-0.23999,-4.16056 -0.26999,-10.10138 -0.09,-17.82243c0.07999,-6.23085 0.04999,-10.84148 -0.11,-13.84189c-0.15998,-2.99041 -0.51996,-5.8508 -1.06991,-8.57117c-1.08992,-4.87066 -1.48989,-8.17112 -1.21991,-9.90135c0.14999,-0.6901 0.32997,-1.19016 0.53996,-1.52021c0.20998,-0.31004 0.62995,-0.63008 1.2499,-0.94013c0.75994,-0.37005 3.9197,-0.89012 9.48927,-1.58021c5.55958,-0.6801 11.00916,-1.24017 16.33875,-1.66023c3.54973,-0.18002 5.39958,-0.30005 5.52957,-0.36005c0.04,0 1.11992,0.01 3.22976,0.05c3.06976,0.18003 5.05961,0.68009 5.97954,1.50021c0.56995,0.50006 0.94993,1.24017 1.13991,2.2303c0.18999,0.99014 0.42997,3.43047 0.72994,7.301c0.33998,4.73064 0.92993,10.45142 1.73987,17.17234c0.99992,8.53116 1.63988,14.28195 1.90985,17.23235c0.26998,2.97041 0.54996,6.75092 0.83994,11.37156c0.30997,5.82079 0.36997,9.50129 0.16999,11.0515z" fill="#fefefe" stroke="none" stroke-width="0.26458" stroke-miterlimit="10"/><path d="M170.94627,340.756c0.58995,-1.74024 1.45989,-3.34046 2.5898,-4.79066c0.18999,-0.23003 0.49996,-0.48006 0.90993,-0.7501c0.41997,-0.26004 0.82994,-0.54007 1.23991,-0.82011c0.41996,-0.29004 0.78993,-0.58008 1.10991,-0.87012c0.30998,-0.28004 0.46996,-0.60008 0.47996,-0.94013c0,-0.34005 -0.11999,-0.66009 -0.35997,-0.95013c-0.23998,-0.29004 -0.51996,-0.56008 -0.82994,-0.81011c-0.30997,-0.24003 -0.62995,-0.49007 -0.93992,-0.7301c-0.30998,-0.25003 -0.53996,-0.49006 -0.67995,-0.7401c-0.62995,-0.92012 -1.06992,-1.79024 -1.3299,-2.59035c-0.25998,-0.80011 -0.37997,-1.72024 -0.36997,-2.73037l0.01,-1.24018c0.05,-0.19002 0.12999,-0.57007 0.25998,-1.12015c0.12999,-0.56007 0.26998,-1.13015 0.41997,-1.71023c0.13999,-0.58008 0.29997,-1.13016 0.44996,-1.67023c0.14999,-0.53007 0.26998,-0.92012 0.36997,-1.16016c0.59996,-1.60022 1.45989,-2.9504 2.57981,-4.05055c1.12991,-1.11015 2.39981,-2.01027 3.8097,-2.70037c1.4099,-0.69009 2.90978,-1.20016 4.48966,-1.53021c1.57988,-0.32004 3.13976,-0.48006 4.69964,-0.46006c1.35989,0.01 2.63979,0.25003 3.8497,0.7201c1.20991,0.47006 2.43982,0.93012 3.69972,1.38019c1.15991,0.39005 2.20983,1.06014 3.14976,1.99027c0.92993,0.93012 1.73986,1.98027 2.40981,3.15043c0.65995,1.17016 1.17991,2.39033 1.52988,3.6505c0.34998,1.27017 0.51997,2.48034 0.50996,3.65049c0,0.7301 -0.14998,1.52021 -0.41996,2.39033c-0.26998,0.88012 -0.62995,1.74024 -1.07992,2.62036c-0.43997,0.86011 -0.92993,1.66023 -1.46989,2.38032c-0.53996,0.7301 -1.10991,1.25018 -1.68987,1.59022v0.44006c-0.01,0.43006 0.16999,0.81011 0.52996,1.13016c0.35998,0.32004 0.77994,0.62008 1.2699,0.92012c0.47997,0.29004 0.94993,0.59008 1.4099,0.89012c0.45996,0.29004 0.79994,0.61008 1.03992,0.95013c0.91993,1.37019 1.55988,2.84039 1.92985,4.4206c0.37997,1.58022 0.55996,3.20044 0.53996,4.84067c-0.02,2.57035 -0.55996,4.95067 -1.61988,7.12097c-1.06992,2.1803 -2.5498,4.10056 -4.45966,5.78079c-1.2599,0.67009 -2.5498,1.33018 -3.8697,1.97027c-1.3199,0.65009 -2.69979,1.11015 -4.15968,1.39019l-0.72994,-0.01c-0.28998,0 -0.62995,0.01 -1.01992,0.02c-0.38998,0.02 -0.74995,0.04 -1.08992,0.03l-0.72995,-0.01c-2.5198,-0.02 -4.85962,-0.30004 -7.00946,-0.86012c-2.15983,-0.55007 -4.07969,-1.42019 -5.76956,-2.59035c-1.67987,-1.18016 -3.09976,-2.70037 -4.24967,-4.55062c-1.14991,-1.86026 -1.92985,-4.12057 -2.33982,-6.79093l0.01,-0.87012c0.01,-1.84025 0.31998,-3.6405 0.91993,-5.38073zM177.95573,350.18729c0.59996,0.7901 1.2699,1.4902 2.01985,2.10028c0.73994,0.61008 1.57987,1.11015 2.4898,1.4802c0.91993,0.38006 1.86986,0.57008 2.83979,0.58008l6.61949,0.06c0.86993,0 1.70987,-0.16002 2.51981,-0.50006c0.79993,-0.33005 1.52988,-0.76011 2.18983,-1.29018c0.65995,-0.53007 1.2699,-1.13016 1.83985,-1.81025c0.55996,-0.68009 1.03993,-1.35018 1.4299,-2.04028l0.29997,-0.58008l0.05,-5.99081c0.01,-0.53008 -0.37997,-1.14016 -1.14991,-1.83025c-0.76994,-0.6901 -1.62988,-1.34019 -2.5998,-1.93027c-0.96993,-0.59008 -1.88986,-1.08014 -2.78979,-1.4802c-0.88993,-0.40005 -1.43989,-0.60008 -1.62987,-0.60008l-6.6195,-0.06c-0.05,0 -0.28997,0.07 -0.72994,0.21003c-0.43996,0.14002 -0.75994,0.27003 -0.94992,0.36005c-1.11992,0.53007 -2.12984,1.05014 -3.03977,1.58021c-0.89993,0.53007 -1.66987,1.15016 -2.29983,1.84025c-0.63995,0.7001 -1.11991,1.53021 -1.44988,2.48034c-0.31998,0.94013 -0.48997,2.07028 -0.49997,3.39046c0,0.10002 0.01,0.36005 0.03,0.77011c0.02,0.41006 0.03,0.67009 0.03,0.7601c0.32998,0.88012 0.79994,1.72024 1.3999,2.50035zM180.45554,326.24402c0.56996,0.90012 1.3299,1.63022 2.26982,2.17029c0.93993,0.54008 1.99985,0.92013 3.15976,1.12016c1.15991,0.20002 2.32982,0.31004 3.48973,0.32004l1.3799,0.01c0.67995,0.01 1.13991,-0.01 1.37989,-0.06c1.84986,-0.46006 3.31975,-1.34018 4.38967,-2.62036c1.07991,-1.27017 1.62987,-2.9104 1.64987,-4.90067c0.01,-1.21016 -0.25998,-2.26031 -0.80994,-3.17043c-0.54996,-0.90012 -1.2599,-1.63022 -2.12984,-2.2003c-0.86993,-0.57008 -1.84985,-0.98014 -2.93977,-1.26017c-1.07992,-0.28004 -2.15983,-0.42006 -3.22975,-0.43006c-1.11992,-0.01 -2.22983,0.13002 -3.34975,0.45006c-1.11991,0.30004 -2.12983,0.77011 -3.02976,1.42019c-0.90993,0.65009 -1.63988,1.4402 -2.20983,2.39033c-0.55996,0.94013 -0.84994,2.01027 -0.85994,3.22044c-0.02,1.4602 0.26998,2.64036 0.83994,3.54048z" fill="#3eb311" stroke="none" stroke-width="0.26458" stroke-miterlimit="10"/><path d="M174.17602,339.69585c0.59996,-1.74024 1.45989,-3.34045 2.5898,-4.78065c0.18999,-0.24003 0.49996,-0.49007 0.91993,-0.7601c0.40997,-0.26004 0.81994,-0.54008 1.23991,-0.83012c0.40997,-0.28004 0.77994,-0.57007 1.09991,-0.86012c0.30998,-0.28003 0.47997,-0.60008 0.47997,-0.94012c0,-0.34005 -0.12,-0.66009 -0.35998,-0.95013c-0.23998,-0.29004 -0.50996,-0.56008 -0.82993,-0.81011c-0.30998,-0.24003 -0.61996,-0.49007 -0.92993,-0.7301c-0.31998,-0.25004 -0.54996,-0.50007 -0.68995,-0.7401c-0.62995,-0.92013 -1.06992,-1.79025 -1.3199,-2.59036c-0.25998,-0.80011 -0.38997,-1.71023 -0.37997,-2.74037l0.01,-1.23017c0.05,-0.19003 0.13999,-0.57008 0.25998,-1.13015c0.12999,-0.55008 0.26998,-1.13016 0.41997,-1.70024c0.14999,-0.58007 0.29998,-1.14015 0.44997,-1.67022c0.14998,-0.54008 0.26997,-0.92013 0.37997,-1.16016c0.58995,-1.60022 1.44988,-2.95041 2.5798,-4.05056c1.11991,-1.11015 2.38981,-2.01027 3.79971,-2.70036c1.41989,-0.6901 2.90977,-1.20017 4.48965,-1.53021c1.57988,-0.32005 3.14976,-0.48007 4.69964,-0.46007c1.3599,0.01 2.6398,0.25004 3.84971,0.7201c1.2099,0.47007 2.43981,0.93013 3.69971,1.38019c1.15991,0.39005 2.20983,1.06015 3.14976,1.99027c0.93993,0.93013 1.73987,1.98027 2.40982,3.15043c0.66994,1.17016 1.1799,2.38033 1.52988,3.6505c0.34997,1.26017 0.52995,2.48034 0.51996,3.6505c-0.01,0.7201 -0.14999,1.52021 -0.41997,2.39033c-0.27998,0.88012 -0.63995,1.74023 -1.07992,2.61035c-0.44996,0.87012 -0.93993,1.67023 -1.47989,2.39033c-0.53995,0.7201 -1.09991,1.25017 -1.68987,1.59021v0.43006c0,0.44006 0.16999,0.82012 0.53996,1.14016c0.35998,0.32004 0.77994,0.62008 1.25991,0.92012c0.47996,0.29004 0.94993,0.59009 1.40989,0.88013c0.45996,0.30004 0.80994,0.62008 1.04992,0.96013c0.90993,1.37018 1.54988,2.84039 1.91985,4.4206c0.37997,1.58021 0.55996,3.20044 0.54996,4.84066c-0.03,2.57035 -0.56996,4.95068 -1.62988,7.12097c-1.06991,2.1703 -2.5498,4.10056 -4.44965,5.78079c-1.26991,0.67009 -2.55981,1.33018 -3.87971,1.97027c-1.3099,0.65009 -2.69979,1.11015 -4.15968,1.39019l-0.72994,-0.01c-0.28998,-0.01 -0.62995,0.01 -1.01992,0.02c-0.37997,0.02 -0.74994,0.03 -1.08992,0.03l-0.72994,-0.01c-2.51981,-0.02 -4.85963,-0.31004 -7.00946,-0.86012c-2.14984,-0.55007 -4.07969,-1.42019 -5.75956,-2.59035c-1.68987,-1.19016 -3.10976,-2.70037 -4.25968,-4.55062c-1.14991,-1.86025 -1.92985,-4.12056 -2.33982,-6.79093l0.01,-0.87012c0.02,-1.85025 0.31998,-3.6405 0.91993,-5.38073zM181.18548,349.12714c0.59996,0.79011 1.26991,1.4902 2.01985,2.10029c0.74994,0.61008 1.57988,1.11015 2.49981,1.4802c0.91993,0.38005 1.85985,0.57008 2.82978,0.58008l6.62949,0.05c0.86993,0.01 1.69987,-0.15002 2.50981,-0.49007c0.79993,-0.33004 1.52988,-0.7601 2.18983,-1.29018c0.65995,-0.53007 1.2699,-1.14015 1.83986,-1.81024c0.55995,-0.68009 1.03992,-1.36019 1.43989,-2.04028l0.28997,-0.58008l0.05,-5.99082c0.01,-0.53007 -0.37997,-1.15015 -1.13991,-1.83025c-0.77994,-0.70009 -1.63987,-1.34018 -2.6098,-1.93026c-0.95992,-0.59008 -1.88985,-1.08015 -2.77978,-1.4802c-0.89993,-0.40006 -1.43989,-0.60008 -1.63988,-0.61008l-6.61949,-0.05c-0.05,0 -0.28998,0.07 -0.72994,0.21002c-0.43997,0.14002 -0.74995,0.26004 -0.94993,0.36005c-1.11991,0.53008 -2.12984,1.05015 -3.02977,1.58022c-0.90993,0.53007 -1.66987,1.14016 -2.30982,1.84025c-0.63995,0.7001 -1.11991,1.53021 -1.43989,2.48034c-0.32997,0.94013 -0.48996,2.07028 -0.50996,3.39046c0,0.10002 0.01,0.35005 0.03,0.77011c0.03,0.41005 0.04,0.66009 0.04,0.7601c0.32997,0.88012 0.78994,1.72024 1.38989,2.50034zM183.68529,325.18387c0.57996,0.90013 1.3399,1.62022 2.27983,2.1703c0.93993,0.54007 1.98984,0.91012 3.14975,1.12015c1.16991,0.20003 2.32982,0.31004 3.48974,0.32004l1.37989,0.01c0.67995,0.01 1.13991,-0.01 1.38989,-0.06c1.84986,-0.47006 3.30975,-1.34018 4.38967,-2.62035c1.06991,-1.28018 1.61987,-2.9104 1.63987,-4.90067c0.01,-1.21017 -0.25998,-2.26031 -0.80994,-3.17043c-0.54995,-0.90013 -1.2599,-1.63023 -2.12983,-2.21031c-0.86994,-0.56007 -1.83986,-0.97013 -2.92978,-1.26017c-1.08991,-0.27004 -2.16983,-0.41005 -3.23975,-0.42006c-1.10992,-0.01 -2.22983,0.13002 -3.34974,0.44006c-1.11992,0.31005 -2.12984,0.78011 -3.02977,1.4302c-0.89993,0.65009 -1.63987,1.44019 -2.19983,2.38032c-0.56996,0.95013 -0.85994,2.02028 -0.86993,3.23044c-0.01,1.4602 0.26998,2.64037 0.83993,3.54049z" fill="#141515" stroke="none" stroke-width="0.26458" stroke-miterlimit="10"/><path d="M174.17602,339.69585c0.59996,-1.74024 1.45989,-3.34045 2.5898,-4.78065c0.18999,-0.24003 0.49996,-0.49007 0.91993,-0.7601c0.40997,-0.26004 0.81994,-0.54008 1.23991,-0.83012c0.40997,-0.28004 0.77994,-0.57007 1.09991,-0.86012c0.30998,-0.28003 0.47997,-0.60008 0.47997,-0.94012c0,-0.34005 -0.12,-0.66009 -0.35998,-0.95013c-0.23998,-0.29004 -0.50996,-0.56008 -0.82993,-0.81011c-0.30998,-0.24003 -0.61996,-0.49007 -0.92993,-0.7301c-0.31998,-0.25004 -0.54996,-0.50007 -0.68995,-0.7401c-0.62995,-0.92013 -1.06992,-1.79025 -1.3199,-2.59036c-0.25998,-0.80011 -0.38997,-1.71023 -0.37997,-2.74037l0.01,-1.23017c0.05,-0.19003 0.13999,-0.57008 0.25998,-1.13015c0.12999,-0.55008 0.26998,-1.13016 0.41997,-1.70024c0.14999,-0.58007 0.29998,-1.14015 0.44997,-1.67022c0.14998,-0.54008 0.26997,-0.92013 0.37997,-1.16016c0.58995,-1.60022 1.44988,-2.95041 2.5798,-4.05056c1.11991,-1.11015 2.38981,-2.01027 3.79971,-2.70036c1.41989,-0.6901 2.90977,-1.20017 4.48965,-1.53021c1.57988,-0.32005 3.14976,-0.48007 4.69964,-0.46007c1.3599,0.01 2.6398,0.25004 3.84971,0.7201c1.2099,0.47007 2.43981,0.93013 3.69971,1.38019c1.15991,0.39005 2.20983,1.06015 3.14976,1.99027c0.93993,0.93013 1.73987,1.98027 2.40982,3.15043c0.66994,1.17016 1.1799,2.38033 1.52988,3.6505c0.34997,1.26017 0.52995,2.48034 0.51996,3.6505c-0.01,0.7201 -0.14999,1.52021 -0.41997,2.39033c-0.27998,0.88012 -0.63995,1.74023 -1.07992,2.61035c-0.44996,0.87012 -0.93993,1.67023 -1.47989,2.39033c-0.53995,0.7201 -1.09991,1.25017 -1.68987,1.59021v0.43006c0,0.44006 0.16999,0.82012 0.53996,1.14016c0.35998,0.32004 0.77994,0.62008 1.25991,0.92012c0.47996,0.29004 0.94993,0.59009 1.40989,0.88013c0.45996,0.30004 0.80994,0.62008 1.04992,0.96013c0.90993,1.37018 1.54988,2.84039 1.91985,4.4206c0.37997,1.58021 0.55996,3.20044 0.54996,4.84066c-0.03,2.57035 -0.56996,4.95068 -1.62988,7.12097c-1.06991,2.1703 -2.5498,4.10056 -4.44965,5.78079c-1.26991,0.67009 -2.55981,1.33018 -3.87971,1.97027c-1.3099,0.65009 -2.69979,1.11015 -4.15968,1.39019l-0.72994,-0.01c-0.28998,-0.01 -0.62995,0.01 -1.01992,0.02c-0.37997,0.02 -0.74994,0.03 -1.08992,0.03l-0.72994,-0.01c-2.51981,-0.02 -4.85963,-0.31004 -7.00946,-0.86012c-2.14984,-0.55007 -4.07969,-1.42019 -5.75956,-2.59035c-1.68987,-1.19016 -3.10976,-2.70037 -4.25968,-4.55062c-1.14991,-1.86025 -1.92985,-4.12056 -2.33982,-6.79093l0.01,-0.87012c0.02,-1.85025 0.31998,-3.6405 0.91993,-5.38073M181.18548,349.12714c0.59996,0.7901 1.26991,1.4902 2.01985,2.10028c0.74994,0.61009 1.57988,1.11015 2.49981,1.48021c0.91993,0.38005 1.85985,0.57007 2.82978,0.58007l6.62949,0.05c0.86993,0.01 1.69987,-0.15001 2.50981,-0.49006c0.79994,-0.33005 1.52988,-0.76011 2.18983,-1.29018c0.65995,-0.53007 1.2699,-1.14015 1.83986,-1.81024c0.55996,-0.6801 1.03992,-1.36019 1.43989,-2.04028l0.28998,-0.58008l0.05,-5.99082c0.01,-0.53007 -0.37998,-1.15016 -1.13992,-1.83025c-0.77994,-0.7001 -1.63987,-1.34018 -2.6098,-1.93026c-0.95992,-0.59009 -1.88985,-1.08015 -2.77978,-1.48021c-0.89993,-0.40005 -1.43989,-0.60008 -1.63988,-0.61008l-6.61949,-0.05c-0.05,0 -0.28998,0.07 -0.72994,0.21003c-0.43997,0.14002 -0.74994,0.26004 -0.94993,0.36005c-1.11991,0.53007 -2.12984,1.05015 -3.02977,1.58022c-0.90993,0.53007 -1.66987,1.14015 -2.30982,1.84025c-0.63995,0.70009 -1.11991,1.5302 -1.43989,2.48034c-0.32997,0.94012 -0.48996,2.07028 -0.50996,3.39046c0,0.10001 0.01,0.35005 0.03,0.7701c0.03,0.41006 0.04,0.66009 0.04,0.76011c0.32998,0.88012 0.78994,1.72023 1.38989,2.50034M183.6853,325.18387c0.57996,0.90012 1.3399,1.62022 2.27983,2.1703c0.93993,0.54007 1.98985,0.91012 3.14976,1.12015c1.16991,0.20003 2.32982,0.31004 3.48973,0.32004l1.37989,0.01c0.67995,0.01 1.13991,-0.01 1.3899,-0.06c1.84985,-0.47006 3.30974,-1.34018 4.38966,-2.62035c1.06991,-1.28018 1.61987,-2.9104 1.63987,-4.90068c0.01,-1.21016 -0.25998,-2.2603 -0.80993,-3.17043c-0.54996,-0.90012 -1.25991,-1.63022 -2.12984,-2.2103c-0.86994,-0.56007 -1.83986,-0.97013 -2.92978,-1.26017c-1.08991,-0.27004 -2.16983,-0.41006 -3.23975,-0.42006c-1.10991,-0.01 -2.22983,0.13002 -3.34974,0.44006c-1.11992,0.31004 -2.12984,0.78011 -3.02977,1.4302c-0.89993,0.65009 -1.63987,1.44019 -2.19983,2.38032c-0.56996,0.95013 -0.85994,2.02028 -0.86993,3.23044c-0.01,1.4602 0.26998,2.64036 0.83993,3.54049" fill="none" stroke="#3eb311" stroke-width="0.10999" stroke-miterlimit="4"/></g></g></svg>