<svg version="1.1" xmlns="http://www.w3.org/2000/svg" xmlns:xlink="http://www.w3.org/1999/xlink" width="64.54854" height="97.20302" viewBox="0,0,64.54854,97.20302"><g transform="translate(-156.20675,-286.30792)"><g data-paper-data="{&quot;isPaintingLayer&quot;:true}" fill-rule="nonzero" stroke-linecap="butt" stroke-linejoin="miter" stroke-dasharray="" stroke-dashoffset="0" style="mix-blend-mode: normal"><path d="M203.42167,289.14686c9.19995,-0.07975 16.72119,7.31229 16.80094,16.50926l0.53205,60.80296c0.07975,9.19995 -7.31229,16.72119 -16.50945,16.80094l-28.75076,0.25022c-9.19604,0.08384 -16.72119,-7.30932 -16.80094,-16.50926l-0.52815,-60.80296c-0.07975,-9.19604 7.3095,-16.72119 16.50945,-16.80094z" fill-opacity="0.69804" fill="#0f150e" stroke="none" stroke-width="1" stroke-miterlimit="10"/><path d="M201.46392,286.30856c9.1993,-0.08001 16.71871,7.311 16.79871,16.51225l0.52996,60.8083c0.08,9.20125 -7.30944,16.73229 -16.50873,16.81229l-28.74779,0.25004c-9.1993,0.08001 -16.71872,-7.311 -16.79871,-16.51226l-0.52996,-60.8183c-0.07999,-9.19125 7.30944,-16.72228 16.50873,-16.80229z" fill="#77b074" stroke="none" stroke-width="0.26458" stroke-miterlimit="10"/><path d="M211.85312,364.29922c-0.23998,2.29031 -0.66994,3.76051 -1.2799,4.4106c-0.59995,0.65009 -1.94985,1.13015 -4.03969,1.44019c-1.48988,0.16003 -5.66956,0.45006 -12.52904,0.87012c-6.85947,0.42006 -12.04907,0.6601 -15.5688,0.7301c-1.58988,0.05 -2.85978,0.07 -3.79971,0.05c-0.93993,-0.03 -1.84986,-0.14002 -2.72979,-0.33004c-0.87993,-0.20003 -1.52988,-0.43006 -1.95985,-0.7101c-0.41997,-0.27004 -0.82993,-0.7201 -1.2299,-1.37019c-0.39997,-0.64009 -0.71995,-1.33018 -0.93993,-2.06028c-0.21998,-0.7401 -0.47996,-1.76024 -0.77994,-3.06042c-0.77994,-3.62049 -1.2999,-7.52102 -1.53988,-11.68159c-0.24998,-4.16057 -0.27998,-10.10138 -0.08999,-17.82244c0.07999,-6.23085 0.04,-10.84148 -0.11999,-13.84188c-0.15999,-2.99041 -0.50996,-5.8508 -1.06992,-8.57117c-1.07992,-4.87067 -1.48989,-8.17112 -1.20991,-9.90135c0.13999,-0.6901 0.31997,-1.19016 0.53996,-1.51021c0.20998,-0.32004 0.61995,-0.64009 1.2499,-0.95013c0.75994,-0.37005 3.9197,-0.89012 9.47927,-1.58021c5.56958,-0.6801 11.00916,-1.24017 16.33875,-1.65023c3.55972,-0.19002 5.39958,-0.31005 5.52957,-0.37005c0.05,0 1.12992,0.01 3.22976,0.06c3.07976,0.17002 5.06961,0.67009 5.97954,1.4902c0.56995,0.50007 0.95992,1.24017 1.14991,2.23031c0.18998,0.99013 0.42996,3.43047 0.72994,7.30099c0.33998,4.73065 0.91993,10.45143 1.72987,17.17234c0.99992,8.53117 1.63987,14.28196 1.90985,17.24236c0.26998,2.9604 0.54996,6.75092 0.84994,11.36155c0.29997,5.82079 0.35997,9.5013 0.16998,11.05151z" fill="#fefefe" stroke="none" stroke-width="0.26458" stroke-miterlimit="10"/><path d="M168.0165,329.76449c0.39997,-2.1303 0.78994,-4.12057 1.13991,-5.96082c0.24998,-1.11015 0.70995,-2.14029 1.3799,-3.08042c0.65995,-0.94013 1.2799,-1.89026 1.86985,-2.85039c0.68995,-1.21016 1.51989,-2.38032 2.46981,-3.51048c0.95993,-1.14015 2.00985,-2.13029 3.15976,-3.00041c1.13991,-0.86011 2.38982,-1.55021 3.72971,-2.07028c1.3399,-0.53007 2.75979,-0.78011 4.25968,-0.7701c2.95977,0.02 5.56957,0.82011 7.8394,2.40032c2.25982,1.57022 4.16968,3.57049 5.69956,5.98082c1.52988,2.42033 2.67979,5.06069 3.45973,7.93108c0.76994,2.87039 1.14992,5.61077 1.12992,8.23113c-0.05,5.34072 -0.85994,10.2814 -2.42982,14.83202c-1.55988,4.54062 -4.34966,8.64118 -8.35936,12.30168c-0.82993,0.57008 -1.93985,0.90012 -3.31974,0.98013c-1.3799,0.09 -2.55981,0.12002 -3.52973,0.11002c-1.01992,0 -2.12984,-0.06 -3.30975,-0.17003c-1.1899,-0.11001 -2.26982,-0.36004 -3.22975,-0.7501c-1.93985,-0.80011 -3.67972,-2.1703 -5.2396,-4.12056c-1.55988,-1.96027 -2.88977,-4.14057 -3.97969,-6.5509c-1.09992,-2.42032 -1.93985,-4.86066 -2.51981,-7.341c-0.58995,-2.48033 -0.87993,-4.64063 -0.85993,-6.48088c0.02,-1.94027 0.22998,-3.98054 0.63995,-6.11083zM174.68599,340.73598c0.31997,1.95027 0.78994,3.82052 1.39989,5.62077c0.23998,0.68009 0.55996,1.32018 0.96993,1.90026c0.40996,0.58008 0.74994,1.20016 1.03992,1.83025c0.05,0.10001 0.1,0.22003 0.13999,0.37005c0.05,0.14002 0.1,0.21003 0.14998,0.21003c0.56996,0.69009 1.15992,1.25017 1.75987,1.69023c0.60995,0.45006 1.2499,0.94013 1.91985,1.4802l7.05946,0.06c0.1,0 0.32997,-0.11002 0.68995,-0.33005c0.36997,-0.21003 0.62995,-0.39005 0.76994,-0.54007c1.70987,-1.43019 3.14976,-3.12043 4.29967,-5.05069c1.15991,-1.93026 1.93985,-4.01055 2.34982,-6.24085c0.1,-0.53007 0.16998,-0.99014 0.19998,-1.38019c0.02,-0.39005 0.05,-0.7401 0.08,-1.05014c0.02,-0.32005 0.05,-0.65009 0.08,-0.99014c0.02,-0.33004 0.10999,-0.7201 0.25998,-1.16016l0.01,-0.65009c0,-0.34004 0.02,-0.71009 0.05,-1.10015c0.02,-0.38005 0.04,-0.7501 0.04,-1.08014l0.01,-0.7301l0.01,-1.38019c0,-0.59008 -0.02,-1.18016 -0.06,-1.79024c-0.04,-0.61009 -0.1,-1.20017 -0.16998,-1.78025c-0.06,-0.59008 -0.18999,-1.07014 -0.37997,-1.4602l-2.78979,-5.99082c-0.05,-0.10001 -0.20998,-0.32004 -0.49996,-0.66009c-0.28998,-0.35004 -0.50996,-0.61008 -0.64995,-0.81011c-0.1,-0.10001 -0.26998,-0.27003 -0.50996,-0.52007c-0.23998,-0.24003 -0.48996,-0.50007 -0.74995,-0.7701c-0.26997,-0.27004 -0.51995,-0.52007 -0.75994,-0.77011c-0.23998,-0.24003 -0.40996,-0.41005 -0.50996,-0.51007c-0.95992,-0.35005 -1.80986,-0.54007 -2.5398,-0.57008c-0.71995,-0.03 -1.59988,-0.05 -2.6198,-0.06c-0.86993,0 -1.59988,0.03 -2.17983,0.09c-0.57996,0.08 -1.09992,0.21003 -1.56988,0.43006c-0.45997,0.21003 -0.89993,0.52008 -1.3199,0.93013c-0.40997,0.41006 -0.88993,0.95013 -1.42989,1.62022c-1.85986,2.37033 -3.15976,4.80066 -3.8897,7.291c-0.71995,2.49034 -1.08992,5.19071 -1.11992,8.1011c-0.02,1.89026 0.13999,3.81052 0.45997,5.75079z" fill="#3eb311" stroke="none" stroke-width="0.26458" stroke-miterlimit="10"/><path d="M171.24625,328.71434c0.40997,-2.12029 0.78994,-4.11056 1.13991,-5.96081c0.25998,-1.11015 0.71995,-2.13029 1.3799,-3.08042c0.65995,-0.94013 1.2899,-1.88026 1.87985,-2.85039c0.67995,-1.21017 1.50989,-2.38033 2.46981,-3.51048c0.94993,-1.13016 1.99985,-2.13029 3.14976,-2.99041c1.14991,-0.87012 2.38982,-1.56021 3.72972,-2.08028c1.33989,-0.53008 2.75979,-0.78011 4.25967,-0.77011c2.96977,0.03 5.57957,0.83012 7.8394,2.41033c2.26982,1.57022 4.16968,3.56049 5.69956,5.97082c1.52988,2.42033 2.68979,5.06069 3.45973,7.93108c0.77994,2.87039 1.14992,5.61076 1.12992,8.24112c-0.05,5.33073 -0.85994,10.2714 -2.41982,14.82203c-1.56988,4.54062 -4.35966,8.64118 -8.36935,12.30168c-0.82994,0.57007 -1.93985,0.90012 -3.31975,0.99013c-1.37989,0.08 -2.5598,0.12002 -3.52973,0.11001c-1.01992,-0.01 -2.11983,-0.07 -3.30975,-0.17002c-1.1899,-0.11001 -2.25982,-0.36005 -3.22975,-0.7601c-1.92985,-0.79011 -3.67971,-2.1703 -5.23959,-4.12056c-1.55988,-1.96027 -2.88978,-4.14057 -3.9797,-6.5509c-1.09991,-2.41033 -1.93985,-4.85066 -2.5198,-7.331c-0.58996,-2.49034 -0.86994,-4.64063 -0.85994,-6.49088c0.02,-1.94027 0.22998,-3.97055 0.63995,-6.11084zM177.91574,339.69584c0.31998,1.94026 0.78994,3.81052 1.40989,5.61077c0.22998,0.68009 0.55996,1.32018 0.95993,1.90026c0.40997,0.59008 0.75994,1.20016 1.03992,1.83025c0.05,0.10001 0.1,0.22002 0.14999,0.37005c0.04,0.14002 0.09,0.21002 0.13999,0.21002c0.57995,0.6901 1.16991,1.25017 1.76986,1.69023c0.59995,0.45007 1.2399,0.94014 1.91985,1.48021l7.04946,0.06c0.1,0 0.32998,-0.11002 0.69995,-0.33005c0.35997,-0.20002 0.61995,-0.38005 0.75994,-0.53007c1.70987,-1.4402 3.14976,-3.13043 4.30967,-5.06069c1.14991,-1.93026 1.92985,-4.01055 2.33982,-6.24085c0.1,-0.53007 0.16999,-0.98014 0.19998,-1.38019c0.02,-0.39006 0.05,-0.7401 0.08,-1.05014c0.03,-0.31005 0.05,-0.65009 0.08,-0.98014c0.03,-0.34004 0.11999,-0.7301 0.26998,-1.17016v-0.65009c0,-0.34004 0.02,-0.70009 0.05,-1.09014c0.03,-0.39006 0.04,-0.75011 0.04,-1.09015l0.01,-0.7301l0.01,-1.38019c0.01,-0.59008 -0.01,-1.18016 -0.06,-1.78025c-0.04,-0.61008 -0.1,-1.21016 -0.15999,-1.79024c-0.07,-0.58008 -0.19998,-1.07014 -0.38997,-1.4602l-2.78978,-5.99082c-0.04,-0.09 -0.20999,-0.32004 -0.49997,-0.66009c-0.28997,-0.34004 -0.49996,-0.61008 -0.64995,-0.81011c-0.09,-0.10001 -0.25998,-0.27003 -0.49996,-0.51007c-0.23998,-0.25003 -0.49996,-0.50006 -0.75994,-0.7701c-0.26998,-0.27004 -0.51996,-0.53008 -0.75994,-0.77011c-0.23998,-0.25003 -0.40997,-0.42005 -0.49996,-0.52007c-0.96993,-0.34004 -1.81986,-0.54007 -2.53981,-0.56007c-0.72994,-0.03 -1.60987,-0.05 -2.6198,-0.06c-0.87993,-0.01 -1.59987,0.02 -2.18983,0.08c-0.57995,0.08 -1.09991,0.22003 -1.55988,0.43006c-0.46996,0.21002 -0.90993,0.52007 -1.3199,0.94012c-0.41997,0.41006 -0.89993,0.95013 -1.43989,1.62022c-1.85985,2.36033 -3.15975,4.79066 -3.8797,7.281c-0.72994,2.49034 -1.09991,5.20071 -1.12991,8.1011c-0.01,1.90026 0.13999,3.82052 0.45996,5.76079z" fill="#fefefe" stroke="none" stroke-width="0.26458" stroke-miterlimit="10"/><path d="M171.24625,328.71434c0.40997,-2.12029 0.78994,-4.11056 1.13991,-5.96081c0.25998,-1.11015 0.71995,-2.13029 1.3799,-3.08042c0.65995,-0.94013 1.2899,-1.88026 1.87985,-2.85039c0.67995,-1.21017 1.50989,-2.38033 2.46981,-3.51048c0.94993,-1.13016 1.99985,-2.13029 3.14976,-2.99041c1.14991,-0.87012 2.38982,-1.56021 3.72972,-2.08028c1.33989,-0.53008 2.75979,-0.78011 4.25967,-0.77011c2.96977,0.03 5.57957,0.83012 7.8394,2.41033c2.26982,1.57022 4.16968,3.56049 5.69956,5.97082c1.52988,2.42033 2.68979,5.06069 3.45973,7.93108c0.77994,2.87039 1.14992,5.61076 1.12992,8.24112c-0.05,5.33073 -0.85994,10.2714 -2.41982,14.82203c-1.56988,4.54062 -4.35966,8.64118 -8.36935,12.30168c-0.82994,0.57007 -1.93985,0.90012 -3.31975,0.99013c-1.37989,0.08 -2.5598,0.12002 -3.52973,0.11001c-1.01992,-0.01 -2.11983,-0.07 -3.30975,-0.17002c-1.1899,-0.11001 -2.25982,-0.36005 -3.22975,-0.7601c-1.92985,-0.79011 -3.67971,-2.1703 -5.23959,-4.12056c-1.55988,-1.96027 -2.88978,-4.14057 -3.9797,-6.5509c-1.09991,-2.41033 -1.93985,-4.85066 -2.5198,-7.331c-0.58996,-2.49034 -0.86994,-4.64063 -0.85994,-6.49088c0.02,-1.94027 0.22998,-3.97055 0.63995,-6.11084M177.91574,339.69584c0.31998,1.94026 0.78994,3.81052 1.40989,5.61077c0.22998,0.68009 0.55996,1.32018 0.95993,1.90026c0.40997,0.59008 0.75994,1.20016 1.03992,1.83025c0.05,0.10001 0.1,0.22002 0.14999,0.37005c0.04,0.14002 0.09,0.21002 0.13999,0.21002c0.57995,0.6901 1.16991,1.25017 1.76986,1.69023c0.59995,0.45007 1.2399,0.94014 1.91985,1.48021l7.04946,0.06c0.1,0 0.32998,-0.11002 0.69995,-0.33005c0.35997,-0.20002 0.61995,-0.38005 0.75994,-0.53007c1.70987,-1.4402 3.14976,-3.13043 4.30967,-5.06069c1.14991,-1.93026 1.92985,-4.01055 2.33982,-6.24085c0.1,-0.53007 0.16999,-0.98014 0.19998,-1.38019c0.02,-0.39006 0.05,-0.7401 0.08,-1.05014c0.03,-0.31005 0.05,-0.65009 0.08,-0.98014c0.03,-0.34004 0.11999,-0.7301 0.26998,-1.17016v-0.65009c0,-0.34004 0.02,-0.70009 0.05,-1.09014c0.03,-0.39006 0.04,-0.75011 0.04,-1.09015l0.01,-0.7301l0.01,-1.38019c0.01,-0.59008 -0.01,-1.18016 -0.06,-1.78025c-0.04,-0.61008 -0.1,-1.21016 -0.15999,-1.79024c-0.07,-0.58008 -0.19998,-1.07014 -0.38997,-1.4602l-2.78978,-5.99082c-0.04,-0.09 -0.20999,-0.32004 -0.49997,-0.66009c-0.28997,-0.34004 -0.49996,-0.61008 -0.64995,-0.81011c-0.09,-0.10001 -0.25998,-0.27003 -0.49996,-0.51007c-0.23998,-0.25003 -0.49996,-0.50006 -0.75994,-0.7701c-0.26998,-0.27004 -0.51996,-0.53008 -0.75994,-0.77011c-0.23998,-0.25003 -0.40997,-0.42005 -0.49996,-0.52007c-0.96993,-0.34004 -1.81986,-0.54007 -2.53981,-0.56007c-0.72994,-0.03 -1.60987,-0.05 -2.6198,-0.06c-0.87993,-0.01 -1.59987,0.02 -2.18983,0.08c-0.57995,0.08 -1.09991,0.22003 -1.55988,0.43006c-0.46996,0.21002 -0.90993,0.52007 -1.3199,0.94012c-0.41997,0.41006 -0.89993,0.95013 -1.43989,1.62022c-1.85985,2.36033 -3.15975,4.79066 -3.8797,7.281c-0.72994,2.49034 -1.09991,5.20071 -1.12991,8.1011c-0.01,1.90026 0.13999,3.82052 0.45996,5.76079" fill="none" stroke="#3eb311" stroke-width="0.10999" stroke-miterlimit="4"/></g></g></svg>