<svg version="1.1" xmlns="http://www.w3.org/2000/svg" xmlns:xlink="http://www.w3.org/1999/xlink" width="64.54855" height="97.20303" viewBox="0,0,64.54855,97.20303"><g transform="translate(-156.20675,-286.30791)"><g data-paper-data="{&quot;isPaintingLayer&quot;:true}" fill-rule="nonzero" stroke-linecap="butt" stroke-linejoin="miter" stroke-dasharray="" stroke-dashoffset="0" style="mix-blend-mode: normal"><path d="M203.42167,289.14686c9.19995,-0.07975 16.72119,7.31229 16.80094,16.50926l0.53205,60.80296c0.07975,9.19995 -7.31229,16.72119 -16.50945,16.80094l-28.75076,0.25022c-9.19604,0.08384 -16.72119,-7.30932 -16.80094,-16.50926l-0.52815,-60.80296c-0.07975,-9.19604 7.3095,-16.72119 16.50945,-16.80094z" fill-opacity="0.69804" fill="#0f150e" stroke="none" stroke-width="1" stroke-miterlimit="10"/><path d="M201.46393,286.30856c9.19929,-0.08001 16.71871,7.311 16.79871,16.51226l0.52996,60.8083c0.07999,9.20125 -7.30944,16.73229 -16.50873,16.81229l-28.7478,0.25003c-9.19929,0.08002 -16.71871,-7.31099 -16.79871,-16.51225l-0.52996,-60.8183c-0.07999,-9.19126 7.30944,-16.72228 16.50874,-16.80229z" fill="#77b074" stroke="none" stroke-width="0.26458" stroke-miterlimit="10"/><path d="M210.73323,364.63927c-0.23998,2.30031 -0.66995,3.77051 -1.2799,4.4206c-0.59996,0.65009 -1.94985,1.12016 -4.02969,1.4302c-1.49989,0.17002 -5.67957,0.46006 -12.53904,0.88012c-6.85947,0.41005 -12.04908,0.6501 -15.56881,0.7201c-1.58987,0.06 -2.85978,0.07 -3.7997,0.05c-0.93993,-0.02001 -1.84986,-0.14002 -2.72979,-0.33005c-0.87994,-0.20003 -1.52989,-0.43006 -1.95985,-0.70009c-0.41997,-0.27004 -0.82994,-0.73011 -1.22991,-1.37019c-0.39997,-0.64009 -0.71994,-1.33018 -0.93993,-2.07028c-0.21998,-0.73011 -0.47996,-1.75024 -0.77994,-3.05042c-0.77994,-3.63049 -1.2999,-7.53103 -1.53988,-11.6916c-0.24999,-4.16057 -0.27999,-10.10138 -0.09,-17.82243c0.07999,-6.23085 0.03999,-10.84148 -0.11999,-13.83189c-0.15999,-2.99041 -0.50996,-5.8508 -1.06992,-8.58117c-1.07992,-4.87066 -1.48989,-8.17111 -1.20991,-9.89135c0.13999,-0.69009 0.31998,-1.20016 0.53996,-1.52021c0.20998,-0.32004 0.62995,-0.64008 1.2499,-0.95013c0.75995,-0.37005 3.9197,-0.89012 9.47928,-1.58021c5.56957,-0.6801 11.00915,-1.23017 16.33874,-1.65023c3.55973,-0.18002 5.39959,-0.31005 5.53958,-0.37005c0.03999,0 1.11991,0.02 3.21975,0.06c3.07976,0.17002 5.06961,0.67009 5.97954,1.50021c0.57996,0.49006 0.95993,1.23016 1.14991,2.2303c0.18999,0.99014 0.42997,3.43047 0.72995,7.301c0.33997,4.73064 0.91993,10.45143 1.72986,17.16234c0.99993,8.53117 1.63988,14.28195 1.90986,17.24236c0.26997,2.9604 0.54995,6.75092 0.84993,11.37155c0.29998,5.81079 0.35997,9.49129 0.16999,11.0415z" fill="#fefefe" stroke="none" stroke-width="0.26458" stroke-miterlimit="10"/><path d="M166.90658,346.19674c0.21999,-0.90013 0.57996,-1.70023 1.06992,-2.40033c0.48996,-0.69009 1.12991,-1.25017 1.90985,-1.65022c0.77994,-0.41006 1.71987,-0.61009 2.83979,-0.60009c0.77994,0.01 1.43989,0.20003 1.99984,0.56008c0.54996,0.37005 1.00993,0.85011 1.3699,1.43019c0.35997,0.59008 0.61995,1.22017 0.77994,1.91026c0.16998,0.6701 0.23998,1.33019 0.23998,1.96027c-0.01,0.68009 -0.15999,1.31018 -0.45997,1.89026c-0.28997,0.58008 -0.43996,1.19016 -0.44996,1.82025c0,0.58008 0.17999,1.04014 0.53996,1.38019c0.35997,0.34004 0.78994,0.64008 1.2999,0.89012c0.50996,0.24003 1.03992,0.46006 1.58988,0.63008c0.55995,0.17003 1.00992,0.41006 1.34989,0.7001l5.44958,0.05c0.53996,-0.43006 1.15992,-0.7201 1.86986,-0.86012c0.69995,-0.14002 1.3199,-0.40005 1.85986,-0.7801c1.70987,-1.24017 2.90977,-2.70037 3.59972,-4.3706c0.69995,-1.67023 1.04992,-3.52048 1.06992,-5.56076c0.02,-2.43033 -0.49996,-4.3906 -1.54988,-5.91081c-1.04992,-1.5102 -2.41982,-2.9804 -4.10969,-4.4006l-4.28967,-0.04c-0.68994,0.58008 -1.3299,0.96013 -1.93985,1.15016c-0.60995,0.19003 -1.34989,0.28004 -2.21983,0.27004c-1.06992,-0.01 -1.87985,-0.20003 -2.42981,-0.60008c-0.55996,-0.40006 -0.82994,-1.15016 -0.81994,-2.26031c0.01,-0.88012 0.25998,-1.70024 0.74994,-2.47034c0.48997,-0.78011 1.06992,-1.52021 1.72987,-2.25031c0.65995,-0.7201 1.3599,-1.41019 2.08984,-2.09028c0.72995,-0.6701 1.3399,-1.34019 1.82986,-2.02028c0.05,-0.04 0.14999,-0.20003 0.29998,-0.47006c0.14999,-0.26004 0.31997,-0.56008 0.51996,-0.90013c0.19998,-0.34004 0.37997,-0.64008 0.54995,-0.91012c0.16999,-0.26004 0.27998,-0.44006 0.32998,-0.54007c0.24998,-0.34005 0.47996,-0.62009 0.69995,-0.83012c0.21998,-0.22003 0.41997,-0.43006 0.58995,-0.65009c0.16999,-0.22003 0.30998,-0.46006 0.40997,-0.7201c0.1,-0.27003 0.14999,-0.67009 0.14999,-1.21016l-11.7791,-0.10001c-0.38997,0 -0.63995,0.38005 -0.73994,1.12015c-0.10999,0.7601 -0.23998,1.57021 -0.38997,2.44033c-0.14999,0.87012 -0.45997,1.68023 -0.92993,2.43034c-0.46996,0.7501 -1.2599,1.11015 -2.36982,1.10015c-1.01992,0 -1.82986,-0.36005 -2.42981,-1.07015c-0.59995,-0.7101 -0.89993,-1.55021 -0.88993,-2.52035c0,-0.05 0.01,-0.12001 0.04,-0.22003c0.02,-0.09 0.04,-0.17002 0.04,-0.22003c0.04,-0.19002 0.13999,-0.55007 0.25998,-1.09014c0.12999,-0.53008 0.25998,-1.09015 0.41997,-1.70024c0.14998,-0.61008 0.29997,-1.18016 0.44996,-1.72023c0.14999,-0.54007 0.24998,-0.93013 0.29998,-1.17016c0.14999,-0.59008 0.31997,-1.17016 0.51996,-1.73024c0.19998,-0.56007 0.44996,-1.07014 0.74994,-1.53021c0.28998,-0.46006 0.66995,-0.84011 1.12991,-1.13015c0.46997,-0.29004 1.05992,-0.43006 1.78987,-0.42006c0.62995,0 1.2199,0.05 1.77986,0.15002c0.55996,0.11002 1.16991,0.16003 1.85986,0.16003c0.91993,0.02 1.70987,0.01 2.35982,-0.01c0.65994,-0.02 1.43988,-0.10002 2.36981,-0.23004l12.79902,0.11002c1.06992,0.01 1.85986,0.34005 2.35982,1.00014c0.49996,0.66009 0.74994,1.4802 0.73994,2.45033c0,0.78011 -0.28997,1.64022 -0.85993,2.58035c-0.55996,0.94013 -1.20991,1.88026 -1.94985,2.82039c-0.72995,0.95013 -1.49989,1.82025 -2.27983,2.64036c-0.77994,0.82011 -1.39989,1.52021 -1.83986,2.10028c-0.33997,0.44006 -0.74994,0.88012 -1.2399,1.34019c-0.48996,0.45006 -0.73994,1.03014 -0.73994,1.70023c-0.01,0.25003 0.01,0.44006 0.06,0.59008c0.05,0.15002 0.21998,0.27004 0.50996,0.36005l5.06961,2.02028c0.38997,0.34004 0.69994,0.62008 0.93992,0.84011c0.24998,0.23003 0.47997,0.44006 0.71995,0.67009c0.23998,0.22003 0.43997,0.40006 0.57995,0.55008c1.05992,0.98013 2.02985,2.2503 2.91978,3.81052c0.87993,1.57021 1.3099,3.05041 1.2999,4.46061l-0.06,7.14097c0,0.10001 -0.04,0.30004 -0.11999,0.62008c-0.07,0.32005 -0.14999,0.65009 -0.21998,1.01014c-0.08,0.37005 -0.17999,0.7201 -0.29998,1.06015c-0.12999,0.34005 -0.20998,0.58008 -0.25998,0.7301c-0.59995,1.4502 -1.18991,2.75037 -1.77986,3.88053c-0.59996,1.14015 -1.2799,2.14029 -2.06984,3.01041c-0.77994,0.87012 -1.68987,1.61022 -2.7098,2.2303c-1.01992,0.63009 -2.25982,1.15016 -3.71971,1.57022c-0.53996,0.19002 -1.00992,0.44006 -1.42989,0.7501c-0.40997,0.32004 -0.88993,0.55008 -1.41989,0.68009l-2.76979,-0.02l-2.68979,-0.02c-0.67995,-0.06 -1.2999,-0.27003 -1.84986,-0.64009c-0.55996,-0.37004 -1.16991,-0.65009 -1.84986,-0.85011c-0.05,0 -0.19998,-0.03 -0.43996,-0.08c-0.23999,-0.05 -0.49997,-0.10001 -0.78994,-0.15002c-0.29998,-0.05 -0.57996,-0.11002 -0.83994,-0.19003c-0.26998,-0.07 -0.42997,-0.11001 -0.46996,-0.11001c-1.01992,-0.30004 -2.05984,-0.81011 -3.11976,-1.52021c-1.05992,-0.7101 -1.99985,-1.55021 -2.81979,-2.50034c-0.80993,-0.95013 -1.47988,-1.99027 -2.00984,-3.11043c-0.51996,-1.12015 -0.77994,-2.2403 -0.76994,-3.35045c0.01,-1.03014 0.12999,-1.97027 0.35997,-2.87039z" fill="#3eb311" stroke="none" stroke-width="0.26458" stroke-miterlimit="10"/><path d="M170.13634,345.14659c0.21998,-0.90012 0.57995,-1.70023 1.07991,-2.40032c0.48997,-0.6901 1.11992,-1.25017 1.89986,-1.65023c0.77994,-0.41006 1.72986,-0.60008 2.83978,-0.59008c0.77994,0 1.44989,0.19003 1.99985,0.56008c0.55995,0.37005 1.00992,0.85011 1.36989,1.43019c0.35997,0.58008 0.61995,1.22017 0.77994,1.90026c0.16999,0.68009 0.24998,1.34018 0.23998,1.96027c0,0.68009 -0.14999,1.31018 -0.44996,1.90026c-0.29998,0.57008 -0.44997,1.18016 -0.44997,1.81025c-0.01,0.58008 0.16999,1.04014 0.52996,1.38018c0.35997,0.35005 0.78994,0.64009 1.2999,0.89013c0.50996,0.25003 1.03992,0.46006 1.59988,0.63008c0.54996,0.18002 0.99992,0.41006 1.3399,0.7001l5.45957,0.05c0.52996,-0.43006 1.14992,-0.7201 1.85986,-0.85012c0.69995,-0.14002 1.3299,-0.40005 1.85986,-0.79011c1.70987,-1.24017 2.90978,-2.70037 3.60972,-4.37059c0.68995,-1.67023 1.04992,-3.52048 1.05992,-5.56076c0.02,-2.42033 -0.48996,-4.3906 -1.54988,-5.90081c-1.04992,-1.52021 -2.41981,-2.9804 -4.10968,-4.4106l-4.28968,-0.04c-0.67994,0.58008 -1.32989,0.96013 -1.93985,1.15016c-0.60995,0.19003 -1.34989,0.28004 -2.21982,0.27004c-1.06992,-0.01 -1.87986,-0.20003 -2.42982,-0.60009c-0.55996,-0.39005 -0.82994,-1.15015 -0.81994,-2.26031c0.01,-0.88012 0.25998,-1.70023 0.74995,-2.47033c0.48996,-0.77011 1.06991,-1.52021 1.72986,-2.24031c0.65995,-0.7301 1.3599,-1.42019 2.08984,-2.09028c0.73995,-0.68009 1.3499,-1.35019 1.83986,-2.02028c0.05,-0.05 0.14999,-0.21003 0.28998,-0.47006c0.14999,-0.27004 0.31997,-0.57008 0.51996,-0.91013c0.19999,-0.34004 0.37997,-0.64008 0.55996,-0.90012c0.16998,-0.27004 0.27998,-0.45006 0.32997,-0.54007c0.23998,-0.34005 0.47996,-0.62009 0.69995,-0.84012c0.20998,-0.22003 0.40997,-0.43006 0.57995,-0.64009c0.16999,-0.22003 0.30998,-0.47006 0.40997,-0.7301c0.1,-0.26003 0.14999,-0.67009 0.15999,-1.20016l-11.7891,-0.10002c-0.38997,-0.01 -0.63995,0.37006 -0.73994,1.12016c-0.1,0.7501 -0.22998,1.56021 -0.37997,2.43033c-0.15999,0.87012 -0.46996,1.68023 -0.92993,2.43033c-0.46996,0.75011 -1.2699,1.12015 -2.37982,1.11015c-1.01992,-0.01 -1.82985,-0.37005 -2.42981,-1.08015c-0.59995,-0.71009 -0.88993,-1.5402 -0.88993,-2.52034c0,-0.04 0.02,-0.12001 0.04,-0.22003c0.03,-0.09 0.04,-0.16002 0.04,-0.22003c0.05,-0.18002 0.13999,-0.55007 0.25998,-1.08015c0.12999,-0.54007 0.26998,-1.10015 0.41997,-1.71023c0.14999,-0.61008 0.29997,-1.18016 0.44996,-1.72023c0.14999,-0.54008 0.24998,-0.93013 0.29998,-1.17016c0.14999,-0.59008 0.32997,-1.16016 0.52996,-1.72024c0.18998,-0.56008 0.43997,-1.08015 0.73994,-1.54021c0.28998,-0.46006 0.66995,-0.84011 1.13991,-1.13015c0.45997,-0.29004 1.05992,-0.43006 1.77987,-0.42006c0.62995,0 1.2299,0.06 1.77986,0.15002c0.55996,0.11001 1.17991,0.16002 1.85986,0.17002c0.91993,0.01 1.70987,0 2.36982,-0.02c0.64995,-0.01 1.43989,-0.10001 2.35982,-0.23003l12.80901,0.11002c1.05992,0.01 1.84986,0.34004 2.34982,1.01013c0.50996,0.66009 0.75994,1.47021 0.74994,2.44034c-0.01,0.7801 -0.29997,1.64022 -0.85993,2.58035c-0.56996,0.94013 -1.21991,1.89026 -1.95985,2.83039c-0.72994,0.94012 -1.48989,1.82024 -2.27982,2.64036c-0.77995,0.81011 -1.3899,1.5102 -1.82986,2.10028c-0.33998,0.43006 -0.76994,0.87012 -1.24991,1.33019c-0.48996,0.46006 -0.73994,1.03014 -0.73994,1.70023c0,0.25003 0.02,0.44006 0.06,0.59008c0.05,0.15002 0.21998,0.27004 0.50996,0.37005l5.07961,2.01027c0.37997,0.35005 0.68995,0.62009 0.92993,0.85012c0.24998,0.22003 0.48996,0.44006 0.72994,0.66009c0.23998,0.22003 0.42997,0.41005 0.56996,0.55007c1.05992,0.98014 2.02984,2.26031 2.91977,3.82053c0.87994,1.56021 1.3199,3.05041 1.3099,4.46061l-0.07,7.14097c0,0.09 -0.04,0.30004 -0.10999,0.61008c-0.08,0.32005 -0.14999,0.66009 -0.22998,1.02014c-0.08,0.36005 -0.17999,0.7201 -0.29998,1.05015c-0.11999,0.34004 -0.20998,0.58007 -0.25998,0.7301c-0.58995,1.45019 -1.18991,2.75037 -1.77986,3.88053c-0.58996,1.14015 -1.2799,2.14029 -2.05984,3.01041c-0.78994,0.87012 -1.68987,1.62022 -2.7098,2.2303c-1.02992,0.63009 -2.26982,1.15016 -3.72971,1.57021c-0.52996,0.20003 -1.00992,0.45007 -1.42989,0.76011c-0.40997,0.32004 -0.88993,0.54007 -1.41989,0.68009l-2.76979,-0.03l-2.68979,-0.02c-0.67995,-0.05 -1.2999,-0.27004 -1.84986,-0.63008c-0.55996,-0.37006 -1.16991,-0.6601 -1.84986,-0.86012c-0.05,0 -0.18998,-0.02 -0.42996,-0.07c-0.24999,-0.05 -0.50997,-0.10002 -0.79994,-0.15002c-0.28998,-0.06 -0.56996,-0.12002 -0.83994,-0.19003c-0.25998,-0.08 -0.41997,-0.12002 -0.46996,-0.12002c-1.00992,-0.30004 -2.04984,-0.81011 -3.11976,-1.5202c-1.05992,-0.7101 -1.98985,-1.55022 -2.80979,-2.50035c-0.81993,-0.95012 -1.48988,-1.99027 -2.00984,-3.11042c-0.52996,-1.12015 -0.77994,-2.2303 -0.77994,-3.35046c0.02,-1.02014 0.12999,-1.97026 0.35997,-2.87039z" fill="#fefefe" stroke="none" stroke-width="0.26458" stroke-miterlimit="10"/><path d="M170.13634,345.14659c0.21998,-0.90012 0.57995,-1.70023 1.07991,-2.40032c0.48997,-0.6901 1.11992,-1.25017 1.89986,-1.65023c0.77994,-0.41006 1.72986,-0.60008 2.83978,-0.59008c0.77994,0 1.44989,0.19003 1.99985,0.56008c0.55995,0.37005 1.00992,0.85011 1.36989,1.43019c0.35997,0.58008 0.61995,1.22017 0.77994,1.90026c0.16999,0.68009 0.24998,1.34018 0.23998,1.96027c0,0.68009 -0.14999,1.31018 -0.44996,1.90026c-0.29998,0.57008 -0.44997,1.18016 -0.44997,1.81025c-0.01,0.58008 0.16999,1.04014 0.52996,1.38018c0.35997,0.35005 0.78994,0.64009 1.2999,0.89013c0.50996,0.25003 1.03992,0.46006 1.59988,0.63008c0.54996,0.18002 0.99992,0.41006 1.3399,0.7001l5.45957,0.05c0.52996,-0.43006 1.14992,-0.7201 1.85986,-0.85012c0.69995,-0.14002 1.3299,-0.40005 1.85986,-0.79011c1.70987,-1.24017 2.90978,-2.70037 3.60972,-4.37059c0.68995,-1.67023 1.04992,-3.52048 1.05992,-5.56076c0.02,-2.42033 -0.48996,-4.3906 -1.54988,-5.90081c-1.04992,-1.52021 -2.41981,-2.9804 -4.10968,-4.4106l-4.28968,-0.04c-0.67994,0.58008 -1.32989,0.96013 -1.93985,1.15016c-0.60995,0.19003 -1.34989,0.28004 -2.21982,0.27004c-1.06992,-0.01 -1.87986,-0.20003 -2.42982,-0.60009c-0.55996,-0.39005 -0.82994,-1.15015 -0.81994,-2.26031c0.01,-0.88012 0.25998,-1.70023 0.74995,-2.47033c0.48996,-0.77011 1.06991,-1.52021 1.72986,-2.24031c0.65995,-0.7301 1.3599,-1.42019 2.08984,-2.09028c0.73995,-0.68009 1.3499,-1.35019 1.83986,-2.02028c0.05,-0.05 0.14999,-0.21003 0.28998,-0.47006c0.14999,-0.27004 0.31997,-0.57008 0.51996,-0.91013c0.19999,-0.34004 0.37997,-0.64008 0.55996,-0.90012c0.16998,-0.27004 0.27998,-0.45006 0.32997,-0.54007c0.23998,-0.34005 0.47996,-0.62009 0.69995,-0.84012c0.20998,-0.22003 0.40997,-0.43006 0.57995,-0.64009c0.16999,-0.22003 0.30998,-0.47006 0.40997,-0.7301c0.1,-0.26003 0.14999,-0.67009 0.15999,-1.20016l-11.7891,-0.10002c-0.38997,-0.01 -0.63995,0.37006 -0.73994,1.12016c-0.1,0.7501 -0.22998,1.56021 -0.37997,2.43033c-0.15999,0.87012 -0.46996,1.68023 -0.92993,2.43033c-0.46996,0.75011 -1.2699,1.12015 -2.37982,1.11015c-1.01992,-0.01 -1.82985,-0.37005 -2.42981,-1.08015c-0.59995,-0.71009 -0.88993,-1.5402 -0.88993,-2.52034c0,-0.04 0.02,-0.12001 0.04,-0.22003c0.03,-0.09 0.04,-0.16002 0.04,-0.22003c0.05,-0.18002 0.13999,-0.55007 0.25998,-1.08015c0.12999,-0.54007 0.26998,-1.10015 0.41997,-1.71023c0.14999,-0.61008 0.29997,-1.18016 0.44996,-1.72023c0.14999,-0.54008 0.24998,-0.93013 0.29998,-1.17016c0.14999,-0.59008 0.32997,-1.16016 0.52996,-1.72024c0.18998,-0.56008 0.43997,-1.08015 0.73994,-1.54021c0.28998,-0.46006 0.66995,-0.84011 1.13991,-1.13015c0.45997,-0.29004 1.05992,-0.43006 1.77987,-0.42006c0.62995,0 1.2299,0.06 1.77986,0.15002c0.55996,0.11001 1.17991,0.16002 1.85986,0.17002c0.91993,0.01 1.70987,0 2.36982,-0.02c0.64995,-0.01 1.43989,-0.10001 2.35982,-0.23003l12.80901,0.11002c1.05992,0.01 1.84986,0.34004 2.34982,1.01013c0.50996,0.66009 0.75994,1.47021 0.74994,2.44034c-0.01,0.7801 -0.29997,1.64022 -0.85993,2.58035c-0.56996,0.94013 -1.21991,1.89026 -1.95985,2.83039c-0.72994,0.94012 -1.48989,1.82024 -2.27982,2.64036c-0.77995,0.81011 -1.3899,1.5102 -1.82986,2.10028c-0.33998,0.43006 -0.76994,0.87012 -1.24991,1.33019c-0.48996,0.46006 -0.73994,1.03014 -0.73994,1.70023c0,0.25003 0.02,0.44006 0.06,0.59008c0.05,0.15002 0.21998,0.27004 0.50996,0.37005l5.07961,2.01027c0.37997,0.35005 0.68995,0.62009 0.92993,0.85012c0.24998,0.22003 0.48996,0.44006 0.72994,0.66009c0.23998,0.22003 0.42997,0.41005 0.56996,0.55007c1.05992,0.98014 2.02984,2.26031 2.91977,3.82053c0.87994,1.56021 1.3199,3.05041 1.3099,4.46061l-0.07,7.14097c0,0.09 -0.04,0.30004 -0.10999,0.61008c-0.08,0.32005 -0.14999,0.66009 -0.22998,1.02014c-0.08,0.36005 -0.17999,0.7201 -0.29998,1.05015c-0.11999,0.34004 -0.20998,0.58007 -0.25998,0.7301c-0.58995,1.45019 -1.18991,2.75037 -1.77986,3.88053c-0.58996,1.14015 -1.2799,2.14029 -2.05984,3.01041c-0.78994,0.87012 -1.68987,1.62022 -2.7098,2.2303c-1.02992,0.63009 -2.26982,1.15016 -3.72971,1.57021c-0.52996,0.20003 -1.00992,0.45007 -1.42989,0.76011c-0.40997,0.32004 -0.88993,0.54007 -1.41989,0.68009l-2.76979,-0.03l-2.68979,-0.02c-0.67995,-0.05 -1.2999,-0.27004 -1.84986,-0.63008c-0.55996,-0.37006 -1.16991,-0.6601 -1.84986,-0.86012c-0.05,0 -0.18998,-0.02 -0.42996,-0.07c-0.24999,-0.05 -0.50997,-0.10002 -0.79994,-0.15002c-0.28998,-0.06 -0.56996,-0.12002 -0.83994,-0.19003c-0.25998,-0.08 -0.41997,-0.12002 -0.46996,-0.12002c-1.00992,-0.30004 -2.04984,-0.81011 -3.11976,-1.5202c-1.05992,-0.7101 -1.98985,-1.55022 -2.80979,-2.50035c-0.81993,-0.95012 -1.48988,-1.99027 -2.00984,-3.11042c-0.52996,-1.12015 -0.77994,-2.2303 -0.77994,-3.35046c0.02,-1.02014 0.12999,-1.97026 0.35997,-2.87039" fill="none" stroke="#3eb311" stroke-width="0.10999" stroke-miterlimit="4"/></g></g></svg>