<svg version="1.1" xmlns="http://www.w3.org/2000/svg" xmlns:xlink="http://www.w3.org/1999/xlink" width="64.54853" height="97.20303" viewBox="0,0,64.54853,97.20303"><g transform="translate(-156.20677,-286.30791)"><g data-paper-data="{&quot;isPaintingLayer&quot;:true}" fill-rule="nonzero" stroke-linecap="butt" stroke-linejoin="miter" stroke-dasharray="" stroke-dashoffset="0" style="mix-blend-mode: normal"><path d="M203.42167,289.14686c9.19995,-0.07975 16.72119,7.31229 16.80094,16.50926l0.53205,60.80296c0.07975,9.19995 -7.31229,16.72119 -16.50945,16.80094l-28.75076,0.25022c-9.19604,0.08384 -16.72119,-7.30932 -16.80094,-16.50926l-0.52815,-60.80296c-0.07975,-9.19604 7.3095,-16.72119 16.50945,-16.80094z" fill-opacity="0.69804" fill="#0f150e" stroke="none" stroke-width="1" stroke-miterlimit="10"/><path d="M201.46393,286.30856c9.1993,-0.08001 16.71871,7.311 16.79871,16.51225l0.52996,60.8083c0.08,9.20126 -7.30944,16.7323 -16.50873,16.8123l-28.74779,0.25003c-9.19929,0.08001 -16.71872,-7.311 -16.79871,-16.51225l-0.52996,-60.8183c-0.07999,-9.19126 7.30944,-16.7223 16.50873,-16.8023z" fill="#77b074" stroke="none" stroke-width="0.26458" stroke-miterlimit="10"/><path d="M197.66422,366.83955c0.09,0 0.25998,0.09 0.47997,0.22003c0.29998,0.48007 0.46996,0.99014 0.46996,1.52021c-0.01,1.38019 -0.76994,2.36032 -2.26982,2.9104c-1.44989,0.37005 -2.80979,0.58008 -4.12969,0.57007c-0.52996,-0.01 -1.00992,-0.05 -1.40989,-0.10001c-0.91993,-0.01 -2.28982,0.07 -4.21967,0.09c-1.88986,0.03 -3.29975,0.06 -4.17968,0.05c-2.45981,-0.02 -3.81971,-0.08 -4.11969,-0.20003c-1.05992,-0.36005 -1.57988,-1.45019 -1.55988,-3.30045c0.01,-1.21016 0.84993,-2.11029 2.48981,-2.65036c0.69995,-0.21003 1.53988,-0.34005 2.5498,-0.33004c0.52996,0.01 1.31989,0.10001 2.40981,0.15001c1.05992,0.14002 1.88986,0.19003 2.41981,0.20003c0.47997,0 1.22991,-0.08 2.19983,-0.20003c0.87994,-0.21002 1.62988,-0.29003 2.14984,-0.28003c0.57996,0 1.01992,0.09 1.3699,0.31004c0.69994,0.01 2.14983,-0.42006 2.72979,-0.41006c0.20998,0 0.38997,0.05 0.60995,0.18003c0.51996,0.31004 1.17991,0.70009 2.00984,1.27017z" fill="#5c486d" stroke="none" stroke-width="0.26458" stroke-miterlimit="10"/><path d="M197.66422,366.83955c0.09,0 0.25998,0.09 0.47997,0.22003c0.29998,0.48007 0.46996,0.99014 0.46996,1.52021c-0.01,1.38019 -0.76994,2.36032 -2.26982,2.9104c-1.44989,0.37005 -2.80979,0.58008 -4.12969,0.57007c-0.52996,-0.01 -1.00992,-0.05 -1.40989,-0.10001c-0.91993,-0.01 -2.28982,0.07 -4.21967,0.09c-1.88986,0.03 -3.29975,0.06 -4.17968,0.05c-2.45981,-0.02 -3.81971,-0.08 -4.11969,-0.20003c-1.05992,-0.36005 -1.57988,-1.45019 -1.55988,-3.30045c0.01,-1.21016 0.84993,-2.11029 2.48981,-2.65036c0.69995,-0.21003 1.53988,-0.34005 2.5498,-0.33004c0.52996,0.01 1.31989,0.10001 2.40981,0.15001c1.05992,0.14002 1.88986,0.19003 2.41981,0.20003c0.47997,0 1.22991,-0.08 2.19983,-0.20003c0.87994,-0.21002 1.62988,-0.29003 2.14984,-0.28003c0.57996,0 1.01992,0.09 1.3699,0.31004c0.69994,0.01 2.14983,-0.42006 2.72979,-0.41006c0.20998,0 0.38997,0.05 0.60995,0.18003c0.51996,0.31004 1.17991,0.70009 2.00984,1.27017z" fill="#c08adc" stroke="none" stroke-width="0.26458" stroke-miterlimit="10"/><path d="M198.67415,366.38949c0.09,0 0.25998,0.08 0.46996,0.20003c0.29998,0.45006 0.45997,0.93012 0.45997,1.41019c-0.01,1.29018 -0.74995,2.2003 -2.21983,2.71037c-1.41989,0.35005 -2.74979,0.54007 -4.04969,0.53007c-0.50996,0 -0.97993,-0.05 -1.3699,-0.09c-0.89993,-0.01 -2.23982,0.06 -4.12968,0.08c-1.84986,0.03 -3.22975,0.05 -4.08969,0.05c-2.40981,-0.02 -3.73971,-0.08 -4.03969,-0.20003c-1.02992,-0.33004 -1.53988,-1.34018 -1.51988,-3.06041c0.01,-1.13016 0.82994,-1.96027 2.42981,-2.47034c0.68995,-0.20003 1.50988,-0.31004 2.49981,-0.30004c0.50996,0 1.2899,0.09 2.35982,0.14002c1.02992,0.13002 1.84986,0.18002 2.36982,0.18002c0.46996,0 1.19991,-0.07 2.14983,-0.18002c0.85994,-0.19003 1.58988,-0.27004 2.10984,-0.26004c0.55996,0 0.98993,0.09 1.3299,0.29004c0.68995,0 2.10984,-0.39005 2.66979,-0.38005c0.21999,0 0.38997,0.04 0.59996,0.16002c0.50996,0.29004 1.15991,0.66009 1.96985,1.19016z" fill="#251a29" stroke="none" stroke-width="0.26458" stroke-miterlimit="10"/><path d="M198.67415,366.38949c0.09,0 0.25998,0.08 0.46996,0.20003c0.29998,0.45006 0.45997,0.93012 0.45997,1.41019c-0.01,1.29018 -0.74995,2.2003 -2.21983,2.71037c-1.41989,0.35005 -2.74979,0.54007 -4.04969,0.53007c-0.50996,0 -0.97993,-0.05 -1.3699,-0.09c-0.89993,-0.01 -2.23982,0.06 -4.12968,0.08c-1.84986,0.03 -3.22975,0.05 -4.08969,0.05c-2.40981,-0.02 -3.73971,-0.08 -4.03969,-0.20003c-1.02992,-0.33004 -1.53988,-1.34018 -1.51988,-3.06041c0.01,-1.13016 0.82994,-1.96027 2.42981,-2.47034c0.68995,-0.20003 1.50988,-0.31004 2.49981,-0.30004c0.50996,0 1.2899,0.09 2.35982,0.14002c1.02992,0.13002 1.84986,0.18002 2.36982,0.18002c0.46996,0 1.19991,-0.07 2.14983,-0.18002c0.85994,-0.19003 1.58988,-0.27004 2.10984,-0.26004c0.55996,0 0.98993,0.09 1.3299,0.29004c0.68995,0 2.10984,-0.39005 2.66979,-0.38005c0.21999,0 0.38997,0.04 0.59996,0.16002c0.50996,0.29004 1.15991,0.66009 1.96985,1.19016" fill="none" stroke="#c08adc" stroke-width="0.10999" stroke-miterlimit="4"/><path d="M211.86312,365.34936c-0.23998,2.29032 -0.65995,3.76051 -1.2699,4.4106c-0.60995,0.65009 -1.94985,1.13016 -4.03969,1.4302c-1.49988,0.17002 -5.67956,0.46006 -12.53904,0.88012c-6.85947,0.41006 -12.04907,0.6601 -15.5588,0.7301c-1.59988,0.05 -2.86978,0.07 -3.80971,0.04c-0.92993,-0.02 -1.84986,-0.13002 -2.71979,-0.33005c-0.87993,-0.19002 -1.52988,-0.43005 -1.95985,-0.70009c-0.42997,-0.27004 -0.83994,-0.7201 -1.2399,-1.37019c-0.39997,-0.64009 -0.70995,-1.33018 -0.92993,-2.06028c-0.21998,-0.7401 -0.47996,-1.76024 -0.77994,-3.06042c-0.78994,-3.62049 -1.2999,-7.52102 -1.54988,-11.68159c-0.23998,-4.16057 -0.26998,-10.10138 -0.08999,-17.82244c0.07999,-6.23085 0.05,-10.85148 -0.10999,-13.84188c-0.15999,-2.99041 -0.51996,-5.8508 -1.06992,-8.57118c-1.08992,-4.87066 -1.48989,-8.17111 -1.21991,-9.90135c0.14999,-0.69009 0.32997,-1.19016 0.53996,-1.5202c0.20998,-0.32005 0.62995,-0.63009 1.2499,-0.94013c0.75994,-0.37005 3.9197,-0.89012 9.48927,-1.58022c5.55957,-0.68009 11.00916,-1.24017 16.33875,-1.66022c3.54972,-0.18003 5.39958,-0.30005 5.52957,-0.37005c0.04,0 1.11992,0.02 3.22975,0.06c3.06977,0.18002 5.05962,0.68009 5.97955,1.5002c0.56995,0.50007 0.94992,1.24017 1.13991,2.2303c0.18998,0.99014 0.42996,3.43047 0.72994,7.301c0.33998,4.73065 0.91993,10.45143 1.73987,17.17235c0.99992,8.53116 1.62987,14.28194 1.90985,17.23235c0.26998,2.9704 0.54996,6.75092 0.83994,11.37155c0.30997,5.82079 0.35997,9.5013 0.16998,11.05151z" fill="#fefefe" stroke="none" stroke-width="0.26458" stroke-miterlimit="10"/><path d="M169.79636,328.99438c0.52996,-3.32045 1.73987,-6.50088 3.60972,-9.5413c0.09999,-0.10001 0.27998,-0.35005 0.54996,-0.7301c0.26998,-0.39005 0.44996,-0.63008 0.54996,-0.7201c0.05,-0.05 0.15999,-0.20002 0.32997,-0.44005c0.17999,-0.24004 0.35997,-0.50007 0.55996,-0.79011c0.18999,-0.29004 0.37997,-0.56008 0.54996,-0.83012c0.16999,-0.27003 0.27998,-0.42005 0.32997,-0.47006c0.19998,-0.20003 0.52996,-0.55008 0.98992,-1.08015c0.46996,-0.54007 0.97992,-1.09015 1.53988,-1.66023c0.56996,-0.58007 1.08992,-1.11015 1.57988,-1.59021c0.48996,-0.48007 0.83994,-0.82011 1.02992,-1.01014c0.92993,-0.43006 1.70987,-0.81011 2.33982,-1.15016c0.62996,-0.33004 1.23991,-0.63008 1.82986,-0.89012c0.57996,-0.26003 1.22991,-0.47006 1.92985,-0.60008c0.70995,-0.14002 1.58988,-0.21003 2.6598,-0.20003c1.3099,0.01 2.53981,0.20003 3.69972,0.54008c1.16991,0.35004 2.17983,0.89012 3.04976,1.60022c0.86993,0.71009 1.54988,1.59021 2.04984,2.64036c0.49997,1.04014 0.73995,2.29031 0.72995,3.75051c-0.01,1.55021 -0.48996,2.77038 -1.40989,3.6605c-0.93993,0.89012 -2.17984,1.33018 -3.72972,1.31018c-1.74986,-0.01 -2.94977,-0.55008 -3.61972,-1.59022c-0.66995,-1.05014 -1.18991,-2.35032 -1.56988,-3.91053c-0.09,-0.24004 -0.22998,-0.40006 -0.39997,-0.47007c-0.16998,-0.08 -0.36997,-0.12002 -0.60995,-0.12002l-0.43997,-0.01c-1.06992,0.39006 -2.23982,1.07015 -3.50973,2.05028c-1.2699,0.98014 -2.44981,2.11029 -3.51973,3.39047c-1.07992,1.28017 -1.97985,2.62035 -2.68979,4.01054c-0.71994,1.40019 -1.07992,2.69037 -1.08992,3.85053l0.72994,0.01c0.57996,-0.19003 1.07992,-0.36005 1.48989,-0.50007c0.40997,-0.14002 0.82994,-0.30004 1.2399,-0.46006c0.41997,-0.17002 0.73994,-0.30004 0.98992,-0.39005c0.33997,-0.15003 0.76994,-0.42006 1.2799,-0.83012c0.50996,-0.40005 0.95993,-0.61008 1.3499,-0.61008l3.9297,0.04c0.62995,0.40006 1.2799,0.7301 1.95985,1.00014c0.66995,0.27003 1.34989,0.52007 2.02984,0.7401c0.66995,0.23003 1.3499,0.48006 2.02984,0.7501c0.67995,0.27004 1.3299,0.61008 1.94986,1.00014c0.86993,0.54007 1.68987,1.39019 2.45981,2.53034c0.75994,1.15016 1.43989,2.39033 2.03984,3.73051c0.58996,1.34018 1.06992,2.67037 1.41989,3.98055c0.34998,1.31017 0.51996,2.43033 0.51996,3.35045l-0.01,1.02014c-0.50996,2.47034 -1.15991,4.74065 -1.94985,6.82093c-0.79994,2.08029 -1.82986,3.86053 -3.10976,5.33073c-1.2699,1.4702 -2.84978,2.60035 -4.71964,3.41047c-1.87985,0.81011 -4.14968,1.20016 -6.81947,1.18016c-2.70979,-0.03 -5.02962,-0.46007 -6.92947,-1.30018c-1.90985,-0.84012 -3.48973,-2.00027 -4.73964,-3.46047c-1.2499,-1.4702 -2.24983,-3.22044 -3.00977,-5.27072c-0.75994,-2.04028 -1.3499,-4.28059 -1.75986,-6.71092c0,-0.05 -0.03,-0.20003 -0.10999,-0.47006c-0.06999,-0.27004 -0.13999,-0.55008 -0.20998,-0.84012c-0.07,-0.29004 -0.12999,-0.56007 -0.16999,-0.80011c-0.05,-0.25003 -0.06999,-0.39005 -0.06999,-0.44006l0.01,-1.67023c0.03,-3.45047 0.31998,-6.83093 0.85993,-10.14138zM176.41585,345.34662c0.25998,1.04014 0.65995,2.00027 1.20991,2.85039c0.54996,0.86012 1.2699,1.64022 2.16983,2.35032c0.88993,0.71009 1.97985,1.4802 3.28974,2.32031c0.04,0.05 0.12999,0.11002 0.24999,0.18003c0.11999,0.08 0.22998,0.12002 0.32997,0.12002c0.13999,0 0.48996,0.01 1.04992,0.04c0.55996,0.03 0.90993,0.05 1.05992,0.05c2.22983,0.02 4.09968,-0.51007 5.60957,-1.59022c1.51988,-1.08015 2.83978,-2.53035 3.96969,-4.3706l0.29998,-0.58008l0.05,-6.55089c0.01,-0.63009 -0.23998,-1.39019 -0.73995,-2.30031c-0.49996,-0.90013 -1.10991,-1.75024 -1.83986,-2.56035c-0.71994,-0.81012 -1.47988,-1.49021 -2.29982,-2.06028c-0.81994,-0.56008 -1.54988,-0.85012 -2.17983,-0.86012l-6.5495,-0.05c-0.05,0 -0.28998,0.11001 -0.72994,0.32004c-0.43997,0.22003 -0.75994,0.39005 -0.94993,0.54008c-1.65987,1.00013 -2.79978,2.17029 -3.41974,3.50047c-0.60995,1.33018 -0.92993,2.9104 -0.93993,4.76065c-0.02,1.55021 0.09999,2.85039 0.35997,3.89053z" fill="#3eb311" stroke="none" stroke-width="0.26458" stroke-miterlimit="10"/><path d="M173.02611,327.92424c0.53996,-3.31045 1.73987,-6.49089 3.60972,-9.5313c0.09999,-0.10001 0.27998,-0.35005 0.54996,-0.7301c0.26998,-0.39006 0.45996,-0.63009 0.54996,-0.7201c0.05,-0.05 0.15999,-0.20003 0.32998,-0.44006c0.17999,-0.24003 0.35997,-0.50007 0.55996,-0.79011c0.19998,-0.29004 0.37997,-0.57008 0.54996,-0.83011c0.16999,-0.27004 0.27998,-0.42006 0.32997,-0.47006c0.19998,-0.20003 0.52996,-0.56008 0.98992,-1.08015c0.46997,-0.54008 0.97993,-1.09015 1.54988,-1.66023c0.55996,-0.58008 1.07991,-1.11015 1.57988,-1.59022c0.48996,-0.48006 0.82994,-0.82011 1.01992,-1.01013c0.92993,-0.43006 1.70987,-0.81011 2.33983,-1.15016c0.63995,-0.33005 1.2399,-0.63009 1.82985,-0.89012c0.57996,-0.27004 1.22991,-0.47007 1.92986,-0.60008c0.70994,-0.14002 1.58988,-0.21003 2.65979,-0.20003c1.3099,0.01 2.5498,0.19002 3.70972,0.54007c1.15991,0.35005 2.16983,0.89012 3.03976,1.59022c0.86994,0.7201 1.54988,1.60022 2.04985,2.64036c0.49996,1.05014 0.74994,2.30031 0.72994,3.76051c-0.01,1.55021 -0.47996,2.76038 -1.40989,3.6605c-0.92993,0.89012 -2.16984,1.32018 -3.71972,1.31018c-1.74986,-0.02 -2.95977,-0.55007 -3.62972,-1.59022c-0.66995,-1.05014 -1.18991,-2.35032 -1.56988,-3.91053c-0.09,-0.24003 -0.21998,-0.40005 -0.38997,-0.48006c-0.16998,-0.07 -0.37997,-0.11002 -0.61995,-0.11002l-0.43997,-0.01c-1.06991,0.38005 -2.23982,1.07015 -3.50973,2.05028c-1.2699,0.98013 -2.43981,2.11029 -3.51972,3.39046c-1.07992,1.27018 -1.97985,2.62036 -2.6898,4.01055c-0.71994,1.40019 -1.07992,2.69037 -1.08992,3.85052h0.72994c0.57996,-0.18002 1.07992,-0.35004 1.49988,-0.49006c0.40997,-0.14002 0.81994,-0.30004 1.23991,-0.46006c0.40997,-0.17003 0.73994,-0.30004 0.97992,-0.40006c0.33998,-0.14002 0.76994,-0.41005 1.2799,-0.82011c0.51996,-0.40006 0.96993,-0.61008 1.3499,-0.61008l3.9297,0.04c0.62995,0.39005 1.2799,0.7201 1.95985,1.00013c0.67995,0.27004 1.3499,0.52007 2.02984,0.7401c0.67995,0.23004 1.3499,0.48007 2.02985,0.75011c0.67994,0.27003 1.3299,0.60008 1.95985,1.00013c0.86993,0.54008 1.67987,1.38019 2.44981,2.53035c0.75994,1.15016 1.43989,2.39032 2.03984,3.73051c0.59996,1.34018 1.06992,2.67036 1.41989,3.98054c0.34998,1.31018 0.52996,2.43033 0.51996,3.35046l-0.01,1.02014c-0.50996,2.47033 -1.15991,4.74064 -1.94985,6.82093c-0.79994,2.08028 -1.82986,3.86053 -3.10976,5.33073c-1.2699,1.4702 -2.84978,2.60035 -4.71964,3.41046c-1.86985,0.81011 -4.14968,1.20017 -6.80947,1.17016c-2.71979,-0.02 -5.02962,-0.45006 -6.93947,-1.29018c-1.90985,-0.84011 -3.48973,-2.00027 -4.73963,-3.46047c-1.2499,-1.4702 -2.24983,-3.23044 -3.00977,-5.27072c-0.75994,-2.04028 -1.3399,-4.28059 -1.75987,-6.71092c0,-0.05 -0.03,-0.20003 -0.10999,-0.47006c-0.06999,-0.27004 -0.12999,-0.55008 -0.19998,-0.85012c-0.07999,-0.28004 -0.13999,-0.55007 -0.17999,-0.79011c-0.05,-0.25003 -0.06999,-0.39005 -0.06999,-0.44006l0.02,-1.67022c0.02,-3.45048 0.30998,-6.83094 0.84993,-10.15139zM179.6456,344.28647c0.25998,1.04014 0.65995,2.00028 1.21991,2.85039c0.53996,0.86012 1.2599,1.64022 2.15984,2.35032c0.88993,0.7101 1.98985,1.48021 3.28975,2.32032c0.05,0.05 0.12999,0.11001 0.24998,0.18002c0.11999,0.08 0.22998,0.11002 0.32997,0.11002c0.14999,0.01 0.49996,0.02 1.04992,0.05c0.55996,0.03 0.90993,0.04 1.05992,0.04c2.22983,0.03 4.09969,-0.50007 5.61957,-1.58022c1.50988,-1.09014 2.82978,-2.53034 3.96969,-4.37059l0.28998,-0.58008l0.06,-6.5509c0,-0.63008 -0.23998,-1.39019 -0.74994,-2.30031c-0.49996,-0.90012 -1.10992,-1.75024 -1.82986,-2.56035c-0.71994,-0.81011 -1.48988,-1.4902 -2.30982,-2.06028c-0.81994,-0.56008 -1.54988,-0.85012 -2.17983,-0.86012l-6.5495,-0.06c-0.04,0 -0.28998,0.12002 -0.72995,0.33005c-0.43996,0.22003 -0.74994,0.39005 -0.94992,0.54007c-1.64988,1.00014 -2.78979,2.1703 -3.40974,3.50048c-0.61995,1.32018 -0.92993,2.9104 -0.94993,4.75065c-0.02,1.56021 0.10999,2.85038 0.35997,3.90053z" fill="#141515" stroke="none" stroke-width="0.26458" stroke-miterlimit="10"/><path d="M173.02611,327.92424c0.53996,-3.31045 1.73987,-6.49089 3.60972,-9.5313c0.09999,-0.10001 0.27998,-0.35005 0.54996,-0.7301c0.26998,-0.39006 0.45996,-0.63009 0.54996,-0.7201c0.05,-0.05 0.15999,-0.20003 0.32998,-0.44006c0.17999,-0.24003 0.35997,-0.50007 0.55996,-0.79011c0.19998,-0.29004 0.37997,-0.57008 0.54996,-0.83011c0.16999,-0.27004 0.27998,-0.42006 0.32997,-0.47006c0.19998,-0.20003 0.52996,-0.56008 0.98992,-1.08015c0.46997,-0.54008 0.97993,-1.09015 1.54988,-1.66023c0.55996,-0.58008 1.07991,-1.11015 1.57988,-1.59022c0.48996,-0.48006 0.82994,-0.82011 1.01992,-1.01013c0.92993,-0.43006 1.70987,-0.81011 2.33983,-1.15016c0.63995,-0.33005 1.2399,-0.63009 1.82985,-0.89012c0.57996,-0.27004 1.22991,-0.47007 1.92986,-0.60008c0.70994,-0.14002 1.58988,-0.21003 2.65979,-0.20003c1.3099,0.01 2.5498,0.19002 3.70972,0.54007c1.15991,0.35005 2.16983,0.89012 3.03976,1.59022c0.86994,0.7201 1.54988,1.60022 2.04985,2.64036c0.49996,1.05014 0.74994,2.30031 0.72994,3.76051c-0.01,1.55021 -0.47996,2.76038 -1.40989,3.6605c-0.92993,0.89012 -2.16984,1.32018 -3.71972,1.31018c-1.74986,-0.02 -2.95977,-0.55007 -3.62972,-1.59022c-0.66995,-1.05014 -1.18991,-2.35032 -1.56988,-3.91053c-0.09,-0.24003 -0.21998,-0.40005 -0.38997,-0.48006c-0.16998,-0.07 -0.37997,-0.11002 -0.61995,-0.11002l-0.43997,-0.01c-1.06991,0.38005 -2.23982,1.07015 -3.50973,2.05028c-1.2699,0.98013 -2.43981,2.11029 -3.51972,3.39046c-1.07992,1.27018 -1.97985,2.62036 -2.6898,4.01055c-0.71994,1.40019 -1.07992,2.69037 -1.08992,3.85052h0.72994c0.57996,-0.18002 1.07992,-0.35004 1.49988,-0.49006c0.40997,-0.14002 0.81994,-0.30004 1.23991,-0.46006c0.40997,-0.17003 0.73994,-0.30004 0.97992,-0.40006c0.33998,-0.14002 0.76994,-0.41005 1.2799,-0.82011c0.51996,-0.40006 0.96993,-0.61008 1.3499,-0.61008l3.9297,0.04c0.62995,0.39005 1.2799,0.7201 1.95985,1.00013c0.67995,0.27004 1.3499,0.52007 2.02984,0.7401c0.67995,0.23004 1.3499,0.48007 2.02985,0.75011c0.67994,0.27003 1.3299,0.60008 1.95985,1.00013c0.86993,0.54008 1.67987,1.38019 2.44981,2.53035c0.75994,1.15016 1.43989,2.39032 2.03984,3.73051c0.59996,1.34018 1.06992,2.67036 1.41989,3.98054c0.34998,1.31018 0.52996,2.43033 0.51996,3.35046l-0.01,1.02014c-0.50996,2.47033 -1.15991,4.74064 -1.94985,6.82093c-0.79994,2.08028 -1.82986,3.86053 -3.10976,5.33073c-1.2699,1.4702 -2.84978,2.60035 -4.71964,3.41046c-1.86985,0.81011 -4.14968,1.20017 -6.80947,1.17016c-2.71979,-0.02 -5.02962,-0.45006 -6.93947,-1.29018c-1.90985,-0.84011 -3.48973,-2.00027 -4.73963,-3.46047c-1.2499,-1.4702 -2.24983,-3.23044 -3.00977,-5.27072c-0.75994,-2.04028 -1.3399,-4.28059 -1.75987,-6.71092c0,-0.05 -0.03,-0.20003 -0.10999,-0.47006c-0.06999,-0.27004 -0.12999,-0.55008 -0.19998,-0.85012c-0.07999,-0.28004 -0.13999,-0.55007 -0.17999,-0.79011c-0.05,-0.25003 -0.06999,-0.39005 -0.06999,-0.44006l0.02,-1.67022c0.02,-3.45048 0.30998,-6.83094 0.84993,-10.15139M179.64561,344.28646c0.25998,1.04014 0.65995,2.00028 1.21991,2.85039c0.53996,0.86012 1.2599,1.64022 2.15984,2.35032c0.88993,0.7101 1.98984,1.48021 3.28974,2.32032c0.05,0.05 0.12999,0.11001 0.24998,0.18002c0.11999,0.08 0.22999,0.11002 0.32998,0.11002c0.14999,0.01 0.49996,0.02 1.04992,0.05c0.55996,0.03 0.90993,0.04 1.05991,0.04c2.22983,0.03 4.09969,-0.50007 5.61957,-1.58022c1.50989,-1.09014 2.82979,-2.53034 3.9697,-4.37059l0.28998,-0.58008l0.06,-6.5509c0,-0.63008 -0.23998,-1.39019 -0.74994,-2.30031c-0.49996,-0.90012 -1.10992,-1.75024 -1.82986,-2.56035c-0.71995,-0.81011 -1.48989,-1.4902 -2.30983,-2.06028c-0.81993,-0.56008 -1.54988,-0.85012 -2.17983,-0.86012l-6.5495,-0.06c-0.04,0 -0.28997,0.12002 -0.72994,0.33005c-0.43997,0.22003 -0.74994,0.39005 -0.94993,0.54007c-1.64987,1.00014 -2.78978,2.1703 -3.40973,3.50048c-0.61995,1.32018 -0.92993,2.9104 -0.94993,4.75065c-0.02,1.56021 0.10999,2.85038 0.35997,3.90053" fill="none" stroke="#3eb311" stroke-width="0.10999" stroke-miterlimit="4"/><path d="M195.79437,364.47923c0.09,0 0.25998,0.09 0.46996,0.21003c0.29998,0.44006 0.45997,0.92012 0.45997,1.41019c-0.01,1.28017 -0.74995,2.2003 -2.21983,2.71037c-1.41989,0.35005 -2.74979,0.54007 -4.04969,0.53007c-0.50996,-0.01 -0.97993,-0.05 -1.3699,-0.10001c-0.89993,-0.01 -2.23982,0.06 -4.12968,0.09c-1.84986,0.02 -3.22975,0.05 -4.08968,0.04c-2.40982,-0.02 -3.73971,-0.07 -4.03969,-0.19003c-1.02992,-0.34004 -1.53988,-1.34018 -1.51988,-3.07042c0.01,-1.13015 0.82994,-1.96027 2.42981,-2.47033c0.68995,-0.19003 1.49989,-0.31005 2.48981,-0.30004c0.51996,0.01 1.2899,0.10001 2.36982,0.14001c1.02992,0.13002 1.84986,0.18003 2.35982,0.18003c0.47996,0.01 1.20991,-0.06 2.15984,-0.18003c0.85993,-0.19002 1.58987,-0.26003 2.10983,-0.26003c0.55996,0.01 0.98993,0.09 1.3299,0.29004c0.68995,0.01 2.10984,-0.38005 2.6698,-0.37005c0.21998,0 0.38997,0.04 0.59995,0.16002c0.50996,0.29004 1.15991,0.65009 1.96985,1.18016z" fill="#3eb311" stroke="none" stroke-width="0.26458" stroke-miterlimit="10"/><path d="M198.07419,364.49923c0.09,0 0.25998,0.08 0.47997,0.21003c0.28997,0.44006 0.45996,0.92013 0.44996,1.41019c-0.01,1.28018 -0.74994,2.2003 -2.20983,2.71037c-1.41989,0.35005 -2.75979,0.54008 -4.04969,0.53008c-0.51996,-0.01 -0.98992,-0.05 -1.37989,-0.10002c-0.89993,-0.01 -2.23983,0.06 -4.12969,0.09c-1.84985,0.02 -3.21975,0.05 -4.08968,0.04c-2.39982,-0.02 -3.73971,-0.07 -4.03969,-0.19002c-1.02992,-0.34005 -1.52988,-1.35019 -1.51988,-3.07042c0.01,-1.12015 0.82994,-1.96027 2.42981,-2.47034c0.68995,-0.19003 1.50988,-0.31004 2.49981,-0.30004c0.51996,0.01 1.2899,0.09 2.35982,0.14002c1.02992,0.13002 1.84985,0.18002 2.36982,0.18002c0.46996,0.01 1.2099,-0.06 2.14983,-0.18002c0.85993,-0.19003 1.59988,-0.26004 2.10984,-0.26004c0.55995,0.01 0.98992,0.09 1.32989,0.29004c0.68995,0.01 2.10984,-0.38005 2.6698,-0.37005c0.21998,0 0.38997,0.04 0.59995,0.16003c0.51996,0.29003 1.15992,0.65008 1.96985,1.18016z" fill="#141515" stroke="none" stroke-width="0.26458" stroke-miterlimit="10"/><path d="M198.07419,364.49923c0.09,0 0.25998,0.08 0.47997,0.21003c0.28997,0.44006 0.45996,0.92013 0.44996,1.41019c-0.01,1.28018 -0.74994,2.2003 -2.20983,2.71037c-1.41989,0.35005 -2.75979,0.54008 -4.04969,0.53008c-0.51996,-0.01 -0.98992,-0.05 -1.37989,-0.10002c-0.89993,-0.01 -2.23983,0.06 -4.12969,0.09c-1.84985,0.02 -3.21975,0.05 -4.08968,0.04c-2.39982,-0.02 -3.73971,-0.07 -4.03969,-0.19002c-1.02992,-0.34005 -1.52988,-1.35019 -1.51988,-3.07042c0.01,-1.12015 0.82994,-1.96027 2.42981,-2.47034c0.68995,-0.19003 1.50988,-0.31004 2.49981,-0.30004c0.51996,0.01 1.2899,0.09 2.35982,0.14002c1.02992,0.13002 1.84985,0.18002 2.36982,0.18002c0.46996,0.01 1.2099,-0.06 2.14983,-0.18002c0.85993,-0.19003 1.59988,-0.26004 2.10984,-0.26004c0.55995,0.01 0.98992,0.09 1.32989,0.29004c0.68995,0.01 2.10984,-0.38005 2.6698,-0.37005c0.21998,0 0.38997,0.04 0.59995,0.16003c0.51996,0.29003 1.15992,0.65008 1.96985,1.18016" fill="none" stroke="#3eb311" stroke-width="0.10999" stroke-miterlimit="4"/></g></g></svg>