<svg version="1.1" xmlns="http://www.w3.org/2000/svg" xmlns:xlink="http://www.w3.org/1999/xlink" width="14.14129" height="14.33029" viewBox="0,0,14.14129,14.33029"><g transform="translate(-172.92935,-312.82488)"><g data-paper-data="{&quot;isPaintingLayer&quot;:true}" fill-rule="nonzero" stroke-linecap="butt" stroke-miterlimit="10" stroke-dasharray="" stroke-dashoffset="0" style="mix-blend-mode: normal"><path d="M180.22054,313.65051c3.64034,0 6.6051,2.55143 6.6051,5.69467c0,3.13765 -2.96476,5.69467 -6.6051,5.69467c-0.64209,0 -1.273,-0.07816 -1.88716,-0.23448c-0.52483,0.78162 -1.18367,1.72515 -1.43492,1.97081c-0.14516,0.13957 -0.27917,0.18424 -0.40759,0.13399c-0.2345,-0.09491 -0.27358,-0.49131 -0.27917,-0.64205c0.13959,-0.72021 0.27358,-1.43484 0.40759,-2.15503c-1.88159,-1.0552 -2.99827,-2.83059 -2.99827,-4.76789c0,-3.13765 2.96476,-5.69467 6.6051,-5.69467z" fill="#434342" stroke="#373837" stroke-width="0.49" stroke-linejoin="round"/><g><path d="M179.77387,313.06988c3.64034,0 6.6051,2.55143 6.6051,5.69467c0,3.13765 -2.96476,5.69467 -6.6051,5.69467c-0.64209,0 -1.273,-0.07816 -1.88716,-0.23448c-0.52483,0.78162 -1.18367,1.72515 -1.43492,1.97081c-0.14516,0.13957 -0.27917,0.18424 -0.40759,0.13399c-0.2345,-0.09491 -0.27358,-0.49131 -0.27917,-0.64205c0.13959,-0.72021 0.27358,-1.43484 0.40759,-2.15503c-1.88159,-1.0552 -2.99827,-2.83059 -2.99827,-4.76789c0,-3.13765 2.96476,-5.69467 6.6051,-5.69467z" fill="#ffffff" stroke="none" stroke-width="1" stroke-linejoin="miter"/><path d="M179.77387,313.06988c3.64034,0 6.6051,2.55143 6.6051,5.69467c0,3.13765 -2.96476,5.69467 -6.6051,5.69467c-0.64209,0 -1.273,-0.07816 -1.88716,-0.23448c-0.52483,0.78162 -1.18367,1.72515 -1.43492,1.97081c-0.14516,0.13957 -0.27917,0.18424 -0.40759,0.13399c-0.2345,-0.09491 -0.27358,-0.49131 -0.27917,-0.64205c0.13959,-0.72021 0.27358,-1.43484 0.40759,-2.15503c-1.88159,-1.0552 -2.99827,-2.83059 -2.99827,-4.76789c0,-3.13765 2.96476,-5.69467 6.6051,-5.69467z" fill="none" stroke="#3fa535" stroke-width="0.49" stroke-linejoin="round"/><path d="M179.13178,320.4227c-0.08376,-0.00558 -0.15634,-0.01675 -0.22892,-0.04466c-0.02792,-0.01117 -0.05025,-0.02791 -0.067,-0.05025c-0.02233,-0.01675 -0.04466,-0.03908 -0.05583,-0.067c-0.15634,-0.39082 -0.05583,-0.85978 -0.01117,-1.03845c0.07258,-0.26798 0.22332,-0.64763 0.55275,-0.93236c0.19542,-0.17307 0.41874,-0.29591 0.64209,-0.41315c0.04466,-0.02233 0.08933,-0.05025 0.13399,-0.07258c0.54718,-0.30706 1.07758,-0.6588 1.01058,-1.24502c-0.03908,-0.35174 -0.2345,-0.66438 -0.52483,-0.8542c-0.01675,0 -0.0335,-0.00558 -0.05025,-0.00558c-0.03908,-0.00558 -0.07258,-0.01117 -0.11166,-0.01117c-0.05583,0 -0.10608,0 -0.15074,0.01675c-0.11726,0.03908 -0.2345,0.11166 -0.34058,0.20657c-0.08933,0.07816 -0.16192,0.17307 -0.24567,0.26798c-0.03908,0.04466 -0.07816,0.09491 -0.12284,0.13957c0.02233,0.02233 0.0335,0.05025 0.03908,0.08374c0,0.0335 -0.01117,0.067 -0.0335,0.08933c-0.07816,0.07816 -0.19542,0.08374 -0.3015,0.07816c-0.02792,0 -0.05025,-0.00558 -0.07816,-0.00558c-0.02233,0 -0.03908,-0.00558 -0.06141,-0.00558c-0.01117,0 -0.02233,0 -0.02792,0c-0.10051,0 -0.201,0.00558 -0.29593,0.01117c-0.08376,0.00558 -0.17309,0.01117 -0.25683,0.01117c-0.01117,0 -0.02233,0 -0.0335,0c-0.01117,0 -0.02792,-0.00558 -0.03908,-0.00558c-0.00558,0 -0.00558,0 -0.01117,0c-0.02233,0 -0.04466,-0.01117 -0.067,-0.02233c-0.201,-0.12282 -0.42992,-0.17307 -0.63651,-0.201c-0.07816,-0.01117 -0.12284,-0.08933 -0.12284,-0.15074c-0.02792,-0.87653 0.79843,-1.58557 1.56893,-1.8703c0.36291,-0.13399 0.78167,-0.18982 1.21159,-0.16749c0.02233,0 0.05025,0.00558 0.07258,0.00558c0.07258,0 0.15074,0 0.22892,0.00558c0.40199,0.02233 0.77608,0.10608 1.11666,0.24565c0.67559,0.27916 1.22275,0.80395 1.5075,1.42925c0.32941,0.72021 0.29593,1.47392 -0.09491,2.00989c-0.201,0.27356 -0.48017,0.49131 -0.80958,0.63088c-0.31825,0.13399 -0.57508,0.201 -0.81518,0.22332c-0.02792,0.01675 -0.06141,0.02791 -0.09491,0.04466c-0.13959,0.06141 -0.28475,0.10049 -0.42434,0.14516c-0.0335,0.01117 -0.07258,0.02233 -0.10608,0.0335c-0.00558,0.00558 -0.01117,0.01117 -0.01675,0.01675c-0.06141,0.07258 -0.11166,0.16749 -0.15074,0.28473c-0.05025,0.15632 -0.08933,0.32381 -0.10608,0.48573h0.00558c0.03908,0.01117 0.067,0.03908 0.07816,0.07816c0.01117,0.03908 0,0.07816 -0.02792,0.10608c-0.067,0.067 -0.15634,0.10049 -0.24008,0.12841c-0.03908,0.01117 -0.07258,0.02791 -0.10051,0.03908c-0.10608,0.05025 -0.20659,0.10049 -0.31266,0.15632c-0.02792,0.02791 -0.067,0.03908 -0.11166,0.03908c-0.03908,0.01675 -0.07816,0.02233 -0.11166,0.0335c-0.01675,0.00558 -0.0335,0.00558 -0.05025,0.01117c-0.10051,0.02791 -0.21775,0.06141 -0.33501,0.08374c-0.12284,0.02233 -0.26242,0.05025 -0.40199,0.03908zM179.0592,320.15472c0.15074,0.00558 0.33501,-0.03908 0.47459,-0.07258l0.01675,-0.00558c0.09491,-0.02233 0.18424,-0.05025 0.27358,-0.07816c0.01117,-0.00558 0.02792,-0.01117 0.03908,-0.01675h0.00558c0,-0.02233 0,-0.04466 0,-0.067c0.00558,-0.32939 0.01117,-0.70904 0.3015,-0.95469c0.22892,-0.18982 0.5025,-0.28473 0.76492,-0.36847c0.04466,-0.02233 0.08933,-0.03908 0.13399,-0.03908l0.05025,-0.01675c0.08376,-0.02791 0.17309,-0.06141 0.25683,-0.09491c0.01675,-0.01117 0.02792,-0.01675 0.05025,-0.02233h0.01117c0.41874,-0.1954 0.737,-0.49688 0.93799,-0.89886c0.01675,-0.03908 0.03908,-0.07816 0.05583,-0.11724c-0.00558,-0.02791 -0.00558,-0.05583 0.01117,-0.08374c0.01675,-0.02791 0.0335,-0.05583 0.05583,-0.08374c0.10608,-0.31824 0.14516,-0.66438 0.11166,-0.99377c-0.05025,-0.00558 -0.08933,-0.05025 -0.08933,-0.10608c0,-0.07258 0.01117,-0.15074 0.02792,-0.25123c-0.14516,-0.53596 -0.48017,-0.93794 -0.94359,-1.14451c-0.37409,-0.16192 -0.78725,-0.2624 -1.19484,-0.28473c-0.44667,-0.02233 -0.87101,0.05025 -1.22275,0.21215c-0.268,0.12282 -1.13341,0.58622 -1.22275,1.38459c0.17309,0.03908 0.31266,0.08374 0.43549,0.15074c0.0335,-0.08374 0.09491,-0.17307 0.18984,-0.27356c0.17867,-0.18982 0.40199,-0.36847 0.63651,-0.51364c0.25125,-0.15074 0.54718,-0.22332 0.84308,-0.21215c0.32383,0.01675 0.62534,0.13957 0.85426,0.34614c0.45784,0.40755 0.69792,1.16684 0.32383,1.73073c-0.268,0.3964 -0.68117,0.6253 -1.08318,0.84862c-0.11166,0.06141 -0.22332,0.12282 -0.32941,0.18982c-0.33501,0.201 -0.56393,0.46338 -0.67559,0.78162c-0.07258,0.1954 -0.11166,0.38522 -0.11726,0.56389c-0.00558,0.10608 0.00558,0.20657 0.01117,0.31824c0.00558,0.05583 0.00558,0.11724 0.01117,0.17865v0zM180.56672,319.08837c-0.15634,0.08933 -0.25683,0.18424 -0.30708,0.30706c0.01117,-0.01117 0.02233,-0.02233 0.02792,-0.0335c0.01117,-0.01117 0.02233,-0.02791 0.03908,-0.05025c0.06141,-0.07816 0.13399,-0.17307 0.22892,-0.18424c0.00558,0 0.01117,0 0.01117,0c0.00558,-0.01675 0.01117,-0.03908 0.01675,-0.05583c-0.00558,0.00558 -0.01675,0.00558 -0.02233,0.01117zM183.1183,317.32971c-0.067,0.07258 -0.13399,0.13957 -0.201,0.21215c-0.02792,0.02791 -0.05583,0.06141 -0.08376,0.09491c-0.01675,0.01675 -0.0335,0.03908 -0.05025,0.05583c0.18424,-0.14516 0.31825,-0.27356 0.41317,-0.41315c0.00558,-0.01117 0.00558,-0.02233 0.01117,-0.0335c-0.02792,0.02791 -0.05583,0.06141 -0.08376,0.08933zM183.14622,316.58718c0.02792,0.01117 0.05025,0.0335 0.067,0.06141c0.01675,0.03908 0.01675,0.08374 -0.01117,0.12282l-0.02233,0.0335c-0.06141,0.08933 -0.12284,0.18424 -0.19542,0.27916c0.05583,-0.05025 0.17309,-0.16749 0.17309,-0.16749c0.02792,-0.02791 0.06141,-0.03908 0.09491,-0.03908c0.00558,0 0.01117,0 0.01675,0c0.01117,-0.15632 0,-0.31264 -0.0335,-0.47456c-0.02792,0.06141 -0.05583,0.11724 -0.08933,0.17865zM178.70186,316.24103c-0.01117,0.01675 -0.02233,0.0335 -0.02792,0.04466c0.02233,-0.00558 0.05025,-0.01117 0.07258,-0.01117c-0.01117,-0.01117 -0.02792,-0.01675 -0.03908,-0.02791zM183.13505,316.17961c0.01117,0 0.02792,0.00558 0.03908,0.00558c-0.01117,-0.03908 -0.02792,-0.07816 -0.04466,-0.11724c-0.01117,0.03908 -0.01675,0.07816 -0.02792,0.11166c0.01117,0 0.02233,-0.00558 0.0335,-0.00558zM182.83914,315.76648c0.01675,0.06141 0.0335,0.12841 0.05025,0.18982c0.00558,-0.02233 0.01117,-0.05025 0.01675,-0.07816c0.01117,-0.05025 0.03908,-0.08374 0.08376,-0.09491c-0.04466,-0.07816 -0.08933,-0.15074 -0.13959,-0.21773c0,0.067 0,0.13399 -0.01117,0.201zM179.87995,315.51525c0.01675,0.01117 0.02792,0.01675 0.03908,0.02791c0.01117,-0.00558 0.01675,-0.01117 0.02792,-0.01675c-0.00558,-0.00558 -0.00558,-0.01117 -0.01117,-0.01675c-0.01675,0 -0.0335,0 -0.05025,0.00558zM182.65488,315.31983c0.01675,0.02791 0.02792,0.05583 0.04466,0.08374c0.00558,0 0.01675,-0.00558 0.02233,-0.00558c-0.02233,-0.02791 -0.04466,-0.05583 -0.07258,-0.08374z" fill="#3fa535" stroke="none" stroke-width="1" stroke-linejoin="miter"/><path d="M179.21554,323.44311c-0.12841,-0.00558 -0.21217,-0.03908 -0.25683,-0.09491c-0.0335,-0.03908 -0.04466,-0.08374 -0.03908,-0.13957c0,-0.00558 0,-0.01117 0.00558,-0.01675c0,-0.00558 -0.00558,-0.00558 -0.01117,-0.01117c-0.12841,-0.13957 -0.13399,-0.39082 -0.13959,-0.58622c0,-0.03908 0,-0.07258 0,-0.10608l-0.00558,-0.09491c-0.00558,-0.09491 -0.01117,-0.18982 -0.01675,-0.28473c0,-0.02233 -0.00558,-0.05025 -0.01117,-0.07258c-0.00558,-0.02233 -0.01117,-0.04466 -0.01117,-0.067c-0.01117,-0.01675 -0.01117,-0.0335 -0.01117,-0.05025c0,-0.01675 0,-0.02791 0.00558,-0.03908c0,-0.02233 0.00558,-0.03908 0.00558,-0.05583c0.01117,-0.03908 0.03908,-0.07258 0.07816,-0.07816c0,0 0,0 0.00558,-0.00558c0.067,-0.08374 0.15074,-0.15074 0.22892,-0.21773c0.04466,-0.03908 0.08933,-0.07816 0.13399,-0.12282c0.08933,-0.08933 0.18984,-0.08374 0.27917,-0.08374c0.02792,0 0.05583,0 0.08376,0c0.15074,-0.01117 0.3015,-0.0335 0.45225,-0.05583c0.15074,-0.02233 0.30708,-0.04466 0.46342,-0.05583c0.00558,0 0.01117,0 0.02233,0c0.06141,0.00558 0.11166,0.04466 0.12841,0.10608c0.00558,0.02791 0.00558,0.05583 0,0.08374v0c0.01675,0.02791 0.02233,0.06141 0.01117,0.09491c-0.01117,0.0335 -0.02792,0.067 -0.06141,0.10049c0.02792,0.14516 0.02233,0.29591 0.02233,0.44105c0,0.08374 -0.00558,0.16192 0,0.24008c0.00558,0.12841 0.01675,0.23448 0.03908,0.34056c0.00558,0 0.01675,0 0.02233,0c0.01675,0 0.03908,0.00558 0.05583,0.01117c0.05025,0.02233 0.07816,0.067 0.07258,0.12282c-0.01117,0.08374 -0.07258,0.12841 -0.11726,0.15632c-0.01117,0.00558 -0.01675,0.01117 -0.02792,0.02233c-0.05025,0.03908 -0.09491,0.07816 -0.14516,0.12841c-0.08933,0.08933 -0.18984,0.16749 -0.29593,0.24008c-0.02233,0.01675 -0.04466,0.02233 -0.07258,0.02233c-0.01117,0 -0.02233,-0.00558 -0.0335,-0.00558c-0.14516,0.03908 -0.57508,0.14516 -0.85426,0.12841zM179.13178,323.10813c0.02792,0.00558 0.05583,0.01117 0.08933,0.01117c0.09491,0.00558 0.201,-0.01117 0.29593,-0.02791l0.02233,-0.00558c0.15074,-0.02233 0.29033,-0.05025 0.41874,-0.08374c0,-0.01117 0,-0.01675 0,-0.02233c-0.01117,-0.10608 -0.01675,-0.21215 -0.02792,-0.31824c-0.01117,-0.12841 -0.02233,-0.25683 -0.0335,-0.38522c-0.05025,-0.00558 -0.08933,-0.05025 -0.09491,-0.10049c-0.00558,-0.06141 0.01117,-0.11724 0.05583,-0.17865c-0.14516,-0.0335 -0.31825,-0.067 -0.48575,-0.07258c-0.14516,-0.00558 -0.268,0.00558 -0.36851,0.0335c0.0335,0.10608 0.03908,0.23448 0.04466,0.33499c0,0.02791 0.00558,0.05583 0.00558,0.08374c0.00558,0.04466 0.00558,0.08374 0.01117,0.12841c0.00558,0.09491 0.01117,0.1954 0.02792,0.28473c0.00558,0.02791 0.01117,0.05583 0.01675,0.08374c0.01675,0.067 0.0335,0.14516 0.02233,0.22332v0.00558zM179.43328,321.64538c0.15074,0.00558 0.3015,0.0335 0.44667,0.06141c0.03908,0.00558 0.07258,0.01117 0.11166,0.01675c0.0335,-0.02791 0.06141,-0.06141 0.09491,-0.09491c0.02792,-0.02791 0.05025,-0.05583 0.07816,-0.07816c-0.01117,0 -0.02233,0.00558 -0.03908,0.00558c-0.17309,0.02791 -0.35176,0.05583 -0.53042,0.067c-0.07258,0.00558 -0.15074,0.00558 -0.22892,0.00558c-0.00558,0 -0.02233,0.01117 -0.0335,0.02233c0.0335,0 0.067,0 0.10051,0z" fill="#3fa535" stroke="none" stroke-width="1" stroke-linejoin="miter"/></g></g></g></svg>