<svg version="1.1" xmlns="http://www.w3.org/2000/svg" xmlns:xlink="http://www.w3.org/1999/xlink" width="64.54855" height="97.20302" viewBox="0,0,64.54855,97.20302"><g transform="translate(-156.20675,-286.30792)"><g data-paper-data="{&quot;isPaintingLayer&quot;:true}" fill-rule="nonzero" stroke-linecap="butt" stroke-linejoin="miter" stroke-dasharray="" stroke-dashoffset="0" style="mix-blend-mode: normal"><path d="M203.42167,289.14686c9.19995,-0.07975 16.72119,7.31229 16.80094,16.50926l0.53205,60.80296c0.07975,9.19995 -7.31229,16.72119 -16.50945,16.80094l-28.75076,0.25022c-9.19604,0.08384 -16.72119,-7.30932 -16.80094,-16.50926l-0.52815,-60.80296c-0.07975,-9.19604 7.3095,-16.72119 16.50945,-16.80094z" fill-opacity="0.69804" fill="#0f150e" stroke="none" stroke-width="1" stroke-miterlimit="10"/><path d="M201.46393,286.30856c9.19929,-0.08001 16.71871,7.31099 16.79871,16.51225l0.52996,60.8083c0.07999,9.20126 -7.30944,16.73229 -16.50874,16.81229l-28.74779,0.25004c-9.19929,0.08001 -16.71871,-7.311 -16.79871,-16.51226l-0.52996,-60.8183c-0.07999,-9.19125 7.30944,-16.72228 16.50873,-16.80229z" fill="#77b074" stroke="none" stroke-width="0.26458" stroke-miterlimit="10"/><path d="M210.98319,361.67886c-0.23998,2.30031 -0.66994,3.77051 -1.2699,4.4206c-0.60995,0.65009 -1.94985,1.12016 -4.03969,1.4302c-1.49988,0.17002 -5.67956,0.46006 -12.53904,0.87012c-6.85947,0.42005 -12.04907,0.6601 -15.5688,0.7301c-1.58988,0.06 -2.85978,0.07 -3.79971,0.05c-0.93992,-0.02001 -1.84986,-0.14002 -2.72979,-0.33005c-0.87993,-0.20003 -1.52988,-0.43006 -1.94985,-0.70009c-0.42996,-0.27004 -0.83993,-0.7301 -1.2399,-1.37019c-0.39997,-0.64009 -0.70995,-1.33018 -0.93993,-2.07028c-0.21998,-0.7301 -0.47996,-1.75024 -0.77994,-3.06042c-0.77994,-3.6205 -1.2899,-7.52103 -1.53988,-11.6816c-0.24998,-4.16057 -0.26998,-10.10137 -0.09,-17.82243c0.08,-6.23085 0.04,-10.84148 -0.11999,-13.83189c-0.14998,-3.00041 -0.50996,-5.8508 -1.06991,-8.58117c-1.07992,-4.87066 -1.47989,-8.17111 -1.20991,-9.89135c0.14999,-0.69009 0.32997,-1.20016 0.53996,-1.52021c0.20998,-0.32004 0.62995,-0.64008 1.2499,-0.95013c0.75994,-0.36005 3.9197,-0.89012 9.48927,-1.58021c5.55958,-0.68009 11.00916,-1.23017 16.32875,-1.65023c3.55973,-0.18002 5.40958,-0.31005 5.53957,-0.37005c0.04,0 1.11992,0.02 3.22975,0.06c3.06977,0.18003 5.05962,0.67009 5.96955,1.50021c0.57995,0.49006 0.95992,1.23017 1.14991,2.2303c0.18999,0.99014 0.42996,3.42047 0.72994,7.301c0.33998,4.73064 0.91993,10.45143 1.73987,17.16234c0.99992,8.53117 1.62988,14.28195 1.89985,17.24235c0.26998,2.96041 0.55996,6.75093 0.84994,11.37156c0.29997,5.81079 0.35997,9.49129 0.16998,11.04151z" fill="#fefefe" stroke="none" stroke-width="0.26458" stroke-miterlimit="10"/><path d="M178.44569,353.91779c0.24998,-0.65009 0.71995,-1.17016 1.3999,-1.55022c0.86993,-0.24003 1.79986,-0.46006 2.76978,-0.67009c0.97993,-0.21003 1.93985,-0.36005 2.91978,-0.45006l0.58995,-0.57008l0.03,-4.23058l-0.57995,-0.58007c-0.47997,-0.05 -0.79994,-0.08 -0.93993,-0.08c-0.48996,0 -0.93993,0 -1.3499,0.02c-0.40997,0.02 -0.88993,0.13002 -1.41989,0.32004l-12.80902,-0.11001c-0.81993,-0.01 -1.59987,-0.36005 -2.31982,-1.04015c-0.71994,-0.68009 -1.07991,-1.44019 -1.06991,-2.27031l0.01,-0.73009c0.93992,-1.88026 1.91985,-3.74051 2.95977,-5.57076c1.02992,-1.84026 2.06984,-3.67051 3.09976,-5.51076c1.81986,-3.18043 3.56973,-6.36087 5.2496,-9.5213c1.67987,-3.16043 3.59972,-6.21085 5.75955,-9.16125c0.38997,-0.58008 0.75995,-1.23017 1.10992,-1.95026c0.33997,-0.7301 0.72994,-1.4102 1.13991,-2.07029c0.41997,-0.64008 0.90993,-1.19016 1.46989,-1.62022c0.55995,-0.43006 1.2799,-0.65009 2.14983,-0.63008c0.87994,0 1.67987,0.24003 2.39982,0.71009c0.71994,0.47007 1.19991,1.11015 1.43989,1.93027c0.04,0.25003 0.12999,0.58008 0.23998,0.99013c0.11999,0.41006 0.23998,0.84012 0.35997,1.28018c0.10999,0.43005 0.20999,0.83011 0.27998,1.17016c0.07,0.34004 0.1,0.53007 0.1,0.58008l-0.22998,26.49361l6.39951,0.05c0.43996,0.01 0.82993,0.14002 1.15991,0.42006c0.33997,0.26003 0.62995,0.59008 0.86993,0.99013c0.23998,0.38005 0.42997,0.80011 0.56996,1.23017c0.13999,0.44006 0.20998,0.83012 0.20998,1.17016c-0.01,1.4602 -0.76994,2.37032 -2.27982,2.75038c-0.19999,-0.01 -0.54996,0 -1.05992,0.02c-0.50997,0.02 -1.04992,0.04 -1.62988,0.06c-0.58995,0.02 -1.13991,0.05 -1.67987,0.10001c-0.52996,0.04 -0.89993,0.06 -1.08992,0.06c-0.43996,0.09 -0.77993,0.17003 -1.01992,0.24003c-0.24998,0.07 -0.46996,0.16003 -0.65995,0.25004c-0.19998,0.10001 -0.28998,0.22003 -0.28998,0.37005l-0.03,3.6305c-0.01,0.29003 0.16999,0.58007 0.52996,0.88011c0.35998,0.30005 0.66995,0.49007 0.90993,0.59009c0.86993,0.01 1.68987,0.03 2.46981,0.06c0.77994,0.03 1.46989,0.15002 2.06985,0.38005c0.60995,0.22003 1.08991,0.61008 1.44988,1.14015c0.35998,0.54008 0.52996,1.32019 0.51996,2.33032c0,0.83012 -0.27997,1.53021 -0.80994,2.11029c-0.54995,0.58008 -1.2499,0.86012 -2.11983,0.85012l-16.80871,-0.14002c-0.77994,-0.01 -1.44989,-0.28004 -1.99985,-0.82011c-0.54996,-0.54008 -0.81994,-1.17016 -0.81994,-1.90027c0.01,-0.68009 0.12999,-1.34018 0.37998,-2.00027zM175.08595,338.93574c0,0.15002 0.1,0.24003 0.28998,0.29004l2.25983,0.02c1.39989,0.01 2.77978,-0.06 4.13968,-0.22003c1.36989,-0.15002 2.74979,-0.25003 4.15968,-0.29004c0.28997,-0.19003 0.49996,-0.47006 0.61995,-0.83011c0.12999,-0.36005 0.21999,-0.75011 0.26998,-1.16016c0.05,-0.42006 0.07,-0.81011 0.04,-1.20017c-0.01,-0.39005 -0.03,-0.71009 -0.03,-0.94012c0.02,-0.98014 -0.04,-1.93027 -0.14999,-2.85039c-0.10999,-0.92013 -0.15998,-1.87026 -0.15998,-2.84039c0.02,-1.79025 0.10999,-3.53048 0.26997,-5.20071c0.15999,-1.67023 0.24998,-3.43047 0.25998,-5.27072c-0.28998,0 -0.78994,0.41005 -1.49988,1.26017c-0.70995,0.84011 -1.50988,1.91026 -2.39982,3.21044c-0.87993,1.31018 -1.79986,2.75038 -2.75979,4.35059c-0.95992,1.59022 -1.81986,3.13043 -2.5898,4.63064c-0.76994,1.5002 -1.40989,2.84038 -1.92985,4.02054c-0.51996,1.19017 -0.77994,2.05028 -0.77994,2.58036z" fill="#3eb311" stroke="none" stroke-width="0.26458" stroke-miterlimit="10"/><path d="M181.68544,352.86764c0.23999,-0.65009 0.70995,-1.16016 1.3899,-1.55021c0.87993,-0.23003 1.79986,-0.46006 2.76978,-0.67009c0.97993,-0.21003 1.94986,-0.35005 2.91978,-0.45006l0.58996,-0.57008l0.03,-4.22058l-0.56996,-0.59008c-0.48996,-0.05 -0.79994,-0.08 -0.94993,-0.08c-0.47996,0 -0.93992,0.01 -1.33989,0.03c-0.41997,0.02 -0.88994,0.12002 -1.42989,0.31004l-12.79902,-0.11001c-0.82994,-0.01 -1.59988,-0.35005 -2.31983,-1.04014c-0.72994,-0.68009 -1.07991,-1.4402 -1.07991,-2.27031l0.01,-0.7301c0.93992,-1.88026 1.92985,-3.73051 2.95977,-5.57076c1.02992,-1.83025 2.06984,-3.6705 3.10976,-5.51075c1.81986,-3.18044 3.55973,-6.35087 5.2396,-9.5113c1.67987,-3.17043 3.59972,-6.22085 5.75956,-9.16125c0.38997,-0.58008 0.75994,-1.23017 1.10991,-1.96027c0.34997,-0.7201 0.72994,-1.41019 1.14991,-2.06028c0.40997,-0.65009 0.89993,-1.19016 1.46989,-1.62022c0.55996,-0.44006 1.2699,-0.65009 2.14983,-0.64009c0.86994,0.01 1.66988,0.24004 2.38982,0.7101c0.72994,0.47006 1.19991,1.11015 1.43989,1.94026c0.04,0.24004 0.12999,0.57008 0.24998,0.98014c0.11999,0.42006 0.22998,0.85011 0.34997,1.28017c0.12,0.44006 0.20999,0.83012 0.27998,1.17016c0.07,0.34005 0.1,0.53007 0.1,0.58008l-0.22998,26.49362l6.40951,0.05c0.42997,0.01 0.81994,0.15002 1.15991,0.42006c0.32997,0.27003 0.61995,0.59008 0.85994,0.99013c0.23998,0.39005 0.42996,0.80011 0.56995,1.23017c0.14999,0.44006 0.21999,0.84011 0.20998,1.17016c-0.01,1.4602 -0.76994,2.38032 -2.27982,2.75037c-0.18998,0 -0.53996,0.01 -1.04992,0.02c-0.50996,0.03 -1.05992,0.04 -1.63987,0.06c-0.58996,0.03 -1.13992,0.06 -1.67987,0.10002c-0.52996,0.04 -0.88994,0.06 -1.08992,0.06c-0.43997,0.10001 -0.77994,0.18002 -1.01992,0.25003c-0.23998,0.07 -0.45997,0.15002 -0.65995,0.25003c-0.18999,0.09 -0.28998,0.21003 -0.28998,0.36005l-0.03,3.6405c0,0.29004 0.16999,0.58008 0.52996,0.87012c0.36997,0.30004 0.66995,0.49006 0.90993,0.60008c0.86993,0 1.69987,0.02 2.46981,0.05c0.77994,0.04 1.46989,0.16002 2.06984,0.38005c0.60996,0.23003 1.08992,0.61008 1.44989,1.15016c0.35997,0.53007 0.53996,1.31018 0.52996,2.33032c-0.01,0.82011 -0.27998,1.5202 -0.81994,2.10028c-0.53996,0.58008 -1.2499,0.87012 -2.11984,0.86012l-16.8087,-0.15002c-0.77994,-0.01 -1.43989,-0.28004 -1.98985,-0.82012c-0.55996,-0.54007 -0.82994,-1.17016 -0.82994,-1.90026c0.01,-0.67009 0.13999,-1.34018 0.38997,-2.00027zM178.3257,337.8856c-0.01,0.15002 0.09,0.24003 0.27998,0.29004l2.25983,0.02c1.39989,0.02 2.78978,-0.06 4.14968,-0.22003c1.35989,-0.15002 2.73979,-0.25004 4.14968,-0.28004c0.28998,-0.20003 0.49996,-0.47007 0.62995,-0.84011c0.11999,-0.36006 0.20999,-0.75011 0.25998,-1.16017c0.05,-0.41005 0.07,-0.81011 0.04,-1.20016c-0.01,-0.39005 -0.02,-0.70009 -0.02,-0.94013c0.01,-0.97013 -0.05,-1.92026 -0.15999,-2.85039c-0.10999,-0.92012 -0.15998,-1.86025 -0.15998,-2.83038c0.02,-1.80025 0.10999,-3.53048 0.26998,-5.21071c0.15998,-1.66023 0.24998,-3.42047 0.25998,-5.27072c-0.28998,0 -0.78994,0.42006 -1.49989,1.26017c-0.70995,0.84011 -1.50988,1.91026 -2.38981,3.22044c-0.88994,1.30018 -1.80987,2.75037 -2.76979,4.34059c-0.95993,1.59022 -1.81986,3.14043 -2.5898,4.63063c-0.75995,1.50021 -1.3999,2.84039 -1.91986,4.03055c-0.52996,1.18016 -0.78994,2.04028 -0.78994,2.57035z" fill="#fefefe" stroke="none" stroke-width="0.26458" stroke-miterlimit="10"/><path d="M181.68544,352.86764c0.23999,-0.65009 0.70995,-1.16016 1.3899,-1.55021c0.87993,-0.23003 1.79986,-0.46006 2.76978,-0.67009c0.97993,-0.21003 1.94986,-0.35005 2.91978,-0.45006l0.58996,-0.57008l0.03,-4.22058l-0.56996,-0.59008c-0.48996,-0.05 -0.79994,-0.08 -0.94993,-0.08c-0.47996,0 -0.93992,0.01 -1.33989,0.03c-0.41997,0.02 -0.88994,0.12002 -1.42989,0.31004l-12.79902,-0.11001c-0.82994,-0.01 -1.59988,-0.35005 -2.31983,-1.04014c-0.72994,-0.68009 -1.07991,-1.4402 -1.07991,-2.27031l0.01,-0.7301c0.93992,-1.88026 1.92985,-3.73051 2.95977,-5.57076c1.02992,-1.83025 2.06984,-3.6705 3.10976,-5.51075c1.81986,-3.18044 3.55973,-6.35087 5.2396,-9.5113c1.67987,-3.17043 3.59972,-6.22085 5.75956,-9.16125c0.38997,-0.58008 0.75994,-1.23017 1.10991,-1.96027c0.34997,-0.7201 0.72994,-1.41019 1.14991,-2.06028c0.40997,-0.65009 0.89993,-1.19016 1.46989,-1.62022c0.55996,-0.44006 1.2699,-0.65009 2.14983,-0.64009c0.86994,0.01 1.66988,0.24004 2.38982,0.7101c0.72994,0.47006 1.19991,1.11015 1.43989,1.94026c0.04,0.24004 0.12999,0.57008 0.24998,0.98014c0.11999,0.42006 0.22998,0.85011 0.34997,1.28017c0.12,0.44006 0.20999,0.83012 0.27998,1.17016c0.07,0.34005 0.1,0.53007 0.1,0.58008l-0.22998,26.49362l6.40951,0.05c0.42997,0.01 0.81994,0.15002 1.15991,0.42006c0.32997,0.27003 0.61995,0.59008 0.85994,0.99013c0.23998,0.39005 0.42996,0.80011 0.56995,1.23017c0.14999,0.44006 0.21999,0.84011 0.20998,1.17016c-0.01,1.4602 -0.76994,2.38032 -2.27982,2.75037c-0.18998,0 -0.53996,0.01 -1.04992,0.02c-0.50996,0.03 -1.05992,0.04 -1.63987,0.06c-0.58996,0.03 -1.13992,0.06 -1.67987,0.10002c-0.52996,0.04 -0.88994,0.06 -1.08992,0.06c-0.43997,0.10001 -0.77994,0.18002 -1.01992,0.25003c-0.23998,0.07 -0.45997,0.15002 -0.65995,0.25003c-0.18999,0.09 -0.28998,0.21003 -0.28998,0.36005l-0.03,3.6405c0,0.29004 0.16999,0.58008 0.52996,0.87012c0.36997,0.30004 0.66995,0.49006 0.90993,0.60008c0.86993,0 1.69987,0.02 2.46981,0.05c0.77994,0.04 1.46989,0.16002 2.06984,0.38005c0.60996,0.23003 1.08992,0.61008 1.44989,1.15016c0.35997,0.53007 0.53996,1.31018 0.52996,2.33032c-0.01,0.82011 -0.27998,1.5202 -0.81994,2.10028c-0.53996,0.58008 -1.2499,0.87012 -2.11984,0.86012l-16.8087,-0.15002c-0.77994,-0.01 -1.43989,-0.28004 -1.98985,-0.82012c-0.55996,-0.54007 -0.82994,-1.17016 -0.82994,-1.90026c0.01,-0.67009 0.13999,-1.34018 0.38997,-2.00027M178.32571,337.88557c-0.01,0.15002 0.09,0.24003 0.27998,0.29004l2.25983,0.02c1.39989,0.02 2.78978,-0.06 4.14968,-0.22003c1.35989,-0.15002 2.73979,-0.25004 4.14968,-0.28004c0.28998,-0.20003 0.49996,-0.47007 0.62995,-0.84011c0.11999,-0.36006 0.20999,-0.75011 0.25998,-1.16017c0.05,-0.41005 0.07,-0.81011 0.04,-1.20016c-0.01,-0.39005 -0.02,-0.70009 -0.02,-0.94013c0.01,-0.97013 -0.05,-1.92026 -0.15999,-2.85039c-0.10999,-0.92012 -0.15998,-1.86025 -0.15998,-2.83038c0.02,-1.80025 0.10999,-3.53048 0.26998,-5.21071c0.15998,-1.66023 0.24998,-3.42047 0.25998,-5.27072c-0.28998,0 -0.78994,0.42006 -1.49989,1.26017c-0.70995,0.84011 -1.50988,1.91026 -2.38981,3.22044c-0.88994,1.30018 -1.80987,2.75037 -2.76979,4.34059c-0.95993,1.59022 -1.81986,3.14043 -2.5898,4.63063c-0.75995,1.50021 -1.3999,2.84039 -1.91986,4.03055c-0.52996,1.18016 -0.78994,2.04028 -0.78994,2.57035v0.44006" fill="none" stroke="#3eb311" stroke-width="0.10999" stroke-miterlimit="4"/></g></g></svg>