<svg version="1.1" xmlns="http://www.w3.org/2000/svg" xmlns:xlink="http://www.w3.org/1999/xlink" width="64.54854" height="97.20302" viewBox="0,0,64.54854,97.20302"><g transform="translate(-156.20676,-286.30792)"><g data-paper-data="{&quot;isPaintingLayer&quot;:true}" fill-rule="nonzero" stroke-linecap="butt" stroke-linejoin="miter" stroke-dasharray="" stroke-dashoffset="0" style="mix-blend-mode: normal"><path d="M203.42167,289.14686c9.19995,-0.07975 16.72119,7.31229 16.80094,16.50926l0.53205,60.80296c0.07975,9.19995 -7.31229,16.72119 -16.50945,16.80094l-28.75076,0.25022c-9.19604,0.08384 -16.72119,-7.30932 -16.80094,-16.50926l-0.52815,-60.80296c-0.07975,-9.19604 7.3095,-16.72119 16.50945,-16.80094z" fill-opacity="0.69804" fill="#0f150e" stroke="none" stroke-width="1" stroke-miterlimit="10"/><path d="M201.46392,286.30856c9.1993,-0.08001 16.71871,7.311 16.79871,16.51226l0.52996,60.8083c0.08,9.20125 -7.30944,16.73229 -16.50873,16.81229l-28.74779,0.25004c-9.1993,0.08001 -16.71871,-7.311 -16.79871,-16.51226l-0.52996,-60.8183c-0.08,-9.19125 7.30944,-16.72229 16.50873,-16.80229z" fill="#77b074" stroke="none" stroke-width="0.26458" stroke-miterlimit="10"/><path d="M211.85313,362.66899c-0.23999,2.29032 -0.66995,3.76052 -1.26991,4.41061c-0.60995,0.65008 -1.95985,1.13015 -4.03969,1.43019c-1.49988,0.17002 -5.67956,0.46006 -12.53903,0.88012c-6.85948,0.41006 -12.04908,0.6601 -15.56881,0.7301c-1.58988,0.05 -2.85978,0.07 -3.79971,0.05c-0.93992,-0.03001 -1.84986,-0.14002 -2.72979,-0.34005c-0.87993,-0.19002 -1.52988,-0.43006 -1.95985,-0.70009c-0.41996,-0.27004 -0.82993,-0.7201 -1.2299,-1.37019c-0.39997,-0.64009 -0.71995,-1.33018 -0.93993,-2.06028c-0.21998,-0.7401 -0.47996,-1.76024 -0.77994,-3.06042c-0.77994,-3.6305 -1.2999,-7.52103 -1.53988,-11.68159c-0.24998,-4.16057 -0.26998,-10.11138 -0.09,-17.82244c0.08,-6.23085 0.04,-10.85148 -0.11999,-13.84189c-0.14998,-2.9904 -0.50996,-5.85079 -1.06991,-8.57117c-1.07992,-4.88066 -1.48989,-8.17111 -1.20991,-9.90135c0.13999,-0.69009 0.32997,-1.19016 0.53996,-1.52021c0.20998,-0.32004 0.62995,-0.63008 1.2499,-0.94012c0.75994,-0.37005 3.9197,-0.89013 9.47927,-1.58022c5.56958,-0.68009 11.00916,-1.24017 16.33875,-1.66023c3.55973,-0.18002 5.39958,-0.30005 5.53957,-0.37005c0.04,0 1.11992,0.02 3.21976,0.06c3.07976,0.18003 5.06961,0.6801 5.97954,1.50021c0.57995,0.49007 0.95992,1.24017 1.14991,2.2303c0.18998,0.99014 0.42997,3.43047 0.72994,7.301c0.33998,4.73065 0.91993,10.45143 1.72987,17.16234c0.99992,8.54117 1.63987,14.29195 1.90985,17.24235c0.26998,2.96041 0.54996,6.75093 0.84994,11.37156c0.29998,5.82079 0.35997,9.50129 0.16999,11.05151z" fill="#fefefe" stroke="none" stroke-width="0.26458" stroke-miterlimit="10"/><path d="M181.83543,345.35662c0.77994,-2.86039 1.66987,-5.66077 2.65979,-8.42115c0.14999,-0.38005 0.36998,-0.72009 0.66995,-1.01014c0.28998,-0.29003 0.55996,-0.61008 0.79994,-0.94012c0.24998,-0.39005 0.42997,-0.81011 0.55996,-1.27018c0.11999,-0.46006 0.30998,-0.88012 0.54996,-1.27017c0.49996,-0.7201 1.10991,-1.60022 1.84986,-2.64036c0.73994,-1.04014 1.44988,-2.11029 2.13983,-3.22044c0.68995,-1.11015 1.26991,-2.2203 1.73987,-3.33045c0.45996,-1.11016 0.70994,-2.08029 0.70994,-2.9004c0.01,-0.10001 -0.01,-0.22003 -0.03,-0.37005c-0.02,-0.14002 -0.12999,-0.24003 -0.31997,-0.29004c-0.14999,0 -0.37997,-0.02 -0.68995,-0.04c-0.31997,-0.03 -0.64995,-0.06 -0.98992,-0.09c-0.33998,-0.02 -0.66995,-0.06 -0.97993,-0.12001c-0.30997,-0.05 -0.53996,-0.07 -0.68994,-0.08c-0.14999,0 -0.42997,-0.06 -0.86994,-0.18003c-0.43996,-0.13002 -0.72994,-0.26004 -0.86993,-0.41005l-4.25967,-4.04056c-0.33998,-0.29004 -0.64995,-0.47006 -0.93993,-0.52007c-0.28998,-0.05 -0.62995,-0.07 -1.01992,-0.08c-0.76994,0 -1.49989,0.16002 -2.18984,0.49007c-0.67994,0.33004 -1.2599,0.78011 -1.74986,1.33018c-0.48996,0.55008 -0.87993,1.20016 -1.14991,1.92026c-0.26998,0.7201 -0.40997,1.4502 -0.41997,2.1803c-0.01,0.78011 0.05,1.53021 0.16999,2.26031c0.10999,0.7201 0.15998,1.4502 0.14999,2.1803c0,0.59008 -0.05,1.18016 -0.14999,1.78024c-0.10999,0.61008 -0.29998,1.18016 -0.55996,1.71023c-0.27998,0.53007 -0.61995,0.97013 -1.03992,1.30018c-0.40997,0.34005 -0.92993,0.50007 -1.55988,0.49007c-0.82994,0 -1.59988,-0.36005 -2.31982,-1.07015c-0.71995,-0.7101 -1.07992,-1.50021 -1.06992,-2.38032l0.1,-12.22167c-0.23998,-0.53007 -0.36997,-0.98014 -0.38997,-1.35019c-0.02,-0.36005 -0.03,-0.81011 -0.02,-1.35018c0.01,-1.11015 0.26998,-2.1703 0.78994,-3.19044c0.51996,-1.01013 1.45989,-1.5202 2.81978,-1.5102c0.76994,0.01 1.39989,0.21003 1.87986,0.60008c0.48996,0.39005 1.08991,0.59008 1.81986,0.60008c0.42996,0.01 0.82993,-0.06 1.1999,-0.21003c0.35998,-0.13001 0.72995,-0.30004 1.08992,-0.50007c0.36997,-0.18002 0.72995,-0.35004 1.09992,-0.50006c0.36997,-0.14002 0.73994,-0.21003 1.12991,-0.21003c1.20991,0.01 2.30982,0.37005 3.29975,1.05014c0.98992,0.6901 1.92985,1.4602 2.81978,2.32032c0.88993,0.86012 1.71987,1.63022 2.48981,2.32031c0.76994,0.6801 1.54988,1.03015 2.31982,1.04015c0.77994,0 1.3399,-0.29004 1.67987,-0.87012c0.34998,-0.57008 0.63995,-1.21017 0.88993,-1.88026c0.24998,-0.67009 0.55996,-1.31018 0.92993,-1.88026c0.36997,-0.58007 0.95993,-0.87011 1.78986,-0.86011c0.67995,0.01 1.21991,0.23003 1.62988,0.67009c0.40997,0.44006 0.71994,0.98013 0.92993,1.61022c0.21998,0.63008 0.33997,1.29017 0.37997,1.96027c0.05,0.69009 0.07,1.27017 0.06,1.75024c0,0.24003 -0.03,0.73009 -0.08,1.46019c-0.25998,1.84025 -0.56996,3.57049 -0.91993,5.20071c-0.35997,1.62023 -0.78994,3.20044 -1.3099,4.74065c-0.52996,1.56021 -1.13991,3.09042 -1.82986,4.61063c-0.68994,1.52021 -1.47988,3.11042 -2.36981,4.75065c-0.58996,1.11015 -1.21991,2.2203 -1.87986,3.33045c-0.66995,1.11015 -1.2999,2.22031 -1.88986,3.33046c-0.58995,1.11015 -1.09991,2.27031 -1.51988,3.48047c-0.41997,1.21017 -0.68995,2.47034 -0.79994,3.78052c0,0.29004 -0.03,0.81011 -0.08,1.56021c-0.06,0.75011 -0.1,1.55021 -0.13999,2.41033c-0.03,0.84012 -0.06,1.64022 -0.09,2.39033c-0.03,0.7501 -0.04,1.28017 -0.05,1.56021c-0.14999,0.88012 -0.56995,1.71023 -1.2599,2.50034c-0.67995,0.80011 -1.50988,1.20016 -2.47981,1.19016c-0.67995,-0.01 -1.20991,-0.21003 -1.59988,-0.60008c-0.37997,-0.39005 -0.78994,-0.86012 -1.2199,-1.40019c-0.38997,-0.48007 -0.57996,-1.14015 -0.56996,-1.97027l0.02,-2.03028c0.02,-2.91039 0.41997,-5.79079 1.19991,-8.65117z" fill="#3eb311" stroke="none" stroke-width="0.26458" stroke-miterlimit="10"/><path d="M185.07518,344.30648c0.76994,-2.85039 1.65988,-5.66077 2.6498,-8.41115c0.14999,-0.39005 0.36997,-0.7301 0.66995,-1.02014c0.28997,-0.28003 0.55995,-0.60008 0.79994,-0.93012c0.24998,-0.39006 0.43996,-0.81012 0.55995,-1.27018c0.12999,-0.47006 0.30998,-0.88012 0.55996,-1.27017c0.48996,-0.7301 1.10991,-1.60022 1.83986,-2.65036c0.73994,-1.03014 1.44989,-2.10029 2.13983,-3.21044c0.68995,-1.11015 1.26991,-2.2203 1.73987,-3.34046c0.46996,-1.11015 0.70994,-2.08028 0.70994,-2.90039c0.01,-0.10002 -0.01,-0.22003 -0.03,-0.37006c-0.02,-0.14001 -0.12999,-0.24003 -0.31997,-0.29003c-0.14999,0 -0.37997,-0.01 -0.68995,-0.04c-0.31997,-0.03 -0.64995,-0.05 -0.97992,-0.08c-0.34997,-0.03 -0.66995,-0.07 -0.98992,-0.12002c-0.30998,-0.05 -0.53996,-0.08 -0.68995,-0.08c-0.13999,0 -0.42997,-0.06 -0.86993,-0.19003c-0.42997,-0.12002 -0.71995,-0.26003 -0.86994,-0.41005l-4.25967,-4.03055c-0.32997,-0.30004 -0.64995,-0.47006 -0.93993,-0.52007c-0.28997,-0.05 -0.62995,-0.08 -1.01992,-0.08c-0.76994,-0.01 -1.49988,0.15002 -2.17983,0.49007c-0.68995,0.33004 -1.2699,0.7701 -1.75987,1.33018c-0.48996,0.55007 -0.86993,1.19016 -1.14991,1.92026c-0.26998,0.7201 -0.40997,1.4402 -0.40997,2.1703c-0.01,0.7801 0.04,1.5302 0.15999,2.26031c0.10999,0.73009 0.16999,1.46019 0.15999,2.19029c-0.01,0.58008 -0.06,1.17016 -0.15999,1.78025c-0.10999,0.60008 -0.28998,1.17016 -0.55996,1.71023c-0.27997,0.53007 -0.61995,0.96013 -1.02992,1.29018c-0.41997,0.34004 -0.93993,0.51007 -1.56988,0.50006c-0.81993,-0.01 -1.59987,-0.37005 -2.31982,-1.08014c-0.71994,-0.7001 -1.07992,-1.49021 -1.06992,-2.37033l0.1,-12.22166c-0.23998,-0.54008 -0.35997,-0.99014 -0.37997,-1.35019c-0.03,-0.37005 -0.03,-0.82011 -0.03,-1.35018c0.01,-1.12016 0.27998,-2.1803 0.78994,-3.19044c0.51996,-1.02014 1.45989,-1.52021 2.81979,-1.51021c0.76994,0 1.39989,0.21003 1.88985,0.60009c0.47996,0.39005 1.07992,0.59008 1.80986,0.60008c0.43997,0 0.83994,-0.07 1.19991,-0.21003c0.36997,-0.14002 0.72994,-0.31004 1.09992,-0.50007c0.36997,-0.19002 0.72994,-0.36005 1.09991,-0.50007c0.35997,-0.14002 0.73995,-0.22003 1.11992,-0.21003c1.2199,0.01 2.31982,0.36005 3.30974,1.05015c0.97992,0.69009 1.91985,1.4602 2.80979,2.31031c0.88993,0.86012 1.71986,1.63023 2.4898,2.32032c0.76994,0.68009 1.54989,1.03014 2.32982,1.04014c0.76995,0.01 1.3299,-0.28004 1.66988,-0.86012c0.34997,-0.58007 0.63995,-1.21016 0.88993,-1.88025c0.24998,-0.68009 0.55995,-1.31018 0.92993,-1.89026c0.36997,-0.58008 0.96992,-0.86012 1.78986,-0.85012c0.67995,0 1.21991,0.22003 1.62987,0.66009c0.40997,0.44006 0.71995,0.98014 0.92993,1.62023c0.21999,0.62008 0.33998,1.28017 0.38997,1.96026c0.04,0.6801 0.06,1.26017 0.06,1.74024c-0.01,0.25003 -0.04,0.7301 -0.09,1.4602c-0.25997,1.84025 -0.55995,3.57049 -0.91993,5.20071c-0.34997,1.62022 -0.78994,3.20044 -1.30989,4.75065c-0.52996,1.55021 -1.13992,3.09042 -1.82986,4.61063c-0.68995,1.52021 -1.47989,3.10042 -2.36982,4.74065c-0.58996,1.11014 -1.21991,2.2203 -1.87986,3.33045c-0.66995,1.11015 -1.2899,2.2203 -1.88985,3.33045c-0.58996,1.12016 -1.09992,2.27031 -1.51988,3.49048c-0.41997,1.21017 -0.68995,2.46033 -0.79994,3.77051c0,0.29004 -0.03,0.81012 -0.08,1.56022c-0.06,0.7601 -0.1,1.55021 -0.12999,2.41033c-0.03,0.84011 -0.07,1.64022 -0.1,2.39032c-0.03,0.76011 -0.04,1.28018 -0.04,1.57022c-0.15999,0.87011 -0.57996,1.70023 -1.2599,2.50034c-0.68995,0.79011 -1.51989,1.19016 -2.48982,1.18016c-0.67994,0 -1.2099,-0.21003 -1.58987,-0.59008c-0.38997,-0.40006 -0.79994,-0.86012 -1.22991,-1.40019c-0.38997,-0.49007 -0.56995,-1.14016 -0.55996,-1.97027l0.01,-2.04028c0.03,-2.9104 0.42997,-5.79079 1.20991,-8.65118z" fill="#fefefe" stroke="none" stroke-width="0.26458" stroke-miterlimit="10"/><path d="M185.07518,344.30648c0.76994,-2.85039 1.65988,-5.66077 2.6498,-8.41115c0.14999,-0.39005 0.36997,-0.7301 0.66995,-1.02014c0.28997,-0.28003 0.55995,-0.60008 0.79994,-0.93012c0.24998,-0.39006 0.43996,-0.81012 0.55995,-1.27018c0.12999,-0.47006 0.30998,-0.88012 0.55996,-1.27017c0.48996,-0.7301 1.10991,-1.60022 1.83986,-2.65036c0.73994,-1.03014 1.44989,-2.10029 2.13983,-3.21044c0.68995,-1.11015 1.26991,-2.2203 1.73987,-3.34046c0.46996,-1.11015 0.70994,-2.08028 0.70994,-2.90039c0.01,-0.10002 -0.01,-0.22003 -0.03,-0.37006c-0.02,-0.14001 -0.12999,-0.24003 -0.31997,-0.29003c-0.14999,0 -0.37997,-0.01 -0.68995,-0.04c-0.31997,-0.03 -0.64995,-0.05 -0.97992,-0.08c-0.34997,-0.03 -0.66995,-0.07 -0.98992,-0.12002c-0.30998,-0.05 -0.53996,-0.08 -0.68995,-0.08c-0.13999,0 -0.42997,-0.06 -0.86993,-0.19003c-0.42997,-0.12002 -0.71995,-0.26003 -0.86994,-0.41005l-4.25967,-4.03055c-0.32997,-0.30004 -0.64995,-0.47006 -0.93993,-0.52007c-0.28997,-0.05 -0.62995,-0.08 -1.01992,-0.08c-0.76994,-0.01 -1.49988,0.15002 -2.17983,0.49007c-0.68995,0.33004 -1.2699,0.7701 -1.75987,1.33018c-0.48996,0.55007 -0.86993,1.19016 -1.14991,1.92026c-0.26998,0.7201 -0.40997,1.4402 -0.40997,2.1703c-0.01,0.7801 0.04,1.5302 0.15999,2.26031c0.10999,0.73009 0.16999,1.46019 0.15999,2.19029c-0.01,0.58008 -0.06,1.17016 -0.15999,1.78025c-0.10999,0.60008 -0.28998,1.17016 -0.55996,1.71023c-0.27997,0.53007 -0.61995,0.96013 -1.02992,1.29018c-0.41997,0.34004 -0.93993,0.51007 -1.56988,0.50006c-0.81993,-0.01 -1.59987,-0.37005 -2.31982,-1.08014c-0.71994,-0.7001 -1.07992,-1.49021 -1.06992,-2.37033l0.1,-12.22166c-0.23998,-0.54008 -0.35997,-0.99014 -0.37997,-1.35019c-0.03,-0.37005 -0.03,-0.82011 -0.03,-1.35018c0.01,-1.12016 0.27998,-2.1803 0.78994,-3.19044c0.51996,-1.02014 1.45989,-1.52021 2.81979,-1.51021c0.76994,0 1.39989,0.21003 1.88985,0.60009c0.47996,0.39005 1.07992,0.59008 1.80986,0.60008c0.43997,0 0.83994,-0.07 1.19991,-0.21003c0.36997,-0.14002 0.72994,-0.31004 1.09992,-0.50007c0.36997,-0.19002 0.72994,-0.36005 1.09991,-0.50007c0.35997,-0.14002 0.73995,-0.22003 1.11992,-0.21003c1.2199,0.01 2.31982,0.36005 3.30974,1.05015c0.97992,0.69009 1.91985,1.4602 2.80979,2.31031c0.88993,0.86012 1.71986,1.63023 2.4898,2.32032c0.76994,0.68009 1.54989,1.03014 2.32982,1.04014c0.76995,0.01 1.3299,-0.28004 1.66988,-0.86012c0.34997,-0.58007 0.63995,-1.21016 0.88993,-1.88025c0.24998,-0.68009 0.55995,-1.31018 0.92993,-1.89026c0.36997,-0.58008 0.96992,-0.86012 1.78986,-0.85012c0.67995,0 1.21991,0.22003 1.62987,0.66009c0.40997,0.44006 0.71995,0.98014 0.92993,1.62023c0.21999,0.62008 0.33998,1.28017 0.38997,1.96026c0.04,0.6801 0.06,1.26017 0.06,1.74024c-0.01,0.25003 -0.04,0.7301 -0.09,1.4602c-0.25997,1.84025 -0.55995,3.57049 -0.91993,5.20071c-0.34997,1.62022 -0.78994,3.20044 -1.30989,4.75065c-0.52996,1.55021 -1.13992,3.09042 -1.82986,4.61063c-0.68995,1.52021 -1.47989,3.10042 -2.36982,4.74065c-0.58996,1.11014 -1.21991,2.2203 -1.87986,3.33045c-0.66995,1.11015 -1.2899,2.2203 -1.88985,3.33045c-0.58996,1.12016 -1.09992,2.27031 -1.51988,3.49048c-0.41997,1.21017 -0.68995,2.46033 -0.79994,3.77051c0,0.29004 -0.03,0.81012 -0.08,1.56022c-0.06,0.7601 -0.1,1.55021 -0.12999,2.41033c-0.03,0.84011 -0.07,1.64022 -0.1,2.39032c-0.03,0.76011 -0.04,1.28018 -0.04,1.57022c-0.15999,0.87011 -0.57996,1.70023 -1.2599,2.50034c-0.68995,0.79011 -1.51989,1.19016 -2.48982,1.18016c-0.67994,0 -1.2099,-0.21003 -1.58987,-0.59008c-0.38997,-0.40006 -0.79994,-0.86012 -1.22991,-1.40019c-0.38997,-0.49007 -0.56995,-1.14016 -0.55996,-1.97027l0.01,-2.04028c0.03,-2.9104 0.42997,-5.79079 1.20991,-8.65118" fill="none" stroke="#3eb311" stroke-width="0.10999" stroke-miterlimit="4"/></g></g></svg>