<svg version="1.1" xmlns="http://www.w3.org/2000/svg" xmlns:xlink="http://www.w3.org/1999/xlink" width="72.22952" height="10.10124" viewBox="0,0,72.22952,10.10124"><g transform="translate(-151.82274,-328.94938)"><g data-paper-data="{&quot;isPaintingLayer&quot;:true}" fill-rule="nonzero" stroke-linecap="butt" stroke-linejoin="miter" stroke-dasharray="" stroke-dashoffset="0" style="mix-blend-mode: normal"><path d="M152.69774,329.94938h66.55489c2.04984,0 4.79963,0.80011 4.79963,1.79024v5.52076c0,0.99013 -1.67987,1.79024 -3.72971,1.79024h-67.62481z" fill-opacity="0.53725" fill="#001712" stroke="none" stroke-width="0.26458" stroke-miterlimit="10"/><path d="M151.82274,328.94938h66.55489c2.04984,0 4.79963,0.80011 4.79963,1.79024v5.52076c0,0.99013 -1.67987,1.79024 -3.72971,1.79024h-67.62481z" fill="#008368" stroke="none" stroke-width="0.26458" stroke-miterlimit="10"/><path d="M172.95613,335.28025v-1.54021c0,-0.38006 0.01,-0.7201 0.04,-1.04015l-1.12991,2.58036h-0.46997v-3.56049h0.46997v1.54021c0,0.38005 -0.01,0.7201 -0.04,1.04014l1.13991,-2.58035h0.45997v3.56049zM174.10604,331.71976h1.64988v0.53007h-1.17991v3.03042h-0.46997zM178.12574,332.88992c0,0.79011 -0.40997,1.18016 -1.01993,1.18016h-0.43996v1.21017h-0.46997v-3.56049h0.90993c0.60996,0 1.01993,0.38005 1.01993,1.17016zM176.66585,332.23983v1.31018h0.43996c0.34998,0 0.53996,-0.24003 0.53996,-0.66009c0,-0.42006 -0.18998,-0.65009 -0.53996,-0.65009zM179.13566,331.71976h0.49996l0.96992,3.56049h-0.49996l-0.18998,-0.77011h-1.05992l-0.19999,0.77011h-0.48996zM179.79561,334.02007l-0.26998,-1.05014c-0.04999,-0.20003 -0.09999,-0.42006 -0.13999,-0.64009c-0.03999,0.22003 -0.08999,0.44006 -0.13999,0.64009l-0.26998,1.05014zM183.69531,332.61988c0,0.47007 -0.18999,0.6901 -0.34998,0.79011c0.17999,0.08001 0.45997,0.33005 0.45997,0.88012c0,0.79011 -0.55996,0.99014 -0.95993,0.99014h-1.02992v-3.56049h1.00992c0.52996,0 0.86994,0.31004 0.86994,0.90012zM182.28542,332.21983v0.98013h0.51995c0.23998,0 0.40997,-0.15002 0.40997,-0.49006c0,-0.37005 -0.15999,-0.49007 -0.44997,-0.49007zM182.28542,333.69003v1.09015h0.47996c0.25998,0 0.55995,-0.04001 0.55995,-0.55008c0,-0.47007 -0.28997,-0.54007 -0.51996,-0.54007zM185.70515,333.94006c-0.20998,0.10003 -0.41997,0.17003 -0.66995,0.16003c-0.51996,0 -0.83993,-0.36005 -0.83993,-1.01014v-1.37019h0.46996v1.34018c0,0.35005 0.16999,0.51007 0.46997,0.51007c0.20998,0.01 0.39996,-0.07001 0.56995,-0.18002v-1.67023h0.46997v3.56049h-0.46997zM186.85507,331.71976h1.62987v0.51007h-1.15991v1.00014h1.03992v0.51007h-1.03992v1.02014h1.18991v0.52007h-1.65988zM189.58485,332.24983h-0.75994v-0.53007h1.99985v0.53007h-0.76994v3.03042h-0.46997zM193.13458,332.61988c0,0.47007 -0.18999,0.6901 -0.33997,0.79011c0.17998,0.08001 0.45996,0.33005 0.45996,0.88012c0,0.79011 -0.56996,0.99014 -0.95992,0.99014h-1.03993v-3.56049h1.01993c0.52996,0 0.85993,0.31004 0.85993,0.90012zM191.73468,332.21983v0.98013h0.51996c0.23998,0 0.40997,-0.15002 0.40997,-0.49006c0,-0.37005 -0.15999,-0.49007 -0.44996,-0.49007zM191.73469,333.69003v1.09015h0.47996c0.25998,0 0.55995,-0.04001 0.55995,-0.55008c0,-0.47007 -0.28997,-0.54007 -0.51995,-0.54007zM193.77451,331.71976h1.63988v0.51007h-1.16991v1.00014h1.03992v0.51007h-1.03992v1.02014h1.18991v0.52007h-1.65987zM197.90421,332.88992c0,0.79011 -0.40997,1.18016 -1.01992,1.18016h-0.43997v1.21017h-0.46997v-3.56049h0.90994c0.60995,0 1.01992,0.38005 1.01992,1.17016zM196.44432,332.23983v1.31018h0.43997c0.34997,0 0.54995,-0.24003 0.54995,-0.66009c0,-0.42006 -0.18998,-0.65009 -0.54995,-0.65009zM198.26418,333.5c0,-1.12015 0.36997,-1.85025 1.13991,-1.85025c0.76994,0 1.13991,0.7301 1.13991,1.85025c0,1.12016 -0.36997,1.85026 -1.13991,1.85026c-0.76994,0 -1.13991,-0.7301 -1.13991,-1.85026zM200.05404,333.5c0,-0.82011 -0.18998,-1.31017 -0.64995,-1.31017c-0.45996,0 -0.65995,0.49006 -0.65995,1.31017c0,0.81011 0.19999,1.31018 0.65995,1.31018c0.45997,0 0.64995,-0.50007 0.64995,-1.31018zM201.08396,331.71976h0.45997l0.79994,1.88026l0.78993,-1.88026h0.46996v3.56049h-0.47996v-1.51021c0,-0.37005 0.02,-0.7301 0.05,-1.10015l-0.72995,1.75024h-0.19998l-0.73994,-1.75024c0.04,0.37005 0.05,0.7301 0.05,1.10015v1.51021h-0.46997z" fill="#ffffff" stroke="none" stroke-width="0.26458" stroke-miterlimit="10"/><path d="M153.2325,333.6002c0,-0.04002 0,-0.07002 0,-0.11002v0c0.01,-0.04001 0.01,-0.07001 0.01,-0.11001v0c0,-0.03002 0,-0.07002 0.01,-0.11002v0c0,-0.03001 0,-0.07001 0,-0.10001h0.01c0,-0.04001 0,-0.07001 0.01,-0.11001v0c0,-0.03002 0.01,-0.07002 0.01,-0.10002v0c0.01,-0.04001 0.01,-0.07001 0.02,-0.11001v0c0.01,-0.03002 0.01,-0.07002 0.02,-0.10002v0c0.01,-0.04001 0.01,-0.07001 0.02,-0.11001v0c0.01,-0.03002 0.02,-0.06002 0.03,-0.10002v0c0.01,-0.03001 0.01,-0.07001 0.02,-0.10001v0c0.01,-0.03001 0.02,-0.07001 0.03,-0.10001v0c0.01,-0.03002 0.02,-0.06002 0.04,-0.10002v0c0.01,-0.03 0.02,-0.06 0.03,-0.09v0c0.01,-0.04001 0.02,-0.07001 0.04,-0.10001v0c0.01,-0.03001 0.02,-0.07001 0.04,-0.10001v0c0.01,-0.03 0.02,-0.06 0.0401,-0.09v0c0.01,-0.03 0.03,-0.06 0.04,-0.09v0c0.02,-0.04002 0.03,-0.07002 0.05,-0.10002v0c0.01,-0.03 0.03,-0.06 0.04,-0.09v0c0.02,-0.03 0.04,-0.06 0.05,-0.09v0c0.02,-0.03 0.04,-0.05 0.06,-0.08v0c0.01,-0.03 0.03,-0.06 0.05,-0.09v0c0.02,-0.03 0.04,-0.06 0.06,-0.09v0c0.01,-0.02 0.03,-0.05 0.05,-0.08v0c0.02,-0.03 0.04,-0.05 0.06,-0.08v0c0.02,-0.03 0.04,-0.06 0.07,-0.08v0c0.02,-0.03 0.04,-0.05 0.06,-0.08v0c0.02,-0.03 0.04,-0.05 0.06,-0.08v0c0.03,-0.02 0.05,-0.05 0.07,-0.07v0c0.02,-0.03 0.05,-0.05 0.07,-0.08v0c0.02,-0.02 0.05,-0.05 0.07,-0.07v0c0.03,-0.03 0.05,-0.05 0.07,-0.07v0c0.03,-0.03 0.05,-0.05 0.08,-0.07v0c0.02,-0.02 0.05,-0.05 0.07,-0.07v0c0.03,-0.02 0.06,-0.04 0.08,-0.06v0c0.03,-0.03 0.05,-0.05 0.08,-0.07v0c0.03,-0.02 0.06,-0.04 0.08,-0.06v0c0.03,-0.02 0.06,-0.04 0.08,-0.06v0c0.03,-0.02 0.06,-0.04 0.09,-0.06v0c0.03,-0.02 0.05,-0.04 0.08,-0.05v0c0.03,-0.02 0.06,-0.04 0.09,-0.06v0c0.03,-0.02 0.06,-0.03 0.09,-0.05v0c0.03,-0.02 0.06,-0.03 0.09,-0.05v0c0.03,-0.02 0.06,-0.03 0.09,-0.05v0c0.03,-0.01 0.06,-0.03 0.09,-0.04v0c0.03,-0.02 0.06,-0.03 0.09,-0.05v0c0.03,-0.01 0.06,-0.02 0.1,-0.04v0c0.03,-0.01 0.06,-0.02 0.09,-0.04v0c0.03,-0.01 0.07,-0.02 0.1,-0.03v0c0.03,-0.02 0.06,-0.03 0.1,-0.04v0c0.03,-0.01 0.06,-0.02 0.1,-0.03v0c0.03,-0.01 0.06,-0.02 0.09,-0.03h0.01c0.03,-0.01 0.06,-0.02 0.1,-0.03v0c0.03,-0.01 0.06,-0.01 0.1,-0.02v0c0.03,-0.01 0.07,-0.02 0.1,-0.02v0c0.03,-0.01 0.07,-0.02 0.1,-0.02v0c0.03999,-0.01 0.06999,-0.02 0.10999,-0.02v0c0.03,-0.01 0.07,-0.01 0.1,-0.02v0c0.04,0 0.07,0 0.11,-0.01v0c0.03999,0 0.06999,-0.01 0.10999,-0.01v0c0.02999,0 0.06999,0 0.10999,0v0c0.03,-0.01 0.07,-0.01 0.1,-0.01v0c0.03999,0 0.07999,0 0.10999,0c0.10999,0 0.21998,0 0.31998,0.01h0.03l0.08,0.01h0.03l0.08,0.01l0.02,0.01l0.08,0.01h0.03l0.07,0.01l0.03,0.01l0.07,0.01l0.04,0.01l0.06,0.01l0.03,0.01l0.08,0.02l0.02,0.01l0.08,0.02h0.02l0.08,0.03h0.02l0.07,0.03l0.03,0.01l0.07,0.02l0.02,0.01l0.07,0.02l0.03,0.02c0.08999,0.03002 0.18997,0.07002 0.27997,0.12002v0c0.03,0.01 0.05,0.02 0.08,0.04h0.01l0.02,0.02l0.07,0.03l0.02,0.01l0.06,0.04l0.03,0.02l0.06,0.03l0.03,0.01l0.05,0.04l0.03,0.02l0.06,0.03l0.03,0.03l0.05,0.03l0.03,0.02l0.05,0.04l0.03,0.03l0.04,0.03l0.04,0.03l0.04,0.03l0.04,0.03l0.04,0.03l0.04,0.03l0.03,0.04l0.04,0.03l0.04,0.04l0.03,0.03l0.04,0.03l0.03,0.04l0.04,0.03l0.03,0.04l0.04,0.04l0.02,0.03h0.01c0.02,0.02 0.04,0.05 0.06,0.07v0c0.02,0.03 0.05,0.05 0.07,0.08v0c0.02,0.02 0.04,0.05 0.06,0.07v0l0.04,0.06l0.02,0.02l0.03,0.04l0.03,0.04l0.02,0.03l0.04,0.06l0.01,0.03l0.04,0.05l0.02,0.03l0.03,0.05l0.03,0.04l0.02,0.05l0.03,0.04l0.02,0.04l0.03,0.05l0.02,0.04l0.02,0.04l0.02,0.05l0.03,0.05l0.01,0.04l0.03,0.05l0.02,0.04l0.02,0.05l0.02,0.04l0.01,0.05l0.02,0.05l0.02,0.04l0.02,0.06l0.01,0.04l0.02,0.06l0.01,0.03v0.01c0.01,0.03 0.02,0.06 0.03,0.09c0.01,0.03001 0.02,0.07001 0.03,0.10001v0v0.01c0.01,0.03 0.02,0.06 0.02,0.09l0.01,0.05l0.01,0.05l0.01,0.04l0.02,0.07v0.02l0.01,0.07l0.01,0.05l0.01,0.06v0.04l0.01,0.06v0.05l0.01,0.03v0.7301l-0.01,0.05v0.03l-0.01,0.08v0.03l-0.01,0.07l-0.01,0.03v0c0,0.03002 -0.01,0.07002 -0.01,0.10002v0c-0.01,0.03001 -0.02,0.06001 -0.02,0.10001l-0.01,0.03l-0.01,0.07l-0.01,0.03l-0.02,0.07v0.02l-0.02,0.07l-0.01,0.03l-0.02,0.07l-0.01,0.03l-0.02,0.06l-0.01,0.04l-0.03,0.06l-0.01,0.03c-0.02,0.06001 -0.04,0.12002 -0.07,0.18002v0.02l-0.04,0.07l-0.01,0.04l-0.03,0.05l-0.02,0.04l-0.02,0.05l-0.02,0.04l-0.03,0.04l-0.02,0.04l-0.02,0.05l-0.02,0.04l-0.04,0.05l-0.01,0.03l-0.05,0.07v0.01c-0.02,0.03 -0.04,0.06 -0.06,0.08v0v0.01c-0.02,0.02 -0.04,0.05 -0.06,0.07l-0.01,0.03l-0.04,0.05l-0.03,0.04l-0.03,0.04l-0.03,0.03l-0.03,0.04l-0.03,0.04l-0.03,0.03l-0.03,0.05l-0.03,0.02l-0.04,0.04l-0.03,0.04l-0.03,0.03l-0.05,0.06l-0.02,0.01v0c-0.02,0.02 -0.04,0.05 -0.06,0.07h-0.01l-0.02,0.03l-0.05,0.03l-0.03,0.03l-0.04,0.04l-0.03,0.03l-0.04,0.03l-0.04,0.03l-0.03,0.03l-0.04,0.03l-0.04,0.03l-0.04,0.03l-0.04,0.02l-0.04,0.04l-0.04,0.03l-0.04,0.02v0c-0.02,0.02 -0.05,0.04 -0.08,0.05v0l-0.03,0.02l-0.05,0.03l-0.03,0.02l-0.05,0.03l-0.04,0.02l-0.04,0.03l-0.05,0.03l-0.03,0.01l-0.06,0.03l-0.03,0.02l-0.05,0.02l-0.04,0.02l-0.05,0.02l-0.04,0.02l-0.05,0.02l-0.04,0.02l-0.05,0.02c-0.03,0.01 -0.06,0.02 -0.09,0.03v0l-0.05,0.02l-0.04,0.01l-0.05,0.02l-0.05,0.02l-0.03,0.01l-0.06,0.01l-0.04,0.01l-0.06,0.02l-0.04,0.01l-0.05,0.01l-0.05,0.01l-0.05,0.02l-0.04,0.01l-0.07,0.01h-0.03h-0.01c-0.03,0.01 -0.06,0.02 -0.09,0.02v0h-0.02c-0.03,0.01 -0.05,0.01 -0.08,0.01l-0.04,0.01l-0.06,0.01h-0.05h-0.04h-0.71994h-0.03h-0.06l-0.05,-0.01l-0.05,-0.01h-0.05l-0.05,-0.01c-0.02,0 -0.05,-0.01 -0.07,-0.01l-0.03,-0.01l-0.06,-0.01l-0.05,-0.01h-0.02l-0.07,-0.02c-0.04,-0.01 -0.07,-0.01 -0.1,-0.02v0c-0.04,-0.01 -0.07,-0.02 -0.1,-0.03v0l-0.06,-0.02l-0.04,-0.01l-0.05,-0.02l-0.04,-0.01l-0.06,-0.02l-0.04,-0.01l-0.06,-0.03l-0.03,-0.01l-0.06,-0.02l-0.03,-0.01l-0.06,-0.03l-0.03,-0.01l-0.06,-0.03l-0.03,-0.01l-0.06,-0.03l-0.03,-0.02l-0.06,-0.03l-0.03,-0.01l-0.06,-0.04l-0.02,-0.01l-0.06,-0.03l-0.03,-0.02l-0.06,-0.03l-0.02,-0.02l-0.06,-0.04l-0.03,-0.01l-0.06,-0.04l-0.01,-0.01c-0.16999,-0.12001 -0.33998,-0.26003 -0.49996,-0.41005l-0.01,-0.01l-0.06,-0.05l-0.01,-0.02l-0.05,-0.04l-0.03,-0.03l-0.05,-0.05l-0.01,-0.02l-0.05,-0.05l-0.01,-0.02c-0.02,-0.02 -0.04,-0.04 -0.06,-0.06l-0.01,-0.01l-0.05,-0.06l-0.01,-0.02l-0.05,-0.06l-0.01,-0.01l-0.05,-0.07l-0.01,-0.01l-0.04,-0.06l-0.02,-0.03l-0.04,-0.06l-0.01,-0.02l-0.04,-0.06l-0.02,-0.02l-0.03,-0.06l-0.01,-0.01c-0.01,-0.03 -0.03,-0.05 -0.04,-0.08h-0.01c-0.08999,-0.17003 -0.16998,-0.34005 -0.24998,-0.52007v0l-0.03,-0.09v-0.01l-0.03,-0.07l-0.01,-0.02l-0.02,-0.07l-0.01,-0.03l-0.02,-0.06l-0.01,-0.04l-0.02,-0.06l-0.01,-0.04l-0.01,-0.06l-0.01,-0.03l-0.02,-0.07v-0.03l-0.02,-0.07v-0.04l-0.01,-0.05l-0.01,-0.04l-0.01,-0.07l-0.01,-0.03l-0.01,-0.07v-0.03l-0.01,-0.07v-0.03l-0.01,-0.08v-0.02c0,-0.02 0,-0.05 0,-0.08v-0.04l-0.01,-0.07v-0.02z" fill="#ffffff" stroke="none" stroke-width="0.26458" stroke-miterlimit="10"/><path d="M155.64245,333.99007c0.23998,-0.19003 0.50996,-0.26004 0.59995,-0.15002c0.16999,0.20002 0.66995,0.45006 1.22991,0.45006c0.55995,0 1.04992,-0.25004 1.2199,-0.45006c0.09,-0.11002 0.35997,-0.05 0.58996,0.15002c0.45996,0.19002 0.91993,1.34018 1.10991,2.67036c-0.67995,0.64009 -1.56988,1.07015 -2.5698,1.15016h-0.71995v0c-0.98992,-0.08 -1.87985,-0.50007 -2.5498,-1.15016c0.19998,-1.31018 0.71994,-2.36032 1.08992,-2.67036z" fill="#008368" stroke="none" stroke-width="0.26458" stroke-miterlimit="10"/><path d="M160.48206,336.56042c-0.07999,0.09001 -0.16997,0.17003 -0.26997,0.25003c-0.18999,-1.19016 -0.66995,-2.33031 -1.3399,-2.9404c-0.36997,0.38005 -0.86993,0.59008 -1.39989,0.59008c-0.52996,0 -1.03992,-0.21003 -1.4099,-0.59008c-0.66994,0.61009 -1.14991,1.75024 -1.33989,2.9504c-0.1,-0.08001 -0.18998,-0.17003 -0.26998,-0.25003c0.23998,-1.27017 0.77994,-2.46034 1.51988,-3.06042l0.12999,-0.10001l0.1,0.12002c0.31998,0.38005 0.77994,0.59008 1.26991,0.59008c0.47996,0 0.93992,-0.21003 1.2599,-0.59008l0.10999,-0.12002l0.11999,0.10001c0.73994,0.60008 1.2799,1.79025 1.51988,3.05042z" fill="#ffffff" stroke="none" stroke-width="0.26458" stroke-miterlimit="10"/><path d="M157.47231,330.38958c0.99992,0 1.80986,0.81011 1.80986,1.82025c0,1.00013 -0.80994,1.81024 -1.80986,1.81024c-1.00993,0 -1.81986,-0.81011 -1.81986,-1.81024c0,-1.01014 0.80993,-1.82025 1.81986,-1.82025z" fill="#008368" stroke="none" stroke-width="0.26458" stroke-miterlimit="10"/><path d="M155.48246,332.20983c0,-1.10015 0.88993,-1.99028 1.98985,-1.99028c1.08991,0 1.97984,0.89013 1.97984,1.99028c0,1.09014 -0.88993,1.98027 -1.97984,1.98027c-1.09992,0 -1.98985,-0.89013 -1.98985,-1.98027zM155.82243,332.20983c0,0.91012 0.73995,1.65022 1.64988,1.65022c0.90993,0 1.64987,-0.7401 1.64987,-1.65022c0,-0.91013 -0.73994,-1.65023 -1.64987,-1.65023c-0.90993,0 -1.64988,0.7401 -1.64988,1.65023z" fill="#ffffff" stroke="none" stroke-width="0.26458" stroke-miterlimit="10"/><path d="M157.46231,329.36944c2.33982,0 4.22967,1.89026 4.22967,4.23057c0,2.34032 -1.88985,4.23058 -4.22967,4.23058c-2.32982,0 -4.22968,-1.89026 -4.22968,-4.23058c0,-2.34031 1.89986,-4.23057 4.22968,-4.23057z" fill="none" stroke="#008368" stroke-width="0.69995" stroke-miterlimit="4"/><path d="M158.19225,336.66043c0.04,0 0.07,0.02 0.1,0.04c0.02,0.03 0.04,0.07 0.04,0.11002v0.09c0,0.04 -0.02,0.07 -0.04,0.10001c-0.03,0.03 -0.06,0.04 -0.1,0.04c-0.04,0 -0.07,0.02 -0.1,0.05c-0.02,0.03 -0.04,0.06 -0.04,0.10001v0.10002c0,0.04 -0.01,0.08 -0.04,0.10001c-0.03,0.03 -0.07,0.05 -0.10999,0.05h-0.11999c-0.04,0 -0.08,-0.02 -0.10999,-0.05c-0.02,-0.02 -0.04,-0.06 -0.04,-0.10001v-0.10002c0,-0.04 -0.01,-0.07 -0.04,-0.10001c-0.03,-0.03 -0.07,-0.05 -0.10999,-0.05h-0.72994c-0.04,0 -0.07,-0.01 -0.1,-0.04c-0.03,-0.03 -0.04,-0.06 -0.04,-0.10001v-0.06c0,-0.09 0.02,-0.19003 0.07,-0.28004l0.73994,-1.41019c0.02,-0.04 0.05,-0.07 0.09,-0.10002c0.05,-0.02 0.09,-0.03 0.12999,-0.03h0.19998c0.05,0 0.07,0.01 0.09,0.03c0.02,0.03 0.01,0.06 -0.01,0.10002l-0.71994,1.38018c-0.02,0.04 -0.03,0.07 -0.01,0.09c0.02,0.03 0.04,0.04 0.09,0.04h0.19998c0.04,0 0.08,-0.01 0.11,-0.04c0.03,-0.03 0.04,-0.07 0.04,-0.11001v-0.02c0,-0.04 0.02,-0.08 0.04,-0.11002c0.03,-0.03 0.07,-0.04 0.10999,-0.04h0.11999c0.04,0 0.08,0.01 0.10999,0.04c0.03,0.03 0.04,0.07 0.04,0.11002v0.02c0,0.04 0.02,0.08 0.04,0.11001c0.03,0.03 0.06,0.04 0.1,0.04z" fill="#ffffff" stroke="none" stroke-width="0.26458" stroke-miterlimit="10"/></g></g></svg>