<svg version="1.1" xmlns="http://www.w3.org/2000/svg" xmlns:xlink="http://www.w3.org/1999/xlink" width="64.54855" height="97.20303" viewBox="0,0,64.54855,97.20303"><g transform="translate(-156.20675,-286.30791)"><g data-paper-data="{&quot;isPaintingLayer&quot;:true}" fill-rule="nonzero" stroke-linecap="butt" stroke-linejoin="miter" stroke-dasharray="" stroke-dashoffset="0" style="mix-blend-mode: normal"><path d="M203.42167,289.14686c9.19995,-0.07975 16.72119,7.31229 16.80094,16.50926l0.53205,60.80296c0.07975,9.19995 -7.31229,16.72119 -16.50945,16.80094l-28.75076,0.25022c-9.19604,0.08384 -16.72119,-7.30932 -16.80094,-16.50926l-0.52815,-60.80296c-0.07975,-9.19604 7.3095,-16.72119 16.50945,-16.80094z" fill-opacity="0.69804" fill="#0f150e" stroke="none" stroke-width="1" stroke-miterlimit="10"/><path d="M201.46393,286.30856c9.19929,-0.08001 16.71871,7.311 16.79871,16.51226l0.52996,60.80829c0.07999,9.20126 -7.30944,16.7323 -16.50873,16.8123l-28.7478,0.25003c-9.19929,0.08002 -16.71871,-7.311 -16.79871,-16.51225l-0.52996,-60.8183c-0.07999,-9.19125 7.30944,-16.72229 16.50874,-16.80229z" fill="#77b074" stroke="none" stroke-width="0.26458" stroke-miterlimit="10"/><path d="M212.01313,363.3791c-0.23998,2.29031 -0.66995,3.76051 -1.2699,4.4106c-0.60996,0.65009 -1.94985,1.13015 -4.03969,1.43019c-1.49989,0.17003 -5.67957,0.46007 -12.53904,0.88012c-6.85947,0.41006 -12.04907,0.6601 -15.5688,0.7301c-1.58988,0.05 -2.85978,0.07 -3.79971,0.04c-0.93993,-0.02 -1.84986,-0.13002 -2.72979,-0.33004c-0.87994,-0.19003 -1.52989,-0.43006 -1.94985,-0.7001c-0.42997,-0.27003 -0.83994,-0.7201 -1.23991,-1.37019c-0.39997,-0.64008 -0.70994,-1.33018 -0.93993,-2.06028c-0.21998,-0.7401 -0.47996,-1.76024 -0.77994,-3.06041c-0.77994,-3.6305 -1.2999,-7.52103 -1.53988,-11.6916c-0.23999,-4.15057 -0.26999,-10.10138 -0.09,-17.82243c0.07999,-6.22085 0.04,-10.84148 -0.11999,-13.83189c-0.14999,-2.99041 -0.50996,-5.8508 -1.06992,-8.57117c-1.07992,-4.88067 -1.47989,-8.17112 -1.20991,-9.90135c0.14999,-0.6901 0.32998,-1.19016 0.53996,-1.52021c0.20999,-0.32004 0.62995,-0.63009 1.24991,-0.94013c0.75994,-0.37005 3.9197,-0.90012 9.47927,-1.58021c5.56957,-0.6801 11.01915,-1.24017 16.33875,-1.66023c3.55972,-0.18002 5.39958,-0.30005 5.53957,-0.37005c0.04,0 1.11991,0.02 3.22975,0.06c3.06977,0.18002 5.05961,0.68009 5.96954,1.5002c0.57996,0.49007 0.95993,1.24017 1.14991,2.23031c0.18999,0.99013 0.42997,3.43047 0.72995,7.30099c0.33997,4.73065 0.91993,10.45143 1.72986,17.16235c1.00993,8.54116 1.63988,14.29195 1.90986,17.24235c0.26998,2.9604 0.55996,6.75092 0.84993,11.37155c0.29998,5.8208 0.35998,9.5013 0.16999,11.05151z" fill="#fefefe" stroke="none" stroke-width="0.26458" stroke-miterlimit="10"/><path d="M168.22648,339.64584c0.59996,-1.73024 1.45989,-3.33045 2.5898,-4.78065c0.19999,-0.23003 0.49996,-0.49007 0.91993,-0.7601c0.40997,-0.25004 0.82994,-0.53008 1.23991,-0.82012c0.40997,-0.29004 0.77994,-0.57008 1.09991,-0.86012c0.31998,-0.29003 0.47997,-0.61008 0.47997,-0.94012c0,-0.34005 -0.11,-0.66009 -0.34998,-0.96013c-0.23998,-0.29004 -0.51996,-0.56008 -0.82993,-0.80011c-0.31998,-0.25004 -0.62995,-0.49007 -0.93993,-0.74011c-0.31998,-0.24003 -0.53996,-0.49006 -0.68995,-0.73009c-0.61995,-0.93013 -1.05992,-1.80025 -1.3199,-2.60036c-0.25998,-0.80011 -0.38997,-1.71023 -0.37997,-2.73037l0.01,-1.24017c0.05,-0.19003 0.13999,-0.57008 0.26998,-1.12015c0.11999,-0.56008 0.25998,-1.13016 0.40997,-1.71024c0.14999,-0.58008 0.29998,-1.13015 0.44997,-1.67023c0.14998,-0.53007 0.27997,-0.92012 0.37997,-1.16015c0.58995,-1.59022 1.44989,-2.95041 2.5798,-4.05056c1.11991,-1.11015 2.38982,-2.01027 3.80971,-2.70037c1.40989,-0.69009 2.90977,-1.20016 4.47965,-1.5202c1.58988,-0.33005 3.14976,-0.48007 4.69964,-0.47007c1.3599,0.01 2.6398,0.26004 3.8497,0.7201c1.20991,0.47007 2.43982,0.94013 3.69972,1.38019c1.15991,0.40005 2.20983,1.06014 3.14976,2.00027c0.93993,0.92013 1.73987,1.97027 2.40981,3.15043c0.66995,1.17016 1.17991,2.38033 1.53989,3.6405c0.34997,1.27017 0.51996,2.49034 0.50996,3.6505c-0.01,0.7301 -0.14999,1.53021 -0.41997,2.40033c-0.27998,0.87011 -0.63995,1.74023 -1.07992,2.61035c-0.44996,0.87012 -0.93993,1.66023 -1.46989,2.39033c-0.54995,0.7201 -1.10991,1.25017 -1.68987,1.58021l-0.01,0.44006c0,0.44006 0.17999,0.81012 0.53996,1.13016c0.35997,0.32004 0.77994,0.63008 1.25991,0.92012c0.48996,0.30004 0.95992,0.59009 1.40989,0.89013c0.45996,0.30004 0.80994,0.61008 1.04992,0.95012c0.90993,1.37019 1.54988,2.85039 1.92985,4.42061c0.36997,1.58021 0.54996,3.20043 0.53996,4.85066c-0.03,2.57035 -0.56996,4.94068 -1.62988,7.11097c-1.05992,2.1803 -2.5498,4.11056 -4.44965,5.79079c-1.26991,0.67009 -2.55981,1.32018 -3.87971,1.96027c-1.3099,0.65009 -2.69979,1.11015 -4.15968,1.39019l-0.71994,-0.01c-0.29998,0 -0.63995,0.01 -1.02992,0.03c-0.37997,0.02 -0.74995,0.03 -1.07992,0.03l-0.72994,-0.01c-2.52981,-0.02 -4.86963,-0.31004 -7.01947,-0.86012c-2.14983,-0.55007 -4.06968,-1.42019 -5.75955,-2.60035c-1.68987,-1.18016 -3.10976,-2.70037 -4.24968,-4.55063c-1.14991,-1.85025 -1.92985,-4.11055 -2.34982,-6.79092l0.01,-0.87012c0.02,-1.84025 0.31998,-3.6405 0.91993,-5.38073zM175.24594,349.08713c0.58996,0.78011 1.26991,1.4802 2.00985,2.09029c0.74994,0.62008 1.57988,1.12015 2.49981,1.4902c0.91993,0.37005 1.85985,0.56008 2.82978,0.57008l6.62949,0.06c0.86993,0.01 1.70987,-0.16003 2.50981,-0.49007c0.79994,-0.33004 1.53988,-0.7701 2.19983,-1.30018c0.64995,-0.53007 1.2699,-1.13015 1.82986,-1.81025c0.56995,-0.67009 1.03992,-1.35018 1.43989,-2.03027l0.28998,-0.58008l0.06,-5.99082c0,-0.54007 -0.37997,-1.15016 -1.14991,-1.84025c-0.76994,-0.69009 -1.63988,-1.33018 -2.6098,-1.92026c-0.95993,-0.60008 -1.88986,-1.09015 -2.77979,-1.49021c-0.89993,-0.40005 -1.43989,-0.60008 -1.63987,-0.60008l-6.61949,-0.06c-0.05,0 -0.28998,0.08 -0.72995,0.22003c-0.42996,0.14002 -0.74994,0.26004 -0.94992,0.35005c-1.11992,0.54007 -2.12984,1.06014 -3.02977,1.58022c-0.89993,0.53007 -1.66987,1.15015 -2.30982,1.85025c-0.63995,0.70009 -1.11992,1.5202 -1.43989,2.47033c-0.31998,0.95014 -0.48997,2.08029 -0.49996,3.39047c0,0.10001 0.01,0.36005 0.03,0.7701c0.02,0.42006 0.03,0.67009 0.03,0.77011c0.32997,0.88012 0.78993,1.71023 1.39989,2.50034zM177.73575,325.14386c0.57996,0.90012 1.3399,1.62022 2.27983,2.1603c0.93992,0.54007 1.98984,0.92012 3.14976,1.12015c1.16991,0.20003 2.32982,0.31004 3.48973,0.32004l1.38989,0.02c0.67995,0 1.13991,-0.02 1.37989,-0.07c1.84986,-0.46006 3.30975,-1.34018 4.38967,-2.61035c1.07991,-1.28018 1.62987,-2.9104 1.63987,-4.90067c0.01,-1.21017 -0.25998,-2.27031 -0.80994,-3.17044c-0.54995,-0.91012 -1.2599,-1.64022 -2.11983,-2.2103c-0.86994,-0.56007 -1.84986,-0.98013 -2.93978,-1.26017c-1.08992,-0.28004 -2.16983,-0.42006 -3.22975,-0.43006c-1.11991,-0.01 -2.23983,0.14002 -3.35974,0.45006c-1.11992,0.30005 -2.11984,0.78011 -3.02977,1.4202c-0.89993,0.65009 -1.63987,1.44019 -2.19983,2.39032c-0.56996,0.94013 -0.85993,2.02028 -0.86993,3.23044c-0.01,1.4602 0.26998,2.63036 0.83993,3.54049z" fill="#3eb311" stroke="none" stroke-width="0.26458" stroke-miterlimit="10"/><path d="M171.45623,338.5957c0.59996,-1.73024 1.45989,-3.33046 2.58981,-4.77065c0.19998,-0.24004 0.49996,-0.50007 0.91992,-0.76011c0.41997,-0.26003 0.82994,-0.54007 1.23991,-0.83011c0.41997,-0.28004 0.77994,-0.57008 1.09991,-0.86012c0.31998,-0.28004 0.47997,-0.60008 0.47997,-0.94013c0.01,-0.34004 -0.10999,-0.66009 -0.34997,-0.95013c-0.23999,-0.29004 -0.51996,-0.56007 -0.82994,-0.81011c-0.30998,-0.24003 -0.62995,-0.49006 -0.93993,-0.7401c-0.31997,-0.24003 -0.53996,-0.49006 -0.67995,-0.7301c-0.62995,-0.92012 -1.06991,-1.79024 -1.32989,-2.59035c-0.25998,-0.80011 -0.37998,-1.72024 -0.36998,-2.74038l0.01,-1.23016c0.04,-0.19003 0.12999,-0.57008 0.25998,-1.13016c0.12999,-0.55007 0.25998,-1.13015 0.40997,-1.70023c0.14999,-0.58008 0.30998,-1.14015 0.45997,-1.68023c0.14999,-0.53007 0.26998,-0.91012 0.36997,-1.15016c0.58995,-1.60022 1.45989,-2.9504 2.5798,-4.06055c1.12991,-1.10015 2.38982,-2.00027 3.80971,-2.69037c1.40989,-0.69009 2.90977,-1.20016 4.48965,-1.53021c1.57988,-0.32004 3.13976,-0.48006 4.69964,-0.46006c1.3499,0.01 2.6398,0.25003 3.84971,0.7201c1.2099,0.47006 2.43981,0.93013 3.69971,1.38019c1.15991,0.39005 2.19983,1.06014 3.13976,1.99027c0.93993,0.93013 1.73987,1.98027 2.41982,3.15043c0.65995,1.17016 1.16991,2.38032 1.52988,3.6505c0.34997,1.26017 0.51996,2.48033 0.50996,3.64049c0,0.7301 -0.14999,1.53021 -0.41997,2.40033c-0.27998,0.87012 -0.62995,1.74024 -1.07992,2.61036c-0.43996,0.87012 -0.92992,1.67023 -1.46988,2.39033c-0.53996,0.72009 -1.10992,1.25016 -1.68987,1.59021l-0.01,0.43006c0,0.44006 0.17998,0.82011 0.53996,1.14015c0.35997,0.32005 0.77994,0.62009 1.2599,0.92013c0.48996,0.29004 0.95992,0.59008 1.41989,0.88012c0.44997,0.30004 0.79994,0.62009 1.03992,0.96013c0.90993,1.37019 1.55988,2.84039 1.92985,4.42061c0.36997,1.58021 0.54996,3.19043 0.53996,4.84066c-0.02,2.57035 -0.55996,4.95067 -1.62987,7.12097c-1.05992,2.17029 -2.53981,4.10056 -4.44966,5.78079c-1.26991,0.67009 -2.55981,1.33018 -3.86971,1.97027c-1.31989,0.64008 -2.69979,1.11015 -4.15968,1.38019h-0.72994c-0.28998,-0.01 -0.62995,0 -1.01992,0.02c-0.38997,0.02 -0.74995,0.03 -1.08992,0.03l-0.72994,-0.01c-2.51981,-0.02 -4.85963,-0.31005 -7.00947,-0.86012c-2.15983,-0.55008 -4.07968,-1.42019 -5.76955,-2.60036c-1.68987,-1.18016 -3.09976,-2.69036 -4.24967,-4.55062c-1.14992,-1.85025 -1.92986,-4.11056 -2.33983,-6.78092v-0.88012c0.02,-1.84026 0.32998,-3.6305 0.91993,-5.38074zM178.4757,348.03699c0.59995,0.7901 1.2699,1.4802 2.01984,2.10028c0.73994,0.61009 1.57988,1.11015 2.48981,1.48021c0.91993,0.38005 1.86986,0.57007 2.83978,0.58007l6.61949,0.05c0.86994,0.01 1.70987,-0.15002 2.50981,-0.49007c0.80994,-0.33004 1.53988,-0.7601 2.19983,-1.29017c0.65995,-0.53007 1.2699,-1.14016 1.82986,-1.81025c0.56996,-0.68009 1.03992,-1.36018 1.43989,-2.04028l0.29998,-0.58008l0.05,-5.99081c0,-0.53008 -0.37997,-1.15016 -1.14991,-1.84026c-0.76995,-0.69009 -1.63988,-1.33018 -2.5998,-1.92026c-0.96993,-0.59008 -1.89986,-1.09015 -2.78979,-1.4802c-0.89993,-0.40005 -1.43989,-0.60008 -1.62988,-0.61008l-6.61949,-0.05c-0.05,-0.01 -0.29997,0.07 -0.72994,0.21003c-0.43997,0.14001 -0.75994,0.26003 -0.95993,0.36004c-1.11991,0.53008 -2.12983,1.05015 -3.02977,1.58022c-0.89993,0.53007 -1.66987,1.14016 -2.30982,1.84025c-0.62995,0.7001 -1.10991,1.53021 -1.43989,2.48034c-0.31997,0.94013 -0.48996,2.07028 -0.49996,3.39046c0,0.10002 0.01,0.35005 0.03,0.77011c0.02,0.41005 0.03,0.66009 0.03,0.7601c0.32998,0.88012 0.79994,1.71024 1.39989,2.50034zM180.9755,324.09372c0.56996,0.90012 1.3299,1.62022 2.26983,2.17029c0.93993,0.53008 1.99984,0.91013 3.15976,1.12016c1.15991,0.20002 2.31982,0.31004 3.48973,0.32004l1.37989,0.01c0.67995,0.01 1.13991,-0.01 1.3799,-0.06c1.84985,-0.47006 3.30974,-1.34018 4.38966,-2.62036c1.07992,-1.28017 1.62987,-2.91039 1.64987,-4.90066c0.01,-1.21017 -0.25998,-2.26031 -0.80994,-3.17044c-0.54995,-0.91012 -1.2599,-1.63022 -2.12983,-2.2003c-0.86993,-0.57007 -1.84986,-0.99013 -2.93978,-1.27017c-1.08991,-0.27004 -2.16983,-0.41006 -3.22975,-0.42006c-1.11991,-0.01 -2.22983,0.13002 -3.34974,0.44006c-1.11991,0.31004 -2.12984,0.78011 -3.03977,1.4302c-0.89993,0.65009 -1.63987,1.44019 -2.19983,2.38032c-0.55996,0.95013 -0.84993,2.02028 -0.85993,3.23044c-0.02,1.4602 0.25998,2.64036 0.83993,3.54049z" fill="#fefefe" stroke="none" stroke-width="0.26458" stroke-miterlimit="10"/><path d="M171.45623,338.5957c0.59996,-1.73024 1.45989,-3.33046 2.58981,-4.77065c0.19998,-0.24004 0.49996,-0.50007 0.91992,-0.76011c0.41997,-0.26003 0.82994,-0.54007 1.23991,-0.83011c0.41997,-0.28004 0.77994,-0.57008 1.09991,-0.86012c0.31998,-0.28004 0.47997,-0.60008 0.47997,-0.94013c0.01,-0.34004 -0.10999,-0.66009 -0.34997,-0.95013c-0.23999,-0.29004 -0.51996,-0.56007 -0.82994,-0.81011c-0.30998,-0.24003 -0.62995,-0.49006 -0.93993,-0.7401c-0.31997,-0.24003 -0.53996,-0.49006 -0.67995,-0.7301c-0.62995,-0.92012 -1.06991,-1.79024 -1.32989,-2.59035c-0.25998,-0.80011 -0.37998,-1.72024 -0.36998,-2.74038l0.01,-1.23016c0.04,-0.19003 0.12999,-0.57008 0.25998,-1.13016c0.12999,-0.55007 0.25998,-1.13015 0.40997,-1.70023c0.14999,-0.58008 0.30998,-1.14015 0.45997,-1.68023c0.14999,-0.53007 0.26998,-0.91012 0.36997,-1.15016c0.58995,-1.60022 1.45989,-2.9504 2.5798,-4.06055c1.12991,-1.10015 2.38982,-2.00027 3.80971,-2.69037c1.40989,-0.69009 2.90977,-1.20016 4.48965,-1.53021c1.57988,-0.32004 3.13976,-0.48006 4.69964,-0.46006c1.3499,0.01 2.6398,0.25003 3.84971,0.7201c1.2099,0.47006 2.43981,0.93013 3.69971,1.38019c1.15991,0.39005 2.19983,1.06014 3.13976,1.99027c0.93993,0.93013 1.73987,1.98027 2.41982,3.15043c0.65995,1.17016 1.16991,2.38032 1.52988,3.6505c0.34997,1.26017 0.51996,2.48033 0.50996,3.64049c0,0.7301 -0.14999,1.53021 -0.41997,2.40033c-0.27998,0.87012 -0.62995,1.74024 -1.07992,2.61036c-0.43996,0.87012 -0.92992,1.67023 -1.46988,2.39033c-0.53996,0.72009 -1.10992,1.25016 -1.68987,1.59021l-0.01,0.43006c0,0.44006 0.17998,0.82011 0.53996,1.14015c0.35997,0.32005 0.77994,0.62009 1.2599,0.92013c0.48996,0.29004 0.95992,0.59008 1.41989,0.88012c0.44997,0.30004 0.79994,0.62009 1.03992,0.96013c0.90993,1.37019 1.55988,2.84039 1.92985,4.42061c0.36997,1.58021 0.54996,3.19043 0.53996,4.84066c-0.02,2.57035 -0.55996,4.95067 -1.62987,7.12097c-1.05992,2.17029 -2.53981,4.10056 -4.44966,5.78079c-1.26991,0.67009 -2.55981,1.33018 -3.86971,1.97027c-1.31989,0.64008 -2.69979,1.11015 -4.15968,1.38019h-0.72994c-0.28998,-0.01 -0.62995,0 -1.01992,0.02c-0.38997,0.02 -0.74995,0.03 -1.08992,0.03l-0.72994,-0.01c-2.51981,-0.02 -4.85963,-0.31005 -7.00947,-0.86012c-2.15983,-0.55008 -4.07968,-1.42019 -5.76955,-2.60036c-1.68987,-1.18016 -3.09976,-2.69036 -4.24967,-4.55062c-1.14992,-1.85025 -1.92986,-4.11056 -2.33983,-6.78092v-0.88012c0.02,-1.84026 0.32998,-3.6305 0.91993,-5.38074M178.4757,348.03698c0.59995,0.79011 1.2699,1.4802 2.01984,2.10029c0.73994,0.61008 1.57988,1.11015 2.48981,1.4802c0.91993,0.38005 1.86986,0.57008 2.83978,0.58008l6.61949,0.05c0.86994,0.01 1.70987,-0.15002 2.50981,-0.49007c0.80994,-0.33005 1.53988,-0.7601 2.19983,-1.29018c0.65995,-0.53007 1.2699,-1.14015 1.82986,-1.81024c0.56996,-0.6801 1.03992,-1.36019 1.43989,-2.04028l0.29998,-0.58008l0.05,-5.99082c0,-0.53007 -0.37997,-1.15016 -1.14991,-1.84025c-0.76995,-0.6901 -1.63988,-1.33018 -2.5998,-1.92026c-0.96993,-0.59008 -1.89986,-1.09015 -2.78979,-1.4802c-0.89993,-0.40006 -1.43989,-0.60009 -1.62988,-0.61009l-6.61949,-0.05c-0.05,-0.01 -0.29997,0.07 -0.72994,0.21003c-0.43997,0.14002 -0.75994,0.26004 -0.95993,0.36005c-1.11991,0.53007 -2.12983,1.05014 -3.02977,1.58022c-0.89993,0.53007 -1.66987,1.14015 -2.30982,1.84025c-0.62995,0.70009 -1.10991,1.53021 -1.43989,2.48034c-0.31997,0.94012 -0.48996,2.07028 -0.49996,3.39046c0,0.10001 0.01,0.35005 0.03,0.7701c0.02,0.41006 0.03,0.66009 0.03,0.76011c0.32998,0.88012 0.79994,1.71023 1.39989,2.50034M180.97551,324.09371c0.56996,0.90012 1.3299,1.62022 2.26983,2.17029c0.93993,0.53008 1.99984,0.91013 3.15976,1.12016c1.15991,0.20003 2.31982,0.31004 3.48973,0.32004l1.37989,0.01c0.67995,0.01 1.13991,-0.01 1.3799,-0.06c1.84985,-0.47006 3.30974,-1.34018 4.38966,-2.62035c1.07992,-1.28018 1.62987,-2.9104 1.64987,-4.90067c0.01,-1.21017 -0.25998,-2.26031 -0.80994,-3.17043c-0.54995,-0.91013 -1.2599,-1.63023 -2.12983,-2.20031c-0.86994,-0.57007 -1.84986,-0.99013 -2.93978,-1.27017c-1.08991,-0.27003 -2.16983,-0.41005 -3.22975,-0.42006c-1.11991,-0.01 -2.22983,0.13002 -3.34974,0.44006c-1.11992,0.31005 -2.12984,0.78011 -3.03977,1.4302c-0.89993,0.65009 -1.63987,1.4402 -2.19983,2.38032c-0.55996,0.95014 -0.84993,2.02028 -0.85993,3.23045c-0.02,1.4602 0.25998,2.64036 0.83993,3.54048" fill="none" stroke="#3eb311" stroke-width="0.10999" stroke-miterlimit="4"/></g></g></svg>