<svg version="1.1" xmlns="http://www.w3.org/2000/svg" xmlns:xlink="http://www.w3.org/1999/xlink" width="94.0719" height="23.13813" viewBox="0,0,94.0719,23.13813"><g transform="translate(-133.00389,-308.43094)"><g data-paper-data="{&quot;isPaintingLayer&quot;:true}" fill-rule="nonzero" stroke-dasharray="" stroke-dashoffset="0" style="mix-blend-mode: normal"><g><path d="M218.86841,315.02328l-0.1366,10.40659l-85.72792,0.60344l0.15937,-12.61542z" fill="#3fa535" stroke="none" stroke-width="0.30121" stroke-linecap="butt" stroke-linejoin="miter" stroke-miterlimit="10"/><path d="M145.04747,323.46013h-1.24078v-3.41573h-2.83445v3.41573h-1.24079v-7.99281h1.24079v3.39296h2.83445v-3.39296h1.24078zM150.65945,322.58344c0.05692,0 0.12522,-0.0114 0.19352,-0.0228v0.88809c-0.19352,0.0569 -0.37565,0.0911 -0.58055,0.0911c-0.4098,0 -0.77407,-0.13662 -0.97896,-0.46681c-0.40981,0.35295 -0.91067,0.53512 -1.5026,0.53512c-0.93344,0 -1.74166,-0.54652 -1.74166,-1.69647c0,-1.19551 0.87653,-1.77619 2.1173,-1.77619c0.30735,0 0.59193,0.03415 0.93344,0.12525v-0.37574c0,-0.50097 -0.18214,-1.00194 -1.08142,-1.00194c-0.62609,0 -1.1611,0.14801 -1.61643,0.34157v-1.07025c0.44395,-0.15941 1.07004,-0.31881 1.73026,-0.31881c1.49122,0 2.14007,0.77423 2.14007,2.1633v2.18606c0,0.30741 0.15937,0.39851 0.38703,0.39851zM148.04129,322.6973c0.43257,0 0.76268,-0.13663 1.05865,-0.44404v-1.13858c-0.25043,-0.0683 -0.46672,-0.0911 -0.69438,-0.0911c-0.69439,0 -1.18388,0.20493 -1.18388,0.84254c0,0.56929 0.36427,0.83116 0.81961,0.83116zM151.25138,323.31211v-1.0361c0.45533,0.21632 0.94482,0.30742 1.42292,0.30742c0.62609,0 1.21802,-0.13663 1.21802,-0.74008c0,-0.5693 -0.55779,-0.67176 -0.96759,-0.67176h-0.77407v-0.97918h0.77407c0.45533,0 0.81961,-0.17078 0.81961,-0.64899c0,-0.48959 -0.39842,-0.70591 -1.00174,-0.70591c-0.46672,0 -0.92205,0.10247 -1.40014,0.33019v-1.02472c0.5464,-0.2391 0.97896,-0.3188 1.5709,-0.3188c1.366,0 2.00347,0.69453 2.00347,1.60539c0,0.64899 -0.35289,1.09303 -0.83099,1.22966c0.51225,0.17079 0.99036,0.62622 0.99036,1.32076c0,0.97916 -0.78545,1.61677 -2.20838,1.61677c-0.63746,0 -1.09279,-0.05693 -1.61643,-0.28465zM156.021,317.98358h2.33358c1.05865,0 1.71889,0.56928 1.71889,1.46876c0,0.59206 -0.30735,1.04749 -0.73992,1.22966c0.4781,0.17079 0.91067,0.60345 0.91067,1.27521c0,0.86532 -0.55779,1.50292 -1.79857,1.50292h-2.42466zM158.16108,320.26073c0.42118,0 0.7513,-0.17079 0.7513,-0.66037c0,-0.53513 -0.39842,-0.69453 -0.7513,-0.69453h-0.97897v1.3549zM158.21799,322.53788c0.48949,0 0.84237,-0.1594 0.84237,-0.69453c0,-0.56929 -0.40981,-0.70592 -0.81961,-0.70592h-1.05865v1.40045zM165.41226,322.58339c0.05691,0 0.12522,-0.0114 0.19352,-0.0228v0.88809c-0.19352,0.0569 -0.37566,0.0911 -0.58055,0.0911c-0.40981,0 -0.77407,-0.13663 -0.97897,-0.46681c-0.4098,0.35295 -0.91067,0.53512 -1.5026,0.53512c-0.93344,0 -1.74165,-0.54652 -1.74165,-1.69647c0,-1.19552 0.87652,-1.77619 2.1173,-1.77619c0.30735,0 0.59193,0.03415 0.93343,0.12525v-0.37574c0,-0.50097 -0.18214,-1.00194 -1.08141,-1.00194c-0.62609,0 -1.16111,0.14801 -1.61643,0.34157v-1.07025c0.44395,-0.15941 1.07002,-0.31881 1.73026,-0.31881c1.49122,0 2.14007,0.77424 2.14007,2.1633v2.18606c0,0.30741 0.15936,0.39851 0.38703,0.39851zM162.79409,322.69724c0.43258,0 0.76269,-0.13662 1.05865,-0.44404v-1.13858c-0.25043,-0.0683 -0.46672,-0.0911 -0.69438,-0.0911c-0.69438,0 -1.18387,0.20495 -1.18387,0.84256c0,0.56928 0.36427,0.83115 0.8196,0.83115zM167.10837,319.03101h-1.41153v-1.04748h3.99555v1.04748h-1.40016v4.42908h-1.18387zM170.45508,317.98353h1.19525v1.79896h1.10418c1.34323,0 1.94655,0.91085 1.94655,1.84449c0,0.97917 -0.60332,1.83311 -1.94655,1.83311h-2.29943zM172.54962,322.49229c0.68299,0 0.94481,-0.35297 0.94481,-0.86532c0,-0.51236 -0.26182,-0.86532 -0.94481,-0.86532h-0.89928v1.73064zM177.50136,317.98353h1.19525v2.18606h0.66024l1.25216,-2.18606h1.35462l-1.66197,2.73257l1.73027,2.74399h-1.37738l-1.33185,-2.22023h-0.62609v2.22023h-1.19525zM186.94954,320.7275c0,1.79894 -0.84238,2.88059 -2.36775,2.88059c-1.50259,0 -2.36773,-1.08165 -2.36773,-2.88059c0,-1.81034 0.86514,-2.89199 2.36773,-2.89199c1.52537,0 2.36775,1.05888 2.36775,2.89199zM183.43208,320.7275c0,1.1158 0.3415,1.81034 1.14971,1.81034c0.81961,0 1.16111,-0.69454 1.16111,-1.81034c0,-1.1272 -0.3415,-1.83311 -1.16111,-1.83311c-0.80821,0 -1.14971,0.70591 -1.14971,1.83311zM187.39349,322.43536h0.69438c0.40979,-1.13858 0.56918,-2.52764 0.55778,-4.45183h3.73373v4.45183h0.75131v2.50487h-1.13833v-1.48014h-3.46054v1.48014h-1.13833zM191.22967,322.43536v-3.4385h-1.46846c-0.04553,1.45738 -0.19351,2.49348 -0.44394,3.4385z" fill="#ffffff" stroke="none" stroke-width="0.30121" stroke-linecap="butt" stroke-linejoin="miter" stroke-miterlimit="10"/><path d="M226.99611,318.37069c0,5.43101 -5.1225,9.84869 -11.41748,9.84869c-1.11557,0 -2.20838,-0.13663 -3.26702,-0.40989c-0.91067,1.35491 -2.04901,2.98307 -2.48157,3.40434c-0.25043,0.25051 -0.48948,0.33021 -0.70577,0.23911c-0.40978,-0.15941 -0.47808,-0.84255 -0.48948,-1.10442c0.23905,-1.24105 0.46671,-2.4821 0.70577,-3.72315c-3.24426,-1.83311 -5.17942,-4.90727 -5.17942,-8.25468c0,-5.43101 5.1225,-9.86007 11.41749,-9.86007c6.29498,0 11.41748,4.42906 11.41748,9.86007z" fill="#ffffff" stroke="none" stroke-width="0.30121" stroke-linecap="butt" stroke-linejoin="miter" stroke-miterlimit="10"/><path d="M226.99611,318.37069c0,5.43101 -5.1225,9.84869 -11.41748,9.84869c-1.11557,0 -2.20838,-0.13663 -3.26702,-0.40989c-0.91067,1.35491 -2.04901,2.98307 -2.48157,3.40434c-0.25043,0.25051 -0.48948,0.33021 -0.70577,0.23911c-0.40978,-0.15941 -0.47808,-0.84255 -0.48948,-1.10442c0.23905,-1.24105 0.46671,-2.4821 0.70577,-3.72315c-3.24426,-1.83311 -5.17942,-4.90727 -5.17942,-8.25468c0,-5.43101 5.1225,-9.86007 11.41749,-9.86007c6.29498,0 11.41748,4.42906 11.41748,9.86007z" fill="none" stroke="#3fa535" stroke-width="0.15937" stroke-linecap="butt" stroke-linejoin="round" stroke-miterlimit="4"/><path d="M212.77832,312.16545c0.62609,-0.64899 1.73028,-1.12718 2.47019,-1.05888c1.87825,0 3.415,1.51431 3.415,3.39296c0,1.86726 -1.53675,3.38157 -3.415,3.38157" fill="none" stroke="#66b546" stroke-width="0.51225" stroke-linecap="round" stroke-linejoin="round" stroke-miterlimit="4"/><path d="M210.37643,319.99886c0,-2.94892 2.39051,-5.33992 5.3388,-5.33992c2.95966,0 5.35016,2.391 5.35016,5.33992c0,2.96029 -2.3905,5.35131 -5.35016,5.35131c-2.94829,0 -5.3388,-2.39102 -5.3388,-5.35131z" fill="#66b546" stroke="none" stroke-width="0.30121" stroke-linecap="butt" stroke-linejoin="miter" stroke-miterlimit="10"/><path d="M214.38338,318.68949c0,-0.72869 0.60331,-1.33213 1.33185,-1.33213c0.73992,0 1.34324,0.60344 1.34324,1.33213c0,0.44404 -0.22768,0.81978 -0.56918,1.07027l0.56918,2.89199h-2.67509l0.56917,-2.89199c-0.34151,-0.25049 -0.56917,-0.62623 -0.56917,-1.07027z" fill="#ffffff" stroke="none" stroke-width="0.30121" stroke-linecap="butt" stroke-linejoin="miter" stroke-miterlimit="10"/></g></g></g></svg>