<svg version="1.1" xmlns="http://www.w3.org/2000/svg" xmlns:xlink="http://www.w3.org/1999/xlink" width="64.54855" height="97.20302" viewBox="0,0,64.54855,97.20302"><g transform="translate(-156.20675,-286.30792)"><g data-paper-data="{&quot;isPaintingLayer&quot;:true}" fill-rule="nonzero" stroke-linecap="butt" stroke-linejoin="miter" stroke-dasharray="" stroke-dashoffset="0" style="mix-blend-mode: normal"><path d="M203.42167,289.14686c9.19995,-0.07975 16.72119,7.31229 16.80094,16.50926l0.53205,60.80296c0.07975,9.19995 -7.31229,16.72119 -16.50945,16.80094l-28.75076,0.25022c-9.19604,0.08384 -16.72119,-7.30932 -16.80094,-16.50926l-0.52815,-60.80296c-0.07975,-9.19604 7.3095,-16.72119 16.50945,-16.80094z" fill-opacity="0.69804" fill="#0f150e" stroke="none" stroke-width="1" stroke-miterlimit="10"/><path d="M201.46393,286.30856c9.19929,-0.08001 16.71871,7.31099 16.79871,16.51225l0.52996,60.8083c0.07999,9.20126 -7.30944,16.7323 -16.50874,16.8123l-28.74779,0.25003c-9.19929,0.08001 -16.71871,-7.311 -16.79871,-16.51225l-0.52996,-60.81831c-0.07999,-9.19125 7.30944,-16.72228 16.50873,-16.80229z" fill="#77b074" stroke="none" stroke-width="0.26458" stroke-miterlimit="10"/><path d="M212.68307,365.72941c-0.23998,2.30032 -0.65995,3.77052 -1.2699,4.4206c-0.60995,0.65009 -1.94985,1.13016 -4.03969,1.4302c-1.49989,0.17002 -5.67956,0.46006 -12.53904,0.88012c-6.85947,0.41006 -12.04907,0.6501 -15.5688,0.7201c-1.58988,0.06 -2.85978,0.08 -3.79971,0.05c-0.93993,-0.02 -1.84986,-0.13002 -2.72979,-0.33005c-0.87993,-0.20002 -1.52988,-0.43005 -1.94985,-0.70009c-0.42997,-0.27004 -0.83994,-0.7301 -1.23991,-1.37019c-0.39997,-0.64008 -0.70994,-1.33018 -0.93992,-2.06028c-0.20999,-0.7401 -0.47997,-1.76024 -0.76994,-3.06042c-0.78994,-3.63049 -1.2999,-7.52102 -1.54989,-11.69159c-0.23998,-4.15057 -0.26998,-10.10138 -0.09,-17.82243c0.08,-6.23086 0.04,-10.84149 -0.11999,-13.8319c-0.14998,-2.9904 -0.50996,-5.85079 -1.06991,-8.58117c-1.07992,-4.87066 -1.47989,-8.17111 -1.20991,-9.89135c0.14999,-0.69009 0.32997,-1.20016 0.53996,-1.5202c0.20998,-0.32005 0.62995,-0.64009 1.2499,-0.94013c0.75994,-0.37005 3.9197,-0.90012 9.48927,-1.59022c5.55958,-0.68009 11.00916,-1.23017 16.32875,-1.65022c3.55973,-0.18003 5.40958,-0.31005 5.53957,-0.37005c0.04,0 1.11992,0.02 3.22976,0.06c3.06976,0.18002 5.05961,0.68009 5.96954,1.5002c0.57995,0.49007 0.95992,1.24017 1.14991,2.2303c0.18998,0.99014 0.42997,3.43047 0.72994,7.301c0.33998,4.73065 0.91993,10.45143 1.73987,17.16235c0.99992,8.53116 1.62987,14.28195 1.89985,17.24235c0.27998,2.9604 0.55996,6.75092 0.84994,11.37155c0.29998,5.81079 0.35997,9.4913 0.16999,11.04151z" fill="#fefefe" stroke="none" stroke-width="0.26458" stroke-miterlimit="10"/><path d="M169.61637,347.29688c0.22998,-0.90012 0.57996,-1.69023 1.07992,-2.39032c0.48996,-0.7001 1.11991,-1.25018 1.89985,-1.66023c0.77994,-0.40005 1.72987,-0.60008 2.84978,-0.59008c0.76994,0 1.43989,0.19003 1.98985,0.56007c0.55996,0.37006 1.00992,0.85012 1.3699,1.4302c0.35997,0.58008 0.61995,1.22017 0.78994,1.90026c0.15998,0.68009 0.23998,1.34018 0.23998,1.96027c-0.01,0.69009 -0.15999,1.32018 -0.45997,1.90026c-0.29997,0.58008 -0.44996,1.18016 -0.44996,1.81024c0,0.58008 0.16998,1.05015 0.52996,1.39019c0.35997,0.34005 0.79993,0.64009 1.2999,0.88012c0.50996,0.25004 1.03992,0.46007 1.59987,0.63009c0.55996,0.18002 0.99993,0.42006 1.3399,0.7101l5.45958,0.05c0.53996,-0.44006 1.14991,-0.7201 1.85986,-0.86012c0.70994,-0.14002 1.3299,-0.40005 1.85985,-0.79011c1.70987,-1.24017 2.90978,-2.70037 3.60973,-4.37059c0.68994,-1.67023 1.04992,-3.52048 1.05992,-5.56076c0.03,-2.42033 -0.48996,-4.3906 -1.54988,-5.90081c-1.04992,-1.5102 -2.41982,-2.98041 -4.09969,-4.4106l-4.29967,-0.03c-0.67995,0.58008 -1.3299,0.95013 -1.93985,1.14015c-0.59995,0.20003 -1.3399,0.28004 -2.21983,0.28004c-1.05992,-0.01 -1.87986,-0.21003 -2.42981,-0.61008c-0.55996,-0.39005 -0.82994,-1.14016 -0.81994,-2.26031c0.01,-0.87012 0.25998,-1.70023 0.74994,-2.47034c0.48996,-0.7701 1.06992,-1.52021 1.72987,-2.2403c0.65995,-0.7201 1.35989,-1.4202 2.08984,-2.09029c0.73994,-0.67009 1.3499,-1.34018 1.83986,-2.02028c0.05,-0.05 0.14999,-0.21002 0.28998,-0.47006c0.14998,-0.27004 0.31997,-0.57008 0.51995,-0.91012c0.19999,-0.34005 0.37998,-0.63009 0.55996,-0.90013c0.16999,-0.27003 0.27998,-0.45006 0.32998,-0.54007c0.24998,-0.34005 0.47996,-0.62009 0.69994,-0.83011c0.21999,-0.22003 0.40997,-0.44006 0.57996,-0.65009c0.16999,-0.22003 0.30997,-0.46007 0.40997,-0.7301c0.1,-0.26004 0.14999,-0.67009 0.15999,-1.20017l-11.7891,-0.10002c-0.38997,0 -0.62995,0.37005 -0.73994,1.12016c-0.1,0.7601 -0.22999,1.57021 -0.37997,2.43033c-0.14999,0.88012 -0.46997,1.69023 -0.92993,2.43033c-0.46997,0.7501 -1.25991,1.12015 -2.37982,1.11015c-1.01992,-0.01 -1.82986,-0.37005 -2.42981,-1.08015c-0.59996,-0.70009 -0.88993,-1.54021 -0.88993,-2.51034c0,-0.05 0.02,-0.12002 0.05,-0.22003c0.02,-0.10001 0.03,-0.17002 0.03,-0.22003c0.05,-0.19002 0.13998,-0.56008 0.26997,-1.09015c0.12,-0.53007 0.25998,-1.10015 0.40997,-1.71023c0.14999,-0.61008 0.29998,-1.18016 0.44997,-1.72024c0.14999,-0.53007 0.24998,-0.93012 0.30997,-1.17016c0.14999,-0.59007 0.31998,-1.16015 0.51996,-1.72023c0.19999,-0.56008 0.44997,-1.07015 0.73995,-1.54021c0.29997,-0.46006 0.66995,-0.84012 1.13991,-1.13015c0.45997,-0.28004 1.05992,-0.43006 1.77986,-0.42006c0.62996,0 1.22991,0.06 1.77987,0.16002c0.55995,0.10001 1.17991,0.16002 1.85985,0.16002c0.91993,0.01 1.70987,0 2.36982,-0.01c0.64995,-0.02 1.43989,-0.10001 2.35982,-0.24003l12.80902,0.11001c1.06992,0.02 1.84986,0.35005 2.34982,1.01014c0.50996,0.66009 0.75994,1.4702 0.74994,2.45034c-0.01,0.7701 -0.28998,1.63022 -0.85993,2.58035c-0.56996,0.94013 -1.21991,1.88025 -1.94985,2.82038c-0.73995,0.94013 -1.49989,1.82025 -2.27983,2.64036c-0.78994,0.82012 -1.39989,1.51021 -1.83986,2.10029c-0.33997,0.43006 -0.75994,0.87012 -1.2499,1.33018c-0.48996,0.46006 -0.73994,1.03014 -0.73994,1.71023c0,0.25004 0.02,0.43006 0.07,0.58008c0.04,0.15003 0.20998,0.27004 0.49996,0.37006l5.07961,2.02027c0.37997,0.34005 0.69994,0.62009 0.93993,0.84012c0.23998,0.22003 0.47996,0.44006 0.71994,0.66009c0.23998,0.23003 0.42997,0.41005 0.57996,0.55007c1.05991,0.98014 2.02984,2.26031 2.90977,3.82052c0.88993,1.56022 1.3199,3.05042 1.3099,4.46061l-0.06,7.14098c0,0.09 -0.04,0.30004 -0.11999,0.61008c-0.07,0.32004 -0.14999,0.66009 -0.22998,1.02014c-0.07,0.37005 -0.17999,0.7201 -0.29998,1.06014c-0.11999,0.33005 -0.20998,0.58008 -0.25998,0.7201c-0.58995,1.4602 -1.18991,2.75038 -1.77986,3.89053c-0.58996,1.13016 -1.27991,2.13029 -2.05984,3.01041c-0.78994,0.86012 -1.68987,1.61022 -2.7098,2.23031c-1.02992,0.62008 -2.26982,1.14015 -3.72971,1.57021c-0.52996,0.19003 -1.00992,0.44006 -1.41989,0.7501c-0.41997,0.32005 -0.89993,0.54008 -1.42989,0.6801l-2.75979,-0.02l-2.69979,-0.03c-0.67995,-0.05 -1.2899,-0.26004 -1.84986,-0.63009c-0.54996,-0.37005 -1.16991,-0.66009 -1.84986,-0.86012c-0.05,0 -0.18998,-0.02 -0.42997,-0.07c-0.23998,-0.05 -0.50996,-0.10001 -0.79993,-0.15002c-0.28998,-0.06 -0.56996,-0.12001 -0.82994,-0.19002c-0.26998,-0.07 -0.42997,-0.12002 -0.47996,-0.12002c-1.00993,-0.30004 -2.04985,-0.81011 -3.11976,-1.52021c-1.05992,-0.7101 -1.98985,-1.54021 -2.80979,-2.49034c-0.81994,-0.96013 -1.48988,-1.99027 -2.00984,-3.12042c-0.51996,-1.11016 -0.77994,-2.23031 -0.76994,-3.35046c0.01,-1.02014 0.11999,-1.97027 0.34997,-2.87039z" fill="#3eb311" stroke="none" stroke-width="0.26458" stroke-miterlimit="10"/><path d="M172.84612,346.23674c0.22999,-0.90013 0.58996,-1.70023 1.07992,-2.40033c0.48996,-0.69009 1.12991,-1.25017 1.90985,-1.65022c0.76994,-0.41006 1.71987,-0.60009 2.83979,-0.59009c0.76994,0 1.43989,0.19003 1.99984,0.56008c0.54996,0.37005 1.00992,0.85012 1.3699,1.4302c0.34997,0.58007 0.60995,1.22016 0.77994,1.90025c0.15999,0.6801 0.23998,1.34019 0.23998,1.96027c-0.01,0.6801 -0.15999,1.31018 -0.45996,1.90026c-0.28998,0.57008 -0.43997,1.18016 -0.44997,1.81025c0,0.58008 0.16999,1.04014 0.53996,1.38019c0.35997,0.35004 0.78994,0.64009 1.2999,0.89012c0.49996,0.25003 1.03992,0.46006 1.58987,0.63008c0.55996,0.18003 1.00993,0.41006 1.3399,0.7101l5.45958,0.04c0.53996,-0.43006 1.15991,-0.7101 1.85986,-0.85012c0.70995,-0.14002 1.3299,-0.40005 1.86986,-0.7901c1.70987,-1.24017 2.89977,-2.70037 3.59972,-4.3706c0.68995,-1.67023 1.04992,-3.52048 1.06992,-5.56076c0.02,-2.42033 -0.49996,-4.3906 -1.54988,-5.9008c-1.05992,-1.52021 -2.42982,-2.98041 -4.10969,-4.41061l-4.28967,-0.04c-0.68994,0.58008 -1.3299,0.96013 -1.93985,1.15016c-0.60995,0.20003 -1.34989,0.28004 -2.21983,0.27003c-1.06992,-0.01 -1.87985,-0.20002 -2.43981,-0.60008c-0.54996,-0.39005 -0.81994,-1.15015 -0.80994,-2.2603c0,-0.88013 0.24998,-1.70024 0.74994,-2.47034c0.48996,-0.77011 1.05992,-1.52021 1.71987,-2.24031c0.65995,-0.7201 1.3599,-1.42019 2.09984,-2.09029c0.72994,-0.68009 1.3399,-1.35018 1.82986,-2.02027c0.05,-0.05 0.14999,-0.21003 0.29998,-0.47006c0.14999,-0.27004 0.31997,-0.57008 0.51996,-0.91013c0.18998,-0.34004 0.37997,-0.64009 0.54995,-0.90012c0.16999,-0.27004 0.27998,-0.45006 0.32998,-0.54008c0.24998,-0.34004 0.47996,-0.62008 0.69995,-0.84011c0.21998,-0.22003 0.41996,-0.43006 0.58995,-0.64009c0.16999,-0.22003 0.29998,-0.47006 0.39997,-0.7301c0.10999,-0.26003 0.15999,-0.67009 0.15999,-1.20016l-11.7891,-0.10001c-0.38997,-0.01 -0.62995,0.37005 -0.73994,1.12015c-0.1,0.7501 -0.22998,1.56022 -0.37997,2.43033c-0.14999,0.88012 -0.45997,1.69023 -0.92993,2.43034c-0.46996,0.7501 -1.2599,1.12015 -2.36982,1.11015c-1.02992,-0.01 -1.83986,-0.37005 -2.42981,-1.08015c-0.59996,-0.7101 -0.89993,-1.54021 -0.88993,-2.52035c0,-0.04 0.01,-0.11001 0.04,-0.22003c0.02,-0.09 0.03,-0.16002 0.03,-0.21002c0.05,-0.19003 0.13999,-0.56008 0.26998,-1.09015c0.11999,-0.53008 0.25998,-1.10015 0.40996,-1.71024c0.14999,-0.61008 0.30998,-1.18016 0.44997,-1.72023c0.15999,-0.53007 0.25998,-0.93013 0.30998,-1.17016c0.14998,-0.59008 0.31997,-1.16016 0.51996,-1.72023c0.19998,-0.56008 0.44996,-1.07015 0.73994,-1.54022c0.29998,-0.46006 0.67995,-0.84011 1.13991,-1.13015c0.45997,-0.29004 1.05992,-0.43006 1.78986,-0.42006c0.62996,0 1.21991,0.06 1.77987,0.16003c0.55995,0.10001 1.16991,0.15002 1.84986,0.16002c0.91992,0.01 1.70986,0 2.36981,-0.01c0.64995,-0.02 1.43989,-0.11002 2.36982,-0.24004l12.79902,0.11002c1.06992,0.01 1.84986,0.34005 2.35982,1.01014c0.49996,0.66009 0.74994,1.4702 0.73994,2.45033c-0.01,0.77011 -0.28998,1.63022 -0.85993,2.57035c-0.55996,0.95013 -1.21991,1.89026 -1.94985,2.83039c-0.73995,0.94013 -1.49989,1.82025 -2.27983,2.64036c-0.77994,0.81011 -1.39989,1.5102 -1.83986,2.10029c-0.33997,0.43005 -0.75994,0.87011 -1.2499,1.33018c-0.48996,0.46006 -0.72994,1.03014 -0.73995,1.70023c0,0.25003 0.02,0.44006 0.07,0.59008c0.04,0.15002 0.20999,0.27004 0.49997,0.37005l5.0796,2.01028c0.38998,0.35004 0.69995,0.62008 0.93993,0.85011c0.23998,0.22003 0.47997,0.44006 0.71995,0.66009c0.23998,0.22003 0.42997,0.41006 0.57995,0.55008c1.05992,0.98013 2.02985,2.26031 2.91978,3.82052c0.87993,1.56021 1.3099,3.05042 1.2999,4.46061l-0.06,7.14097c0,0.09 -0.04,0.30004 -0.11999,0.61008c-0.07,0.32005 -0.14999,0.66009 -0.22998,1.02014c-0.07,0.36005 -0.16999,0.7201 -0.28998,1.06015c-0.12999,0.33004 -0.21998,0.58008 -0.25998,0.7201c-0.59995,1.4502 -1.18991,2.75037 -1.77986,3.88053c-0.59996,1.14015 -1.2899,2.14029 -2.06984,3.01041c-0.77994,0.87012 -1.68988,1.62022 -2.7098,2.2303c-1.02992,0.63009 -2.26982,1.15016 -3.72971,1.58022c-0.52996,0.19002 -1.00992,0.44006 -1.41989,0.7501c-0.41997,0.32004 -0.88993,0.54007 -1.42989,0.68009l-2.75979,-0.03l-2.69979,-0.02c-0.66995,-0.05 -1.2899,-0.26003 -1.84986,-0.63008c-0.54996,-0.37005 -1.16991,-0.66009 -1.83986,-0.86012c-0.05,0 -0.19998,-0.02 -0.43997,-0.07c-0.23998,-0.05 -0.50996,-0.10001 -0.79993,-0.15002c-0.28998,-0.06 -0.56996,-0.12002 -0.82994,-0.19002c-0.26998,-0.07 -0.42997,-0.12002 -0.46996,-0.12002c-1.01992,-0.30004 -2.05985,-0.81011 -3.11976,-1.52021c-1.05992,-0.7101 -1.99985,-1.55021 -2.81979,-2.49034c-0.80993,-0.96013 -1.48988,-2.00027 -2.00984,-3.12043c-0.51996,-1.11015 -0.77994,-2.2303 -0.76994,-3.35045c0.01,-1.02014 0.12999,-1.97027 0.34997,-2.87039z" fill="#141515" stroke="none" stroke-width="0.26458" stroke-miterlimit="10"/><path d="M172.84612,346.23674c0.22999,-0.90013 0.58996,-1.70023 1.07992,-2.40033c0.48996,-0.69009 1.12991,-1.25017 1.90985,-1.65022c0.76994,-0.41006 1.71987,-0.60009 2.83979,-0.59009c0.76994,0 1.43989,0.19003 1.99984,0.56008c0.54996,0.37005 1.00992,0.85012 1.3699,1.4302c0.34997,0.58007 0.60995,1.22016 0.77994,1.90025c0.15999,0.6801 0.23998,1.34019 0.23998,1.96027c-0.01,0.6801 -0.15999,1.31018 -0.45996,1.90026c-0.28998,0.57008 -0.43997,1.18016 -0.44997,1.81025c0,0.58008 0.16999,1.04014 0.53996,1.38019c0.35997,0.35004 0.78994,0.64009 1.2999,0.89012c0.49996,0.25003 1.03992,0.46006 1.58987,0.63008c0.55996,0.18003 1.00993,0.41006 1.3399,0.7101l5.45958,0.04c0.53996,-0.43006 1.15991,-0.7101 1.85986,-0.85012c0.70995,-0.14002 1.3299,-0.40005 1.86986,-0.7901c1.70987,-1.24017 2.89977,-2.70037 3.59972,-4.3706c0.68995,-1.67023 1.04992,-3.52048 1.06992,-5.56076c0.02,-2.42033 -0.49996,-4.3906 -1.54988,-5.9008c-1.05992,-1.52021 -2.42982,-2.98041 -4.10969,-4.41061l-4.28967,-0.04c-0.68994,0.58008 -1.3299,0.96013 -1.93985,1.15016c-0.60995,0.20003 -1.34989,0.28004 -2.21983,0.27003c-1.06992,-0.01 -1.87985,-0.20002 -2.43981,-0.60008c-0.54996,-0.39005 -0.81994,-1.15015 -0.80994,-2.2603c0,-0.88013 0.24998,-1.70024 0.74994,-2.47034c0.48996,-0.77011 1.05992,-1.52021 1.71987,-2.24031c0.65995,-0.7201 1.3599,-1.42019 2.09984,-2.09029c0.72994,-0.68009 1.3399,-1.35018 1.82986,-2.02027c0.05,-0.05 0.14999,-0.21003 0.29998,-0.47006c0.14999,-0.27004 0.31997,-0.57008 0.51996,-0.91013c0.18998,-0.34004 0.37997,-0.64009 0.54995,-0.90012c0.16999,-0.27004 0.27998,-0.45006 0.32998,-0.54008c0.24998,-0.34004 0.47996,-0.62008 0.69995,-0.84011c0.21998,-0.22003 0.41996,-0.43006 0.58995,-0.64009c0.16999,-0.22003 0.29998,-0.47006 0.39997,-0.7301c0.10999,-0.26003 0.15999,-0.67009 0.15999,-1.20016l-11.7891,-0.10001c-0.38997,-0.01 -0.62995,0.37005 -0.73994,1.12015c-0.1,0.7501 -0.22998,1.56022 -0.37997,2.43033c-0.14999,0.88012 -0.45997,1.69023 -0.92993,2.43034c-0.46996,0.7501 -1.2599,1.12015 -2.36982,1.11015c-1.02992,-0.01 -1.83986,-0.37005 -2.42981,-1.08015c-0.59996,-0.7101 -0.89993,-1.54021 -0.88993,-2.52035c0,-0.04 0.01,-0.11001 0.04,-0.22003c0.02,-0.09 0.03,-0.16002 0.03,-0.21002c0.05,-0.19003 0.13999,-0.56008 0.26998,-1.09015c0.11999,-0.53008 0.25998,-1.10015 0.40996,-1.71024c0.14999,-0.61008 0.30998,-1.18016 0.44997,-1.72023c0.15999,-0.53007 0.25998,-0.93013 0.30998,-1.17016c0.14998,-0.59008 0.31997,-1.16016 0.51996,-1.72023c0.19998,-0.56008 0.44996,-1.07015 0.73994,-1.54022c0.29998,-0.46006 0.67995,-0.84011 1.13991,-1.13015c0.45997,-0.29004 1.05992,-0.43006 1.78986,-0.42006c0.62996,0 1.21991,0.06 1.77987,0.16003c0.55995,0.10001 1.16991,0.15002 1.84986,0.16002c0.91992,0.01 1.70986,0 2.36981,-0.01c0.64995,-0.02 1.43989,-0.11002 2.36982,-0.24004l12.79902,0.11002c1.06992,0.01 1.84986,0.34005 2.35982,1.01014c0.49996,0.66009 0.74994,1.4702 0.73994,2.45033c-0.01,0.77011 -0.28998,1.63022 -0.85993,2.57035c-0.55996,0.95013 -1.21991,1.89026 -1.94985,2.83039c-0.73995,0.94013 -1.49989,1.82025 -2.27983,2.64036c-0.77994,0.81011 -1.39989,1.5102 -1.83986,2.10029c-0.33997,0.43005 -0.75994,0.87011 -1.2499,1.33018c-0.48996,0.46006 -0.72994,1.03014 -0.73995,1.70023c0,0.25003 0.02,0.44006 0.07,0.59008c0.04,0.15002 0.20999,0.27004 0.49997,0.37005l5.0796,2.01028c0.38998,0.35004 0.69995,0.62008 0.93993,0.85011c0.23998,0.22003 0.47997,0.44006 0.71995,0.66009c0.23998,0.22003 0.42997,0.41006 0.57995,0.55008c1.05992,0.98013 2.02985,2.26031 2.91978,3.82052c0.87993,1.56021 1.3099,3.05042 1.2999,4.46061l-0.06,7.14097c0,0.09 -0.04,0.30004 -0.11999,0.61008c-0.07,0.32005 -0.14999,0.66009 -0.22998,1.02014c-0.07,0.36005 -0.16999,0.7201 -0.28998,1.06015c-0.12999,0.33004 -0.21998,0.58008 -0.25998,0.7201c-0.59995,1.4502 -1.18991,2.75037 -1.77986,3.88053c-0.59996,1.14015 -1.2899,2.14029 -2.06984,3.01041c-0.77994,0.87012 -1.68988,1.62022 -2.7098,2.2303c-1.02992,0.63009 -2.26982,1.15016 -3.72971,1.58022c-0.52996,0.19002 -1.00992,0.44006 -1.41989,0.7501c-0.41997,0.32004 -0.88993,0.54007 -1.42989,0.68009l-2.75979,-0.03l-2.69979,-0.02c-0.66995,-0.05 -1.2899,-0.26003 -1.84986,-0.63008c-0.54996,-0.37005 -1.16991,-0.66009 -1.83986,-0.86012c-0.05,0 -0.19998,-0.02 -0.43997,-0.07c-0.23998,-0.05 -0.50996,-0.10001 -0.79993,-0.15002c-0.28998,-0.06 -0.56996,-0.12002 -0.82994,-0.19002c-0.26998,-0.07 -0.42997,-0.12002 -0.46996,-0.12002c-1.01992,-0.30004 -2.05985,-0.81011 -3.11976,-1.52021c-1.05992,-0.7101 -1.99985,-1.55021 -2.81979,-2.49034c-0.80993,-0.96013 -1.48988,-2.00027 -2.00984,-3.12043c-0.51996,-1.11015 -0.77994,-2.2303 -0.76994,-3.35045c0.01,-1.02014 0.12999,-1.97027 0.34997,-2.87039" fill="none" stroke="#3eb311" stroke-width="0.10999" stroke-miterlimit="4"/></g></g></svg>