<svg version="1.1" xmlns="http://www.w3.org/2000/svg" xmlns:xlink="http://www.w3.org/1999/xlink" width="64.54855" height="97.20303" viewBox="0,0,64.54855,97.20303"><g transform="translate(-156.20675,-286.30791)"><g data-paper-data="{&quot;isPaintingLayer&quot;:true}" fill-rule="nonzero" stroke-linecap="butt" stroke-linejoin="miter" stroke-dasharray="" stroke-dashoffset="0" style="mix-blend-mode: normal"><path d="M203.42167,289.14686c9.19995,-0.07975 16.72119,7.31229 16.80094,16.50926l0.53205,60.80296c0.07975,9.19995 -7.31229,16.72119 -16.50945,16.80094l-28.75076,0.25022c-9.19604,0.08384 -16.72119,-7.30932 -16.80094,-16.50926l-0.52815,-60.80296c-0.07975,-9.19604 7.3095,-16.72119 16.50945,-16.80094z" fill-opacity="0.69804" fill="#0f150e" stroke="none" stroke-width="1" stroke-miterlimit="10"/><path d="M201.46393,286.30856c9.19929,-0.08001 16.71871,7.311 16.79871,16.51226l0.52996,60.8083c0.07999,9.20125 -7.30944,16.73229 -16.50874,16.81229l-28.74779,0.25003c-9.19929,0.08002 -16.71871,-7.31099 -16.79871,-16.51225l-0.52996,-60.8183c-0.07999,-9.19126 7.30944,-16.72228 16.50873,-16.8023z" fill="#77b074" stroke="none" stroke-width="0.26458" stroke-miterlimit="10"/><path d="M209.87328,368.33977c-0.60995,0.65008 -1.94985,1.12015 -4.03969,1.43019c-1.49989,0.17003 -5.67956,0.46006 -12.53904,0.87012c-6.85947,0.42006 -12.04907,0.6601 -15.5588,0.7301c-1.59988,0.06 -2.86978,0.07 -3.80971,0.05c-0.92993,-0.02 -1.83986,-0.13002 -2.71979,-0.33004c-0.87993,-0.20003 -1.52988,-0.43006 -1.95985,-0.7001c-0.41997,-0.27004 -0.83994,-0.7301 -1.2399,-1.37019c-0.39997,-0.64008 -0.70995,-1.33018 -0.92993,-2.07028c-0.21999,-0.7301 -0.47997,-1.75024 -0.77994,-3.05042c-0.78994,-3.63049 -1.2999,-7.53103 -1.54988,-11.69159c-0.23999,-4.16057 -0.26998,-10.10138 -0.09,-17.82243c0.08,-6.23086 0.05,-10.84149 -0.10999,-13.8319c-0.15999,-2.9904 -0.51996,-5.8508 -1.06992,-8.58117c-1.08991,-4.87066 -1.48988,-8.17111 -1.2199,-9.89135c0.14998,-0.69009 0.32997,-1.20016 0.53996,-1.52021c0.20998,-0.32004 0.62995,-0.64008 1.2499,-0.95013c0.75994,-0.36004 3.9197,-0.89012 9.48927,-1.58021c5.55957,-0.68009 11.00916,-1.23017 16.33875,-1.65023c3.54972,-0.18002 5.39958,-0.31004 5.52957,-0.37005c0.05,0 1.11992,0.02 3.22975,0.06001c3.06977,0.18002 5.05961,0.67009 5.97954,1.5002c0.56996,0.49007 0.94993,1.23017 1.13992,2.2303c0.18998,0.99014 0.42996,3.43047 0.72994,7.301c0.33997,4.73065 0.91993,10.45142 1.73987,17.16234c0.99992,8.53117 1.63987,14.28195 1.90985,17.24236c0.26998,2.9604 0.54996,6.75092 0.83994,11.37155c0.30997,5.81079 0.36997,9.4913 0.16998,11.04151c-0.23998,2.30032 -0.65995,3.77052 -1.2699,4.42061z" fill="#fefefe" stroke="none" stroke-width="0.26458" stroke-miterlimit="10"/><path d="M175.33593,356.56815c-0.51996,0.43006 -0.99992,0.90012 -1.43989,1.41019c-0.43996,0.50007 -0.89993,0.96014 -1.38989,1.37019c-0.48996,0.41006 -1.09992,0.61009 -1.81986,0.60008c-1.2699,-0.01 -2.13984,-0.35004 -2.6198,-1.00013c-0.47996,-0.67009 -0.70995,-1.57022 -0.69995,-2.74038c0.03,-3.78051 0.87994,-7.29099 2.52981,-10.53143c1.64987,-3.23044 3.98969,-5.98082 7.01946,-8.24113c1.02992,-0.7601 2.11984,-1.34018 3.28975,-1.71023c1.16991,-0.38005 2.25982,-0.90012 3.28975,-1.57022c0.1,-0.10001 0.33997,-0.30004 0.72994,-0.62008c0.38997,-0.31004 0.63995,-0.49007 0.73994,-0.53007c0.04,-0.06 0.21999,-0.11002 0.50996,-0.18003c0.28998,-0.07 0.47997,-0.11001 0.57996,-0.11001c0.05,0 0.22998,-0.01 0.54996,-0.03c0.30997,-0.02 0.64995,-0.05 1.01992,-0.10002c0.35997,-0.04 0.68995,-0.08 0.97992,-0.10001c0.28998,-0.02 0.47997,-0.03 0.57996,-0.03c1.2699,-0.28004 2.35982,-0.90013 3.28975,-1.86026c0.92993,-0.97013 1.73986,-1.93026 2.42981,-2.90039c0.09,-0.09 0.19998,-0.28004 0.29998,-0.57008l0.05,-6.26085c0,-0.05 -0.16999,-0.40006 -0.49996,-1.06015c-0.33998,-0.66009 -0.61996,-1.18016 -0.85994,-1.57022c-0.90993,-1.4702 -2.17983,-2.36032 -3.79971,-2.69036c-1.61987,-0.33005 -3.25975,-0.51007 -4.89962,-0.52007c-0.63995,-0.01 -1.19991,0.01 -1.67987,0.03c-0.48996,0.01 -0.96993,0.06 -1.45989,0.12001c-0.47996,0.07 -0.97992,0.18003 -1.48989,0.32005c-0.50996,0.14001 -1.07991,0.36004 -1.71986,0.64008c-0.33998,0.24003 -0.61996,0.50007 -0.83994,0.79011c-0.21998,0.29004 -0.32997,0.66009 -0.33997,1.10015c0,0.24003 0.08,0.51007 0.24998,0.80011c0.16999,0.29004 0.35997,0.62009 0.56995,0.98013c0.21999,0.37005 0.41997,0.77011 0.60996,1.21017c0.18998,0.44006 0.28998,0.95013 0.27998,1.53021c-0.01,1.60022 -0.45997,3.07042 -1.3499,4.3906c-0.87993,1.33018 -2.21983,1.98027 -4.01969,1.97027c-0.86993,-0.01 -1.62988,-0.26004 -2.27983,-0.75011c-0.65995,-0.49006 -1.18991,-1.10015 -1.62987,-1.83024c-0.42997,-0.74011 -0.75994,-1.52021 -0.98993,-2.38033c-0.23998,-0.85012 -0.34997,-1.64023 -0.34997,-2.37032c0.01,-0.97014 0.21998,-1.93027 0.60995,-2.86039c0.39997,-0.95014 0.78994,-1.83025 1.18991,-2.65037c0.63995,-1.30017 1.45989,-2.49034 2.46981,-3.55048c0.99993,-1.05014 2.13984,-1.95027 3.39974,-2.70037c1.26991,-0.7401 2.6198,-1.29018 4.05969,-1.67023c1.42989,-0.38005 2.87978,-0.56007 4.32967,-0.55007c1.89985,0.02 3.76971,0.29004 5.63957,0.82011c1.85985,0.52007 3.55972,1.32018 5.0996,2.37032c1.54989,1.06015 2.85978,2.36032 3.9397,3.89053c1.07992,1.54021 1.74987,3.33046 2.02985,5.37074c0.04,0.24003 0.07,0.7401 0.09,1.5002c0.02,0.7501 0.03,1.24017 0.02,1.4902c-0.02,2.37033 -0.30998,4.47062 -0.88993,6.28086c-0.56996,1.82025 -1.4099,3.41047 -2.50981,4.78065c-1.10992,1.38019 -2.46981,2.55036 -4.10969,3.53049c-1.63987,0.98013 -3.49973,1.83025 -5.58957,2.54034c-1.06991,0.37006 -2.10984,0.6601 -3.13976,0.84012c-1.00992,0.19002 -2.05984,0.55007 -3.12976,1.07014c-0.24998,0.09 -0.55995,0.24004 -0.94992,0.42006c-0.38997,0.20003 -0.76994,0.39006 -1.13992,0.58008c-0.35997,0.18003 -0.80993,0.40006 -1.34989,0.64009l-3.9597,4.26058c-0.06,0.24003 -0.08,0.41006 -0.08,0.51007l-0.01,0.51007c0,0.24003 0.11999,0.39005 0.35997,0.44006c0.53996,-0.14002 0.99993,-0.24003 1.3899,-0.28004c0.38997,-0.05 0.84993,-0.07 1.37989,-0.07c1.20991,0.01 2.32982,0.26004 3.34974,0.7301c1.00993,0.47007 1.98985,0.97013 2.92978,1.52021c0.93993,0.53007 1.89985,1.04014 2.88978,1.5102c0.98992,0.47007 2.09984,0.7101 3.30974,0.7201c0.91993,0.01 1.65988,-0.02 2.21983,-0.09c0.55996,-0.07 1.3499,-0.21003 2.36982,-0.45006c0.67995,-0.53007 1.12991,-1.26017 1.3299,-2.2103c0.19998,-0.94013 0.38997,-1.86026 0.56995,-2.76038c0.17999,-0.90012 0.45997,-1.67023 0.85994,-2.32032c0.38997,-0.65008 1.11991,-0.97013 2.18983,-0.96013c0.72995,0.01 1.25991,0.19003 1.58988,0.56008c0.33997,0.36005 0.57995,0.82011 0.71995,1.35018c0.13998,0.53008 0.20998,1.12016 0.19998,1.75024l-0.01,1.68023c-0.03,2.66037 -0.58996,4.77065 -1.68987,6.31087c-1.10992,1.5402 -2.94978,2.76037 -5.52958,3.66049c-0.72994,0.29004 -1.33989,0.60009 -1.82986,0.93013c-0.48996,0.34005 -1.13991,0.50007 -1.96985,0.49007c-0.86993,-0.01 -1.54988,-0.19003 -2.02984,-0.56008c-0.47996,-0.37005 -1.08992,-0.68009 -1.80986,-0.93013c-0.05,0 -0.19999,-0.02 -0.43997,-0.07c-0.23998,-0.05 -0.47996,-0.10001 -0.71994,-0.15002c-0.24998,-0.06 -0.48997,-0.12001 -0.72995,-0.19002c-0.23998,-0.08 -0.38997,-0.12002 -0.43996,-0.12002c-0.13999,-0.05 -0.45997,-0.20003 -0.93993,-0.47006c-0.47996,-0.27004 -1.00992,-0.56008 -1.58988,-0.86012c-0.57995,-0.29004 -1.11991,-0.57008 -1.58988,-0.81011c-0.48996,-0.25003 -0.79993,-0.42006 -0.94992,-0.52007c-0.42997,-0.20003 -0.89993,-0.39005 -1.4099,-0.59008c-0.50996,-0.20003 -1.02992,-0.30004 -1.55988,-0.31004c-0.72994,0 -1.34989,0.21002 -1.85985,0.64008z" fill="#3eb311" stroke="none" stroke-width="0.26458" stroke-miterlimit="10"/><path d="M178.56568,355.51801c-0.51996,0.44006 -0.98992,0.91012 -1.42989,1.41019c-0.43996,0.51007 -0.90993,0.96013 -1.39989,1.37019c-0.48996,0.41006 -1.09991,0.61008 -1.81986,0.60008c-1.2599,-0.01 -2.13983,-0.35005 -2.6098,-1.00014c-0.47996,-0.66009 -0.71994,-1.57021 -0.70994,-2.73037c0.04,-3.79052 0.87993,-7.301 2.5298,-10.54144c1.65987,-3.23044 3.99969,-5.97081 7.01946,-8.23112c1.02992,-0.77011 2.12984,-1.34018 3.29975,-1.72024c1.15991,-0.38005 2.25983,-0.90012 3.27975,-1.57021c0.1,-0.09 0.33997,-0.30004 0.73994,-0.61008c0.38997,-0.31005 0.62995,-0.49007 0.72994,-0.54008c0.05,-0.05 0.21999,-0.11001 0.50996,-0.18002c0.28998,-0.07 0.47997,-0.11002 0.57996,-0.11002c0.05,0 0.22998,-0.01 0.54996,-0.03c0.30998,-0.02 0.64995,-0.05 1.01992,-0.10001c0.35997,-0.04 0.68995,-0.07 0.97993,-0.10001c0.28997,-0.02 0.48996,-0.03 0.57995,-0.03c1.2699,-0.28004 2.35982,-0.90013 3.28975,-1.86026c0.93993,-0.96013 1.74986,-1.93026 2.42981,-2.89039c0.1,-0.10002 0.19999,-0.29004 0.29998,-0.58008l0.05,-6.26086c0,-0.05 -0.16999,-0.40005 -0.49996,-1.06014c-0.32998,-0.66009 -0.61995,-1.18016 -0.85994,-1.57022c-0.90993,-1.46019 -2.16983,-2.36032 -3.78971,-2.69036c-1.62987,-0.33005 -3.25975,-0.50007 -4.90962,-0.52007c-0.62995,-0.01 -1.18991,0.01 -1.67987,0.03c-0.47996,0.02 -0.96992,0.06 -1.44989,0.13001c-0.48996,0.06 -0.98992,0.17003 -1.49988,0.31005c-0.50996,0.14002 -1.07992,0.36005 -1.70987,0.64008c-0.33998,0.24004 -0.62995,0.51007 -0.83994,0.80011c-0.22998,0.28004 -0.33997,0.65009 -0.33997,1.09015c-0.01,0.24003 0.07,0.51007 0.23998,0.80011c0.16999,0.29004 0.35997,0.62008 0.57996,0.99014c0.20998,0.36004 0.40996,0.7701 0.60995,1.20016c0.17999,0.44006 0.27998,0.95013 0.26998,1.53021c-0.01,1.61022 -0.45997,3.07042 -1.3399,4.3906c-0.88993,1.33018 -2.22983,1.99027 -4.02969,1.97027c-0.86993,-0.01 -1.62987,-0.26004 -2.27982,-0.75011c-0.64995,-0.49006 -1.18991,-1.10015 -1.61988,-1.83025c-0.42997,-0.7301 -0.75994,-1.5202 -0.99992,-2.38032c-0.23999,-0.85012 -0.34998,-1.64022 -0.33998,-2.36032c0.01,-0.98014 0.20999,-1.93027 0.59996,-2.87039c0.39997,-0.94013 0.79994,-1.83025 1.18991,-2.65037c0.63995,-1.30017 1.46988,-2.48034 2.46981,-3.54048c0.99992,-1.06014 2.13983,-1.96027 3.40973,-2.70037c1.26991,-0.7401 2.6198,-1.30018 4.04969,-1.68023c1.42989,-0.37005 2.87978,-0.55007 4.33967,-0.54007c1.88986,0.02 3.75971,0.29004 5.62957,0.81011c1.85986,0.53007 3.55972,1.32018 5.10961,2.38032c1.53988,1.06015 2.84978,2.35032 3.92969,3.89053c1.07992,1.54021 1.74987,3.32046 2.02985,5.36074c0.04,0.25003 0.07,0.7401 0.1,1.5002c0.01,0.7501 0.02,1.25017 0.02,1.49021c-0.02,2.37032 -0.31998,4.4706 -0.88993,6.28085c-0.57996,1.82025 -1.4099,3.41047 -2.51981,4.78066c-1.09992,1.38018 -2.46981,2.56034 -4.09969,3.54048c-1.63987,0.98013 -3.50973,1.82025 -5.59957,2.53034c-1.05991,0.38006 -2.10983,0.6701 -3.12975,0.84012c-1.01993,0.19003 -2.06985,0.55007 -3.13977,1.07015c-0.23998,0.09 -0.55995,0.24003 -0.94992,0.43005c-0.38997,0.19003 -0.76994,0.38006 -1.12991,0.57008c-0.36998,0.19003 -0.81994,0.40006 -1.3599,0.64009l-3.9597,4.26058c-0.05,0.24003 -0.08,0.42006 -0.08,0.51007v0.51007c0,0.24003 0.11,0.39005 0.35998,0.44006c0.52996,-0.14002 0.98992,-0.23003 1.37989,-0.28004c0.38997,-0.04 0.84993,-0.07 1.37989,-0.06c1.21991,0.01 2.32983,0.25003 3.34975,0.7201c1.00992,0.47006 1.98984,0.98013 2.92977,1.52021c0.93993,0.54007 1.90986,1.04014 2.89978,1.5102c0.98992,0.48007 2.08984,0.7201 3.29975,0.7301c0.91993,0 1.65987,-0.02 2.21983,-0.10001c0.55995,-0.06 1.34989,-0.21003 2.36981,-0.45006c0.67995,-0.53007 1.12992,-1.26017 1.3299,-2.2003c0.19999,-0.95013 0.38997,-1.87026 0.56996,-2.76038c0.17998,-0.90012 0.45996,-1.67023 0.85993,-2.32032c0.38997,-0.66009 1.11992,-0.98013 2.18983,-0.97013c0.72995,0.01 1.25991,0.19003 1.58988,0.56008c0.33997,0.36005 0.57996,0.82011 0.71995,1.35018c0.13999,0.54008 0.20998,1.12016 0.19998,1.75024l-0.01,1.68023c-0.02,2.66036 -0.58995,4.77065 -1.68987,6.31086c-1.10992,1.55021 -2.94977,2.77038 -5.52958,3.6605c-0.72994,0.29004 -1.33989,0.60008 -1.82986,0.93013c-0.48996,0.34005 -1.13991,0.50007 -1.95985,0.50007c-0.87993,-0.01 -1.55988,-0.20003 -2.03984,-0.56008c-0.47996,-0.37005 -1.07992,-0.68009 -1.80986,-0.94013c-0.05,0 -0.19998,-0.02 -0.42997,-0.07c-0.24998,-0.05 -0.48996,-0.10001 -0.72994,-0.15002c-0.24998,-0.05 -0.47996,-0.11001 -0.72994,-0.19002c-0.23999,-0.07 -0.37998,-0.11002 -0.42997,-0.11002c-0.14999,-0.05 -0.45997,-0.21003 -0.93993,-0.48006c-0.48997,-0.27004 -1.01993,-0.56008 -1.59988,-0.86012c-0.57996,-0.29004 -1.10992,-0.56008 -1.58988,-0.81011c-0.47996,-0.25004 -0.79994,-0.41006 -0.93993,-0.52008c-0.43996,-0.19002 -0.90993,-0.39005 -1.41989,-0.59008c-0.50996,-0.20002 -1.02992,-0.30004 -1.55988,-0.30004c-0.72994,-0.01 -1.34989,0.20003 -1.85986,0.63009z" fill="#fefefe" stroke="none" stroke-width="0.26458" stroke-miterlimit="10"/><path d="M178.56568,355.51801c-0.51996,0.44006 -0.98992,0.91012 -1.42989,1.41019c-0.43996,0.51007 -0.90993,0.96013 -1.39989,1.37019c-0.48996,0.41006 -1.09991,0.61008 -1.81986,0.60008c-1.2599,-0.01 -2.13983,-0.35005 -2.6098,-1.00014c-0.47996,-0.66009 -0.71994,-1.57021 -0.70994,-2.73037c0.04,-3.79052 0.87993,-7.301 2.5298,-10.54144c1.65987,-3.23044 3.99969,-5.97081 7.01946,-8.23112c1.02992,-0.77011 2.12984,-1.34018 3.29975,-1.72024c1.15991,-0.38005 2.25983,-0.90012 3.27975,-1.57021c0.1,-0.09 0.33997,-0.30004 0.73994,-0.61008c0.38997,-0.31005 0.62995,-0.49007 0.72994,-0.54008c0.05,-0.05 0.21999,-0.11001 0.50996,-0.18002c0.28998,-0.07 0.47997,-0.11002 0.57996,-0.11002c0.05,0 0.22998,-0.01 0.54996,-0.03c0.30998,-0.02 0.64995,-0.05 1.01992,-0.10001c0.35997,-0.04 0.68995,-0.07 0.97993,-0.10001c0.28997,-0.02 0.48996,-0.03 0.57995,-0.03c1.2699,-0.28004 2.35982,-0.90013 3.28975,-1.86026c0.93993,-0.96013 1.74986,-1.93026 2.42981,-2.89039c0.1,-0.10002 0.19999,-0.29004 0.29998,-0.58008l0.05,-6.26086c0,-0.05 -0.16999,-0.40005 -0.49996,-1.06014c-0.32998,-0.66009 -0.61995,-1.18016 -0.85994,-1.57022c-0.90993,-1.46019 -2.16983,-2.36032 -3.78971,-2.69036c-1.62987,-0.33005 -3.25975,-0.50007 -4.90962,-0.52007c-0.62995,-0.01 -1.18991,0.01 -1.67987,0.03c-0.47996,0.02 -0.96992,0.06 -1.44989,0.13001c-0.48996,0.06 -0.98992,0.17003 -1.49988,0.31005c-0.50996,0.14002 -1.07992,0.36005 -1.70987,0.64008c-0.33998,0.24004 -0.62995,0.51007 -0.83994,0.80011c-0.22998,0.28004 -0.33997,0.65009 -0.33997,1.09015c-0.01,0.24003 0.07,0.51007 0.23998,0.80011c0.16999,0.29004 0.35997,0.62008 0.57996,0.99014c0.20998,0.36004 0.40996,0.7701 0.60995,1.20016c0.17999,0.44006 0.27998,0.95013 0.26998,1.53021c-0.01,1.61022 -0.45997,3.07042 -1.3399,4.3906c-0.88993,1.33018 -2.22983,1.99027 -4.02969,1.97027c-0.86993,-0.01 -1.62987,-0.26004 -2.27982,-0.75011c-0.64995,-0.49006 -1.18991,-1.10015 -1.61988,-1.83025c-0.42997,-0.7301 -0.75994,-1.5202 -0.99992,-2.38032c-0.23999,-0.85012 -0.34998,-1.64022 -0.33998,-2.36032c0.01,-0.98014 0.20999,-1.93027 0.59996,-2.87039c0.39997,-0.94013 0.79994,-1.83025 1.18991,-2.65037c0.63995,-1.30017 1.46988,-2.48034 2.46981,-3.54048c0.99992,-1.06014 2.13983,-1.96027 3.40973,-2.70037c1.26991,-0.7401 2.6198,-1.30018 4.04969,-1.68023c1.42989,-0.37005 2.87978,-0.55007 4.33967,-0.54007c1.88986,0.02 3.75971,0.29004 5.62957,0.81011c1.85986,0.53007 3.55972,1.32018 5.10961,2.38032c1.53988,1.06015 2.84978,2.35032 3.92969,3.89053c1.07992,1.54021 1.74987,3.32046 2.02985,5.36074c0.04,0.25003 0.07,0.7401 0.1,1.5002c0.01,0.7501 0.02,1.25017 0.02,1.49021c-0.02,2.37032 -0.31998,4.4706 -0.88993,6.28085c-0.57996,1.82025 -1.4099,3.41047 -2.51981,4.78066c-1.09992,1.38018 -2.46981,2.56034 -4.09969,3.54048c-1.63987,0.98013 -3.50973,1.82025 -5.59957,2.53034c-1.05991,0.38006 -2.10983,0.6701 -3.12975,0.84012c-1.01993,0.19003 -2.06985,0.55007 -3.13977,1.07015c-0.23998,0.09 -0.55995,0.24003 -0.94992,0.43005c-0.38997,0.19003 -0.76994,0.38006 -1.12991,0.57008c-0.36998,0.19003 -0.81994,0.40006 -1.3599,0.64009l-3.9597,4.26058c-0.05,0.24003 -0.08,0.42006 -0.08,0.51007v0.51007c0,0.24003 0.11,0.39005 0.35998,0.44006c0.52996,-0.14002 0.98992,-0.23003 1.37989,-0.28004c0.38997,-0.04 0.84993,-0.07 1.37989,-0.06c1.21991,0.01 2.32983,0.25003 3.34975,0.7201c1.00992,0.47006 1.98984,0.98013 2.92977,1.52021c0.93993,0.54007 1.90986,1.04014 2.89978,1.5102c0.98992,0.48007 2.08984,0.7201 3.29975,0.7301c0.91993,0 1.65987,-0.02 2.21983,-0.10001c0.55995,-0.06 1.34989,-0.21003 2.36981,-0.45006c0.67995,-0.53007 1.12992,-1.26017 1.3299,-2.2003c0.19999,-0.95013 0.38997,-1.87026 0.56996,-2.76038c0.17998,-0.90012 0.45996,-1.67023 0.85993,-2.32032c0.38997,-0.66009 1.11992,-0.98013 2.18983,-0.97013c0.72995,0.01 1.25991,0.19003 1.58988,0.56008c0.33997,0.36005 0.57996,0.82011 0.71995,1.35018c0.13999,0.54008 0.20998,1.12016 0.19998,1.75024l-0.01,1.68023c-0.02,2.66036 -0.58995,4.77065 -1.68987,6.31086c-1.10992,1.55021 -2.94977,2.77038 -5.52958,3.6605c-0.72994,0.29004 -1.33989,0.60008 -1.82986,0.93013c-0.48996,0.34005 -1.13991,0.50007 -1.95985,0.50007c-0.87993,-0.01 -1.55988,-0.20003 -2.03984,-0.56008c-0.47996,-0.37005 -1.07992,-0.68009 -1.80986,-0.94013c-0.05,0 -0.19998,-0.02 -0.42997,-0.07c-0.24998,-0.05 -0.48996,-0.10001 -0.72994,-0.15002c-0.24998,-0.05 -0.47996,-0.11001 -0.72994,-0.19002c-0.23999,-0.07 -0.37998,-0.11002 -0.42997,-0.11002c-0.14999,-0.05 -0.45997,-0.21003 -0.93993,-0.48006c-0.48997,-0.27004 -1.01993,-0.56008 -1.59988,-0.86012c-0.57996,-0.29004 -1.10992,-0.56008 -1.58988,-0.81011c-0.47996,-0.25004 -0.79994,-0.41006 -0.93993,-0.52008c-0.43996,-0.19002 -0.90993,-0.39005 -1.41989,-0.59008c-0.50996,-0.20002 -1.02992,-0.30004 -1.55988,-0.30004c-0.72994,-0.01 -1.34989,0.20003 -1.85986,0.63009" fill="none" stroke="#3eb311" stroke-width="0.10999" stroke-miterlimit="4"/></g></g></svg>