<svg version="1.1" xmlns="http://www.w3.org/2000/svg" xmlns:xlink="http://www.w3.org/1999/xlink" width="12.75" height="13.00001" viewBox="0,0,12.75,13.00001"><g transform="translate(-181.25,-326.38424)"><g data-paper-data="{&quot;isPaintingLayer&quot;:true}" fill-rule="nonzero" stroke-linecap="butt" stroke-linejoin="miter" stroke-miterlimit="10" stroke-dasharray="" stroke-dashoffset="0" style="mix-blend-mode: normal"><path d="M182.125,333.44675c0,-3.27919 2.65831,-5.9375 5.9375,-5.9375c3.27919,0 5.9375,2.65831 5.9375,5.9375c0,3.27919 -2.65831,5.9375 -5.9375,5.9375c-3.27919,0 -5.9375,-2.65831 -5.9375,-5.9375z" fill-opacity="0.58431" fill="#091a0c" stroke="none" stroke-width="0"/><path d="M181.5,332.57174c0,-3.27919 2.65831,-5.9375 5.9375,-5.9375c3.27919,0 5.9375,2.65831 5.9375,5.9375c0,3.27919 -2.65831,5.9375 -5.9375,5.9375c-3.27919,0 -5.9375,-2.65831 -5.9375,-5.9375z" fill="#308d3f" stroke-opacity="0.68235" stroke="#ffffff" stroke-width="0.5"/><path d="M183.04771,334.22279c0.01527,-0.08294 0.05254,-0.1299 0.08982,-0.17687c0.00405,-0.06082 0.02291,-0.1244 0.075,-0.17411c0.48359,-0.45021 0.88277,-1.02496 1.24468,-1.55274c0.21284,-0.3399 0.38122,-0.67156 0.55724,-1.04468l0.0485,-0.06907c0.00764,-0.04147 0.03368,-0.06632 0.05614,-0.11054c0.08623,-0.19622 0.20611,-0.45883 0.35473,-0.56651c0.06691,-0.05246 0.1226,-0.08282 0.18544,-0.07445c0.19981,0.00299 0.35787,0.19398 0.48268,0.3711c0.04042,0.05258 0.08082,0.10516 0.11764,0.13838c0.03323,0.01386 0.04804,0.01111 0.08128,0.02497c0.24696,0.17451 0.28109,0.68891 0.29455,0.92674c0.01346,0.23784 0.02692,0.47567 0.02557,0.71627c0.141,-0.06621 0.27481,-0.17113 0.40861,-0.27607c0.34934,-0.2651 0.67353,-0.66571 1.00581,-1.18799c0.20565,-0.37862 0.3929,-0.77387 0.58374,-1.14974c0.09386,-0.23773 0.20251,-0.47818 0.32958,-0.70205l-0.00359,-0.01936c-0.022,-0.03597 -0.01796,-0.09679 -0.01032,-0.13826c0.06378,-0.152 0.17153,-0.23209 0.26449,-0.30941c0.04086,-0.02761 0.08173,-0.05522 0.10778,-0.08007c0.11541,-0.12153 0.22721,-0.26245 0.3426,-0.384l-0.00359,-0.01936c0.00046,-0.08019 0.03414,-0.14651 0.10104,-0.19897c0.04086,-0.02761 0.08532,-0.03585 0.11855,-0.02199c0.1145,0.03883 0.21417,0.08042 0.32866,0.11926c0.09969,0.04158 0.21417,0.08042 0.32868,0.11926c0.11091,0.01948 0.23663,0.03621 0.34753,0.05568c0.00764,-0.04147 0.01886,-0.06357 0.04491,-0.08844c0.04086,-0.02761 0.10014,-0.0386 0.13337,-0.02474c0.05164,0.03048 0.07364,0.06644 0.08441,0.12452c0.01482,-0.00275 0.01841,0.01661 0.03323,0.01386c0.04445,-0.00824 0.08487,0.04433 0.09205,0.08305c0.01077,0.05808 -0.00809,0.12166 -0.03414,0.14651c-0.01482,0.00275 -0.04086,0.02761 -0.05209,0.04972c0.0588,0.73013 -0.06782,1.53472 -0.35386,2.38889c-0.30849,0.89841 -0.6978,1.69163 -1.1787,2.32159c-0.30219,0.4366 -0.67443,0.8261 -1.07586,1.1409c-0.37538,0.28994 -0.76152,0.52179 -1.15082,0.6541c-0.33004,0.1213 -0.58911,0.12931 -0.90342,0.08749c0,0 -0.18859,-0.02509 -0.21822,-0.0196c0.04355,0.15212 0.0871,0.30428 0.11225,0.43982c0.08215,0.52552 0.03949,0.87391 -0.16121,1.03131l-0.01483,0.00275c-0.03727,0.04696 -0.10014,0.0386 -0.13696,0.00538c-0.03682,-0.03322 -0.044,-0.07194 -0.05119,-0.11066l-0.06286,-0.00837c-0.55453,-0.09742 -1.09424,-0.19757 -1.59532,-0.58529c-0.48628,-0.39046 -0.9052,-0.91361 -1.34117,-1.69392c-0.0256,-0.05533 -0.03637,-0.1134 -0.03232,-0.17423zM185.1096,332.11791c-0.01483,0.00275 -0.01841,-0.01661 -0.01841,-0.01661c-0.01123,0.02211 -0.02605,0.02485 -0.02245,0.04422l-0.01483,0.00275c-0.02964,0.0055 -0.04086,0.02761 -0.0705,0.03311c-0.01483,0.00275 -0.02964,0.0055 -0.04445,0.00824c-0.03368,0.06633 -0.06736,0.13265 -0.11586,0.20172c0.10418,-0.09943 0.19353,-0.19611 0.28647,-0.27344zM185.38666,331.54577l-0.01841,-0.01661c-0.01841,-0.01661 -0.03682,-0.03322 -0.05523,-0.04983c-0.02605,0.02485 -0.03368,0.06632 -0.05973,0.09118c0.08487,0.04433 0.14728,0.13288 0.20609,0.20211c0.01123,-0.02211 0.03727,-0.04696 0.06332,-0.07182c-0.04041,-0.05258 -0.09564,-0.10241 -0.13605,-0.15499zM188.20241,331.60424c0.01483,-0.00275 0.02964,-0.0055 0.04086,-0.02761l-0.00359,-0.01936c-0.01483,0.00275 -0.02605,0.02485 -0.03727,0.04696zM188.46374,331.19527c-0.03727,0.04696 -0.07095,0.11329 -0.10823,0.16025c0.01482,-0.00275 0.01482,-0.00275 0.01482,-0.00275c0.04086,-0.02761 0.06691,-0.05246 0.10778,-0.08007c0.01482,-0.00275 0.02964,-0.0055 0.04086,-0.02761c-0.01482,0.00275 -0.03682,-0.03322 -0.05523,-0.04983zM188.89614,330.63437c-0.02964,0.0055 -0.05164,-0.03047 -0.07364,-0.06644c-0.00359,-0.01936 -0.00359,-0.01936 -0.00718,-0.03872c-0.04491,0.08843 -0.08623,0.19622 -0.14593,0.28744c0.01123,-0.02211 0.02605,-0.02485 0.04086,-0.02761c0.02605,-0.02485 0.04086,-0.02761 0.06691,-0.05246c0.02964,-0.0055 0.0705,-0.0331 0.09655,-0.05796c0.01123,-0.02211 0.02605,-0.02485 0.02605,-0.02485c0,0 0,0 -0.00359,-0.01936zM188.94645,330.24452c-0.01123,0.02211 -0.02245,0.04422 -0.03368,0.06633c0.01482,-0.00275 0.01482,-0.00275 0.01482,-0.00275c0.04086,-0.02761 0.0705,-0.0331 0.09655,-0.05796c-0.01482,0.00275 -0.04804,-0.01111 -0.07768,-0.00561zM189.15659,329.72485c-0.01123,0.02211 -0.02245,0.04422 -0.03009,0.08568c0.01123,-0.02211 0.01123,-0.02211 0.01123,-0.02211c0.02964,-0.0055 0.05568,-0.03035 0.08532,-0.03585c0.01123,-0.02211 0.04086,-0.02761 0.06691,-0.05246c-0.04086,0.02761 -0.08892,0.01649 -0.13337,0.02474zM189.6119,329.03955c-0.02605,0.02485 -0.03727,0.04696 -0.06332,0.07182c-0.02605,0.02485 -0.05209,0.04972 -0.06332,0.07182c0.05568,-0.03035 0.09655,-0.05796 0.15222,-0.08832c-0.00359,-0.01936 0.01123,-0.02211 0.02605,-0.02485c-0.00359,-0.01936 0.00405,-0.06083 0.01168,-0.10229c-0.02605,0.02485 -0.03727,0.04696 -0.06332,0.07182zM184.5604,335.68462c0.3794,0.31016 0.78216,0.41569 1.22174,0.55446c0.09609,0.02222 0.21058,0.06106 0.30666,0.08329c0.02067,-0.38436 -0.04398,-0.73288 -0.19754,-1.06489c-0.04445,0.00824 -0.04445,0.00824 -0.04445,0.00824c-0.09654,0.05796 -0.20745,0.03849 -0.25863,-0.07217c-0.066,-0.10791 -0.0431,-0.23233 0.03504,-0.30692c0.01483,-0.00275 0.01483,-0.00275 0.02964,-0.0055c0.14503,-0.12704 0.36684,-0.08808 0.54061,-0.06023c0.03323,0.01386 0.06287,0.00836 0.09609,0.02222c0.06286,0.00837 0.14055,0.01398 0.20699,0.0417c0.2034,0.02234 0.4104,0.06405 0.57338,0.03381c0.46339,-0.14604 0.95326,-0.39713 1.38073,-0.7368c0.34934,-0.26508 0.65467,-0.60211 0.92677,-0.95301c0.47731,-0.64933 0.85899,-1.40109 1.14097,-2.19443c0.28963,-0.83482 0.43423,-1.5426 0.4082,-2.17865c-0.25548,0.02737 -0.53611,-0.08077 -0.79833,-0.17234c-0.01482,0.00275 -0.03323,-0.01386 -0.04804,-0.01111c-0.0117,0.76325 -0.33498,1.66438 -0.96586,2.64262c-0.34351,0.54439 -0.73102,1.01684 -1.15847,1.35651l-0.04086,0.02761c-0.28243,0.2126 -0.5276,0.37827 -0.78713,0.46646c-0.01123,0.02211 -0.04086,0.02761 -0.0705,0.03311c-0.18185,0.09381 -0.45262,0.20412 -0.58866,0.04912c-0.03682,-0.03322 -0.06241,-0.08855 -0.05478,-0.13001c-0.00359,-0.01936 -0.00359,-0.01936 -0.00359,-0.01936c-0.05433,-0.21024 -0.06779,-0.44806 -0.07767,-0.66655c-0.00313,-0.09954 -0.00628,-0.19911 -0.00942,-0.29867l-0.00718,-0.03872c-0.0175,-0.17698 -0.03502,-0.35402 -0.08216,-0.52552c-0.24967,0.30668 -0.52132,0.57738 -0.79298,0.84809c-0.23438,0.22371 -0.46878,0.44745 -0.68116,0.70717c-0.06691,0.05246 -0.13023,0.12428 -0.17872,0.19336c-0.2757,0.33154 -0.55139,0.66307 -0.87109,0.92266c-0.0705,0.03311 -0.1226,0.08282 -0.17826,0.11317c0.32595,0.60045 0.66406,1.01841 1.02866,1.3313z" data-paper-data="{&quot;index&quot;:null}" fill="#ffffff" stroke="none" stroke-width="2.93571"/></g></g></svg>