<svg version="1.1" xmlns="http://www.w3.org/2000/svg" xmlns:xlink="http://www.w3.org/1999/xlink" width="72.22952" height="10.10124" viewBox="0,0,72.22952,10.10124"><g transform="translate(-151.82274,-328.94938)"><g data-paper-data="{&quot;isPaintingLayer&quot;:true}" fill-rule="nonzero" stroke-linecap="butt" stroke-linejoin="miter" stroke-dasharray="" stroke-dashoffset="0" style="mix-blend-mode: normal"><path d="M152.69774,329.94938h66.55489c2.04984,0 4.79963,0.80011 4.79963,1.79024v5.52076c0,0.99013 -1.67987,1.79024 -3.72971,1.79024h-67.62481z" fill-opacity="0.53725" fill="#001712" stroke="none" stroke-width="0.26458" stroke-miterlimit="10"/><path d="M151.82274,328.94938h66.55489c2.04984,0 4.79963,0.80011 4.79963,1.79024v5.52075c0,0.99014 -1.67987,1.79025 -3.72971,1.79025h-67.62481z" fill="#008368" stroke="none" stroke-width="0.26458" stroke-miterlimit="10"/><path d="M176.63083,335.75531v-1.54021c0,-0.38005 0.01,-0.7201 0.04,-1.04014l-1.12991,2.58035h-0.46996v-3.56048h0.46996v1.54021c0,0.38005 -0.01,0.7201 -0.04,1.04014l1.13991,-2.58035h0.45997v3.56048zM177.78074,332.19482h1.64988v0.53007h-1.17991v3.03041h-0.46997zM181.80044,333.36499c0,0.7901 -0.40997,1.18016 -1.01993,1.18016h-0.43996v1.21016h-0.46997v-3.56048h0.90993c0.60996,0 1.01993,0.38005 1.01993,1.17016zM180.34055,332.7149v1.31018h0.43996c0.34998,0 0.53996,-0.24004 0.53996,-0.66009c0,-0.42006 -0.18998,-0.65009 -0.53996,-0.65009zM182.81036,332.19482h0.49996l0.96993,3.56048h-0.49997l-0.18998,-0.7701h-1.05992l-0.19998,0.7701h-0.48997zM183.47031,334.49514l-0.26998,-1.05014c-0.04999,-0.20003 -0.09999,-0.42006 -0.13999,-0.64009c-0.03999,0.22003 -0.08999,0.44006 -0.13999,0.64009l-0.26998,1.05014zM187.31001,333.09495c0,0.47006 -0.18998,0.69009 -0.33997,0.79011c0.17999,0.08001 0.45996,0.33004 0.45996,0.88012c0,0.79011 -0.56995,0.99013 -0.95992,0.99013h-1.02992v-3.56048h1.00992c0.52996,0 0.85993,0.31004 0.85993,0.90012zM185.91011,332.69489v0.98013h0.51996c0.23999,0 0.40997,-0.15002 0.40997,-0.49007c0,-0.37005 -0.15999,-0.49006 -0.44996,-0.49006zM185.91012,334.1651v1.09014h0.47997c0.25997,0 0.55995,-0.04 0.55995,-0.55007c0,-0.47007 -0.28998,-0.54007 -0.51996,-0.54007zM188.41993,332.7249h-0.75994v-0.53007h1.99984v0.53007h-0.75994v3.03041h-0.47996zM192.02965,333.36499c0,0.7901 -0.40997,1.18016 -1.01992,1.18016h-0.43997v1.21016h-0.46996v-3.56048h0.90993c0.60995,0 1.01992,0.38005 1.01992,1.17016zM190.56976,332.7149v1.31018h0.43997c0.34997,0 0.53996,-0.24004 0.53996,-0.66009c0,-0.42006 -0.17999,-0.65009 -0.53996,-0.65009zM192.38962,333.97506c0,-1.12015 0.36998,-1.85025 1.13992,-1.85025c0.76994,0 1.13991,0.7301 1.13991,1.85025c0,1.12015 -0.36997,1.85025 -1.13991,1.85025c-0.76994,0 -1.13992,-0.7301 -1.13992,-1.85025zM194.17948,333.97506c0,-0.82011 -0.18998,-1.31018 -0.64994,-1.31018c-0.45997,0 -0.65995,0.49007 -0.65995,1.31018c0,0.81011 0.19998,1.31018 0.65995,1.31018c0.45996,0 0.64994,-0.50007 0.64994,-1.31018zM195.3694,331.49473c0,-0.17002 0.11999,-0.32004 0.27997,-0.32004c0.13999,0 0.26998,0.15002 0.26998,0.32004c0,0.18003 -0.12999,0.32005 -0.26998,0.32005c-0.15998,0 -0.27997,-0.14002 -0.27997,-0.32005zM196.11934,331.49473c0,-0.17002 0.12999,-0.32004 0.27997,-0.32004c0.14999,0 0.26999,0.15002 0.26999,0.32004c0,0.18003 -0.12,0.32005 -0.26999,0.32005c-0.14998,0 -0.27997,-0.14002 -0.27997,-0.32005zM195.20941,332.19482h1.63987v0.51007h-1.16991v1.00013h1.03992v0.51007h-1.03992v1.02014h1.18991v0.52007h-1.65987zM197.40923,332.19482h0.45996l0.79994,1.88025l0.78994,-1.88025h0.46997v3.56048h-0.47997v-1.5102c0,-0.37005 0.02,-0.7301 0.05,-1.10015l-0.72994,1.75024h-0.19999l-0.73994,-1.75024c0.04,0.37005 0.05,0.7301 0.05,1.10015v1.5102h-0.46996z" fill="#ffffff" stroke="none" stroke-width="0.26458" stroke-miterlimit="10"/><path d="M153.23251,333.60019c0,-0.04001 0,-0.07001 0,-0.11001v0c0.01,-0.04002 0.01,-0.07002 0.01,-0.11002v0c0,-0.03001 0,-0.07001 0.01,-0.11001v0c0,-0.03001 0,-0.07001 0,-0.10001h0.01c0,-0.04002 0,-0.07002 0.01,-0.11002v0c0,-0.03001 0.01,-0.07001 0.01,-0.10001v0c0.01,-0.04002 0.01,-0.07002 0.02,-0.11002v0c0.01,-0.03001 0.01,-0.07001 0.02,-0.10001v0c0.01,-0.04002 0.01,-0.07002 0.02,-0.11002v0c0.01,-0.03001 0.02,-0.06001 0.03,-0.10001v0c0.01,-0.03001 0.01,-0.07001 0.02,-0.10001v0c0.01,-0.03002 0.02,-0.07002 0.03,-0.10002v0c0.01,-0.03001 0.02,-0.06001 0.04,-0.10001v0c0.01,-0.03 0.02,-0.06 0.03,-0.09v0c0.01,-0.04001 0.02,-0.07001 0.04,-0.10001v0c0.01,-0.03002 0.02,-0.07002 0.04,-0.10002v0c0.01,-0.03 0.02,-0.06 0.0401,-0.09v0c0.01,-0.03 0.03,-0.06 0.04,-0.09v0c0.02,-0.04001 0.03,-0.07001 0.05,-0.10001v0c0.01,-0.03 0.03,-0.06 0.04,-0.09v0c0.02,-0.03 0.04,-0.06 0.05,-0.09v0c0.02,-0.03 0.04,-0.05 0.06,-0.08v0c0.01,-0.03 0.03,-0.06 0.05,-0.09v0c0.02,-0.03 0.04,-0.06 0.06,-0.09v0c0.01,-0.02 0.03,-0.05 0.05,-0.08v0c0.02,-0.03 0.04,-0.05 0.06,-0.08v0c0.02,-0.03 0.04,-0.06 0.07,-0.08v0c0.02,-0.03 0.04,-0.05 0.06,-0.08v0c0.02,-0.03 0.04,-0.05 0.06,-0.08v0c0.03,-0.02 0.05,-0.05 0.07,-0.07v0c0.02,-0.03 0.05,-0.05 0.07,-0.08v0c0.02,-0.02 0.05,-0.05 0.07,-0.07v0c0.03,-0.03 0.05,-0.05 0.07,-0.07v0c0.03,-0.03 0.05,-0.05 0.08,-0.07v0c0.02,-0.02 0.05,-0.05 0.07,-0.07v0c0.03,-0.02 0.06,-0.04 0.08,-0.06v0c0.03,-0.03 0.05,-0.05 0.08,-0.07v0c0.03,-0.02 0.06,-0.04 0.08,-0.06v0c0.03,-0.02 0.06,-0.04 0.08,-0.06v0c0.03,-0.02 0.06,-0.04 0.09,-0.06v0c0.03,-0.02 0.05,-0.04 0.08,-0.05v0c0.03,-0.02 0.06,-0.04 0.09,-0.06v0c0.03,-0.02 0.06,-0.03 0.09,-0.05v0c0.03,-0.02 0.06,-0.03 0.09,-0.05v0c0.03,-0.02 0.06,-0.03 0.09,-0.05v0c0.03,-0.01 0.06,-0.03 0.09,-0.04v0c0.03,-0.02 0.06,-0.03 0.09,-0.05v0c0.03,-0.01 0.06,-0.02 0.1,-0.04v0c0.03,-0.01 0.06,-0.02 0.09,-0.04v0c0.03,-0.01 0.07,-0.02 0.1,-0.03v0c0.03,-0.02 0.06,-0.03 0.1,-0.04v0c0.03,-0.01 0.06,-0.02 0.1,-0.03v0c0.03,-0.01 0.06,-0.02 0.09,-0.03h0.01c0.03,-0.01 0.06,-0.02 0.1,-0.03v0c0.03,-0.01 0.06,-0.01 0.1,-0.02v0c0.03,-0.01 0.07,-0.02 0.1,-0.02v0c0.03,-0.01 0.07,-0.02 0.1,-0.02v0c0.03999,-0.01 0.06999,-0.02 0.10999,-0.02v0c0.03,-0.01 0.07,-0.01 0.1,-0.02v0c0.03999,0 0.06999,0 0.10999,-0.01v0c0.03999,0 0.06999,-0.01 0.10999,-0.01v0c0.02999,0 0.06999,0 0.10999,0v0c0.03,-0.01 0.07,-0.01 0.1,-0.01v0c0.03999,0 0.07999,0 0.10999,0c0.10999,0 0.21998,0 0.31998,0.01h0.03l0.08,0.01h0.03l0.08,0.01l0.02,0.01l0.08,0.01h0.03l0.07,0.01l0.03,0.01l0.07,0.01l0.04,0.01l0.06,0.01l0.03,0.01l0.08,0.02l0.02,0.01l0.08,0.02h0.02l0.08,0.03h0.02l0.07,0.03l0.03,0.01l0.07,0.02l0.02,0.01l0.07,0.02l0.03,0.02c0.08999,0.03001 0.18998,0.07001 0.27998,0.12001v0c0.03,0.01 0.05,0.02 0.08,0.04h0.01l0.02,0.02l0.07,0.03l0.02,0.01l0.06,0.04l0.03,0.02l0.06,0.03l0.03,0.01l0.05,0.04l0.03,0.02l0.06,0.03l0.03,0.03l0.05,0.03l0.03,0.02l0.05,0.04l0.03,0.03l0.04,0.03l0.04,0.03l0.04,0.03l0.04,0.03l0.04,0.03l0.04,0.03l0.03,0.04l0.04,0.03l0.04,0.04l0.03,0.03l0.04,0.03l0.03,0.04l0.04,0.03l0.03,0.04l0.04,0.04l0.02,0.03h0.01c0.02,0.02 0.04,0.05 0.06,0.07v0c0.02,0.03 0.05,0.05 0.07,0.08v0c0.02,0.02 0.04,0.05 0.06,0.07v0l0.04,0.06l0.02,0.02l0.03,0.04l0.03,0.04l0.02,0.03l0.04,0.06l0.01,0.03l0.04,0.05l0.02,0.03l0.03,0.05l0.03,0.04l0.02,0.05l0.03,0.04l0.02,0.04l0.03,0.05l0.02,0.04l0.02,0.04l0.02,0.05l0.03,0.05l0.01,0.04l0.03,0.05l0.02,0.04l0.02,0.05l0.02,0.04l0.01,0.05l0.02,0.05l0.02,0.04l0.02,0.06l0.01,0.04l0.02,0.06l0.01,0.03v0.01c0.01,0.03 0.02,0.06 0.03,0.09c0.01,0.03002 0.02,0.07002 0.03,0.10002v0v0.01c0.01,0.03 0.02,0.06 0.02,0.09l0.01,0.05l0.01,0.05l0.01,0.04l0.02,0.07v0.02l0.01,0.07l0.01,0.05l0.01,0.06v0.04l0.01,0.06v0.05l0.01,0.03v0.7301l-0.01,0.05v0.03l-0.01,0.08v0.03l-0.01,0.07l-0.01,0.03v0c0,0.03001 -0.01,0.07001 -0.01,0.10001v0c-0.01,0.03001 -0.02,0.06001 -0.02,0.10001l-0.01,0.03l-0.01,0.07l-0.01,0.03l-0.02,0.07v0.02l-0.02,0.07l-0.01,0.03l-0.02,0.07l-0.01,0.03l-0.02,0.06l-0.01,0.04l-0.03,0.06l-0.01,0.03c-0.02,0.06001 -0.04,0.12003 -0.07,0.18003v0.02l-0.04,0.07l-0.01,0.04l-0.03,0.05l-0.02,0.04l-0.02,0.05l-0.02,0.04l-0.03,0.04l-0.02,0.04l-0.02,0.05l-0.02,0.04l-0.04,0.05l-0.01,0.03l-0.05,0.07v0.01c-0.02,0.03 -0.04,0.06 -0.06,0.08v0v0.01c-0.02,0.02 -0.04,0.05 -0.06,0.07l-0.01,0.03l-0.04,0.05l-0.03,0.04l-0.03,0.04l-0.03,0.03l-0.03,0.04l-0.03,0.04l-0.03,0.03l-0.03,0.05l-0.03,0.02l-0.04,0.04l-0.03,0.04l-0.03,0.03l-0.05,0.06l-0.02,0.01v0c-0.02,0.02 -0.04,0.05 -0.06,0.07h-0.01l-0.02,0.03l-0.05,0.03l-0.03,0.03l-0.04,0.04l-0.03,0.03l-0.04,0.03l-0.04,0.03l-0.03,0.03l-0.04,0.03l-0.04,0.03l-0.04,0.03l-0.04,0.02l-0.04,0.04l-0.04,0.03l-0.04,0.02v0c-0.02,0.02 -0.05,0.04 -0.08,0.05v0l-0.03,0.02l-0.05,0.03l-0.03,0.02l-0.05,0.03l-0.04,0.02l-0.04,0.03l-0.05,0.03l-0.03,0.01l-0.06,0.03l-0.03,0.02l-0.05,0.02l-0.04,0.02l-0.05,0.02l-0.04,0.02l-0.05,0.02l-0.04,0.02l-0.05,0.02c-0.03,0.01 -0.06,0.02 -0.09,0.03v0l-0.05,0.02l-0.04,0.01l-0.05,0.02l-0.05,0.02l-0.03,0.01l-0.06,0.01l-0.04,0.01l-0.06,0.02l-0.04,0.01l-0.05,0.01l-0.05,0.01l-0.05,0.02l-0.04,0.01l-0.07,0.01h-0.03h-0.01c-0.03,0.01 -0.06,0.02 -0.09,0.02v0h-0.02c-0.03,0.01 -0.05,0.01 -0.08,0.01l-0.04,0.01l-0.06,0.01h-0.05h-0.04h-0.71995h-0.03h-0.06l-0.05,-0.01l-0.05,-0.01h-0.05l-0.05,-0.01c-0.02,0 -0.05,-0.01 -0.07,-0.01l-0.03,-0.01l-0.06,-0.01l-0.05,-0.01h-0.02l-0.07,-0.02c-0.04,-0.01 -0.07,-0.01 -0.1,-0.02v0c-0.04,-0.01 -0.07,-0.02 -0.1,-0.03v0l-0.06,-0.02l-0.04,-0.01l-0.05,-0.02l-0.04,-0.01l-0.06,-0.02l-0.04,-0.01l-0.06,-0.03l-0.03,-0.01l-0.06,-0.02l-0.03,-0.01l-0.06,-0.03l-0.03,-0.01l-0.06,-0.03l-0.03,-0.01l-0.06,-0.03l-0.03,-0.02l-0.06,-0.03l-0.03,-0.01l-0.06,-0.04l-0.02,-0.01l-0.06,-0.03l-0.03,-0.02l-0.06,-0.03l-0.02,-0.02l-0.06,-0.04l-0.03,-0.01l-0.06,-0.04l-0.01,-0.01c-0.16999,-0.12002 -0.33997,-0.26004 -0.49996,-0.41006l-0.01,-0.01l-0.06,-0.05l-0.01,-0.02l-0.05,-0.04l-0.03,-0.03l-0.05,-0.05l-0.01,-0.02l-0.05,-0.05l-0.01,-0.02c-0.02,-0.02 -0.04,-0.04 -0.06,-0.06l-0.01,-0.01l-0.05,-0.06l-0.01,-0.02l-0.05,-0.06l-0.01,-0.01l-0.05,-0.07l-0.01,-0.01l-0.04,-0.06l-0.02,-0.03l-0.04,-0.06l-0.01,-0.02l-0.04,-0.06l-0.02,-0.02l-0.03,-0.06l-0.01,-0.01c-0.01,-0.03 -0.03,-0.05 -0.04,-0.08h-0.01c-0.08999,-0.17002 -0.16998,-0.34004 -0.24998,-0.52007v0l-0.03,-0.09v-0.01l-0.03,-0.07l-0.01,-0.02l-0.02,-0.07l-0.01,-0.03l-0.02,-0.06l-0.01,-0.04l-0.02,-0.06l-0.01,-0.04l-0.01,-0.06l-0.01,-0.03l-0.02,-0.07v-0.03l-0.02,-0.07v-0.04l-0.01,-0.05l-0.01,-0.04l-0.01,-0.07l-0.01,-0.03l-0.01,-0.07v-0.03l-0.01,-0.07v-0.03l-0.01,-0.08v-0.02c0,-0.02 0,-0.05 0,-0.08v-0.04l-0.01,-0.07v-0.02z" fill="#ffffff" stroke="none" stroke-width="0.26458" stroke-miterlimit="10"/><path d="M155.64245,333.99006c0.23998,-0.19002 0.50996,-0.26003 0.59995,-0.15002c0.16999,0.20003 0.66995,0.45006 1.22991,0.45006c0.55995,0 1.04992,-0.25003 1.2199,-0.45006c0.09,-0.11001 0.35998,-0.05 0.58996,0.15002c0.45996,0.19003 0.91993,1.34019 1.10991,2.67037c-0.67995,0.64009 -1.56988,1.07014 -2.5698,1.15016h-0.71994v0c-0.98993,-0.08 -1.87986,-0.50007 -2.54981,-1.15016c0.19999,-1.31018 0.71995,-2.36032 1.08992,-2.67037z" fill="#008368" stroke="none" stroke-width="0.26458" stroke-miterlimit="10"/><path d="M160.48207,336.56041c-0.08,0.09002 -0.16998,0.17004 -0.26998,0.25004c-0.18999,-1.19016 -0.66995,-2.33032 -1.3399,-2.9404c-0.36997,0.38005 -0.86993,0.59008 -1.39989,0.59008c-0.52996,0 -1.03992,-0.21003 -1.40989,-0.59008c-0.66995,0.61008 -1.14992,1.75024 -1.3399,2.9504c-0.09999,-0.08001 -0.18998,-0.17003 -0.26998,-0.25003c0.23998,-1.27018 0.77994,-2.46034 1.51988,-3.06042l0.12999,-0.10002l0.1,0.12002c0.31998,0.38005 0.77994,0.59008 1.26991,0.59008c0.47996,0 0.93992,-0.21003 1.2599,-0.59008l0.10999,-0.12002l0.11999,0.10002c0.73995,0.60008 1.2799,1.79024 1.51989,3.05041z" fill="#ffffff" stroke="none" stroke-width="0.26458" stroke-miterlimit="10"/><path d="M157.47231,330.38957c0.99992,0 1.80986,0.81011 1.80986,1.82025c0,1.00014 -0.80994,1.81025 -1.80986,1.81025c-1.00993,0 -1.81986,-0.81011 -1.81986,-1.81025c0,-1.01014 0.80993,-1.82025 1.81986,-1.82025z" fill="#008368" stroke="none" stroke-width="0.26458" stroke-miterlimit="10"/><path d="M155.48246,332.20982c0,-1.10015 0.88993,-1.99027 1.98985,-1.99027c1.08991,0 1.97984,0.89012 1.97984,1.99027c0,1.09015 -0.88993,1.98027 -1.97984,1.98027c-1.09992,0 -1.98985,-0.89012 -1.98985,-1.98027zM155.82243,332.20982c0,0.91013 0.73995,1.65023 1.64988,1.65023c0.90993,0 1.64987,-0.7401 1.64987,-1.65023c0,-0.91012 -0.73994,-1.65022 -1.64987,-1.65022c-0.90993,0 -1.64988,0.7401 -1.64988,1.65022z" fill="#ffffff" stroke="none" stroke-width="0.26458" stroke-miterlimit="10"/><path d="M157.46231,329.36943c2.33982,0 4.22967,1.89026 4.22967,4.23058c0,2.34032 -1.88985,4.23058 -4.22967,4.23058c-2.32982,0 -4.22968,-1.89026 -4.22968,-4.23058c0,-2.34032 1.89986,-4.23058 4.22968,-4.23058z" fill="none" stroke="#008368" stroke-width="0.69995" stroke-miterlimit="4"/><path d="M157.97227,336.08035c0.20998,0.12002 0.30997,0.35005 0.30997,0.58008c0,0.23003 -0.08,0.42006 -0.23998,0.56008c-0.13999,0.13001 -0.31997,0.20002 -0.52996,0.22002c-0.02,0 -0.04,0 -0.06,0c-0.18998,0 -0.35997,-0.05 -0.49996,-0.16002c-0.17998,-0.12001 -0.27998,-0.30004 -0.29998,-0.54007c0,-0.02 0.01,-0.03 0.04,-0.04c0.03,-0.02 0.06,-0.02 0.1,-0.02h0.12999c0.1,0 0.14999,0 0.14999,0.02c0.01,0.01 0.03,0.07 0.06,0.16002c0.02,0.05 0.06,0.09 0.11999,0.13002c0.07,0.05 0.13999,0.07 0.22998,0.07c0.01,0 0.02,0 0.03,0c0.09,-0.01 0.16999,-0.04 0.22998,-0.10002c0.07,-0.08 0.1,-0.18002 0.1,-0.29003c0,-0.14002 -0.05,-0.24004 -0.14998,-0.31005c-0.07,-0.04 -0.14999,-0.06 -0.22999,-0.06c-0.04,0 -0.09,0 -0.13999,0.02c-0.02,0 -0.04,-0.01 -0.06,-0.04c-0.01,-0.02 -0.02,-0.06 -0.02,-0.10001v-0.10001c0,-0.10002 0.01,-0.15002 0.03,-0.14002c0.03,0 0.05,0 0.08,0h0.02c0.09,0 0.16999,-0.02 0.23999,-0.07c0.09,-0.06 0.12999,-0.14002 0.12999,-0.24004c0,-0.09 -0.02,-0.17002 -0.08,-0.22003c-0.05,-0.04 -0.11,-0.06 -0.17999,-0.06c-0.01,0 -0.07,0.01 -0.15999,0.03c-0.01,0 -0.03,0.01 -0.08,0.05c-0.07,0.05 -0.10999,0.12002 -0.12999,0.21003c-0.01,0.04 -0.06,0.05 -0.15999,0.05h-0.12999c-0.1,0 -0.14998,-0.01 -0.14998,-0.03c0.01,-0.03 0.03,-0.09 0.06,-0.18002c0.06,-0.15002 0.13999,-0.26004 0.24998,-0.34005c0.13999,-0.11001 0.30998,-0.16002 0.49996,-0.16002c0,0 0.05,0.01 0.14999,0.02c0.12999,0.02 0.23998,0.07 0.32998,0.14002c0.13999,0.12002 0.20998,0.29004 0.20998,0.50007c0,0.18002 -0.06,0.33004 -0.19998,0.44006z" fill="#ffffff" stroke="none" stroke-width="0.26458" stroke-miterlimit="10"/></g></g></svg>