<svg version="1.1" xmlns="http://www.w3.org/2000/svg" xmlns:xlink="http://www.w3.org/1999/xlink" width="64.54853" height="97.20302" viewBox="0,0,64.54853,97.20302"><g transform="translate(-156.20677,-286.30792)"><g data-paper-data="{&quot;isPaintingLayer&quot;:true}" fill-rule="nonzero" stroke-linecap="butt" stroke-linejoin="miter" stroke-dasharray="" stroke-dashoffset="0" style="mix-blend-mode: normal"><path d="M203.42167,289.14686c9.19995,-0.07975 16.72119,7.31229 16.80094,16.50926l0.53205,60.80296c0.07975,9.19995 -7.31229,16.72119 -16.50945,16.80094l-28.75076,0.25022c-9.19604,0.08384 -16.72119,-7.30932 -16.80094,-16.50926l-0.52815,-60.80296c-0.07975,-9.19604 7.3095,-16.72119 16.50945,-16.80094z" fill-opacity="0.69804" fill="#0f150e" stroke="none" stroke-width="1" stroke-miterlimit="10"/><path d="M201.46393,286.30856c9.1993,-0.08001 16.71871,7.311 16.79871,16.51226l0.52996,60.8083c0.08,9.20125 -7.30944,16.73229 -16.50873,16.81229l-28.74779,0.25004c-9.1993,0.08001 -16.71871,-7.311 -16.79871,-16.51226l-0.52996,-60.8183c-0.08,-9.19125 7.30944,-16.72229 16.50873,-16.80229z" fill="#77b074" stroke="none" stroke-width="0.26458" stroke-miterlimit="10"/><path d="M211.09319,364.61927c-0.23998,2.29031 -0.66994,3.76051 -1.2699,4.4106c-0.60995,0.65009 -1.94985,1.13015 -4.03969,1.43019c-1.49988,0.17003 -5.67956,0.46007 -12.53904,0.88012c-6.85947,0.41006 -12.04907,0.6601 -15.5688,0.7301c-1.58988,0.05 -2.85978,0.07 -3.79971,0.04c-0.93993,-0.02 -1.84986,-0.13001 -2.72979,-0.33004c-0.87993,-0.19003 -1.52988,-0.43006 -1.94985,-0.7001c-0.42997,-0.27003 -0.83993,-0.7201 -1.2399,-1.37018c-0.39997,-0.64009 -0.70995,-1.33018 -0.93993,-2.06028c-0.21999,-0.74011 -0.47996,-1.76024 -0.76994,-3.06042c-0.78994,-3.6205 -1.3099,-7.52103 -1.54988,-11.6916c-0.23999,-4.15057 -0.26998,-10.10138 -0.09,-17.81243c0.08,-6.23085 0.04,-10.85148 -0.11999,-13.84189c-0.14999,-2.99041 -0.50996,-5.8508 -1.06992,-8.57117c-1.07991,-4.88067 -1.48988,-8.17111 -1.2099,-9.90135c0.14999,-0.6901 0.32997,-1.19016 0.53996,-1.52021c0.20998,-0.32004 0.62995,-0.63008 1.2499,-0.94013c0.75994,-0.37005 3.9197,-0.89012 9.47927,-1.58021c5.56957,-0.6801 11.01915,-1.24017 16.33875,-1.66023c3.55972,-0.18002 5.39958,-0.30005 5.53957,-0.37005c0.04,0 1.11992,0.02 3.22975,0.06c3.06977,0.18003 5.05962,0.68009 5.96955,1.50021c0.57995,0.50006 0.95992,1.24016 1.14991,2.2303c0.18998,0.99013 0.42996,3.43047 0.72994,7.301c0.33997,4.73064 0.91993,10.45142 1.73987,17.16234c0.99992,8.54117 1.62987,14.29195 1.89985,17.24235c0.26998,2.97041 0.55996,6.75092 0.84994,11.37155c0.29997,5.8208 0.35997,9.5013 0.16998,11.05151z" fill="#fefefe" stroke="none" stroke-width="0.26458" stroke-miterlimit="10"/><path d="M180.08556,356.8782c0.23999,-0.65009 0.70995,-1.17016 1.3899,-1.56022c0.87993,-0.23003 1.79986,-0.45006 2.76978,-0.67009c0.96993,-0.20003 1.94986,-0.35005 2.91978,-0.44006l0.57996,-0.58008l0.04,-4.22057l-0.56996,-0.58008c-0.48996,-0.06 -0.79994,-0.08 -0.94993,-0.08c-0.47996,-0.01 -0.93992,0 -1.33989,0.02c-0.41997,0.02 -0.88993,0.13002 -1.42989,0.31004l-12.79902,-0.11001c-0.82994,-0.01 -1.59988,-0.35005 -2.31983,-1.04014c-0.71994,-0.6801 -1.07991,-1.4402 -1.07991,-2.26031l0.01,-0.7301c0.93992,-1.88026 1.92985,-3.74051 2.95977,-5.58077c1.02992,-1.83025 2.06984,-3.6705 3.10976,-5.50075c1.81986,-3.18043 3.55973,-6.36086 5.2396,-9.5213c1.67987,-3.17043 3.59972,-6.22084 5.75956,-9.16125c0.38997,-0.58007 0.75994,-1.23016 1.10991,-1.96026c0.34997,-0.7201 0.72994,-1.4102 1.14991,-2.06028c0.40997,-0.65009 0.89993,-1.19017 1.46989,-1.62023c0.54996,-0.43005 1.2699,-0.65008 2.14983,-0.64008c0.86994,0.01 1.66988,0.24003 2.38982,0.71009c0.71995,0.47007 1.19991,1.12016 1.43989,1.94027c0.05,0.24003 0.12999,0.58008 0.24998,0.99013c0.11999,0.41006 0.22998,0.84012 0.34997,1.27018c0.12,0.44006 0.20999,0.83011 0.27998,1.17016c0.07,0.34004 0.1,0.53007 0.1,0.58008l-0.22998,26.49361l6.40951,0.06c0.42997,0 0.81994,0.14002 1.15991,0.41006c0.32997,0.27004 0.61995,0.59008 0.85994,0.99013c0.23998,0.39006 0.42996,0.80011 0.56995,1.24017c0.14999,0.44006 0.21999,0.83012 0.20998,1.17016c-0.01,1.4502 -0.76994,2.37033 -2.27982,2.74038c-0.18998,0 -0.53996,0.01 -1.04992,0.03c-0.50996,0.02 -1.05992,0.03 -1.63987,0.06c-0.58996,0.02 -1.13992,0.05 -1.67987,0.09c-0.52996,0.04 -0.89994,0.06 -1.08992,0.06c-0.43997,0.10001 -0.77994,0.18002 -1.01992,0.25003c-0.23998,0.07 -0.45997,0.15002 -0.65995,0.25003c-0.18999,0.10002 -0.28998,0.21003 -0.28998,0.36005l-0.03,3.6405c0,0.29004 0.16999,0.58008 0.52996,0.87012c0.36997,0.30004 0.66995,0.50007 0.90993,0.60008c0.86993,0.01 1.69987,0.02 2.46981,0.06c0.77994,0.03 1.46989,0.15002 2.06984,0.37005c0.60996,0.23003 1.08992,0.61008 1.44989,1.15016c0.35997,0.53007 0.53996,1.31018 0.51996,2.33032c0,0.82011 -0.27998,1.53021 -0.80994,2.10028c-0.53996,0.58008 -1.2499,0.87012 -2.11984,0.86012l-16.8087,-0.15002c-0.77994,-0.01 -1.43989,-0.28004 -1.98985,-0.82011c-0.55996,-0.53008 -0.82994,-1.17016 -0.82994,-1.90026c0.01,-0.67009 0.13999,-1.34019 0.38997,-1.99027zM176.71582,341.88615c0,0.15002 0.1,0.24003 0.28998,0.29004l2.25983,0.02c1.39989,0.02 2.78978,-0.05 4.14968,-0.21003c1.35989,-0.16002 2.73979,-0.26003 4.14968,-0.29004c0.28998,-0.20002 0.49996,-0.47006 0.62995,-0.83011c0.11999,-0.37005 0.20999,-0.7501 0.25998,-1.17016c0.05,-0.41006 0.07,-0.81011 0.05,-1.20016c-0.03,-0.38006 -0.03,-0.7001 -0.03,-0.94013c0.01,-0.97014 -0.05,-1.92027 -0.15999,-2.85039c-0.10999,-0.91013 -0.15999,-1.86026 -0.15999,-2.83039c0.02,-1.80024 0.11,-3.53048 0.26999,-5.20071c0.15998,-1.67023 0.24998,-3.43047 0.25997,-5.27072c-0.28997,-0.01 -0.78994,0.41006 -1.49988,1.25017c-0.70995,0.84012 -1.50989,1.92026 -2.38982,3.22044c-0.88993,1.31018 -1.80986,2.75038 -2.76978,4.3406c-0.95993,1.60021 -1.82986,3.14042 -2.58981,4.64063c-0.75994,1.5002 -1.39989,2.83038 -1.91985,4.02055c-0.52996,1.18016 -0.78994,2.04028 -0.78994,2.57035z" fill="#3eb311" stroke="none" stroke-width="0.26458" stroke-miterlimit="10"/><path d="M183.31532,355.80805c0.24998,-0.65009 0.70994,-1.16016 1.39989,-1.55021c0.86993,-0.23003 1.78986,-0.46006 2.76979,-0.67009c0.96992,-0.21003 1.93985,-0.35005 2.90977,-0.45006l0.58996,-0.57008l0.04,-4.22058l-0.57996,-0.59008c-0.47996,-0.05 -0.79994,-0.08 -0.94993,-0.08c-0.47996,0 -0.92992,0.01 -1.33989,0.03c-0.41997,0.02 -0.88993,0.12002 -1.41989,0.31004l-12.80902,-0.11001c-0.82994,-0.01 -1.59988,-0.35004 -2.31982,-1.04014c-0.71995,-0.68009 -1.07992,-1.44019 -1.06992,-2.27031v-0.7301c0.93993,-1.88025 1.92985,-3.73051 2.95977,-5.57076c1.03992,-1.83025 2.06984,-3.6705 3.10976,-5.51075c1.81986,-3.18043 3.56973,-6.35087 5.2496,-9.5113c1.67987,-3.17043 3.58972,-6.22085 5.74956,-9.16125c0.38997,-0.58008 0.76994,-1.23017 1.10991,-1.96027c0.34998,-0.7201 0.72995,-1.41019 1.14991,-2.06028c0.41997,-0.65009 0.90993,-1.20016 1.46989,-1.62022c0.55996,-0.44006 1.2799,-0.65009 2.14984,-0.64009c0.86993,0.01 1.66987,0.24003 2.38981,0.7101c0.72995,0.47006 1.20991,1.11015 1.43989,1.94026c0.05,0.24004 0.12999,0.57008 0.24998,0.98014c0.11999,0.42005 0.22998,0.85011 0.34998,1.28017c0.11999,0.44006 0.20998,0.83012 0.27998,1.17016c0.07,0.34005 0.10999,0.53007 0.10999,0.58008l-0.22999,26.49362l6.39951,0.06c0.43997,0 0.81994,0.14001 1.15991,0.41005c0.33998,0.27004 0.62995,0.59008 0.86994,0.99014c0.22998,0.39005 0.41996,0.80011 0.56995,1.23017c0.13999,0.44006 0.20999,0.84011 0.19999,1.17015c-0.01,1.46021 -0.76994,2.38033 -2.27983,2.75038c-0.18998,0 -0.53996,0.01 -1.04992,0.03c-0.50996,0.02 -1.05992,0.03 -1.63987,0.05c-0.57996,0.02 -1.13991,0.06 -1.66987,0.10001c-0.53996,0.04 -0.89993,0.06 -1.09992,0.06c-0.42997,0.10002 -0.76994,0.18003 -1.01992,0.25004c-0.23998,0.07 -0.45997,0.15002 -0.64995,0.25003c-0.19999,0.10002 -0.29998,0.21003 -0.29998,0.36005l-0.03,3.6405c0,0.29004 0.17999,0.58008 0.53996,0.87012c0.35997,0.30004 0.65995,0.49006 0.90993,0.60008c0.86994,0.01 1.68987,0.02 2.46981,0.05c0.76994,0.04 1.45989,0.16002 2.06984,0.38005c0.59996,0.23003 1.08992,0.61008 1.43989,1.15015c0.35998,0.53008 0.53996,1.31018 0.52996,2.33032c-0.01,0.82012 -0.27998,1.52021 -0.81994,2.10029c-0.53995,0.58008 -1.2499,0.87012 -2.11983,0.86012l-16.80871,-0.15002c-0.76994,-0.01 -1.43989,-0.28004 -1.98985,-0.82011c-0.55995,-0.54008 -0.82993,-1.17016 -0.81994,-1.90026c0,-0.6701 0.12999,-1.34019 0.37997,-2.00028zM179.95557,340.82601c0,0.15002 0.09,0.24003 0.28998,0.29004l2.24983,0.02c1.40989,0.02 2.78978,-0.06 4.14968,-0.22003c1.3599,-0.15002 2.73979,-0.25004 4.14968,-0.28004c0.29998,-0.20003 0.49996,-0.47007 0.62995,-0.84012c0.12,-0.36004 0.20999,-0.7501 0.25998,-1.16016c0.05,-0.41005 0.07,-0.81011 0.05,-1.20016c-0.02,-0.38005 -0.03,-0.70009 -0.03,-0.94013c0.01,-0.97013 -0.05,-1.92026 -0.15998,-2.85038c-0.11,-0.91013 -0.15999,-1.86026 -0.14999,-2.83039c0.01,-1.80025 0.1,-3.53048 0.25998,-5.21071c0.15998,-1.66023 0.24998,-3.42047 0.26998,-5.27072c-0.29998,0 -0.79994,0.42005 -1.50989,1.26017c-0.70994,0.84011 -1.50988,1.91026 -2.38982,3.22044c-0.88993,1.30018 -1.80986,2.75037 -2.76978,4.34059c-0.95993,1.59022 -1.81986,3.14043 -2.5898,4.64063c-0.75995,1.49021 -1.3999,2.83039 -1.91986,4.02055c-0.51996,1.18016 -0.77994,2.04028 -0.78994,2.57035z" fill="#141515" stroke="none" stroke-width="0.26458" stroke-miterlimit="10"/><path d="M183.31532,355.80805c0.24998,-0.65009 0.70994,-1.16016 1.39989,-1.55021c0.86993,-0.23003 1.78986,-0.46006 2.76979,-0.67009c0.96992,-0.21003 1.93985,-0.35005 2.90977,-0.45006l0.58996,-0.57008l0.04,-4.22058l-0.57996,-0.59008c-0.47996,-0.05 -0.79994,-0.08 -0.94993,-0.08c-0.47996,0 -0.92992,0.01 -1.33989,0.03c-0.41997,0.02 -0.88993,0.12002 -1.41989,0.31004l-12.80902,-0.11001c-0.82994,-0.01 -1.59988,-0.35004 -2.31982,-1.04014c-0.71995,-0.68009 -1.07992,-1.44019 -1.06992,-2.27031v-0.7301c0.93993,-1.88025 1.92985,-3.73051 2.95977,-5.57076c1.03992,-1.83025 2.06984,-3.6705 3.10976,-5.51075c1.81986,-3.18043 3.56973,-6.35087 5.2496,-9.5113c1.67987,-3.17043 3.58972,-6.22085 5.74956,-9.16125c0.38997,-0.58008 0.76994,-1.23017 1.10991,-1.96027c0.34998,-0.7201 0.72995,-1.41019 1.14991,-2.06028c0.41997,-0.65009 0.90993,-1.20016 1.46989,-1.62022c0.55996,-0.44006 1.2799,-0.65009 2.14984,-0.64009c0.86993,0.01 1.66987,0.24003 2.38981,0.7101c0.72995,0.47006 1.20991,1.11015 1.43989,1.94026c0.05,0.24004 0.12999,0.57008 0.24998,0.98014c0.11999,0.42005 0.22998,0.85011 0.34998,1.28017c0.11999,0.44006 0.20998,0.83012 0.27998,1.17016c0.07,0.34005 0.10999,0.53007 0.10999,0.58008l-0.22999,26.49362l6.39951,0.06c0.43997,0 0.81994,0.14001 1.15991,0.41005c0.33998,0.27004 0.62995,0.59008 0.86994,0.99014c0.22998,0.39005 0.41996,0.80011 0.56995,1.23017c0.13999,0.44006 0.20999,0.84011 0.19999,1.17015c-0.01,1.46021 -0.76994,2.38033 -2.27983,2.75038c-0.18998,0 -0.53996,0.01 -1.04992,0.03c-0.50996,0.02 -1.05992,0.03 -1.63987,0.05c-0.57996,0.02 -1.13991,0.06 -1.66987,0.10001c-0.53996,0.04 -0.89993,0.06 -1.09992,0.06c-0.42997,0.10002 -0.76994,0.18003 -1.01992,0.25004c-0.23998,0.07 -0.45997,0.15002 -0.64995,0.25003c-0.19999,0.10002 -0.29998,0.21003 -0.29998,0.36005l-0.03,3.6405c0,0.29004 0.17999,0.58008 0.53996,0.87012c0.35997,0.30004 0.65995,0.49006 0.90993,0.60008c0.86994,0.01 1.68987,0.02 2.46981,0.05c0.76994,0.04 1.45989,0.16002 2.06984,0.38005c0.59996,0.23003 1.08992,0.61008 1.43989,1.15015c0.35998,0.53008 0.53996,1.31018 0.52996,2.33032c-0.01,0.82012 -0.27998,1.52021 -0.81994,2.10029c-0.53995,0.58008 -1.2499,0.87012 -2.11983,0.86012l-16.80871,-0.15002c-0.76994,-0.01 -1.43989,-0.28004 -1.98985,-0.82011c-0.55995,-0.54008 -0.82993,-1.17016 -0.81994,-1.90026c0,-0.6701 0.12999,-1.34019 0.37997,-2.00028M179.95557,340.82598c0,0.15002 0.09,0.24003 0.28998,0.29004l2.24983,0.02c1.40989,0.02 2.78978,-0.06 4.14968,-0.22003c1.3599,-0.15002 2.73979,-0.25004 4.14968,-0.28004c0.29998,-0.20003 0.49996,-0.47007 0.62995,-0.84012c0.12,-0.36004 0.20999,-0.7501 0.25998,-1.16016c0.05,-0.41005 0.07,-0.81011 0.05,-1.20016c-0.02,-0.38005 -0.03,-0.70009 -0.03,-0.94013c0.01,-0.97013 -0.05,-1.92026 -0.15998,-2.85038c-0.11,-0.91013 -0.15999,-1.86026 -0.14999,-2.83039c0.01,-1.80025 0.1,-3.53048 0.25998,-5.21071c0.15998,-1.66023 0.24998,-3.42047 0.26998,-5.27072c-0.29998,0 -0.79994,0.42005 -1.50989,1.26017c-0.70994,0.84011 -1.50988,1.91026 -2.38982,3.22044c-0.88993,1.30018 -1.80986,2.75037 -2.76978,4.34059c-0.95993,1.59022 -1.81986,3.14043 -2.5898,4.64063c-0.75995,1.49021 -1.3999,2.83039 -1.91986,4.02055c-0.51996,1.18016 -0.77994,2.04028 -0.78994,2.57035v0.44007" fill="none" stroke="#3eb311" stroke-width="0.09999" stroke-miterlimit="4"/></g></g></svg>