<svg version="1.1" xmlns="http://www.w3.org/2000/svg" xmlns:xlink="http://www.w3.org/1999/xlink" width="64.5506" height="97.19331" viewBox="0,0,64.5506,97.19331"><g transform="translate(-156.2047,-286.31763)"><g data-paper-data="{&quot;isPaintingLayer&quot;:true}" fill-rule="nonzero" stroke="none" stroke-width="1" stroke-linecap="butt" stroke-linejoin="miter" stroke-miterlimit="10" stroke-dasharray="" stroke-dashoffset="0" style="mix-blend-mode: normal"><path d="M203.42167,289.14686c9.19995,-0.07975 16.72119,7.31229 16.80094,16.50926l0.53205,60.80296c0.07975,9.19995 -7.31229,16.72119 -16.50945,16.80094l-28.75076,0.25022c-9.19604,0.08384 -16.72119,-7.30932 -16.80094,-16.50926l-0.52815,-60.80296c-0.07975,-9.19604 7.3095,-16.72119 16.50945,-16.80094z" fill-opacity="0.69804" fill="#0f150e"/><path d="M201.46165,286.31827c9.19995,-0.07975 16.72119,7.31229 16.80094,16.50926l0.53205,60.80296c0.07975,9.19995 -7.31229,16.72119 -16.50945,16.80094l-28.75076,0.25022c-9.19604,0.08384 -16.72119,-7.30932 -16.80094,-16.50926l-0.52815,-60.80296c-0.07975,-9.19604 7.3095,-16.72119 16.50945,-16.80094z" fill="#77b074"/><path d="M164.61131,367.49374c-0.21899,-0.30042 0.19706,-0.53651 0.33128,-0.39207c0.07473,0.07882 0.78655,-0.20226 1.59095,-0.62965c1.45487,-0.7728 4.33134,-2.35762 7.15427,-4.00936c0.2584,-0.15114 0.47684,0.05205 0.48669,0.45323c-0.09035,0.08886 -0.19055,0.18776 -0.22587,0.22085c-0.02435,0.02528 -0.02305,0.05651 0.00186,0.06934c0.04759,0.02547 0.12177,0.10225 0.13961,0.14203c0.01041,0.02194 0.13422,-0.02342 0.27774,-0.10187c0.25822,-0.14222 0.7793,-0.4233 1.30782,-0.69676c0.30711,-0.15876 0.49859,0.06172 0.42646,0.49171c-0.39207,0.23256 -0.83526,0.48725 -0.98844,0.57035c-0.10987,0.06321 -0.18107,0.13887 -0.16118,0.16973c0.03792,0.05596 0.05428,0.19315 -0.06339,0.2783c-1.28403,0.9284 -3.07873,2.09642 -4.00676,2.61026c-0.5103,0.37459 -1.0695,0.80514 -1.25038,0.96112c-0.13515,0.11061 0.36734,0.30544 1.12211,0.43873c1.3675,0.23963 3.96047,0.29428 6.38445,-0.01246c6.47554,-0.92301 12.87542,-5.21178 14.29591,-9.58012c0.0805,-0.17308 0.23888,-0.09834 0.35266,0.16731c-0.77298,1.73112 -1.89732,3.49329 -2.51006,3.93686c-0.36363,0.36716 -0.35229,0.42274 0.02696,0.12307c0.68747,-0.54153 1.92707,-1.76347 3.0211,-3.08877c0.28108,-0.34671 0.65047,-0.81723 0.82373,-1.04961c0.18386,-0.24855 0.40843,-0.07938 0.50194,0.37831c-0.02156,0.0277 -0.04424,0.05875 -0.05298,0.0686c-0.00632,0.00874 0.01338,0.03495 0.04201,0.05949c0.05205,0.04592 0.11749,0.18144 0.04424,0.29484c-0.18404,0.28127 -0.43985,0.65438 -0.57128,0.83303c-0.41698,0.59954 -0.89456,1.2647 -1.06838,1.48518c-0.12195,0.16155 -0.08923,0.1833 0.07473,0.04945c0.29614,-0.2426 0.87672,-0.71517 1.44353,-1.15947c0.02974,-0.02305 0.06618,-0.0396 0.08031,-0.03699c0.01022,-0.00037 0.05094,-0.05187 0.09277,-0.11284c0.07715,-0.1108 0.22457,-0.33555 0.36679,-0.56514c0.1424,-0.23052 0.38259,-0.0857 0.53577,0.32477c-2.90138,5.82079 -10.00565,10.44698 -15.86846,10.33321c-2.6915,0.65884 -6.63802,0.5328 -8.81438,-0.28183c-0.47182,-0.08273 -1.0009,-0.18442 -1.18141,-0.22754c-0.13143,-0.02919 -0.15672,0.03086 -0.05707,0.13385c0.18107,0.18553 0.54079,0.55957 0.89512,0.93583c0.8637,0.84976 1.85159,1.78652 2.20666,2.09196c0.25153,0.22606 0.45119,0.39932 0.44486,0.38705c-0.00948,-0.02119 -0.0303,-0.06395 -0.05094,-0.10689c-0.1015,-0.21435 0.04982,-0.25097 0.33927,-0.08105l0.43167,0.86091c0.08217,0.16471 -0.11563,0.31362 -0.28666,0.16843c-0.13738,-0.11637 -0.32087,-0.27439 -0.40899,-0.35266c0.94736,1.09552 1.86981,2.20611 2.76028,3.33305c0.19427,0.24558 0.03458,0.37813 -0.35749,0.29633c-1.17918,-0.99105 -2.69689,-2.37193 -3.39012,-3.08264c1.18457,1.3385 2.34944,2.6902 3.49962,4.04859c0.24967,0.29447 0.05893,0.40508 -0.4259,0.24781c-0.80868,-0.91111 -1.90606,-2.12487 -2.45131,-2.71362c0.3798,0.56124 0.75421,1.12471 1.12081,1.6919c0.18702,0.29112 -0.02974,0.37571 -0.48409,0.19055c-2.67105,-3.19771 -6.27272,-7.48406 -8.04363,-9.57565c-0.14631,-0.17308 -0.12883,-0.34169 0.03811,-0.37645c-0.04573,-0.04685 -0.09202,-0.09425 -0.13738,-0.14017c-0.12158,-0.12232 -0.11377,-0.29168 0.01673,-0.37794c0.05949,-0.03086 0.13906,-0.07306 0.17698,-0.09425v0zM167.34296,368.66957c0.00985,0.00335 0.03718,-0.01338 0.05986,-0.03551c0.04127,-0.04146 0.12288,-0.12232 0.16415,-0.16248c0.02231,-0.02268 0.0119,-0.02658 -0.02305,-0.00967c-0.06525,0.03235 -0.1952,0.09407 -0.26026,0.12623c-0.03569,0.01747 -0.06246,0.03309 -0.05912,0.03644c0.00428,0.00539 0.01394,0.01543 0.01822,0.02064c0.00297,0.0026 0.01376,0.00744 0.02398,0.00892c0.01933,0.00409 0.05689,0.01171 0.07622,0.01543zM166.65568,368.88652c-0.02175,0.00911 -0.066,0.01469 -0.08812,0.01357c-0.01264,0 -0.00688,0.01673 0.01171,0.03811c0.03532,0.0383 0.10373,0.11637 0.13887,0.15486c0.01878,0.02156 0.04015,0.03216 0.04722,0.02342c0.01208,-0.01562 0.04555,-0.03848 0.06785,-0.04443c0.01283,-0.00316 0.00911,-0.02008 -0.00651,-0.03681c-0.02993,-0.03142 -0.08923,-0.09444 -0.11879,-0.12623c-0.0171,-0.01803 -0.03997,-0.0277 -0.05242,-0.02231zM167.2883,369.66415c-0.00613,0.00595 -0.01859,0.0171 -0.0251,0.02342c-0.00353,0.00353 0.31548,0.36251 0.71275,0.80328c0.71907,0.79696 2.19123,2.371 2.96831,3.12577c0.42962,0.41717 0.71628,0.68765 0.64025,0.60288c-0.13775,-0.15356 -0.41289,-0.46067 -0.68617,-0.76629c-1.14144,-1.25949 -2.42566,-2.6625 -2.86996,-3.13525c-0.32068,-0.34355 -0.59191,-0.62575 -0.60623,-0.62854c-0.02565,-0.00651 -0.07566,-0.01785 -0.10206,-0.02417c-0.01394,-0.0039 -0.02789,-0.00446 -0.0316,-0.00112zM165.53375,367.74563c-0.00316,0.00428 0.04369,0.06376 0.10448,0.13311c0.11191,0.12623 0.33555,0.37868 0.44747,0.50491c0.06209,0.06953 0.11359,0.11823 0.11619,0.10987c0.00428,-0.01524 0.02175,-0.04406 0.03476,-0.05782c0.00669,-0.00744 -0.03737,-0.06637 -0.09964,-0.13255c-0.11359,-0.11954 -0.33723,-0.35954 -0.45081,-0.47907c-0.06265,-0.06692 -0.11321,-0.11972 -0.11414,-0.11916c-0.00167,0.00112 -0.0039,0.00242 -0.00502,0.00446c-0.01413,0.01562 -0.02937,0.0316 -0.03328,0.03625zM183.49454,368.72571c-0.07752,0.03067 -0.18349,0.06674 -0.23554,0.0818c-0.22234,0.11396 -0.47312,0.23888 -0.56012,0.28034c-0.06246,0.02919 0.43315,-0.10931 1.10575,-0.31046c1.21785,-0.36344 3.42674,-1.46528 4.37113,-2.18807c0.5222,-0.39895 0.66702,-0.53447 0.32236,-0.30191c-0.62352,0.42051 -1.98432,1.13995 -3.43511,1.73168c-0.50045,0.25952 -1.20298,0.57555 -1.56846,0.70643zM184.89829,366.27347c-0.5763,0.30748 -1.79359,0.83414 -2.43272,1.04737c-0.35154,0.11786 -0.48688,0.17642 -0.30135,0.13143c0.33593,-0.08124 0.99569,-0.26751 1.63966,-0.47833c0.57425,-0.3151 1.20093,-0.68635 1.40115,-0.82913c0.14909,-0.09871 0.01115,-0.04108 -0.30655,0.12864zM179.88487,369.61172c0.12939,-0.04573 0.18442,-0.07641 0.12139,-0.06804c-0.11526,0.01301 -0.34708,0.03105 -0.57871,0.04908c-0.38445,0.06321 -0.90386,0.1372 -1.16189,0.16564c-0.97952,0.19501 -2.10088,0.36177 -2.50448,0.37329c-0.28629,0.02175 -0.25506,0.03904 0.06841,0.03941c0.58634,-0.00037 1.73336,-0.06823 2.8484,-0.21081c0.48781,-0.12344 1.02823,-0.27941 1.20688,-0.34857zM174.93206,368.85566c-0.05466,0.00186 0.34894,0.03235 0.90219,0.06711c1.00164,0.06246 2.92499,-0.06284 3.84,-0.32143c0.5051,-0.14333 0.54395,-0.19222 0.08663,-0.10801c-0.8295,0.15281 -2.5569,0.31715 -4.33655,0.33462c-0.19576,0.01376 -0.41605,0.02603 -0.49227,0.0277zM173.82873,369.37767c-1.0035,-0.07046 -3.08078,-0.45044 -4.14117,-0.68319c-0.58522,-0.12864 -1.09311,-0.20356 -1.13382,-0.16824c-0.07492,0.06284 -0.2229,0.19055 -0.29596,0.25469c-0.03997,0.03625 0.4326,0.16248 1.0563,0.28313c1.12992,0.21955 3.35982,0.41345 4.43954,0.3982c0.59638,-0.00762 0.62947,-0.04629 0.07492,-0.08477zM167.94417,366.43725c-0.24074,0.13032 -0.72112,0.39318 -1.20428,0.65122c-0.18813,0.10113 -0.42925,0.20877 -0.538,0.24074c-0.06228,0.02807 -0.06507,0.10262 -0.00874,0.16657c0.10355,0.11656 0.31194,0.34782 0.41661,0.46234c0.05763,0.06451 0.12641,0.1002 0.153,0.08068c0.04815,-0.03421 0.14407,-0.10485 0.19222,-0.13906c0.02658,-0.01952 -0.01413,-0.03421 -0.09221,-0.03383c-0.14073,0.00149 -0.39802,-0.35842 -0.15727,-0.5315c0.48483,-0.35098 1.03529,-0.73562 1.22844,-0.86036c0.13794,-0.09277 0.1424,-0.10912 0.01004,-0.03681z" fill="#ffffff"/><path d="M215.9271,332.95397c-0.1002,0.23331 0.14277,0.3402 -0.05744,0.61069c-4.58659,2.53961 -8.05479,7.44317 -13.12732,8.95084c-0.27439,-1.72146 0.27792,-3.74538 -0.57593,-5.25342c-1.17193,0.20226 -0.96502,-0.13273 -1.27585,-0.86315c-5.31626,-0.23182 -10.18077,0.4971 -15.69575,-0.15244c0.33016,-2.10033 -0.12363,-4.66876 0.45769,-6.37274c5.88995,-0.39653 12.17941,0.05521 18.09613,-0.28313c0.13682,-1.52738 -0.01599,-2.9473 -0.30711,-4.31759c0.53484,0.39672 0.56384,-0.27551 0.76852,-0.57797c3.76936,2.80285 7.69135,5.54956 11.71744,8.25891zM210.5324,331.0916c0.13906,0.04722 0.27811,0.09555 0.41493,0.14277c0.06023,-0.11991 0.11991,-0.23981 0.17791,-0.35954c-0.13738,-0.04722 -0.27644,-0.09593 -0.41549,-0.14407c-0.05967,0.11991 -0.11768,0.24112 -0.17735,0.36084zM209.99923,330.69674c0.09481,0.00149 0.55455,-0.25431 0.47294,-0.46959c-0.18125,-0.47963 -1.37828,0.45304 -0.47294,0.46959zM207.89834,331.02374c0.029,-0.67036 0.73729,0.09407 0.76852,-0.57667c-0.37664,-0.17475 -1.63167,0.4246 -0.76852,0.57667zM204.45915,329.62613c-0.20096,0.27049 0.04424,0.37738 -0.058,0.61199c0.18553,0.02287 0.29559,-0.11024 0.50417,-0.03718c0.01747,-0.25246 -0.08496,-0.46308 -0.44617,-0.57462zM196.17273,332.66433c1.55303,-0.2703 2.54705,-1.71365 4.11309,-1.95142c-1.36676,-0.80477 -3.00456,0.98789 -4.11309,1.95142zM188.68011,332.60596c1.27269,-0.24911 2.18231,-1.26321 3.3139,-1.80586c-0.87244,-0.36734 -2.44071,0.95238 -3.3139,1.80586zM186.60265,330.41305c-0.29559,0.55083 -0.17029,0.94755 -0.20468,1.40431c0.45007,0.09221 0.64657,-0.34652 1.09478,-0.25431c-0.32998,-0.37106 -0.26863,-0.88601 -0.88992,-1.14999zM189.86803,333.6472c-1.08548,0.51681 -2.37342,0.60716 -3.58216,0.86984c-0.39188,0.4404 0.23387,0.5051 0.06191,0.86315c1.45599,0.02119 2.36542,-1.11597 3.52025,-1.73298zM188.2728,335.41235c3.32319,-0.18906 5.02439,-3.81342 8.07393,-4.58473c-1.42308,1.72982 -3.93184,2.89896 -6.14873,4.61726c3.2888,-0.71889 5.20248,-2.84542 7.53928,-4.97996c-0.94643,-0.4127 -1.39037,0.23833 -2.33847,-0.17624c-2.80415,1.60304 -4.49029,3.5513 -7.12583,5.12366zM198.10184,334.172c-0.52703,-0.3692 -1.77611,0.88285 -2.6625,0.97636c0.54023,0.39858 1.86497,-0.69639 2.6625,-0.97636zM199.91513,334.99016c1.29184,-0.3824 4.21924,-0.73208 4.66913,-2.16037c-1.0154,0.17642 -1.57162,1.32623 -2.75173,1.15594c0.23758,-0.67204 2.61862,-0.87263 2.57215,-2.27192c-1.37661,0.14928 -2.13751,1.60006 -3.52025,1.73447c0.31269,-1.04942 3.15755,-1.47867 3.33918,-2.85044c-1.25726,-0.21211 -2.25351,0.12809 -3.55353,-0.17308c-2.41562,2.84524 -6.3376,2.5082 -8.84413,5.16251c1.76923,0.01785 2.79988,-1.49782 4.20233,-2.131c1.55229,-0.70271 3.64555,-0.93602 5.08797,-2.45689c0.69899,0.37924 1.16487,0.25933 1.62795,0.14277c-1.92298,1.19368 -3.52006,3.07669 -5.58823,3.96772c0.78228,0.90646 1.85401,-0.72409 2.7824,-0.72409c0.25339,-0.00818 0.15263,0.38054 -0.02305,0.60418c-0.12753,0.03848 -0.23926,0.07622 -0.33016,0.1147c0.1002,0.09091 0.22792,0.01617 0.33016,-0.1147zM201.26534,331.68296c-1.24759,-0.06804 -1.87315,1.17751 -2.92964,1.51752c0.67817,0.31864 2.12449,-0.89085 2.92964,-1.51752zM202.16306,335.78489c2.51842,0.06153 5.33206,-1.20651 6.48093,-2.81958c-1.40226,-0.2703 -1.94844,1.2647 -3.25571,1.19368c-0.22011,-0.60548 1.35151,-0.54581 1.62572,-1.33441c-2.2537,-0.35954 -3.2849,1.86553 -4.85094,2.9605zM203.17512,337.18734c0.61961,0.69955 2.3156,-1.12248 2.78073,-0.7239c0.20468,-1.5415 3.58197,-1.69896 4.81971,-3.39291c-1.9503,0.41791 -4.2291,1.63762 -5.26588,2.81642c-0.68914,0.62352 -1.83653,0.27681 -2.33456,1.30057zM203.56105,338.3747c-0.11768,0.23963 -0.23535,0.47926 -0.35303,0.72074c0.66014,0.27179 1.23384,-0.56366 0.35303,-0.72074zM206.67009,337.97297c-0.65456,0.08589 -1.19926,0.39988 -1.65695,0.902c0.60493,-0.19278 1.33664,-0.11191 1.65695,-0.902zM209.09946,337.96776c0.058,-0.11972 0.11768,-0.23963 0.17568,-0.35935c-0.30878,-0.16657 -0.44003,0.04685 -0.71052,-0.03532c-0.058,0.12121 -0.11768,0.24112 -0.17791,0.36084c0.31101,0.16713 0.44226,-0.04685 0.71275,0.03402zM210.60583,336.38276c-0.47888,0.0013 -1.05425,0.37236 -0.85775,0.75792c0.38259,-0.04871 0.67055,-0.30153 0.85775,-0.75792zM207.96824,336.31602c0.24521,-0.96205 2.22618,-1.40747 3.19566,-2.05831c-0.18125,-0.59452 -1.04663,0.4549 -1.7183,0.03904c-0.76313,1.24034 -2.89078,1.00406 -3.07464,2.3091c0.44598,-0.03718 0.67036,-0.54525 1.18383,-0.43371c-0.42311,0.33184 -0.85943,0.62965 -1.36136,0.79362c0.87486,0.49543 2.43495,-0.72074 3.34457,-1.37345c-0.56384,0.1556 -1.20316,0.15058 -1.56995,0.7239zM212.28193,331.48367c-0.95944,-0.31901 -1.51789,0.21528 -1.95253,1.01224c0.90981,0.20877 1.39799,-0.46959 1.95253,-1.01224zM213.14303,332.20237c-0.69676,-0.12753 -1.07712,0.41326 -1.44837,0.97376c0.47349,-0.3402 1.17026,-0.21713 1.44837,-0.97376z" fill="#fefefe"/><path d="M166.37682,325.82275c-0.33964,-0.0171 -0.65363,-0.07975 -0.9574,-0.18367c-0.11786,-0.04108 -0.21081,-0.11712 -0.27067,-0.21862c-0.10392,-0.07139 -0.18367,-0.16973 -0.23033,-0.28685c-0.63727,-1.63037 -0.23796,-3.55836 -0.03551,-4.31034c0.29856,-1.11634 0.93565,-2.69168 2.28158,-3.87309c0.80403,-0.7055 1.74191,-1.21933 2.64985,-1.71402c0.18609,-0.10373 0.37441,-0.20542 0.56366,-0.30934c2.27229,-1.27139 4.46854,-2.71882 4.18169,-5.14987c-0.17215,-1.46287 -0.96595,-2.74838 -2.18231,-3.54442c-0.07139,-0.00762 -0.1372,-0.01933 -0.20542,-0.02714c-0.15356,-0.01933 -0.30395,-0.04108 -0.45416,-0.04964c-0.24037,-0.01097 -0.43185,0.01078 -0.62333,0.07678c-0.48911,0.16434 -0.96521,0.45435 -1.41639,0.85906c-0.36679,0.32793 -0.67836,0.7055 -1.00945,1.1024c-0.16118,0.19371 -0.32552,0.39077 -0.49766,0.58225c0.09295,0.08756 0.14723,0.20542 0.1504,0.33648c0.00539,0.13404 -0.04424,0.26826 -0.13645,0.36121c-0.32012,0.32793 -0.81016,0.34968 -1.24518,0.32496c-0.10615,-0.00558 -0.21323,-0.0132 -0.31399,-0.02175c-0.08756,-0.00558 -0.17289,-0.01394 -0.24874,-0.01636c-0.04424,-0.00316 -0.08533,-0.00539 -0.12102,-0.00539c-0.4101,0 -0.82782,0.02473 -1.23346,0.04648c-0.35266,0.01636 -0.70773,0.03551 -1.06057,0.04108c-0.04648,0.00762 -0.09072,0.01078 -0.1372,0.01078c-0.05428,-0.00539 -0.10615,-0.01394 -0.15597,-0.03253c-0.01301,0 -0.02473,0 -0.03551,0c-0.09853,-0.00558 -0.19148,-0.03569 -0.28146,-0.09314c-0.82336,-0.52016 -1.79154,-0.71703 -2.6281,-0.83954c-0.32552,-0.04964 -0.50863,-0.36121 -0.51402,-0.62947c-0.10708,-3.63198 3.29791,-6.56087 6.50585,-7.7447c1.49317,-0.55046 3.22969,-0.79064 5.02123,-0.69769c0.10392,0.00539 0.20784,0.01394 0.30934,0.01933c0.30079,-0.00316 0.62649,0.00539 0.94346,0.02175c1.66532,0.08756 3.2189,0.42943 4.61893,1.01707c2.79021,1.16821 5.06789,3.32264 6.25469,5.91282c1.37066,2.99247 1.22566,6.1043 -0.39077,8.3223c-0.82634,1.13494 -1.98841,2.03731 -3.35833,2.61491c-1.31006,0.54655 -2.38532,0.84195 -3.37543,0.92728c-0.12567,0.06284 -0.25431,0.12325 -0.38538,0.17754c-0.57128,0.24651 -1.17286,0.42404 -1.75585,0.59935c-0.145,0.04108 -0.29001,0.08459 -0.43483,0.1279c-0.0303,0.02789 -0.05744,0.05187 -0.07901,0.07975c-0.2651,0.3086 -0.47294,0.70234 -0.62333,1.17305c-0.20858,0.65884 -0.36437,1.34817 -0.44895,2.01016c0.00558,0 0.01394,0.00316 0.02175,0.00539c0.15895,0.04648 0.27904,0.17215 0.32012,0.33425c0.04332,0.16118 0,0.32793 -0.11247,0.44561c-0.2729,0.28387 -0.65586,0.42107 -0.99532,0.54116c-0.15579,0.05503 -0.30079,0.10708 -0.42646,0.16973c-0.42943,0.21007 -0.86129,0.42404 -1.28533,0.64508c-0.12325,0.10931 -0.28462,0.16973 -0.45676,0.16973c-0.15356,0.06284 -0.31473,0.09853 -0.45974,0.13106c-0.06823,0.0171 -0.13645,0.0303 -0.20226,0.04964c-0.41326,0.11489 -0.89159,0.24353 -1.37847,0.33871c-0.49766,0.09853 -1.07768,0.20245 -1.65974,0.17289zM166.73487,338.33752c-0.52257,-0.02714 -0.87207,-0.15579 -1.06671,-0.39077c-0.1279,-0.15597 -0.18293,-0.35582 -0.15579,-0.57444c0.00316,-0.02175 0.00855,-0.04648 0.01394,-0.07139c-0.01078,-0.0132 -0.02473,-0.02398 -0.03551,-0.03792c-0.53335,-0.57983 -0.55287,-1.61103 -0.56905,-2.43662c-0.00223,-0.16118 -0.00539,-0.31157 -0.01078,-0.44338l-0.01933,-0.38835c-0.01636,-0.38835 -0.03495,-0.79306 -0.07901,-1.17844c-0.01078,-0.10392 -0.03253,-0.20542 -0.05428,-0.30934c-0.0171,-0.09314 -0.03569,-0.18293 -0.04964,-0.27607c-0.03569,-0.06284 -0.05428,-0.13404 -0.05744,-0.20784c0,-0.06042 0.01078,-0.12009 0.03253,-0.17215c0.00558,-0.08533 0.01394,-0.16434 0.0303,-0.23572c0.03867,-0.16973 0.16675,-0.28982 0.32793,-0.32012c0.00613,-0.00558 0.01153,-0.01097 0.0171,-0.01636c0.28685,-0.33648 0.61775,-0.62333 0.93806,-0.90237c0.18832,-0.16136 0.37441,-0.32552 0.55194,-0.49766c0.37515,-0.36121 0.78767,-0.35043 1.15111,-0.33871c0.11005,0.00223 0.22476,0.00539 0.34504,-0.00316c0.62333,-0.04108 1.25819,-0.13645 1.87074,-0.22717c0.62649,-0.09537 1.27139,-0.19148 1.91944,-0.23498c0.02789,-0.00316 0.05503,-0.00316 0.08217,-0.00316c0.26287,0.01394 0.47052,0.19148 0.53094,0.44877c0.02714,0.11247 0.02175,0.22959 -0.00855,0.33648c0,0 0.00316,0.00223 0.00316,0.00539c0.07901,0.12028 0.09834,0.2651 0.05187,0.40155c-0.04648,0.145 -0.12623,0.2822 -0.24651,0.41865c0.12028,0.59619 0.10392,1.22268 0.09072,1.82965c-0.00855,0.35043 -0.0171,0.68133 0,1.00071c0.02714,0.53112 0.05744,0.97915 0.16359,1.40635c0.03328,-0.00316 0.06581,-0.00316 0.09611,-0.00316c0.07901,0.00558 0.15579,0.02175 0.22959,0.04964c0.21323,0.08459 0.32793,0.28443 0.29521,0.51383c-0.05187,0.34745 -0.30376,0.52796 -0.48688,0.65902c-0.03792,0.02714 -0.07362,0.05503 -0.10931,0.08459c-0.19687,0.15895 -0.39374,0.33109 -0.59619,0.52796c-0.37998,0.36121 -0.77912,0.68914 -1.22807,0.99867c-0.08756,0.06042 -0.18609,0.08998 -0.28982,0.08459c-0.04889,-0.00242 -0.09853,-0.0132 -0.14184,-0.02956c-0.59619,0.15579 -2.37156,0.59303 -3.53661,0.53261zM166.39839,336.95906c0.10931,0.02789 0.23256,0.04424 0.36902,0.05205c0.40248,0.01933 0.84047,-0.04889 1.22807,-0.10931l0.10466,-0.01617c0.62872,-0.09853 1.19777,-0.21007 1.72796,-0.34187c0.00316,-0.03569 0.00539,-0.06823 0.01078,-0.10076c-0.04108,-0.43799 -0.07678,-0.87523 -0.11154,-1.31322c-0.04648,-0.5248 -0.09072,-1.06597 -0.145,-1.60248c-0.20542,-0.02714 -0.36976,-0.20226 -0.38593,-0.42107c-0.01933,-0.24335 0.05726,-0.48446 0.23256,-0.73339c-0.59377,-0.13422 -1.31786,-0.27607 -2.01797,-0.31176c-0.59396,-0.03012 -1.10798,0.01636 -1.53741,0.13961c0.12864,0.44561 0.15597,0.95963 0.17754,1.38925c0.00855,0.12567 0.01394,0.24112 0.02175,0.34504c0.01394,0.17754 0.02473,0.35507 0.03867,0.53335c0.02491,0.39393 0.05205,0.79845 0.11173,1.18383c0.01692,0.11786 0.04648,0.23796 0.07436,0.35823c0.06823,0.2822 0.145,0.60158 0.10392,0.92487c0,0.00762 -0.00316,0.01636 -0.00316,0.02398zM167.64579,330.90123c0.62649,0.03346 1.24722,0.13961 1.84583,0.24353c0.15579,0.02789 0.30934,0.05503 0.46215,0.07678c0.12864,-0.12325 0.2519,-0.25115 0.38296,-0.38835c0.10708,-0.11154 0.21639,-0.22401 0.32552,-0.33332c-0.05187,0.00762 -0.10373,0.01617 -0.15579,0.02473c-0.71628,0.10931 -1.45748,0.22401 -2.19867,0.26733c-0.30395,0.01636 -0.62947,0.03346 -0.94978,0.01636c-0.02714,0.00316 -0.08143,0.03885 -0.13645,0.08217c0.13645,0 0.27904,0.00316 0.42404,0.01078zM166.06748,324.7118c0.63411,0.03328 1.37828,-0.1504 1.97447,-0.30079l0.06581,-0.01636c0.38835,-0.09537 0.77131,-0.20226 1.13735,-0.31473c0.05744,-0.01636 0.1147,-0.03792 0.17289,-0.05967c0.00539,-0.00316 0.01078,-0.00558 0.01636,-0.00855c0.00223,-0.09295 0.00223,-0.18609 0.00539,-0.28146c0.01859,-1.37605 0.04108,-2.93745 1.25205,-3.94913c0.94104,-0.78525 2.07616,-1.18457 3.1622,-1.52329c0.17995,-0.09853 0.36363,-0.15597 0.54655,-0.16675l0.21862,-0.06897c0.35898,-0.10931 0.71703,-0.24335 1.06671,-0.39374c0.06042,-0.04666 0.12567,-0.07603 0.19687,-0.09537l0.03885,-0.01097c1.74191,-0.80161 3.05754,-2.05441 3.89168,-3.71656c0.07901,-0.15895 0.15597,-0.32328 0.22643,-0.49227c-0.03253,-0.11247 -0.02175,-0.23554 0.04108,-0.34727c0.06284,-0.11545 0.1372,-0.23015 0.22717,-0.35043c0.44022,-1.30708 0.60456,-2.75136 0.47052,-4.12127c-0.21639,-0.02789 -0.3798,-0.21397 -0.37441,-0.43483c0.00539,-0.30618 0.03792,-0.63188 0.10615,-1.04737c-0.59303,-2.2102 -1.98005,-3.89168 -3.91102,-4.73977c-1.55043,-0.68152 -3.25683,-1.08846 -4.93906,-1.17602c-1.85977,-0.09611 -3.60967,0.20784 -5.05934,0.88062c-1.1156,0.51718 -4.69553,2.43123 -5.07328,5.74606c0.71405,0.15597 1.29072,0.35284 1.80474,0.61552c0.14259,-0.35359 0.40229,-0.72799 0.78767,-1.1381c0.74658,-0.79622 1.65528,-1.52645 2.62587,-2.11724c1.03102,-0.62556 2.27229,-0.9349 3.49478,-0.87207c1.33199,0.06823 2.58776,0.57686 3.53661,1.42792c1.88691,1.68688 2.89859,4.82677 1.33199,7.16245c-1.10482,1.64115 -2.81958,2.59018 -4.47709,3.50556c-0.45658,0.25208 -0.93026,0.51476 -1.37308,0.78228c-1.38144,0.83712 -2.32713,1.92576 -2.80322,3.23824c-0.29317,0.80384 -0.45435,1.59151 -0.47833,2.34126c-0.01394,0.43185 0.0132,0.85906 0.04648,1.31024c0.01636,0.23796 0.03253,0.48372 0.04034,0.73264h0.00316zM172.30042,320.29754c-0.64564,0.36121 -1.05816,0.77447 -1.27455,1.27455c0.04332,-0.04332 0.08459,-0.08682 0.12325,-0.13106c0.04648,-0.05187 0.10076,-0.12325 0.16118,-0.19687c0.24892,-0.31715 0.55511,-0.70866 0.94587,-0.76053c0.01394,0 0.03885,-0.00223 0.05744,-0.00223c0.02473,-0.07901 0.05205,-0.15895 0.07994,-0.23572c-0.0303,0.01692 -0.06284,0.03328 -0.09314,0.05187zM182.86545,313.01183c-0.27904,0.28982 -0.56124,0.58299 -0.83954,0.87281c-0.11786,0.12028 -0.23572,0.25115 -0.35582,0.38538c-0.06581,0.07678 -0.13422,0.15356 -0.20542,0.23015c0.76369,-0.59377 1.31024,-1.14033 1.71253,-1.72016c0.01636,-0.04424 0.0303,-0.08756 0.04332,-0.13422c-0.11693,0.12325 -0.23479,0.24353 -0.35507,0.36604zM182.98015,309.94649c0.11489,0.05205 0.21007,0.14184 0.26826,0.25431c0.07901,0.16434 0.06507,0.35823 -0.04424,0.51718l-0.09853,0.14723c-0.24576,0.36902 -0.5116,0.76592 -0.80384,1.14888c0.22178,-0.21639 0.72167,-0.69992 0.72167,-0.69992c0.10931,-0.10708 0.24669,-0.16136 0.39151,-0.15356c0.02417,0 0.04666,0.00316 0.06823,0.00855c0.04108,-0.64583 -0.00558,-1.30466 -0.13961,-1.96369c-0.10931,0.24576 -0.22959,0.49469 -0.36363,0.74101zM164.5797,308.50537c-0.04964,0.06823 -0.09072,0.12864 -0.12028,0.18293c0.10392,-0.01933 0.20784,-0.03551 0.30841,-0.04889c-0.05726,-0.03885 -0.11154,-0.07678 -0.16899,-0.11786c-0.00855,-0.00539 -0.01394,-0.01078 -0.01933,-0.01617zM182.93907,308.2425c0.05428,0.00316 0.10615,0.01394 0.1582,0.03253c-0.05428,-0.16359 -0.11489,-0.32793 -0.17754,-0.48911c-0.03792,0.16434 -0.07901,0.32012 -0.12567,0.47052c0.04648,-0.01078 0.09537,-0.01636 0.14482,-0.01394zM181.72512,306.53294c0.07901,0.25971 0.14723,0.52573 0.20468,0.79622c0.02714,-0.10392 0.05187,-0.21081 0.07362,-0.31715c0.03569,-0.19687 0.16973,-0.34187 0.34504,-0.39374c-0.18051,-0.31473 -0.37757,-0.61868 -0.58522,-0.91092c0,0.28685 -0.01097,0.56589 -0.03792,0.82559zM169.46466,305.49096c0.05744,0.03569 0.10931,0.07362 0.15802,0.11786c0.03569,-0.01933 0.07139,-0.04406 0.10708,-0.06581c-0.01636,-0.01933 -0.03328,-0.04108 -0.04648,-0.06581c-0.07436,0.00316 -0.145,0.00855 -0.21862,0.01394zM180.95381,304.68935c0.06284,0.11786 0.12567,0.23572 0.18609,0.35582c0.03253,-0.00855 0.06823,-0.01394 0.10392,-0.01617c-0.09611,-0.11489 -0.19148,-0.22717 -0.29001,-0.33964z" fill="#fefefe"/><path d="M177.09503,342.42236c2.44257,-0.35359 5.05599,0.86705 5.99145,3.25088c0.86073,1.90383 0.5789,4.35365 -0.97283,5.82972c-1.56418,1.48796 -4.01605,1.89472 -5.97212,0.97859c-0.60251,-0.28239 -1.14758,-0.67538 -1.61995,-1.14349c-0.5947,0.37534 -1.19015,0.75941 -1.82166,1.06857c-0.04908,0.76294 -0.97543,1.40226 -1.49466,1.85382c-1.13847,0.98956 -2.4448,1.76384 -3.68161,2.62011c-0.57704,0.37757 -1.41435,1.05165 -2.16149,0.80533c-0.57816,-0.19055 -1.36285,-1.20093 -1.40765,-1.80865c-0.06414,-0.86296 0.83191,-1.57906 1.44539,-2.01574c1.24629,-0.88713 2.56546,-1.77295 3.89522,-2.52809c0.67706,-0.38389 1.47607,-0.99123 2.27415,-0.65717c0.58373,-0.34355 1.11467,-0.77001 1.69153,-1.12471c-0.38668,-0.82188 -0.59619,-1.72499 -0.57258,-2.63405c0.06525,-2.55244 1.98284,-4.14451 4.40682,-4.49512zM180.83019,345.75838c0.00093,0.00353 0.00093,0.00706 0.00167,0.01022c0.00502,0.01431 0.00911,0.02993 0.01134,0.04648c0.05893,0.40397 -0.28499,0.77168 -0.69174,0.73729c-0.42516,-0.03551 -0.66888,-0.47015 -0.52666,-0.86184c0.08533,-0.23535 0.33128,-0.37329 0.57221,-0.39895c0.31157,-0.03346 0.55603,0.17252 0.63337,0.46662zM180.03397,345.90655c-0.00632,0.06804 0.01413,0.13645 0.07455,0.17326c0.15263,0.09388 0.29875,-0.0554 0.28685,-0.20635c-0.02547,-0.0818 -0.05651,-0.13199 -0.1305,-0.13571c-0.06785,-0.00353 -0.15467,0.03458 -0.20394,0.07938c-0.0039,0.00465 -0.00744,0.00874 -0.00855,0.01134c-0.00911,0.02045 -0.01617,0.05633 -0.0184,0.07826zM180.0665,345.81136c0.01022,-0.00967 0.00744,-0.00706 0,0zM181.41429,347.55792c0.18274,1.13698 -0.27551,2.25816 -1.12992,3.00102c-0.26844,0.1965 -0.71015,0.45044 -1.0206,0.18832c-0.24056,-0.20356 -0.18869,-0.54953 -0.02714,-0.77466c0.15411,-0.21528 0.39653,-0.35303 0.56087,-0.56291c0.22922,-0.29354 0.36437,-0.65642 0.44412,-1.0167c0.0963,-0.4339 -0.05075,-0.93881 0.07157,-1.34593c0.07027,-0.23424 0.33277,-0.43464 0.58132,-0.38947c0.37032,0.06692 0.47052,0.5947 0.51978,0.90033zM180.76438,347.84105c-0.02175,0.45509 -0.11526,0.9204 -0.30785,1.33608c-0.10894,0.23535 -0.25227,0.46253 -0.42553,0.65586c-0.05335,0.0593 -0.12976,0.10968 -0.17605,0.17456c-0.13404,0.18832 -0.32886,0.54823 0.16471,0.18665c0.59619,-0.51867 0.94401,-1.23681 0.97692,-2.03099c0.00539,-0.12772 -0.03532,-1.05555 -0.24316,-0.88155c-0.03607,0.03049 0.01487,0.4787 0.01097,0.55957zM181.68237,345.35553c1.19275,1.90364 0.87449,4.95133 -1.27399,6.05187c-2.05348,1.05202 -4.62767,-0.02361 -5.87415,-1.8185c-1.38386,-1.99288 -1.00369,-4.27037 1.20186,-5.44973c1.99157,-1.06504 4.64366,-0.69472 5.94609,1.21636zM174.24124,346.32929c-0.36028,1.04031 0.06209,2.13714 0.65791,2.99508c1.06355,1.53258 3.20217,2.53497 5.02773,1.80976c2.11037,-0.83842 2.50113,-3.74185 1.39055,-5.51387c-1.06188,-1.55824 -3.09695,-1.97205 -4.8277,-1.32846c-0.92672,0.34466 -1.91238,1.06615 -2.24868,2.03768zM169.32096,352.01307c-1.29425,0.78916 -2.698,1.60657 -3.87551,2.56174c-0.45397,0.36827 -0.81388,0.66497 -0.76313,1.26042c0.03495,0.40899 0.25822,0.76164 0.57741,1.02693c0.01171,0.00948 0.02361,0.01617 0.03532,0.02491c-0.01301,-0.06525 -0.02212,-0.13125 -0.03941,-0.19613c-0.03067,-0.11712 0.00985,-0.24483 0.13236,-0.29001c0.10503,-0.03885 0.25896,0.01338 0.29001,0.13199c0.04629,0.17679 0.08105,0.35452 0.10503,0.5341c0.09834,0.00204 0.19687,-0.01264 0.29484,-0.0409c0.01524,-0.36641 0.01338,-0.73264 -0.00744,-1.09887c-0.01655,-0.28852 0.43185,-0.33481 0.4484,-0.04443c0.01803,0.31232 0.01822,0.62407 0.01153,0.93639c0.09202,-0.05466 0.18311,-0.11396 0.27309,-0.17493c-0.00911,-0.36753 -0.01803,-0.73506 -0.02677,-1.10277c-0.00669,-0.28796 0.44152,-0.33481 0.44821,-0.04406c0.00706,0.28183 0.01376,0.56403 0.02045,0.84586c0.08812,-0.06079 0.17642,-0.12065 0.26491,-0.18014c0.04945,-0.37757 0.0738,-0.75607 0.06172,-1.13735c-0.00874,-0.28815 0.43947,-0.33481 0.44877,-0.04406c0.00874,0.28499 0.00074,0.56979 -0.02156,0.85348c0.145,-0.0963 0.29001,-0.1926 0.43501,-0.28908c0.01097,-0.36195 -0.00112,-0.72353 -0.03607,-1.08363c-0.02789,-0.28852 0.42051,-0.3337 0.44877,-0.04443c0.02658,0.27588 0.03495,0.55139 0.03607,0.82764c0.08031,-0.05428 0.16099,-0.10894 0.24093,-0.16378c-0.00911,-0.35024 -0.01785,-0.70067 -0.02714,-1.05128c-0.00744,-0.28796 0.44096,-0.33481 0.4484,-0.04406c0.00669,0.26249 0.01376,0.52536 0.02045,0.78786c0.07864,-0.05577 0.15634,-0.11284 0.23424,-0.16973c-0.00297,-0.02268 -0.00316,-0.04666 0.00204,-0.07269c0.08254,-0.42572 0.11507,-0.85366 0.09277,-1.28682c-0.01487,-0.28852 0.43352,-0.33481 0.44821,-0.04406c0.01729,0.34187 0.00502,0.68263 -0.03699,1.02098c0.09462,-0.07362 0.18739,-0.14965 0.27978,-0.22587c0.02603,-0.42683 0.00093,-0.85088 -0.07455,-1.27287c-0.05075,-0.28536 0.39765,-0.32849 0.4484,-0.04406c0.0554,0.30934 0.08031,0.62017 0.08366,0.93174c0.08607,-0.07269 0.17382,-0.14779 0.26064,-0.22587c-0.00539,-0.32812 -0.03699,-0.65308 -0.09909,-0.9758c-0.05466,-0.28462 0.39393,-0.32737 0.4484,-0.04406c0.03625,0.18832 0.06209,0.37757 0.07901,0.56775c0.25673,-0.3415 0.37775,-0.7306 0.12734,-1.19033c-0.57258,-1.05054 -1.84899,-0.14984 -2.53887,0.27067zM172.09742,351.05623c0.20319,0.20988 0.37645,0.47033 0.48502,0.73878c0.52592,-0.26677 1.02693,-0.58782 1.52589,-0.90423c-0.21026,-0.25376 -0.39839,-0.52555 -0.56626,-0.80923c-0.49171,0.30916 -0.95256,0.66683 -1.44465,0.97469zM174.09271,349.84136c1.30095,2.12412 3.91827,3.15105 6.25376,2.11947c2.36245,-1.04366 3.22076,-3.76973 2.17729,-6.07697c-0.98175,-2.50225 -3.88332,-3.39718 -6.29949,-2.65785c-2.96738,0.90795 -3.65986,4.12034 -2.13156,6.61534z" fill="#ffffff"/><path d="M216.68744,314.47321c0,4.78234 -4.51093,8.67273 -10.05417,8.67273c-0.9771,0 -1.94324,-0.12046 -2.87424,-0.35991c-0.80105,1.18848 -1.79954,2.62532 -2.18547,2.99917c-0.21844,0.21304 -0.42739,0.28239 -0.62036,0.20598c-0.36195,-0.14147 -0.42126,-0.74287 -0.4272,-0.97394c0.20524,-1.09292 0.41122,-2.18659 0.61608,-3.27951c-2.85992,-1.61047 -4.56298,-4.31591 -4.56298,-7.26451c0,-4.78216 4.51093,-8.67291 10.05417,-8.67291c5.54324,0 10.05417,3.89075 10.05417,8.67291z" fill="#ffffff"/><path d="M202.14522,351.57081c0.18442,-0.2071 0.38482,-0.37478 0.60623,-0.51476c0.08644,-0.05391 0.18218,-0.07418 0.27737,-0.06023c0.09853,-0.02956 0.20189,-0.02993 0.30005,0.00037c1.36211,0.42832 2.38364,1.66792 2.75805,2.18101c0.55696,0.76053 1.23253,1.97094 1.29555,3.43046c0.03755,0.87188 -0.11545,1.73075 -0.2651,2.56062c-0.02919,0.1714 -0.06098,0.34318 -0.09146,0.51644c-0.35359,2.09438 -0.55622,4.2304 1.13568,5.29097c1.01782,0.63858 2.24087,0.79102 3.36874,0.42497c0.04146,-0.04146 0.08254,-0.07734 0.12232,-0.11675c0.09072,-0.08756 0.18144,-0.17215 0.2638,-0.26324c0.12976,-0.14723 0.21397,-0.28016 0.26993,-0.43538c0.14556,-0.39504 0.20468,-0.84586 0.17809,-1.33943c-0.02101,-0.40081 -0.10169,-0.79194 -0.18479,-1.20539c-0.04071,-0.20152 -0.08198,-0.40675 -0.11563,-0.61404c-0.10336,0.01431 -0.20598,-0.01134 -0.29075,-0.07641c-0.08793,-0.06507 -0.14798,-0.16527 -0.15988,-0.27142c-0.0448,-0.37125 0.19185,-0.69379 0.42999,-0.95758c0.05782,-0.06469 0.11749,-0.12883 0.17438,-0.18851c0.04815,-0.05298 0.09723,-0.10262 0.13757,-0.14984c0.02454,-0.02658 0.04703,-0.05131 0.06525,-0.07418c0.2097,-0.26064 0.4075,-0.53893 0.60102,-0.80775c0.16991,-0.23256 0.33927,-0.4681 0.51607,-0.69509c0.01896,-0.03346 0.03941,-0.06321 0.06339,-0.09277c0.03123,-0.03179 0.06302,-0.06042 0.10039,-0.08235c0.00669,-0.00837 0.01264,-0.0158 0.01822,-0.02268c0.05391,-0.05986 0.12065,-0.10355 0.20319,-0.13125c0.7516,-0.25729 1.37177,-0.77224 1.87724,-1.24127c0.19799,-0.18163 0.48967,-0.13868 0.66293,-0.00483c2.36338,1.78894 2.4844,5.45066 1.59672,8.09494c-0.41345,1.23049 -1.14851,2.45726 -2.12356,3.54851c-0.05651,0.06339 -0.11526,0.12493 -0.17066,0.18665c-0.15188,0.19278 -0.32366,0.39541 -0.49617,0.58857c-0.90702,1.01373 -1.91851,1.82649 -3.0079,2.41618c-2.16911,1.17639 -4.70296,1.52254 -6.95629,0.95294c-2.60301,-0.65865 -4.50684,-2.34163 -5.09038,-4.50312c-0.29893,-1.10556 -0.27848,-2.30556 0.05484,-3.47154c0.32236,-1.11225 0.68431,-1.94677 1.13624,-2.61955c0.02435,-0.11191 0.05168,-0.22476 0.08403,-0.33574c0.13534,-0.48911 0.33016,-0.96242 0.51681,-1.42253c0.04796,-0.11321 0.09462,-0.22754 0.14091,-0.34187c-0.00223,-0.03346 -0.00353,-0.06302 -0.01022,-0.09109c-0.06079,-0.32626 -0.20486,-0.65977 -0.42702,-0.99588c-0.31213,-0.4694 -0.67055,-0.92078 -1.0483,-1.31303c-0.00279,0.00353 -0.00911,0.00725 -0.0145,0.01097c-0.11098,0.07734 -0.25208,0.08942 -0.37627,0.03272c-0.12455,-0.05484 -0.2084,-0.16768 -0.22587,-0.2993c-0.0409,-0.31864 0.06767,-0.63207 0.1649,-0.90944c0.04462,-0.12716 0.08589,-0.24595 0.11005,-0.35786c0.08607,-0.38054 0.17084,-0.76443 0.24706,-1.14683c-0.00632,-0.13422 0.03755,-0.2677 0.12567,-0.37701c0.03848,-0.12976 0.09816,-0.25041 0.1517,-0.35916c0.02398,-0.05205 0.05057,-0.10225 0.07194,-0.15393c0.13831,-0.32124 0.30116,-0.69119 0.48948,-1.04942c0.19185,-0.36679 0.42218,-0.78841 0.73859,-1.14349zM194.00696,345.40015c0.28443,-0.31827 0.54488,-0.47461 0.79362,-0.47833c0.16452,-0.00167 0.31975,0.06562 0.44486,0.19464c0.01227,0.01301 0.02528,0.02919 0.03811,0.04536c0.01394,-0.00019 0.02789,-0.00353 0.04239,-0.00316c0.64136,-0.04257 1.30671,0.47219 1.83988,0.88397c0.10373,0.08105 0.20096,0.15597 0.28741,0.21992l0.25673,0.18627c0.25524,0.18813 0.52201,0.38333 0.78953,0.55213c0.07157,0.04629 0.14723,0.08421 0.22438,0.12363c0.06804,0.03662 0.13459,0.07083 0.20077,0.1095c0.05819,0.00948 0.11303,0.03402 0.16155,0.06971c0.03848,0.03086 0.07083,0.06823 0.09277,0.10857c0.0515,0.04703 0.09723,0.09295 0.13441,0.1398c0.08812,0.11136 0.09909,0.25413 0.03588,0.37218c0.00037,0.00669 0.00093,0.01283 0.00167,0.01915c0.0673,0.35433 0.08031,0.71126 0.09407,1.0576c0.00613,0.20226 0.01543,0.40452 0.03421,0.6053c0.03774,0.42311 -0.17995,0.67985 -0.37329,0.90497c-0.05782,0.06878 -0.11842,0.14017 -0.17438,0.22085c-0.29261,0.41717 -0.55659,0.86947 -0.81202,1.30522c-0.25952,0.44691 -0.52834,0.90609 -0.83191,1.34017c-0.01227,0.01933 -0.02621,0.03662 -0.04015,0.05391c-0.14314,0.15988 -0.36214,0.20115 -0.55678,0.10801c-0.08533,-0.04015 -0.15709,-0.10355 -0.20951,-0.17735c0,0 -0.00297,0.00074 -0.00502,-0.00074c-0.11675,-0.01115 -0.21881,-0.07306 -0.28183,-0.17233c-0.06841,-0.10373 -0.11489,-0.22457 -0.14017,-0.37069c-0.4404,-0.22847 -0.83024,-0.55901 -1.2093,-0.87765c-0.21844,-0.1846 -0.42442,-0.35935 -0.63616,-0.51179c-0.35154,-0.25431 -0.65177,-0.46401 -0.97766,-0.61497c-0.01506,0.02287 -0.03179,0.0435 -0.04703,0.06265c-0.04406,0.04759 -0.09351,0.08793 -0.14891,0.12046c-0.16266,0.09221 -0.34838,0.06302 -0.47758,-0.07492c-0.19427,-0.21063 -0.18033,-0.46308 -0.16991,-0.64638c0.00223,-0.03792 0.00279,-0.07492 0.00223,-0.11266c-0.00037,-0.20635 -0.00911,-0.41958 -0.03086,-0.6488c-0.03532,-0.42627 -0.03978,-0.84753 -0.00688,-1.29128c0.00632,-0.08644 0.03792,-0.16415 0.09444,-0.22736c0.02658,-0.02993 0.05875,-0.05596 0.09128,-0.07529c0.20579,-0.45844 0.83545,-1.81069 1.46956,-2.52047zM195.05508,345.89112c-0.07362,0.05521 -0.14705,0.1253 -0.22178,0.20802c-0.21806,0.24595 -0.39858,0.55919 -0.55827,0.83656l-0.04313,0.07473c-0.25878,0.45007 -0.47888,0.86872 -0.66609,1.27325c0.02119,0.02026 0.04053,0.0383 0.05856,0.05837c0.29949,0.1978 0.59563,0.39876 0.89196,0.60047c0.35749,0.23888 0.7239,0.48725 1.09274,0.72706c0.12214,-0.11675 0.31771,-0.13162 0.46494,-0.03012c0.16452,0.11229 0.27867,0.28424 0.34727,0.52276c0.38891,-0.30878 0.8492,-0.69658 1.22975,-1.12322c0.32273,-0.36214 0.55603,-0.71256 0.69732,-1.04868c-0.34912,-0.14612 -0.68988,-0.39151 -0.97394,-0.59749c-0.08421,-0.05875 -0.16025,-0.11433 -0.23033,-0.16266c-0.11991,-0.08198 -0.23833,-0.16564 -0.35879,-0.24799c-0.26305,-0.18553 -0.5341,-0.37515 -0.80961,-0.53428c-0.08366,-0.04945 -0.17493,-0.09202 -0.26565,-0.13589c-0.21416,-0.10095 -0.45658,-0.21528 -0.64099,-0.40675c-0.00483,-0.0039 -0.00874,-0.01022 -0.01376,-0.01413zM198.26803,349.78113c-0.3415,0.3811 -0.72651,0.72149 -1.0985,1.04886c-0.09741,0.08477 -0.19315,0.16843 -0.28499,0.2545c0.01246,0.14482 0.03086,0.28852 0.05112,0.44208c0.01636,0.12493 0.03179,0.25208 0.04536,0.37738c0.02175,-0.03681 0.04276,-0.07418 0.06395,-0.11173c0.29689,-0.51123 0.6027,-1.04087 0.95405,-1.53425c0.145,-0.20152 0.3006,-0.41717 0.47517,-0.61199c0.01171,-0.01878 0.01692,-0.07157 0.01747,-0.12864c-0.06971,0.08663 -0.14463,0.17586 -0.22364,0.26417zM203.00929,351.94206c-0.34522,0.38612 -0.60902,0.95294 -0.81834,1.40896l-0.02324,0.05019c-0.13794,0.29577 -0.26584,0.59377 -0.38147,0.88397c-0.01896,0.0448 -0.03458,0.09221 -0.05038,0.14036c-0.00074,0.00502 -0.00204,0.00967 -0.00297,0.01469c0.05782,0.04908 0.11712,0.09667 0.17605,0.14723c0.86519,0.71535 1.8462,1.52793 1.87018,2.81494c0.01803,0.99978 -0.30841,1.92521 -0.64843,2.78872c-0.02937,0.16471 -0.08682,0.31083 -0.17345,0.43278l-0.06785,0.17419c-0.11396,0.28406 -0.21193,0.58039 -0.29503,0.87932c-0.0013,0.06228 -0.01599,0.11879 -0.03997,0.17382l-0.01283,0.0303c-0.3811,1.51715 -0.25729,2.99396 0.37273,4.37373c0.06042,0.13143 0.12586,0.26435 0.19706,0.3956c0.08812,0.03681 0.16099,0.10671 0.19985,0.20375c0.04127,0.09909 0.07622,0.20486 0.10652,0.32366c0.60567,0.9481 1.43982,1.79099 2.37918,2.40595c0.12827,-0.12325 0.33016,-0.13199 0.46792,-0.01562c0.19185,0.15988 0.38203,0.34708 0.61143,0.60307c1.70826,0.75291 3.48604,0.73097 5.01249,-0.06284c1.22584,-0.63727 2.35687,-1.51362 3.27263,-2.53831c1.01187,-1.13308 1.71328,-2.40075 2.02671,-3.66637c0.24167,-0.97357 0.85534,-4.22761 -1.05872,-6.16248c-0.4642,0.37422 -0.88415,0.64025 -1.31415,0.83247c0.15188,0.27142 0.2571,0.62798 0.32087,1.08251c0.12437,0.88174 0.12418,1.83244 0.00335,2.75154c-0.12957,0.97524 -0.56737,1.92223 -1.23235,2.66733c-0.72428,0.81184 -1.68967,1.35002 -2.71585,1.51808c-2.03693,0.33704 -4.54996,-0.62519 -5.23371,-2.81512c-0.47833,-1.54132 -0.20486,-3.11647 0.06042,-4.63827c0.07325,-0.41902 0.14835,-0.85441 0.20468,-1.27269c0.17419,-1.30615 -0.03439,-2.46377 -0.62519,-3.43734c-0.36121,-0.5973 -0.77949,-1.1024 -1.24369,-1.50098c-0.26733,-0.22959 -0.55269,-0.43074 -0.85664,-0.64025c-0.15969,-0.11136 -0.32403,-0.22662 -0.48632,-0.34875l-0.00167,0.00186zM202.62875,358.16087c0.10057,-0.59507 0.04871,-1.06857 -0.15857,-1.46175c0.00539,0.04982 0.0119,0.09816 0.02026,0.14538c0.00911,0.05614 0.02677,0.12716 0.04276,0.20319c0.07436,0.32031 0.16675,0.71517 -0.00019,0.98993c-0.00706,0.00892 -0.0184,0.02584 -0.02789,0.03755c0.03755,0.05614 0.07455,0.11433 0.10894,0.17122c0.00465,-0.02789 0.01097,-0.05689 0.01469,-0.0857zM201.85856,368.60153c-0.04164,-0.32552 -0.08366,-0.65475 -0.12567,-0.98008c-0.01617,-0.13627 -0.03923,-0.27811 -0.06302,-0.42311c-0.01506,-0.08105 -0.029,-0.16378 -0.04127,-0.24837c-0.01283,0.78897 0.05503,1.41583 0.21788,1.96796c0.01989,0.0329 0.04015,0.06395 0.06321,0.09611c-0.01859,-0.13738 -0.03476,-0.27383 -0.05112,-0.41289zM203.74844,370.24156c-0.09165,0.04648 -0.19761,0.06098 -0.29875,0.04053c-0.14482,-0.03383 -0.26101,-0.14166 -0.30618,-0.29242l-0.04332,-0.13794c-0.10894,-0.34485 -0.22531,-0.71684 -0.31938,-1.09831c0.02417,0.25153 0.07603,0.81667 0.07603,0.81667c0.01208,0.12418 -0.02361,0.23926 -0.10262,0.32737c-0.01227,0.01543 -0.02584,0.02807 -0.04034,0.03904c0.38947,0.35619 0.8321,0.66349 1.31954,0.9152c-0.10039,-0.19501 -0.19706,-0.39876 -0.28517,-0.60995zM214.0718,359.28205c-0.01803,-0.06637 -0.03551,-0.12344 -0.05484,-0.16991c-0.04071,0.07603 -0.08366,0.15021 -0.12679,0.22104c0.05391,-0.01655 0.10596,-0.03179 0.16136,-0.04722c0.00781,-0.0026 0.01394,-0.00335 0.02026,-0.00409zM204.85252,371.08667c-0.02974,0.0329 -0.06302,0.06042 -0.1015,0.08384c0.13162,0.04926 0.26714,0.09462 0.40174,0.13738c-0.08514,-0.1082 -0.16304,-0.21397 -0.23498,-0.32031c-0.01692,0.03514 -0.03848,0.06897 -0.06525,0.09927zM206.55984,371.18892c-0.20542,-0.08254 -0.40954,-0.17512 -0.61069,-0.27699c0.05205,0.07046 0.10745,0.14091 0.16397,0.20895c0.10689,0.12325 0.1305,0.28257 0.07399,0.42051c0.29242,0.0461 0.58634,0.07622 0.87839,0.09351c-0.18237,-0.14668 -0.35414,-0.29614 -0.50547,-0.44617zM213.49029,363.92812c-0.05205,0.01822 -0.10262,0.03179 -0.15579,0.04034c-0.00595,0.03253 -0.00855,0.06785 -0.01283,0.10169c0.02064,-0.00056 0.04313,-0.00019 0.06562,0.00409c0.03607,-0.04889 0.06878,-0.09667 0.10299,-0.14612zM208.12607,371.64104c-0.10708,-0.02026 -0.21397,-0.04053 -0.32124,-0.06358c-0.01115,0.0251 -0.02603,0.05057 -0.04276,0.07436c0.12214,-0.00242 0.24223,-0.00558 0.36418,-0.01078z" fill="#fefefe"/><path d="M203.13162,287.43164c0.15318,0.20263 0.36641,0.04424 0.50212,0.35229c-0.06339,5.24245 2.48124,10.68289 1.28068,15.83685c-1.63167,-0.61385 -3.11703,-2.09531 -4.85001,-2.09977c-0.40415,1.11858 -0.59303,0.7728 -1.38144,0.68152c-2.83241,4.50479 -4.60667,9.09249 -7.90049,13.56326c-1.6616,-1.32641 -4.11811,-2.20313 -5.31105,-3.55167c2.57029,-5.31421 6.07567,-10.55592 8.70991,-15.86455c-1.2593,-0.87486 -2.5688,-1.44483 -3.90358,-1.86999c0.6092,-0.26844 0.0396,-0.62631 -0.12195,-0.95387c4.30104,-1.88803 8.62885,-3.93667 12.97563,-6.09426zM198.84303,291.19784c0.10987,-0.09741 0.22067,-0.19427 0.32942,-0.28982c-0.07436,-0.11173 -0.14891,-0.2229 -0.22438,-0.33258c-0.10912,0.09593 -0.22029,0.1926 -0.33091,0.28964c0.07473,0.11117 0.15132,0.2216 0.22587,0.33277zM198.23606,291.46554c0.04796,-0.08161 0.05335,-0.60753 -0.174,-0.64322c-0.50658,-0.08012 -0.28852,1.42178 0.174,0.64322zM197.48036,293.45303c-0.56812,-0.35693 0.44672,-0.59414 -0.12065,-0.95312c-0.33834,0.24074 -0.43854,1.62795 0.12065,0.95312zM194.56393,295.75004c0.13571,0.30823 0.34987,0.14816 0.50305,0.35321c0.11173,-0.15002 0.05057,-0.31139 0.21713,-0.45658c-0.21063,-0.14017 -0.44431,-0.1556 -0.72019,0.10318zM193.10292,304.45381c0.53354,-1.48332 -0.22866,-3.06126 0.33983,-4.53993c-1.37568,0.78953 -0.62854,3.09974 -0.33983,4.53993zM189.34397,310.93567c0.41326,-1.22937 -0.01766,-2.52177 0.07083,-3.77345c-0.75086,0.57648 -0.38017,2.59241 -0.07083,3.77345zM186.41024,311.6553c0.33239,0.52945 0.73896,0.61682 1.11895,0.87281c0.30284,-0.34522 0.01878,-0.7332 0.32087,-1.07712c-0.48558,0.10336 -0.90274,-0.20486 -1.43963,0.20431zM190.83676,310.41886c-0.08812,1.19889 -0.64694,2.36301 -1.01689,3.54312c0.18851,0.55845 0.55436,0.04685 0.78042,0.37329c0.73915,-1.25466 0.20096,-2.60747 0.23647,-3.91641zM191.58093,312.67814c1.48034,-2.98113 -0.82689,-6.2532 0.01208,-9.28472c0.79864,2.09289 0.57295,4.85131 0.96892,7.62814c1.00294,-3.21351 0.10243,-5.9288 -0.596,-9.01572c-0.82689,0.61813 -0.48112,1.32604 -1.31043,1.94473c0.00521,3.23024 0.8637,5.65943 0.92542,8.72775zM195.36758,303.52374c-0.5815,0.27532 -0.1121,1.98023 -0.46922,2.79672c0.61348,-0.27216 0.31789,-1.96518 0.46922,-2.79672zM196.97582,302.35255c0.30711,-1.31173 1.45208,-4.02869 0.43371,-5.12645c-0.34931,0.96967 0.37459,2.02206 -0.35749,2.96329c-0.46643,-0.53912 0.53782,-2.7073 -0.70104,-3.35944c-0.55176,1.27009 0.33239,2.64911 -0.23517,3.91715c-0.75737,-0.79083 0.27774,-3.47526 -0.82429,-4.31201c-0.80645,0.9877 -1.00387,2.02169 -1.90903,3.00233c1.27678,3.50724 -0.95703,6.74845 0.10894,10.24007c0.89103,-1.52849 0.08403,-3.17429 0.2281,-4.70612c0.15746,-1.69692 0.99086,-3.63105 0.38315,-5.63712c0.67538,-0.41995 0.80198,-0.88397 0.9297,-1.34408c0.08552,2.26169 0.93119,4.58157 0.68208,6.81965c1.1749,-0.23108 0.28852,-1.96945 0.74807,-2.77608c0.11823,-0.2242 0.4062,0.05558 0.51346,0.31901c-0.02956,0.12976 -0.05205,0.24539 -0.06358,0.34355c0.12864,-0.04201 0.1266,-0.18981 0.06358,-0.34355zM194.77046,299.54301c-0.67631,1.05035 0.0963,2.21038 -0.13106,3.2968c0.61255,-0.43167 0.27699,-2.28697 0.13106,-3.2968zM199.537,293.76609c-0.92914,1.08493 0.13459,2.31932 -0.57425,3.41986c-0.63523,-0.10857 0.19445,-1.44465 -0.35507,-2.07319c-1.42755,1.78039 -0.00446,3.77773 0.17177,5.68044c1.30002,-2.15796 1.59058,-5.23037 0.75755,-7.02712zM200.49905,300.60786c0.91445,-0.19222 0.17066,-2.5675 0.74714,-2.7746c-1.2383,-0.94085 0.29651,-3.9534 -0.56291,-5.86727c-0.60232,1.90141 -0.67018,4.48527 -0.15895,5.96952c0.20059,0.90739 -0.66851,1.7328 -0.02547,2.67235zM201.72136,300.86013c0.15002,0.22085 0.30005,0.4417 0.45156,0.66349c0.56291,-0.4391 0.12065,-1.35114 -0.45156,-0.66349zM202.91114,297.95949c-0.24948,0.61143 -0.24613,1.24016 -0.03625,1.88635c0.1318,-0.6211 0.56421,-1.2171 0.03625,-1.88635zM203.88359,295.51561c-0.29763,0.18572 -0.17717,0.40564 -0.3824,0.59991c0.07659,0.11043 0.15114,0.2216 0.2255,0.33314c0.29912,-0.18758 0.17828,-0.4075 0.38222,-0.60251c-0.07548,-0.10968 -0.14984,-0.22067 -0.22531,-0.33053zM203.47721,293.7527c-0.23591,0.41679 -0.19836,1.10036 0.23405,1.12043c0.14705,-0.35656 0.06971,-0.7319 -0.23405,-1.12043zM202.11399,296.01179c-0.71461,-0.68933 -0.12121,-2.63089 -0.2071,-3.79557c-0.60623,-0.13682 -0.1227,1.13456 -0.81648,1.51232c0.70011,1.27696 -0.55827,3.00883 0.48465,3.81453c0.18851,-0.40601 -0.14203,-0.85255 0.20895,-1.2435c0.07901,0.53187 0.12195,1.05853 0.01599,1.57571c0.86333,-0.51495 0.57871,-2.47232 0.46178,-3.58587c-0.14389,0.56682 -0.46476,1.12006 -0.14798,1.72239zM200.04972,289.87161c-0.75216,0.67594 -0.56421,1.4255 -0.08682,2.19755c0.63188,-0.6871 0.28387,-1.44707 0.08682,-2.19755zM201.10044,289.47917c-0.45583,0.54228 -0.17419,1.14051 0.1292,1.74042c-0.06116,-0.57964 0.39058,-1.12434 -0.1292,-1.74042z" fill="#fefefe"/></g></g></svg>