<svg version="1.1" xmlns="http://www.w3.org/2000/svg" xmlns:xlink="http://www.w3.org/1999/xlink" width="64.54853" height="97.20303" viewBox="0,0,64.54853,97.20303"><g transform="translate(-156.20677,-286.30791)"><g data-paper-data="{&quot;isPaintingLayer&quot;:true}" fill-rule="nonzero" stroke-linecap="butt" stroke-linejoin="miter" stroke-dasharray="" stroke-dashoffset="0" style="mix-blend-mode: normal"><path d="M203.42167,289.14686c9.19995,-0.07975 16.72119,7.31229 16.80094,16.50926l0.53205,60.80296c0.07975,9.19995 -7.31229,16.72119 -16.50945,16.80094l-28.75076,0.25022c-9.19604,0.08384 -16.72119,-7.30932 -16.80094,-16.50926l-0.52815,-60.80296c-0.07975,-9.19604 7.3095,-16.72119 16.50945,-16.80094z" fill-opacity="0.69804" fill="#0f150e" stroke="none" stroke-width="1" stroke-miterlimit="10"/><path d="M201.46393,286.30856c9.1993,-0.08001 16.71871,7.311 16.79871,16.51226l0.52996,60.8083c0.08,9.20125 -7.30944,16.73229 -16.50873,16.81229l-28.74779,0.25003c-9.1993,0.08002 -16.71871,-7.31099 -16.79871,-16.51225l-0.52996,-60.8183c-0.08,-9.19125 7.30943,-16.72228 16.50873,-16.80229z" fill="#77b074" stroke="none" stroke-width="0.26458" stroke-miterlimit="10"/><path d="M213.80299,363.53911c-0.23998,2.30031 -0.66995,3.77051 -1.2699,4.4206c-0.60995,0.65009 -1.94985,1.12016 -4.03969,1.4302c-1.49989,0.17002 -5.67957,0.46006 -12.53904,0.88012c-6.85947,0.41006 -12.04907,0.6501 -15.5688,0.7201c-1.58988,0.06 -2.85978,0.07 -3.79971,0.05c-0.93993,-0.02001 -1.84986,-0.14002 -2.72979,-0.33005c-0.87993,-0.20003 -1.52988,-0.43006 -1.94985,-0.70009c-0.42997,-0.27004 -0.83994,-0.7301 -1.23991,-1.37019c-0.39997,-0.64009 -0.70994,-1.33018 -0.93992,-2.07028c-0.20999,-0.7301 -0.47997,-1.75024 -0.76995,-3.05042c-0.78994,-3.63049 -1.2999,-7.53103 -1.54988,-11.69159c-0.23999,-4.16057 -0.26998,-10.10138 -0.09,-17.82244c0.08,-6.23085 0.04,-10.84148 -0.11999,-13.83189c-0.14999,-2.9904 -0.50996,-5.8508 -1.06992,-8.58117c-1.07991,-4.87066 -1.47988,-8.17111 -1.2099,-9.89135c0.14999,-0.69009 0.32997,-1.20016 0.53996,-1.5202c0.20998,-0.32004 0.62995,-0.64009 1.2499,-0.95013c0.75994,-0.36005 3.9197,-0.89012 9.47927,-1.58022c5.56957,-0.68009 11.01916,-1.23017 16.33875,-1.65023c3.55973,-0.18002 5.39958,-0.31004 5.53957,-0.37005c0.04,0 1.11992,0.02 3.22975,0.06001c3.06977,0.18002 5.05961,0.67009 5.96955,1.5002c0.57995,0.49007 0.95992,1.23017 1.14991,2.2303c0.18998,0.99014 0.42996,3.43047 0.72994,7.301c0.33998,4.73065 0.91993,10.45143 1.73987,17.16234c0.99992,8.53117 1.62987,14.28195 1.89985,17.24235c0.26998,2.96041 0.55996,6.75092 0.84994,11.37156c0.29997,5.81079 0.35997,9.49129 0.16998,11.0415z" fill="#fefefe" stroke="none" stroke-width="0.26458" stroke-miterlimit="10"/><path d="M169.73636,328.68435c0.39997,-2.12029 0.78994,-4.11056 1.13991,-5.96082c0.24998,-1.11015 0.70995,-2.13029 1.37989,-3.08042c0.65995,-0.94013 1.27991,-1.88025 1.86986,-2.85039c0.68995,-1.21016 1.51988,-2.38032 2.46981,-3.51047c0.95993,-1.13016 2.00985,-2.1303 3.15976,-2.99041c1.13991,-0.87012 2.38981,-1.56022 3.72971,-2.08029c1.3399,-0.53007 2.75979,-0.7801 4.25968,-0.7701c2.95977,0.03 5.56957,0.83011 7.83939,2.41033c2.25983,1.57021 4.15968,3.56048 5.68957,5.97081c1.53988,2.42033 2.68979,5.06069 3.46973,7.93108c0.76994,2.8704 1.14991,5.61077 1.12991,8.24113c-0.05,5.33073 -0.85993,10.2714 -2.42981,14.82202c-1.55988,4.55062 -4.35967,8.64118 -8.35936,12.30168c-0.82994,0.57008 -1.93985,0.90012 -3.31974,0.99014c-1.3899,0.08 -2.55981,0.12001 -3.52973,0.11001c-1.01992,-0.01 -2.12984,-0.07 -3.30975,-0.17002c-1.18991,-0.11002 -2.26982,-0.36005 -3.22975,-0.76011c-1.93985,-0.7901 -3.68972,-2.17029 -5.2496,-4.12056c-1.55988,-1.96027 -2.87978,-4.14057 -3.97969,-6.55089c-1.08992,-2.41033 -1.92985,-4.85066 -2.51981,-7.331c-0.57995,-2.49034 -0.86993,-4.64064 -0.84993,-6.49089c0.02,-1.94026 0.22998,-3.97054 0.63995,-6.11083zM176.40585,339.66585c0.31997,1.94026 0.78993,3.81051 1.39989,5.61076c0.23998,0.69009 0.55995,1.32018 0.96992,1.90026c0.40997,0.59008 0.74995,1.20016 1.03992,1.83025c0.05,0.10001 0.1,0.22003 0.13999,0.37005c0.05,0.14002 0.1,0.21003 0.14999,0.21003c0.56996,0.69009 1.15991,1.25017 1.75987,1.70023c0.60995,0.44006 1.2399,0.93013 1.91985,1.4702l7.05946,0.06c0.09,0 0.32997,-0.11001 0.68994,-0.32004c0.36997,-0.21003 0.61996,-0.39005 0.76994,-0.54008c1.70987,-1.44019 3.14976,-3.12042 4.29967,-5.06069c1.15991,-1.93026 1.93986,-4.01054 2.34982,-6.24085c0.1,-0.53007 0.16999,-0.98013 0.18999,-1.38019c0.03,-0.38005 0.06,-0.7401 0.08,-1.05014c0.03,-0.31004 0.06,-0.65009 0.09,-0.98013c0.02,-0.34005 0.10999,-0.7301 0.25998,-1.17016v-0.65009c0.01,-0.34005 0.02,-0.7001 0.05,-1.09015c0.03,-0.39005 0.04,-0.7501 0.05,-1.09015l0.01,-0.7301l0.01,-1.38018c0,-0.59009 -0.02,-1.18017 -0.06,-1.78025c-0.05,-0.61008 -0.1,-1.20016 -0.16999,-1.79024c-0.06,-0.58008 -0.19998,-1.07015 -0.38997,-1.4602l-2.77979,-5.99081c-0.05,-0.09 -0.21999,-0.32004 -0.49997,-0.66009c-0.28997,-0.34005 -0.50996,-0.61008 -0.64995,-0.81011c-0.1,-0.09 -0.26998,-0.26004 -0.50996,-0.51007c-0.23998,-0.24003 -0.48996,-0.50007 -0.75994,-0.7701c-0.25998,-0.27004 -0.50996,-0.53008 -0.74994,-0.77011c-0.23998,-0.25003 -0.40997,-0.41005 -0.50996,-0.52007c-0.95993,-0.34005 -1.80986,-0.53007 -2.53981,-0.56008c-0.71994,-0.03 -1.59988,-0.05 -2.6198,-0.06c-0.86993,-0.01 -1.59987,0.02 -2.17983,0.09c-0.58995,0.07 -1.10991,0.20003 -1.56988,0.42006c-0.45996,0.22003 -0.89993,0.52007 -1.3199,0.94013c-0.40997,0.41005 -0.88993,0.95013 -1.42989,1.62022c-1.85986,2.37032 -3.15976,4.79065 -3.8797,7.28099c-0.72994,2.49034 -1.10992,5.20071 -1.12991,8.10111c-0.02,1.90026 0.13999,3.82052 0.45996,5.76078z" fill="#3eb311" stroke="none" stroke-width="0.26458" stroke-miterlimit="10"/><path d="M172.96611,327.6242c0.40997,-2.12029 0.78994,-4.11056 1.13991,-5.96081c0.25998,-1.11015 0.70995,-2.14029 1.3799,-3.08042c0.65995,-0.94013 1.2799,-1.89026 1.87985,-2.85039c0.67995,-1.21017 1.50989,-2.38033 2.46981,-3.51048c0.94993,-1.13015 1.99985,-2.13029 3.14976,-2.99041c1.14991,-0.87012 2.38982,-1.56021 3.72971,-2.08028c1.3399,-0.53007 2.75979,-0.78011 4.25968,-0.77011c2.95977,0.03 5.56957,0.83012 7.83939,2.40033c2.26983,1.58022 4.16968,3.57049 5.69957,5.98082c1.52988,2.42033 2.67979,5.06069 3.45973,7.93108c0.76994,2.87039 1.14991,5.61076 1.12992,8.23112c-0.05,5.34073 -0.85994,10.2814 -2.41982,14.83203c-1.56988,4.54062 -4.35966,8.64118 -8.36936,12.30168c-0.82993,0.57007 -1.93985,0.90012 -3.31974,0.99013c-1.3799,0.08 -2.55981,0.12002 -3.52973,0.11002c-1.01992,-0.01 -2.11984,-0.07 -3.30975,-0.17003c-1.18991,-0.11001 -2.26982,-0.36005 -3.22975,-0.7601c-1.92985,-0.79011 -3.67972,-2.1703 -5.2396,-4.12056c-1.55988,-1.96027 -2.88977,-4.14057 -3.98969,-6.5509c-1.08992,-2.41033 -1.92985,-4.85066 -2.50981,-7.331c-0.58995,-2.49034 -0.86993,-4.65063 -0.85993,-6.49088c0.02,-1.94027 0.22998,-3.97054 0.63995,-6.11084zM179.6356,338.6057c0.31997,1.94027 0.78994,3.81052 1.40989,5.61077c0.22998,0.68009 0.55996,1.32017 0.95993,1.90026c0.40996,0.59007 0.75994,1.20016 1.03992,1.83025c0.05,0.10001 0.1,0.22003 0.13998,0.37004c0.05,0.14002 0.1,0.21003 0.14999,0.22003c0.56996,0.6801 1.15991,1.24018 1.76987,1.68024c0.59995,0.45006 1.2399,0.94012 1.90985,1.4802l7.05946,0.06c0.1,0 0.32997,-0.11002 0.69994,-0.33005c0.35998,-0.20002 0.61996,-0.39005 0.75995,-0.53007c1.70986,-1.4402 3.14975,-3.13043 4.30967,-5.06069c1.14991,-1.92026 1.92985,-4.01055 2.33981,-6.24085c0.1,-0.53007 0.16999,-0.98014 0.19999,-1.38019c0.02,-0.39005 0.05,-0.7401 0.08,-1.05014c0.02,-0.31004 0.05,-0.65009 0.08,-0.98014c0.02,-0.34004 0.10999,-0.7301 0.25998,-1.17016l0.01,-0.65009c0,-0.34004 0.02,-0.70009 0.05,-1.09014c0.02,-0.39006 0.04,-0.7501 0.04,-1.09015l0.01,-0.7301l0.01,-1.38019c0.01,-0.59008 -0.01,-1.18016 -0.06,-1.78024c-0.04,-0.61009 -0.1,-1.21017 -0.15999,-1.79025c-0.07,-0.58008 -0.19998,-1.07014 -0.38997,-1.4602l-2.78978,-5.99081c-0.05,-0.10002 -0.20999,-0.32005 -0.49996,-0.66009c-0.28998,-0.34005 -0.49997,-0.61009 -0.64995,-0.81011c-0.09,-0.10002 -0.25998,-0.27004 -0.50996,-0.51008c-0.22999,-0.25003 -0.48997,-0.50006 -0.74995,-0.7701c-0.26998,-0.27004 -0.51996,-0.53007 -0.75994,-0.7701c-0.23998,-0.25004 -0.40997,-0.42006 -0.49996,-0.52008c-0.96993,-0.34004 -1.81986,-0.54007 -2.5398,-0.56007c-0.72995,-0.03 -1.60988,-0.06 -2.6298,-0.06c-0.86994,-0.01 -1.58988,0.02 -2.17983,0.08c-0.57996,0.08 -1.09992,0.21003 -1.56989,0.43006c-0.45996,0.21003 -0.89993,0.52007 -1.3099,0.94012c-0.41996,0.41006 -0.89993,0.95013 -1.43988,1.62023c-1.85986,2.36032 -3.15976,4.79065 -3.87971,7.28099c-0.72994,2.49034 -1.09991,5.19071 -1.12991,8.10111c-0.01,1.90025 0.13999,3.82052 0.45997,5.76078z" fill="#141515" stroke="none" stroke-width="0.26458" stroke-miterlimit="10"/><path d="M172.96611,327.6242c0.40997,-2.12029 0.78994,-4.11056 1.13991,-5.96081c0.25998,-1.11015 0.70995,-2.14029 1.3799,-3.08042c0.65995,-0.94013 1.2799,-1.89026 1.87985,-2.85039c0.67995,-1.21017 1.50989,-2.38033 2.46981,-3.51048c0.94993,-1.13015 1.99985,-2.13029 3.14976,-2.99041c1.14991,-0.87012 2.38982,-1.56021 3.72971,-2.08028c1.3399,-0.53007 2.75979,-0.78011 4.25968,-0.77011c2.95977,0.03 5.56957,0.83012 7.83939,2.40033c2.26983,1.58022 4.16968,3.57049 5.69957,5.98082c1.52988,2.42033 2.67979,5.06069 3.45973,7.93108c0.76994,2.87039 1.14991,5.61076 1.12992,8.23112c-0.05,5.34073 -0.85994,10.2814 -2.41982,14.83203c-1.56988,4.54062 -4.35966,8.64118 -8.36936,12.30168c-0.82993,0.57007 -1.93985,0.90012 -3.31974,0.99013c-1.3799,0.08 -2.55981,0.12002 -3.52973,0.11002c-1.01992,-0.01 -2.11984,-0.07 -3.30975,-0.17003c-1.18991,-0.11001 -2.26982,-0.36005 -3.22975,-0.7601c-1.92985,-0.79011 -3.67972,-2.1703 -5.2396,-4.12056c-1.55988,-1.96027 -2.88977,-4.14057 -3.98969,-6.5509c-1.08992,-2.41033 -1.92985,-4.85066 -2.50981,-7.331c-0.58995,-2.49034 -0.86993,-4.65063 -0.85993,-6.49088c0.02,-1.94027 0.22998,-3.97054 0.63995,-6.11084M179.6356,338.6057c0.31997,1.94027 0.78994,3.81052 1.40989,5.61077c0.22998,0.68009 0.55996,1.32017 0.95993,1.90026c0.40996,0.59007 0.75994,1.20016 1.03992,1.83025c0.05,0.10001 0.1,0.22003 0.13998,0.37004c0.05,0.14002 0.1,0.21003 0.14999,0.22003c0.56996,0.6801 1.15991,1.24018 1.76987,1.68024c0.59995,0.45006 1.2399,0.94012 1.90985,1.4802l7.05946,0.06c0.1,0 0.32997,-0.11002 0.69994,-0.33005c0.35998,-0.20002 0.61996,-0.39005 0.75995,-0.53007c1.70986,-1.4402 3.14975,-3.13043 4.30967,-5.06069c1.14991,-1.92026 1.92985,-4.01055 2.33981,-6.24085c0.1,-0.53007 0.16999,-0.98014 0.19999,-1.38019c0.02,-0.39005 0.05,-0.7401 0.08,-1.05014c0.02,-0.31004 0.05,-0.65009 0.08,-0.98014c0.02,-0.34004 0.10999,-0.7301 0.25998,-1.17016l0.01,-0.65009c0,-0.34004 0.02,-0.70009 0.05,-1.09014c0.02,-0.39006 0.04,-0.7501 0.04,-1.09015l0.01,-0.7301l0.01,-1.38019c0.01,-0.59008 -0.01,-1.18016 -0.06,-1.78024c-0.04,-0.61009 -0.1,-1.21017 -0.15999,-1.79025c-0.07,-0.58008 -0.19998,-1.07014 -0.38997,-1.4602l-2.78978,-5.99081c-0.05,-0.10002 -0.20999,-0.32005 -0.49996,-0.66009c-0.28998,-0.34005 -0.49997,-0.61009 -0.64995,-0.81011c-0.09,-0.10002 -0.25998,-0.27004 -0.50996,-0.51008c-0.22999,-0.25003 -0.48997,-0.50006 -0.74995,-0.7701c-0.26998,-0.27004 -0.51996,-0.53007 -0.75994,-0.7701c-0.23998,-0.25004 -0.40997,-0.42006 -0.49996,-0.52008c-0.96993,-0.34004 -1.81986,-0.54007 -2.5398,-0.56007c-0.72995,-0.03 -1.60988,-0.06 -2.6298,-0.06c-0.86994,-0.01 -1.58988,0.02 -2.17983,0.08c-0.57996,0.08 -1.09992,0.21003 -1.56989,0.43006c-0.45996,0.21003 -0.89993,0.52007 -1.3099,0.94012c-0.41996,0.41006 -0.89993,0.95013 -1.43988,1.62023c-1.85986,2.36032 -3.15976,4.79065 -3.87971,7.28099c-0.72994,2.49034 -1.09991,5.19071 -1.12991,8.10111c-0.01,1.90025 0.13999,3.82052 0.45997,5.76078" fill="none" stroke="#3eb311" stroke-width="0.09999" stroke-miterlimit="4"/></g></g></svg>