<svg version="1.1" xmlns="http://www.w3.org/2000/svg" xmlns:xlink="http://www.w3.org/1999/xlink" width="64.54854" height="97.20303" viewBox="0,0,64.54854,97.20303"><g transform="translate(-156.20676,-286.30792)"><g data-paper-data="{&quot;isPaintingLayer&quot;:true}" fill-rule="nonzero" stroke-linecap="butt" stroke-linejoin="miter" stroke-dasharray="" stroke-dashoffset="0" style="mix-blend-mode: normal"><path d="M203.42167,289.14686c9.19995,-0.07975 16.72119,7.31229 16.80094,16.50926l0.53205,60.80296c0.07975,9.19995 -7.31229,16.72119 -16.50945,16.80094l-28.75076,0.25022c-9.19604,0.08384 -16.72119,-7.30932 -16.80094,-16.50926l-0.52815,-60.80296c-0.07975,-9.19604 7.3095,-16.72119 16.50945,-16.80094z" fill-opacity="0.69804" fill="#0f150e" stroke="none" stroke-width="1" stroke-miterlimit="10"/><path d="M201.46392,286.30856c9.1993,-0.08001 16.71871,7.31099 16.79871,16.51225l0.52996,60.8083c0.08,9.20125 -7.30944,16.73229 -16.50873,16.81229l-28.74779,0.25003c-9.1993,0.08002 -16.71871,-7.31099 -16.79871,-16.51225l-0.52996,-60.8183c-0.08,-9.19125 7.30944,-16.72228 16.50873,-16.80229z" fill="#77b074" stroke="none" stroke-width="0.26458" stroke-miterlimit="10"/><path d="M197.39424,363.24906c0.08,0 0.25998,0.09 0.46996,0.22003c0.29998,0.47007 0.46996,0.99014 0.45997,1.51021c-0.01,1.38019 -0.74995,2.37032 -2.22983,2.9204c-1.41989,0.37005 -2.75979,0.58008 -4.04969,0.57008c-0.51996,-0.01 -0.99993,-0.06 -1.38989,-0.10002c-0.89994,-0.01 -2.23984,0.07 -4.13969,0.09c-1.85986,0.03 -3.23975,0.06 -4.09968,0.05c-2.41982,-0.02 -3.75971,-0.07 -4.05969,-0.21002c-1.02992,-0.35005 -1.53988,-1.4402 -1.51988,-3.29045c0.01,-1.21017 0.83993,-2.11029 2.43981,-2.65036c0.68994,-0.22003 1.50988,-0.34005 2.50981,-0.33005c0.50996,0.01 1.2899,0.10002 2.36981,0.15002c1.02992,0.14002 1.84986,0.19003 2.36982,0.19003c0.46997,0.01 1.20991,-0.07 2.15984,-0.19003c0.85993,-0.21003 1.59987,-0.29004 2.11983,-0.29004c0.55996,0.01 0.98993,0.10002 1.3299,0.32005c0.68995,0.01 2.11984,-0.41006 2.67979,-0.41006c0.21999,0 0.38998,0.04 0.59996,0.18002c0.51996,0.30004 1.15991,0.7001 1.97985,1.27018z" fill="#c08adc" stroke="none" stroke-width="0.26458" stroke-miterlimit="10"/><path d="M197.39424,363.24906c0.08,0 0.25998,0.09 0.46996,0.22003c0.29998,0.47007 0.46996,0.99014 0.45997,1.51021c-0.01,1.38019 -0.74995,2.37032 -2.22983,2.9204c-1.41989,0.37005 -2.75979,0.58008 -4.04969,0.57008c-0.51996,-0.01 -0.99993,-0.06 -1.38989,-0.10002c-0.89994,-0.01 -2.23984,0.07 -4.13969,0.09c-1.85986,0.03 -3.23975,0.06 -4.09968,0.05c-2.41982,-0.02 -3.75971,-0.07 -4.05969,-0.21002c-1.02992,-0.35005 -1.53988,-1.4402 -1.51988,-3.29045c0.01,-1.21017 0.83993,-2.11029 2.43981,-2.65036c0.68994,-0.22003 1.50988,-0.34005 2.50981,-0.33005c0.50996,0.01 1.2899,0.10002 2.36981,0.15002c1.02992,0.14002 1.84986,0.19003 2.36982,0.19003c0.46997,0.01 1.20991,-0.07 2.15984,-0.19003c0.85993,-0.21003 1.59987,-0.29004 2.11983,-0.29004c0.55996,0.01 0.98993,0.10002 1.3299,0.32005c0.68995,0.01 2.11984,-0.41006 2.67979,-0.41006c0.21999,0 0.38998,0.04 0.59996,0.18002c0.51996,0.30004 1.15991,0.7001 1.97985,1.27018z" fill="#c08adc" stroke="none" stroke-width="0.26458" stroke-miterlimit="10"/><path d="M198.59414,362.65898c0.09,0 0.25998,0.09 0.46997,0.22003c0.29997,0.48007 0.46996,0.99014 0.45996,1.52021c-0.01,1.37019 -0.74994,2.36032 -2.21983,2.9104c-1.42989,0.37005 -2.76978,0.58008 -4.05969,0.57008c-0.51995,-0.01 -0.99992,-0.05 -1.37989,-0.10002c-0.90993,-0.01 -2.24983,0.07 -4.14968,0.09c-1.85986,0.03 -3.22975,0.06 -4.09968,0.05c-2.41982,-0.02 -3.74972,-0.07 -4.04969,-0.21003c-1.03992,-0.35005 -1.54989,-1.43019 -1.52989,-3.29045c0.01,-1.21016 0.83994,-2.11028 2.43982,-2.65036c0.68994,-0.21003 1.50988,-0.34005 2.5098,-0.33004c0.51996,0.01 1.2899,0.10001 2.36982,0.15002c1.02992,0.14002 1.84986,0.19002 2.36982,0.19002c0.47996,0.01 1.20991,-0.07 2.15983,-0.19002c0.86994,-0.21003 1.59988,-0.29004 2.11984,-0.28004c0.55996,0 0.98992,0.09 1.3299,0.31004c0.68995,0.01 2.11984,-0.41005 2.67979,-0.41005c0.21999,0 0.38997,0.05 0.60995,0.18002c0.50997,0.31004 1.15992,0.7001 1.96985,1.27017z" fill="#f5edfb" stroke="none" stroke-width="0.26458" stroke-miterlimit="10"/><path d="M198.59414,362.65898c0.09,0 0.25998,0.09 0.46997,0.22003c0.29997,0.48007 0.46996,0.99014 0.45996,1.52021c-0.01,1.37019 -0.74994,2.36032 -2.21983,2.9104c-1.42989,0.37005 -2.76978,0.58008 -4.05969,0.57008c-0.51995,-0.01 -0.99992,-0.05 -1.37989,-0.10002c-0.90993,-0.01 -2.24983,0.07 -4.14968,0.09c-1.85986,0.03 -3.22975,0.06 -4.09968,0.05c-2.41982,-0.02 -3.74972,-0.07 -4.04969,-0.21003c-1.03992,-0.35005 -1.54989,-1.43019 -1.52989,-3.29045c0.01,-1.21016 0.83994,-2.11028 2.43982,-2.65036c0.68994,-0.21003 1.50988,-0.34005 2.5098,-0.33004c0.51996,0.01 1.2899,0.10001 2.36982,0.15002c1.02992,0.14002 1.84986,0.19002 2.36982,0.19002c0.47996,0.01 1.20991,-0.07 2.15983,-0.19002c0.86994,-0.21003 1.59988,-0.29004 2.11984,-0.28004c0.55996,0 0.98992,0.09 1.3299,0.31004c0.68995,0.01 2.11984,-0.41005 2.67979,-0.41005c0.21999,0 0.38997,0.05 0.60995,0.18002c0.50997,0.31004 1.15992,0.7001 1.96985,1.27017" fill="none" stroke="#c08adc" stroke-width="0.07999" stroke-miterlimit="4"/><path d="M211.75314,362.40897c-0.23999,2.30031 -0.65995,3.77051 -1.26991,4.4206c-0.60995,0.65009 -1.94985,1.12015 -4.03969,1.43019c-1.49988,0.17003 -5.67956,0.46007 -12.53903,0.88012c-6.85948,0.41006 -12.04908,0.6501 -15.55881,0.7201c-1.59988,0.06 -2.86978,0.07 -3.80971,0.05c-0.93993,-0.02 -1.84986,-0.14001 -2.72979,-0.33004c-0.86993,-0.20003 -1.51988,-0.43006 -1.94985,-0.7001c-0.42997,-0.27003 -0.83993,-0.7301 -1.2399,-1.37018c-0.39997,-0.64009 -0.70995,-1.33019 -0.92993,-2.07029c-0.21999,-0.7301 -0.47997,-1.75024 -0.77994,-3.05041c-0.78994,-3.6305 -1.2999,-7.53103 -1.54988,-11.6916c-0.23999,-4.16057 -0.26998,-10.10138 -0.09,-17.82243c0.08,-6.23085 0.05,-10.84148 -0.10999,-13.83189c-0.15999,-3.00041 -0.51996,-5.8508 -1.06992,-8.58117c-1.08991,-4.87066 -1.48988,-8.17111 -1.2199,-9.89135c0.14999,-0.69009 0.32997,-1.20016 0.53996,-1.52021c0.20998,-0.32004 0.62995,-0.64008 1.2499,-0.95013c0.75994,-0.36005 3.9197,-0.89012 9.48927,-1.58021c5.55957,-0.68009 11.00916,-1.23017 16.33875,-1.65023c3.54972,-0.18002 5.39958,-0.31005 5.52957,-0.37005c0.04,0 1.11992,0.02 3.22976,0.06c3.06976,0.18003 5.05961,0.67009 5.97953,1.50021c0.56996,0.49006 0.94993,1.23017 1.13992,2.2303c0.18998,0.99014 0.42997,3.42047 0.72994,7.301c0.33998,4.73064 0.91993,10.45142 1.73987,17.16234c0.99992,8.53116 1.62987,14.28195 1.90985,17.24235c0.26998,2.9604 0.54996,6.75092 0.83994,11.37155c0.30997,5.8108 0.36997,9.4913 0.16999,11.04151z" fill="#fefefe" stroke="none" stroke-width="0.26458" stroke-miterlimit="10"/><path d="M168.91643,326.04399c0.53996,-3.32045 1.74987,-6.50089 3.61973,-9.5413c0.1,-0.10002 0.27997,-0.34005 0.54995,-0.7301c0.26998,-0.39006 0.44997,-0.63009 0.54996,-0.7201c0.05,-0.05 0.15999,-0.20003 0.32998,-0.43006c0.16998,-0.25003 0.35997,-0.51007 0.54995,-0.80011c0.19999,-0.29004 0.38997,-0.56007 0.55996,-0.83011c0.16999,-0.27004 0.27998,-0.42006 0.32997,-0.47007c0.18999,-0.20002 0.51997,-0.55007 0.98993,-1.08014c0.46996,-0.54008 0.97992,-1.09015 1.53988,-1.66023c0.56996,-0.58008 1.08992,-1.11015 1.57988,-1.59022c0.48996,-0.48006 0.83993,-0.82011 1.02992,-1.01013c0.91993,-0.43006 1.70987,-0.81012 2.33982,-1.15016c0.62995,-0.33005 1.23991,-0.63009 1.82986,-0.89012c0.57995,-0.26004 1.21991,-0.46007 1.92985,-0.60009c0.70995,-0.14001 1.58988,-0.21002 2.6598,-0.20002c1.3099,0.02 2.5398,0.20002 3.69971,0.54007c1.16991,0.35005 2.17984,0.89012 3.04977,1.60022c0.85993,0.7101 1.54988,1.59022 2.04984,2.64036c0.49996,1.04014 0.73995,2.29031 0.72995,3.75051c-0.01,1.55021 -0.48997,2.77038 -1.4199,3.6605c-0.92992,0.89012 -2.15983,1.33018 -3.71971,1.31018c-1.74987,-0.01 -2.94977,-0.55008 -3.61972,-1.59022c-0.66995,-1.05014 -1.19991,-2.35032 -1.56988,-3.91053c-0.09,-0.24003 -0.22998,-0.40005 -0.39997,-0.47006c-0.16999,-0.08 -0.36997,-0.12002 -0.61995,-0.12002l-0.42997,-0.01c-1.06992,0.39005 -2.23983,1.07015 -3.50973,2.05028c-1.2699,0.98013 -2.44981,2.11029 -3.51973,3.39046c-1.07992,1.28018 -1.97985,2.62036 -2.68979,4.01055c-0.71995,1.41019 -1.07992,2.69037 -1.08992,3.85053l0.71995,0.01c0.58995,-0.19003 1.08991,-0.36005 1.49988,-0.50007c0.40997,-0.14002 0.82994,-0.30004 1.2399,-0.46007c0.41997,-0.17002 0.73995,-0.30004 0.98993,-0.39005c0.33997,-0.14002 0.75994,-0.42006 1.2799,-0.83011c0.50996,-0.40006 0.95993,-0.61009 1.3499,-0.60008l3.9297,0.03c0.61995,0.40005 1.2799,0.7301 1.94984,1.00014c0.67995,0.27003 1.3599,0.52007 2.03985,0.7401c0.66995,0.23003 1.3499,0.48006 2.02984,0.7501c0.67995,0.27003 1.3299,0.61008 1.94985,1.00013c0.86994,0.54008 1.68987,1.39019 2.45982,2.53035c0.75994,1.15016 1.43988,2.39033 2.03984,3.73051c0.58995,1.34018 1.06991,2.67036 1.41989,3.98054c0.34997,1.31018 0.51996,2.43033 0.50996,3.35046l-0.01,1.02013c-0.49996,2.47034 -1.14991,4.75065 -1.94985,6.82094c-0.78994,2.09028 -1.81986,3.86052 -3.09976,5.33072c-1.26991,1.4702 -2.84978,2.60036 -4.71964,3.41047c-1.87986,0.81011 -4.14968,1.20016 -6.81948,1.18016c-2.71979,-0.02 -5.02961,-0.46006 -6.93946,-1.30018c-1.89986,-0.84011 -3.47974,-2.00027 -4.72964,-3.46047c-1.24991,-1.4702 -2.25983,-3.22044 -3.00977,-5.27072c-0.75994,-2.04028 -1.3499,-4.28058 -1.75986,-6.71092c0,-0.05 -0.04,-0.20002 -0.11,-0.47006c-0.07,-0.27004 -0.13999,-0.55007 -0.20998,-0.84012c-0.07,-0.29003 -0.12999,-0.56007 -0.16999,-0.8001c-0.05,-0.25004 -0.07,-0.39006 -0.07,-0.44006l0.01,-1.67023c0.03,-3.45047 0.31998,-6.82093 0.84994,-10.14138zM175.54592,342.39622c0.25998,1.04014 0.65995,2.00027 1.20991,2.85039c0.54996,0.86012 1.2699,1.64022 2.15984,2.35032c0.89993,0.71009 1.98984,1.4802 3.29974,2.32031c0.04,0.05 0.12999,0.11002 0.24998,0.18003c0.11999,0.08 0.22999,0.12002 0.32998,0.12002c0.13999,0 0.48996,0.01 1.04992,0.04c0.54995,0.03 0.90993,0.05 1.05992,0.05c2.22982,0.02 4.09968,-0.51007 5.60956,-1.59022c1.50989,-1.08015 2.83979,-2.53035 3.9697,-4.3706l0.29998,-0.58007l0.05,-6.5509c0.01,-0.63009 -0.23998,-1.39019 -0.73995,-2.30031c-0.49996,-0.90012 -1.10991,-1.75024 -1.83985,-2.56035c-0.71995,-0.80011 -1.47989,-1.4902 -2.29983,-2.06028c-0.82994,-0.56008 -1.54988,-0.85012 -2.17983,-0.85012l-6.5495,-0.06c-0.05,0 -0.28998,0.11002 -0.72994,0.32005c-0.43997,0.22003 -0.75994,0.39005 -0.94993,0.54007c-1.65987,1.00014 -2.79978,2.1703 -3.41974,3.50048c-0.61995,1.33018 -0.92993,2.91039 -0.94992,4.76064c-0.01,1.55021 0.10999,2.85039 0.36997,3.89054z" fill="#3eb311" stroke="none" stroke-width="0.26458" stroke-miterlimit="10"/><path d="M172.15618,324.99385c0.53996,-3.32046 1.73987,-6.50089 3.60973,-9.54131c0.1,-0.10001 0.27998,-0.34004 0.54995,-0.72009c0.26998,-0.39006 0.45997,-0.63009 0.54996,-0.7301c0.05,-0.04 0.15999,-0.19003 0.32998,-0.43006c0.17998,-0.24004 0.35997,-0.51007 0.55995,-0.80011c0.18999,-0.29004 0.37998,-0.56008 0.54996,-0.83011c0.16999,-0.26004 0.27998,-0.42006 0.32998,-0.47007c0.19998,-0.19003 0.52996,-0.55007 0.98992,-1.08015c0.46996,-0.53007 0.97993,-1.09015 1.54988,-1.66022c0.55996,-0.58008 1.07992,-1.10015 1.56988,-1.58022c0.48996,-0.49007 0.83994,-0.83011 1.02992,-1.02014c0.92993,-0.43006 1.70987,-0.81011 2.33982,-1.14015c0.62995,-0.33005 1.23991,-0.64009 1.82986,-0.90013c0.57996,-0.26003 1.22991,-0.46006 1.92985,-0.60008c0.70995,-0.14002 1.58988,-0.20003 2.6598,-0.19002c1.3099,0.01 2.5498,0.19002 3.70971,0.54007c1.15992,0.34005 2.16984,0.88012 3.03977,1.59022c0.86993,0.71009 1.54988,1.59021 2.04984,2.64036c0.49997,1.05014 0.74995,2.30031 0.72995,3.75051c-0.01,1.56021 -0.47997,2.77038 -1.40989,3.6605c-0.92993,0.90012 -2.16984,1.33018 -3.72972,1.32018c-1.73986,-0.02 -2.94977,-0.55008 -3.61972,-1.60022c-0.66995,-1.05014 -1.18991,-2.35032 -1.56988,-3.90053c-0.09,-0.25004 -0.21998,-0.41006 -0.38997,-0.48007c-0.16999,-0.07 -0.37997,-0.12001 -0.61995,-0.12001h-0.43997c-1.06992,0.38005 -2.23982,1.06014 -3.50973,2.05028c-1.2699,0.98013 -2.43981,2.10028 -3.51973,3.38046c-1.07991,1.28017 -1.97985,2.62036 -2.68979,4.02055c-0.71995,1.40019 -1.07992,2.68036 -1.08992,3.84052l0.72995,0.01c0.57995,-0.18002 1.07991,-0.35005 1.48988,-0.49007c0.41997,-0.14002 0.82994,-0.30004 1.23991,-0.46006c0.41996,-0.17002 0.74994,-0.31004 0.98992,-0.40005c0.33997,-0.14002 0.76994,-0.42006 1.2799,-0.82012c0.50996,-0.41005 0.95993,-0.61008 1.3499,-0.61008l3.9297,0.03c0.62995,0.40005 1.2799,0.7301 1.95985,1.00013c0.67994,0.28004 1.34989,0.52007 2.02984,0.75011c0.67995,0.22003 1.3499,0.47006 2.02984,0.7501c0.67995,0.27004 1.3299,0.60008 1.94986,1.00014c0.86993,0.54007 1.68987,1.38018 2.45981,2.53034c0.75994,1.14016 1.43988,2.38033 2.03984,3.72051c0.59995,1.35018 1.06992,2.67036 1.41989,3.98054c0.34997,1.32018 0.51996,2.44033 0.51996,3.35046l-0.01,1.02013c-0.50996,2.47034 -1.15991,4.75065 -1.94985,6.82094c-0.79994,2.09028 -1.82986,3.86052 -3.10976,5.33072c-1.2699,1.47021 -2.84978,2.60036 -4.71964,3.41047c-1.86985,0.81011 -4.14968,1.20016 -6.81947,1.18016c-2.7098,-0.02 -5.02962,-0.45006 -6.92947,-1.30018c-1.90985,-0.84011 -3.48973,-1.99027 -4.73964,-3.45047c-1.2499,-1.4702 -2.24982,-3.23044 -3.00977,-5.27072c-0.75994,-2.05028 -1.34989,-4.28058 -1.75986,-6.72092c0,-0.04 -0.03,-0.20002 -0.10999,-0.46006c-0.07,-0.27004 -0.13999,-0.56007 -0.20999,-0.85011c-0.07,-0.29004 -0.12999,-0.56008 -0.16998,-0.80011c-0.05,-0.24004 -0.07,-0.38005 -0.07,-0.44006l0.02,-1.67023c0.02,-3.44047 0.30997,-6.82093 0.84993,-10.14138zM178.77568,341.35608c0.25998,1.04014 0.65995,1.99027 1.2199,2.84038c0.53996,0.86012 1.25991,1.64023 2.15984,2.36033c0.88993,0.70009 1.97985,1.4802 3.28974,2.32031c0.04,0.04 0.12999,0.10002 0.24999,0.17003c0.11999,0.08 0.22998,0.12001 0.32997,0.12001c0.13999,0 0.49996,0.02 1.04992,0.04c0.55996,0.03 0.90993,0.05 1.05992,0.05c2.22983,0.02 4.09968,-0.51007 5.60957,-1.59021c1.51988,-1.08015 2.83978,-2.53035 3.96969,-4.3706l0.29998,-0.57008l0.05,-6.55089c0.01,-0.63008 -0.23998,-1.40019 -0.73995,-2.30031c-0.49996,-0.91013 -1.10991,-1.76024 -1.82985,-2.57035c-0.71995,-0.80011 -1.48989,-1.49021 -2.30983,-2.05028c-0.81994,-0.57008 -1.54988,-0.86012 -2.17983,-0.86012l-6.5495,-0.06c-0.04,0 -0.28997,0.11002 -0.72994,0.33005c-0.43997,0.21002 -0.74995,0.39005 -0.94993,0.53007c-1.65987,1.01014 -2.79978,2.1703 -3.40974,3.50047c-0.61995,1.33019 -0.93992,2.9104 -0.94992,4.76065c-0.02,1.55021 0.1,2.85039 0.35997,3.90053z" fill="#fefefe" stroke="none" stroke-width="0.26458" stroke-miterlimit="10"/><path d="M172.15618,324.99385c0.53996,-3.32046 1.73987,-6.50089 3.60973,-9.54131c0.1,-0.10001 0.27998,-0.34004 0.54995,-0.72009c0.26998,-0.39006 0.45997,-0.63009 0.54996,-0.7301c0.05,-0.04 0.15999,-0.19003 0.32998,-0.43006c0.17998,-0.24004 0.35997,-0.51007 0.55995,-0.80011c0.18999,-0.29004 0.37998,-0.56008 0.54996,-0.83011c0.16999,-0.26004 0.27998,-0.42006 0.32998,-0.47007c0.19998,-0.19003 0.52996,-0.55007 0.98992,-1.08015c0.46996,-0.53007 0.97993,-1.09015 1.54988,-1.66022c0.55996,-0.58008 1.07992,-1.10015 1.56988,-1.58022c0.48996,-0.49007 0.83994,-0.83011 1.02992,-1.02014c0.92993,-0.43006 1.70987,-0.81011 2.33982,-1.14015c0.62995,-0.33005 1.23991,-0.64009 1.82986,-0.90013c0.57996,-0.26003 1.22991,-0.46006 1.92985,-0.60008c0.70995,-0.14002 1.58988,-0.20003 2.6598,-0.19002c1.3099,0.01 2.5498,0.19002 3.70971,0.54007c1.15992,0.34005 2.16984,0.88012 3.03977,1.59022c0.86993,0.71009 1.54988,1.59021 2.04984,2.64036c0.49997,1.05014 0.74995,2.30031 0.72995,3.75051c-0.01,1.56021 -0.47997,2.77038 -1.40989,3.6605c-0.92993,0.90012 -2.16984,1.33018 -3.72972,1.32018c-1.73986,-0.02 -2.94977,-0.55008 -3.61972,-1.60022c-0.66995,-1.05014 -1.18991,-2.35032 -1.56988,-3.90053c-0.09,-0.25004 -0.21998,-0.41006 -0.38997,-0.48007c-0.16999,-0.07 -0.37997,-0.12001 -0.61995,-0.12001h-0.43997c-1.06992,0.38005 -2.23982,1.06014 -3.50973,2.05028c-1.2699,0.98013 -2.43981,2.10028 -3.51973,3.38046c-1.07991,1.28017 -1.97985,2.62036 -2.68979,4.02055c-0.71995,1.40019 -1.07992,2.68036 -1.08992,3.84052l0.72995,0.01c0.57995,-0.18002 1.07991,-0.35005 1.48988,-0.49007c0.41997,-0.14002 0.82994,-0.30004 1.23991,-0.46006c0.41996,-0.17002 0.74994,-0.31004 0.98992,-0.40005c0.33997,-0.14002 0.76994,-0.42006 1.2799,-0.82012c0.50996,-0.41005 0.95993,-0.61008 1.3499,-0.61008l3.9297,0.03c0.62995,0.40005 1.2799,0.7301 1.95985,1.00013c0.67994,0.28004 1.34989,0.52007 2.02984,0.75011c0.67995,0.22003 1.3499,0.47006 2.02984,0.7501c0.67995,0.27004 1.3299,0.60008 1.94986,1.00014c0.86993,0.54007 1.68987,1.38018 2.45981,2.53034c0.75994,1.14016 1.43988,2.38033 2.03984,3.72051c0.59995,1.35018 1.06992,2.67036 1.41989,3.98054c0.34997,1.32018 0.51996,2.44033 0.51996,3.35046l-0.01,1.02013c-0.50996,2.47034 -1.15991,4.75065 -1.94985,6.82094c-0.79994,2.09028 -1.82986,3.86052 -3.10976,5.33072c-1.2699,1.47021 -2.84978,2.60036 -4.71964,3.41047c-1.86985,0.81011 -4.14968,1.20016 -6.81947,1.18016c-2.7098,-0.02 -5.02962,-0.45006 -6.92947,-1.30018c-1.90985,-0.84011 -3.48973,-1.99027 -4.73964,-3.45047c-1.2499,-1.4702 -2.24982,-3.23044 -3.00977,-5.27072c-0.75994,-2.05028 -1.34989,-4.28058 -1.75986,-6.72092c0,-0.04 -0.03,-0.20002 -0.10999,-0.46006c-0.07,-0.27004 -0.13999,-0.56007 -0.20999,-0.85011c-0.07,-0.29004 -0.12999,-0.56008 -0.16998,-0.80011c-0.05,-0.24004 -0.07,-0.38005 -0.07,-0.44006l0.02,-1.67023c0.02,-3.44047 0.30997,-6.82093 0.84993,-10.14138M178.77567,341.35607c0.25998,1.04014 0.65995,1.99027 1.21991,2.84038c0.53996,0.86012 1.2599,1.64023 2.15983,2.36033c0.88994,0.70009 1.97985,1.4802 3.28975,2.32032c0.04,0.04 0.12999,0.10001 0.24998,0.17002c0.11999,0.08 0.22998,0.12001 0.32998,0.12001c0.13999,0 0.49996,0.02 1.04992,0.04c0.55995,0.03 0.90993,0.05 1.05992,0.05c2.22982,0.02 4.09968,-0.51007 5.60956,-1.59021c1.51989,-1.08015 2.83978,-2.53035 3.9697,-4.3706l0.29998,-0.57008l0.05,-6.55089c0.01,-0.63008 -0.23999,-1.40019 -0.73995,-2.30031c-0.49996,-0.91012 -1.10991,-1.76024 -1.82986,-2.57035c-0.71994,-0.80011 -1.48988,-1.49021 -2.30982,-2.05028c-0.81994,-0.57008 -1.54988,-0.86012 -2.17983,-0.86012l-6.5495,-0.06c-0.04,0 -0.28998,0.11002 -0.72995,0.33005c-0.43996,0.21003 -0.74994,0.39005 -0.94992,0.53007c-1.65987,1.01014 -2.79979,2.1703 -3.40974,3.50048c-0.61995,1.33018 -0.93993,2.91039 -0.94993,4.76064c-0.02,1.55022 0.1,2.85039 0.35998,3.90054" fill="none" stroke="#3eb311" stroke-width="0.10999" stroke-miterlimit="4"/><path d="M195.68437,361.53883c0.09,0 0.25998,0.08 0.46996,0.21003c0.29998,0.44006 0.45997,0.92013 0.45997,1.40019c-0.01,1.29018 -0.74995,2.2003 -2.21983,2.72037c-1.41989,0.34005 -2.74979,0.53007 -4.04969,0.52007c-0.50996,0 -0.97993,-0.04 -1.3699,-0.09c-0.89993,-0.01 -2.23982,0.06 -4.12968,0.08c-1.84986,0.03 -3.22975,0.06 -4.08969,0.05c-2.40981,-0.02 -3.73971,-0.07 -4.03969,-0.20002c-1.02992,-0.33005 -1.53988,-1.34019 -1.51988,-3.06042c0.01,-1.13016 0.82994,-1.96027 2.42981,-2.47034c0.68995,-0.19003 1.49989,-0.31004 2.49981,-0.30004c0.50996,0.01 1.2799,0.09 2.35982,0.14002c1.02992,0.13002 1.84986,0.18002 2.36982,0.18002c0.46996,0 1.19991,-0.06 2.14983,-0.18002c0.85994,-0.19003 1.58988,-0.27004 2.10984,-0.26004c0.55996,0 0.98993,0.09 1.3299,0.29004c0.68995,0.01 2.10984,-0.38005 2.6698,-0.38005c0.21998,0 0.38996,0.05 0.59995,0.17003c0.50996,0.28003 1.15991,0.65008 1.96985,1.18016z" fill="#3eb311" stroke="none" stroke-width="0.26458" stroke-miterlimit="10"/><path d="M197.96419,361.55883c0.09,0 0.25998,0.08 0.47997,0.21003c0.28997,0.44006 0.45996,0.92013 0.44996,1.40019c-0.01,1.29018 -0.74994,2.2003 -2.20983,2.72038c-1.41989,0.34004 -2.75979,0.53007 -4.04969,0.52007c-0.51996,0 -0.98992,-0.04 -1.37989,-0.09c-0.89993,-0.01 -2.23983,0.06 -4.12968,0.08c-1.84986,0.03 -3.21976,0.06 -4.07969,0.05c-2.40982,-0.02 -3.74971,-0.07 -4.04969,-0.20003c-1.02992,-0.33005 -1.52988,-1.34018 -1.51988,-3.06042c0.01,-1.13015 0.83993,-1.96027 2.42981,-2.47034c0.68995,-0.19002 1.50988,-0.31004 2.49981,-0.30004c0.51996,0.01 1.2899,0.09 2.35982,0.14002c1.02992,0.13002 1.84985,0.18003 2.36981,0.18003c0.46997,0.01 1.20991,-0.06 2.14984,-0.18003c0.85993,-0.19002 1.59988,-0.27003 2.10984,-0.26003c0.55995,0 0.98992,0.09 1.3299,0.29004c0.68994,0.01 2.11983,-0.38006 2.66979,-0.38006c0.21998,0 0.38997,0.04 0.59995,0.17003c0.51996,0.29004 1.15992,0.65009 1.96985,1.18016z" fill="#fefefe" stroke="none" stroke-width="0.26458" stroke-miterlimit="10"/><path d="M197.96419,361.55883c0.09,0 0.25998,0.08 0.47997,0.21003c0.28997,0.44006 0.45996,0.92013 0.44996,1.40019c-0.01,1.29018 -0.74994,2.2003 -2.20983,2.72038c-1.41989,0.34004 -2.75979,0.53007 -4.04969,0.52007c-0.51996,0 -0.98992,-0.04 -1.37989,-0.09c-0.89993,-0.01 -2.23983,0.06 -4.12968,0.08c-1.84986,0.03 -3.21976,0.06 -4.07969,0.05c-2.40982,-0.02 -3.74971,-0.07 -4.04969,-0.20003c-1.02992,-0.33005 -1.52988,-1.34018 -1.51988,-3.06042c0.01,-1.13015 0.83993,-1.96027 2.42981,-2.47034c0.68995,-0.19002 1.50988,-0.31004 2.49981,-0.30004c0.51996,0.01 1.2899,0.09 2.35982,0.14002c1.02992,0.13002 1.84985,0.18003 2.36981,0.18003c0.46997,0.01 1.20991,-0.06 2.14984,-0.18003c0.85993,-0.19002 1.59988,-0.27003 2.10984,-0.26003c0.55995,0 0.98992,0.09 1.3299,0.29004c0.68994,0.01 2.11983,-0.38006 2.66979,-0.38006c0.21998,0 0.38997,0.04 0.59995,0.17003c0.51996,0.29004 1.15992,0.65009 1.96985,1.18016" fill="none" stroke="#3eb311" stroke-width="0.10999" stroke-miterlimit="4"/></g></g></svg>