<svg version="1.1" xmlns="http://www.w3.org/2000/svg" xmlns:xlink="http://www.w3.org/1999/xlink" width="64.54854" height="97.20302" viewBox="0,0,64.54854,97.20302"><g transform="translate(-156.20676,-286.30792)"><g data-paper-data="{&quot;isPaintingLayer&quot;:true}" fill-rule="nonzero" stroke-linecap="butt" stroke-linejoin="miter" stroke-dasharray="" stroke-dashoffset="0" style="mix-blend-mode: normal"><path d="M203.42167,289.14686c9.19995,-0.07975 16.72119,7.31229 16.80094,16.50926l0.53205,60.80296c0.07975,9.19995 -7.31229,16.72119 -16.50945,16.80094l-28.75076,0.25022c-9.19604,0.08384 -16.72119,-7.30932 -16.80094,-16.50926l-0.52815,-60.80296c-0.07975,-9.19604 7.3095,-16.72119 16.50945,-16.80094z" fill-opacity="0.69804" fill="#0f150e" stroke="none" stroke-width="1" stroke-miterlimit="10"/><path d="M201.46392,286.30856c9.1993,-0.08001 16.71871,7.31099 16.79871,16.51225l0.52996,60.8083c0.08,9.20126 -7.30944,16.7323 -16.50873,16.8123l-28.74779,0.25003c-9.1993,0.08001 -16.71871,-7.311 -16.79871,-16.51225l-0.52996,-60.81831c-0.08,-9.19125 7.30944,-16.72228 16.50873,-16.80229z" fill="#77b074" stroke="none" stroke-width="0.26458" stroke-miterlimit="10"/><path d="M213.10304,365.01932c-0.24998,2.29031 -0.66995,3.76051 -1.27991,4.4106c-0.59995,0.65009 -1.94985,1.13016 -4.03969,1.4302c-1.48988,0.17002 -5.66956,0.46006 -12.52903,0.88012c-6.85948,0.41005 -12.04908,0.6501 -15.56881,0.7201c-1.59987,0.06 -2.85978,0.08 -3.79971,0.05c-0.93992,-0.02001 -1.84985,-0.13002 -2.72979,-0.33005c-0.87993,-0.20003 -1.52988,-0.43006 -1.95985,-0.7001c-0.41996,-0.27003 -0.83993,-0.7301 -1.2299,-1.37018c-0.39997,-0.64009 -0.71995,-1.33019 -0.93993,-2.06029c-0.21998,-0.7401 -0.47996,-1.76023 -0.77994,-3.06041c-0.77994,-3.6305 -1.2999,-7.52103 -1.53988,-11.6916c-0.24999,-4.15056 -0.27999,-10.10138 -0.09,-17.82243c0.07999,-6.23085 0.04,-10.84148 -0.11999,-13.83189c-0.15999,-2.99041 -0.50996,-5.8508 -1.06992,-8.57117c-1.07992,-4.88067 -1.48989,-8.18112 -1.20991,-9.90135c0.14999,-0.6901 0.31998,-1.20017 0.52996,-1.52021c0.21999,-0.32005 0.62995,-0.63009 1.25991,-0.94013c0.74994,-0.37005 3.91969,-0.90012 9.47927,-1.59022c5.56957,-0.68009 11.00915,-1.23017 16.33874,-1.65022c3.55973,-0.18003 5.39959,-0.31005 5.52958,-0.37005c0.05,0 1.12991,0.02 3.22975,0.06c3.06976,0.18002 5.06961,0.67009 5.97954,1.5002c0.56996,0.49007 0.95993,1.24017 1.14991,2.23031c0.18999,0.99013 0.42997,3.43046 0.72995,7.30099c0.33997,4.73065 0.91993,10.45143 1.72986,17.16235c0.99993,8.53116 1.63988,14.28195 1.90986,17.24235c0.26998,2.96041 0.54995,6.75092 0.83993,11.37155c0.30998,5.8108 0.36997,9.4913 0.17999,11.05151z" fill="#fefefe" stroke="none" stroke-width="0.26458" stroke-miterlimit="10"/><path d="M177.28579,357.6683c-0.51996,0.43006 -0.98992,0.90012 -1.42989,1.41019c-0.43997,0.50007 -0.90993,0.96013 -1.39989,1.37019c-0.48997,0.41006 -1.09992,0.61008 -1.81986,0.60008c-1.25991,-0.01 -2.12984,-0.35005 -2.6098,-1.00014c-0.47997,-0.67009 -0.71995,-1.57021 -0.70995,-2.74037c0.04,-3.78052 0.87993,-7.29099 2.52981,-10.53144c1.65987,-3.23044 3.99969,-5.98081 7.01946,-8.24112c1.02992,-0.77011 2.12983,-1.34018 3.29974,-1.71024c1.15992,-0.38005 2.25983,-0.90012 3.27975,-1.58021c0.1,-0.09 0.33998,-0.29004 0.73995,-0.61008c0.38997,-0.31005 0.62995,-0.49007 0.72994,-0.53008c0.05,-0.06 0.21998,-0.11001 0.50996,-0.18002c0.28998,-0.07 0.47996,-0.11002 0.57996,-0.11002c0.05,0 0.22998,-0.01 0.54995,-0.03c0.30998,-0.02 0.64995,-0.05 1.01993,-0.10001c0.35997,-0.05 0.68994,-0.08 0.97992,-0.10002c0.28998,-0.02 0.48996,-0.03 0.57996,-0.03c1.2699,-0.28003 2.35981,-0.90012 3.28974,-1.86025c0.93993,-0.97013 1.74987,-1.93026 2.42982,-2.9004c0.1,-0.09 0.19998,-0.29003 0.29997,-0.57007l0.05,-6.26086c0,-0.05 -0.15998,-0.40005 -0.49996,-1.06014c-0.32997,-0.66009 -0.61995,-1.18016 -0.85993,-1.57022c-0.90993,-1.4702 -2.16983,-2.36032 -3.78971,-2.69037c-1.62987,-0.33004 -3.25975,-0.51007 -4.90962,-0.52007c-0.62996,-0.01 -1.18991,0 -1.67987,0.03c-0.47997,0.01 -0.96993,0.06 -1.44989,0.12002c-0.48997,0.07 -0.98992,0.18002 -1.49989,0.32004c-0.50996,0.14002 -1.07991,0.36005 -1.70987,0.64009c-0.33997,0.24003 -0.62995,0.50007 -0.83993,0.79011c-0.22998,0.29004 -0.33998,0.66009 -0.33998,1.09015c-0.01,0.25003 0.08,0.52007 0.23999,0.81011c0.16998,0.29004 0.35997,0.62008 0.57995,0.98013c0.20999,0.37006 0.40997,0.77011 0.60996,1.21017c0.17998,0.43006 0.27997,0.95013 0.26997,1.53021c-0.01,1.60022 -0.45996,3.06042 -1.33989,4.3906c-0.88993,1.33018 -2.22983,1.98027 -4.02969,1.97027c-0.86994,-0.01 -1.62988,-0.26004 -2.27983,-0.75011c-0.64995,-0.49006 -1.18991,-1.10015 -1.61987,-1.83025c-0.42997,-0.7401 -0.75995,-1.5202 -0.99993,-2.38032c-0.23998,-0.85012 -0.34997,-1.64022 -0.33997,-2.37032c0.01,-0.97014 0.20998,-1.93027 0.60995,-2.8604c0.38997,-0.95013 0.78994,-1.83025 1.17991,-2.65036c0.63995,-1.31018 1.46989,-2.49034 2.46981,-3.55049c1.00992,-1.05014 2.13984,-1.95026 3.40974,-2.70036c1.2699,-0.7401 2.6198,-1.29018 4.04969,-1.67023c1.42989,-0.38005 2.87978,-0.56008 4.33967,-0.55008c1.88985,0.02 3.75971,0.29004 5.62956,0.82012c1.85986,0.52007 3.55973,1.32018 5.10961,2.37032c1.53988,1.06014 2.84978,2.36032 3.9297,3.89053c1.07992,1.54021 1.74986,3.33045 2.02984,5.37074c0.04,0.24003 0.07,0.7401 0.1,1.4902c0.01,0.7601 0.02,1.25017 0.02,1.5002c-0.02,2.37033 -0.31997,4.47062 -0.88993,6.28086c-0.57995,1.82025 -1.40989,3.41047 -2.51981,4.78065c-1.09991,1.37019 -2.46981,2.55035 -4.09968,3.53049c-1.63987,0.98013 -3.49973,1.83025 -5.59957,2.54034c-1.05992,0.37005 -2.10984,0.66009 -3.12976,0.84012c-1.01992,0.19002 -2.06984,0.54007 -3.13976,1.07014c-0.23998,0.09 -0.55996,0.24004 -0.94993,0.42006c-0.38997,0.19003 -0.76994,0.39006 -1.12991,0.58008c-0.36997,0.18003 -0.81994,0.40006 -1.3499,0.64009l-3.96969,4.26058c-0.05,0.24003 -0.08,0.41005 -0.08,0.51007v0.51007c0,0.24003 0.10999,0.39005 0.35997,0.44006c0.52996,-0.15002 0.98993,-0.24003 1.3799,-0.28004c0.38997,-0.05 0.84993,-0.07 1.37989,-0.07c1.21991,0.01 2.32982,0.26004 3.34974,0.7301c1.00993,0.46006 1.98985,0.97013 2.92978,1.52021c0.93993,0.53007 1.90985,1.04014 2.89977,1.5102c0.98993,0.47007 2.08984,0.7101 3.29975,0.7201c0.91993,0.01 1.65987,-0.02 2.21983,-0.09c0.55996,-0.07 1.3499,-0.21003 2.36982,-0.45006c0.67995,-0.53007 1.12991,-1.26017 1.3299,-2.2103c0.19998,-0.94013 0.38997,-1.86026 0.56995,-2.76038c0.17999,-0.90012 0.45997,-1.67023 0.85994,-2.32032c0.38997,-0.65008 1.11991,-0.97013 2.18983,-0.96013c0.72994,0.01 1.2599,0.19003 1.58988,0.56008c0.33997,0.36005 0.57995,0.82011 0.71994,1.35018c0.13999,0.53008 0.20999,1.12016 0.19999,1.75024l-0.01,1.67023c-0.02,2.67037 -0.58996,4.78065 -1.68987,6.32086c-1.10992,1.54021 -2.94978,2.76038 -5.52958,3.6605c-0.72994,0.29004 -1.33989,0.60009 -1.82986,0.93013c-0.48996,0.33005 -1.13991,0.50007 -1.95985,0.49007c-0.87993,-0.01 -1.55988,-0.19003 -2.03984,-0.56008c-0.47996,-0.37005 -1.07992,-0.68009 -1.80986,-0.93013c-0.05,0 -0.18999,-0.02 -0.42997,-0.07c-0.24998,-0.05 -0.48996,-0.10001 -0.72994,-0.15002c-0.23998,-0.06 -0.47996,-0.12001 -0.72994,-0.19002c-0.23999,-0.08 -0.37998,-0.12002 -0.42997,-0.12002c-0.14999,-0.05 -0.45997,-0.20003 -0.93993,-0.47006c-0.48996,-0.28004 -1.01992,-0.56008 -1.59988,-0.86012c-0.57995,-0.29004 -1.10991,-0.57008 -1.58988,-0.81011c-0.47996,-0.25004 -0.79993,-0.42006 -0.93992,-0.52007c-0.43997,-0.20003 -0.90993,-0.39005 -1.41989,-0.59008c-0.50996,-0.20003 -1.02992,-0.30005 -1.55988,-0.31005c-0.72995,0 -1.3499,0.20003 -1.85986,0.64009z" fill="#3eb311" stroke="none" stroke-width="0.26458" stroke-miterlimit="10"/><path d="M180.51554,356.60815c-0.50996,0.43006 -0.98992,0.90013 -1.42989,1.4002c-0.43996,0.51007 -0.90993,0.97013 -1.38989,1.37018c-0.48996,0.41006 -1.09992,0.62009 -1.82986,0.61009c-1.2599,-0.01 -2.12984,-0.35005 -2.6098,-1.01014c-0.47996,-0.66009 -0.70995,-1.57022 -0.69995,-2.73037c0.03,-3.79052 0.86994,-7.301 2.52981,-10.54144c1.64987,-3.22044 3.98969,-5.97082 7.01946,-8.23113c1.02992,-0.7701 2.11984,-1.34018 3.28975,-1.71023c1.16991,-0.38005 2.25982,-0.91012 3.28974,-1.58022c0.09,-0.09 0.33998,-0.30004 0.72995,-0.61008c0.38997,-0.31004 0.63995,-0.49007 0.72994,-0.53007c0.05,-0.06 0.21999,-0.12002 0.50996,-0.19003c0.29998,-0.06 0.48996,-0.10001 0.57996,-0.10001c0.05,0 0.23998,-0.01 0.54996,-0.03c0.31997,-0.02 0.65995,-0.06 1.01992,-0.10002c0.36997,-0.05 0.68994,-0.08 0.97992,-0.11001c0.29998,-0.02 0.48997,-0.03 0.58996,-0.03c1.2599,-0.27004 2.35982,-0.89012 3.28974,-1.86025c0.92993,-0.96013 1.73987,-1.92026 2.41982,-2.8904c0.1,-0.09 0.19998,-0.29003 0.29998,-0.57008l0.05,-6.26085c0,-0.05 -0.15999,-0.40005 -0.49996,-1.07015c-0.32998,-0.66008 -0.60996,-1.18016 -0.84994,-1.57021c-0.91993,-1.4602 -2.17983,-2.35032 -3.79971,-2.69037c-1.61987,-0.33005 -3.25975,-0.50007 -4.90962,-0.51007c-0.62995,-0.01 -1.18991,0 -1.66987,0.02c-0.48996,0.02 -0.97993,0.07 -1.45989,0.13002c-0.48996,0.07 -0.97993,0.18002 -1.48989,0.32004c-0.50996,0.14002 -1.08991,0.35005 -1.71986,0.64009c-0.33998,0.24003 -0.61996,0.50007 -0.83994,0.79011c-0.21998,0.29004 -0.33997,0.65009 -0.33997,1.09015c0,0.25003 0.08,0.51007 0.24998,0.81011c0.15998,0.28004 0.35997,0.61008 0.56995,0.98013c0.21999,0.37005 0.41997,0.77011 0.60996,1.20017c0.18998,0.44006 0.27998,0.95013 0.27998,1.53021c-0.02,1.61022 -0.45997,3.07042 -1.3499,4.4006c-0.87993,1.33018 -2.22983,1.98027 -4.01969,1.96026c-0.86994,0 -1.63988,-0.25003 -2.28983,-0.7401c-0.64995,-0.49006 -1.1899,-1.10015 -1.61987,-1.83025c-0.42997,-0.7401 -0.75994,-1.53021 -0.99993,-2.38032c-0.22998,-0.85012 -0.33997,-1.64023 -0.33997,-2.37033c0.01,-0.97013 0.20998,-1.93026 0.60995,-2.87039c0.38997,-0.94013 0.78994,-1.82025 1.18991,-2.64036c0.63995,-1.31018 1.45989,-2.49034 2.45981,-3.55049c1.00993,-1.06014 2.13984,-1.96026 3.40974,-2.70036c1.2699,-0.74011 2.6198,-1.30018 4.05969,-1.68023c1.42989,-0.37005 2.86978,-0.55008 4.32967,-0.54008c1.88985,0.02 3.76971,0.29004 5.62957,0.82011c1.85985,0.52008 3.56972,1.31018 5.1096,2.37033c1.54988,1.06014 2.85978,2.36032 3.9297,3.89053c1.07992,1.54021 1.75987,3.33045 2.02985,5.37073c0.05,0.24004 0.08,0.74011 0.1,1.49021c0.02,0.7501 0.02,1.25017 0.02,1.4902c-0.02,2.38033 -0.31998,4.47061 -0.88993,6.29086c-0.56996,1.82025 -1.4099,3.41047 -2.51981,4.78066c-1.09992,1.37018 -2.46981,2.55034 -4.09969,3.53048c-1.63987,0.98013 -3.49973,1.83025 -5.58957,2.54034c-1.06991,0.37005 -2.11983,0.66009 -3.13976,0.84012c-1.01992,0.18002 -2.06984,0.54007 -3.13976,1.07014c-0.23998,0.09 -0.55995,0.23003 -0.94992,0.42006c-0.38997,0.19003 -0.75994,0.38005 -1.12991,0.58008c-0.35998,0.18003 -0.81994,0.40005 -1.3499,0.64009l-3.9697,4.26058c-0.05,0.24003 -0.07,0.41006 -0.07,0.51007l-0.01,0.50007c0,0.25003 0.11999,0.40005 0.35998,0.45006c0.53995,-0.15002 0.99992,-0.24004 1.37989,-0.28004c0.38997,-0.04 0.84993,-0.07 1.38989,-0.07c1.20991,0.01 2.32982,0.25003 3.33975,0.7201c1.00992,0.48006 1.98985,0.98013 2.92977,1.52021c0.94993,0.54007 1.90985,1.05014 2.89978,1.5202c0.98992,0.47007 2.08984,0.7101 3.30974,0.7201c0.91993,0.01 1.65988,-0.02 2.21983,-0.09c0.55996,-0.07 1.3399,-0.21003 2.36982,-0.45006c0.67995,-0.53007 1.11992,-1.27017 1.3199,-2.2103c0.20999,-0.94013 0.39997,-1.86026 0.56996,-2.76038c0.17999,-0.90012 0.46996,-1.67023 0.85993,-2.32032c0.39997,-0.65008 1.12991,-0.97013 2.18983,-0.96013c0.72995,0.01 1.25991,0.19003 1.59988,0.56008c0.32997,0.36005 0.56996,0.81011 0.71995,1.35018c0.13998,0.53008 0.20998,1.12016 0.19998,1.75024l-0.02,1.67023c-0.02,2.67036 -0.57996,4.77065 -1.68987,6.32086c-1.09992,1.54021 -2.94977,2.76038 -5.51958,3.6605c-0.72994,0.29004 -1.34989,0.60008 -1.82986,0.93013c-0.48996,0.33004 -1.14991,0.50007 -1.96985,0.49007c-0.87993,-0.01 -1.54988,-0.19003 -2.03984,-0.56008c-0.47996,-0.37005 -1.07992,-0.68009 -1.79986,-0.93013c-0.06,0 -0.19999,-0.03 -0.43997,-0.07c-0.24998,-0.05 -0.48996,-0.11001 -0.72994,-0.15001c-0.23998,-0.06 -0.47997,-0.12002 -0.71995,-0.19003c-0.24998,-0.08 -0.38997,-0.12002 -0.43996,-0.12002c-0.14999,-0.05 -0.45997,-0.21003 -0.93993,-0.48006c-0.47996,-0.27004 -1.01992,-0.56008 -1.59988,-0.85012c-0.56995,-0.30004 -1.10991,-0.57008 -1.58988,-0.81011c-0.47996,-0.25003 -0.79993,-0.42006 -0.93992,-0.52007c-0.42997,-0.20003 -0.90993,-0.39005 -1.4099,-0.59008c-0.50996,-0.20003 -1.02992,-0.30004 -1.55988,-0.31004c-0.72994,-0.01 -1.34989,0.20003 -1.86985,0.64008z" fill="#141515" stroke="none" stroke-width="0.26458" stroke-miterlimit="10"/><path d="M180.51554,356.60815c-0.50996,0.43006 -0.98992,0.90013 -1.42989,1.4002c-0.43996,0.51007 -0.90993,0.97013 -1.38989,1.37018c-0.48996,0.41006 -1.09992,0.62009 -1.82986,0.61009c-1.2599,-0.01 -2.12984,-0.35005 -2.6098,-1.01014c-0.47996,-0.66009 -0.70995,-1.57022 -0.69995,-2.73037c0.03,-3.79052 0.86994,-7.301 2.52981,-10.54144c1.64987,-3.22044 3.98969,-5.97082 7.01946,-8.23113c1.02992,-0.7701 2.11984,-1.34018 3.28975,-1.71023c1.16991,-0.38005 2.25982,-0.91012 3.28974,-1.58022c0.09,-0.09 0.33998,-0.30004 0.72995,-0.61008c0.38997,-0.31004 0.63995,-0.49007 0.72994,-0.53007c0.05,-0.06 0.21999,-0.12002 0.50996,-0.19003c0.29998,-0.06 0.48996,-0.10001 0.57996,-0.10001c0.05,0 0.23998,-0.01 0.54996,-0.03c0.31997,-0.02 0.65995,-0.06 1.01992,-0.10002c0.36997,-0.05 0.68994,-0.08 0.97992,-0.11001c0.29998,-0.02 0.48997,-0.03 0.58996,-0.03c1.2599,-0.27004 2.35982,-0.89012 3.28974,-1.86025c0.92993,-0.96013 1.73987,-1.92026 2.41982,-2.8904c0.1,-0.09 0.19998,-0.29003 0.29998,-0.57008l0.05,-6.26085c0,-0.05 -0.15999,-0.40005 -0.49996,-1.07015c-0.32998,-0.66008 -0.60996,-1.18016 -0.84994,-1.57021c-0.91993,-1.4602 -2.17983,-2.35032 -3.79971,-2.69037c-1.61987,-0.33005 -3.25975,-0.50007 -4.90962,-0.51007c-0.62995,-0.01 -1.18991,0 -1.66987,0.02c-0.48996,0.02 -0.97993,0.07 -1.45989,0.13002c-0.48996,0.07 -0.97993,0.18002 -1.48989,0.32004c-0.50996,0.14002 -1.08991,0.35005 -1.71986,0.64009c-0.33998,0.24003 -0.61996,0.50007 -0.83994,0.79011c-0.21998,0.29004 -0.33997,0.65009 -0.33997,1.09015c0,0.25003 0.08,0.51007 0.24998,0.81011c0.15998,0.28004 0.35997,0.61008 0.56995,0.98013c0.21999,0.37005 0.41997,0.77011 0.60996,1.20017c0.18998,0.44006 0.27998,0.95013 0.27998,1.53021c-0.02,1.61022 -0.45997,3.07042 -1.3499,4.4006c-0.87993,1.33018 -2.22983,1.98027 -4.01969,1.96026c-0.86994,0 -1.63988,-0.25003 -2.28983,-0.7401c-0.64995,-0.49006 -1.1899,-1.10015 -1.61987,-1.83025c-0.42997,-0.7401 -0.75994,-1.53021 -0.99993,-2.38032c-0.22998,-0.85012 -0.33997,-1.64023 -0.33997,-2.37033c0.01,-0.97013 0.20998,-1.93026 0.60995,-2.87039c0.38997,-0.94013 0.78994,-1.82025 1.18991,-2.64036c0.63995,-1.31018 1.45989,-2.49034 2.45981,-3.55049c1.00993,-1.06014 2.13984,-1.96026 3.40974,-2.70036c1.2699,-0.74011 2.6198,-1.30018 4.05969,-1.68023c1.42989,-0.37005 2.86978,-0.55008 4.32967,-0.54008c1.88985,0.02 3.76971,0.29004 5.62957,0.82011c1.85985,0.52008 3.56972,1.31018 5.1096,2.37033c1.54988,1.06014 2.85978,2.36032 3.9297,3.89053c1.07992,1.54021 1.75987,3.33045 2.02985,5.37073c0.05,0.24004 0.08,0.74011 0.1,1.49021c0.02,0.7501 0.02,1.25017 0.02,1.4902c-0.02,2.38033 -0.31998,4.47061 -0.88993,6.29086c-0.56996,1.82025 -1.4099,3.41047 -2.51981,4.78066c-1.09992,1.37018 -2.46981,2.55034 -4.09969,3.53048c-1.63987,0.98013 -3.49973,1.83025 -5.58957,2.54034c-1.06991,0.37005 -2.11983,0.66009 -3.13976,0.84012c-1.01992,0.18002 -2.06984,0.54007 -3.13976,1.07014c-0.23998,0.09 -0.55995,0.23003 -0.94992,0.42006c-0.38997,0.19003 -0.75994,0.38005 -1.12991,0.58008c-0.35998,0.18003 -0.81994,0.40005 -1.3499,0.64009l-3.9697,4.26058c-0.05,0.24003 -0.07,0.41006 -0.07,0.51007l-0.01,0.50007c0,0.25003 0.11999,0.40005 0.35998,0.45006c0.53995,-0.15002 0.99992,-0.24004 1.37989,-0.28004c0.38997,-0.04 0.84993,-0.07 1.38989,-0.07c1.20991,0.01 2.32982,0.25003 3.33975,0.7201c1.00992,0.48006 1.98985,0.98013 2.92977,1.52021c0.94993,0.54007 1.90985,1.05014 2.89978,1.5202c0.98992,0.47007 2.08984,0.7101 3.30974,0.7201c0.91993,0.01 1.65988,-0.02 2.21983,-0.09c0.55996,-0.07 1.3399,-0.21003 2.36982,-0.45006c0.67995,-0.53007 1.11992,-1.27017 1.3199,-2.2103c0.20999,-0.94013 0.39997,-1.86026 0.56996,-2.76038c0.17999,-0.90012 0.46996,-1.67023 0.85993,-2.32032c0.39997,-0.65008 1.12991,-0.97013 2.18983,-0.96013c0.72995,0.01 1.25991,0.19003 1.59988,0.56008c0.32997,0.36005 0.56996,0.81011 0.71995,1.35018c0.13998,0.53008 0.20998,1.12016 0.19998,1.75024l-0.02,1.67023c-0.02,2.67036 -0.57996,4.77065 -1.68987,6.32086c-1.09992,1.54021 -2.94977,2.76038 -5.51958,3.6605c-0.72994,0.29004 -1.34989,0.60008 -1.82986,0.93013c-0.48996,0.33004 -1.14991,0.50007 -1.96985,0.49007c-0.87993,-0.01 -1.54988,-0.19003 -2.03984,-0.56008c-0.47996,-0.37005 -1.07992,-0.68009 -1.79986,-0.93013c-0.06,0 -0.19999,-0.03 -0.43997,-0.07c-0.24998,-0.05 -0.48996,-0.11001 -0.72994,-0.15001c-0.23998,-0.06 -0.47997,-0.12002 -0.71995,-0.19003c-0.24998,-0.08 -0.38997,-0.12002 -0.43996,-0.12002c-0.14999,-0.05 -0.45997,-0.21003 -0.93993,-0.48006c-0.47996,-0.27004 -1.01992,-0.56008 -1.59988,-0.85012c-0.56995,-0.30004 -1.10991,-0.57008 -1.58988,-0.81011c-0.47996,-0.25003 -0.79993,-0.42006 -0.93992,-0.52007c-0.42997,-0.20003 -0.90993,-0.39005 -1.4099,-0.59008c-0.50996,-0.20003 -1.02992,-0.30004 -1.55988,-0.31004c-0.72994,-0.01 -1.34989,0.20003 -1.86985,0.64008" fill="none" stroke="#3eb311" stroke-width="0.10999" stroke-miterlimit="4"/></g></g></svg>