<svg version="1.1" xmlns="http://www.w3.org/2000/svg" xmlns:xlink="http://www.w3.org/1999/xlink" width="56.9606" height="19.09856" viewBox="0,0,56.9606,19.09856"><g transform="translate(-151.8947,-310.82572)"><g data-paper-data="{&quot;isPaintingLayer&quot;:true}" fill-rule="nonzero" stroke="none" stroke-width="0.26458" stroke-linecap="butt" stroke-linejoin="miter" stroke-miterlimit="10" stroke-dasharray="" stroke-dashoffset="0" style="mix-blend-mode: normal"><g fill-opacity="0.53725" fill="#001712"><path d="M197.78934,312.66586c0.1,-0.02 1.42989,-0.02 3.98969,-0.01c2.5498,0.02 4.01969,0.04 4.38966,0.08c0.89993,0.08 1.47989,0.19002 1.73987,0.35005c0.25998,0.16002 0.44996,0.52007 0.55995,1.08014c0.15999,0.77011 0.27998,2.02028 0.33998,3.77051c0.07,1.75024 0.06,3.41047 -0.02,4.99069c-0.15999,2.9704 -0.50996,4.73064 -1.02992,5.30072c-0.08,0.10001 -0.14999,0.17002 -0.20999,0.21003c-0.05,0.04 -0.19998,0.07 -0.44996,0.08c-0.23998,0.02 -0.50996,0.03 -0.79994,0.02c-0.29998,-0.01 -0.79994,-0.03 -1.51988,-0.06c-1.65988,-0.07 -3.28975,-0.10002 -4.88963,-0.08c-0.83993,0.01 -1.42989,0 -1.76986,-0.04c-0.32998,-0.03 -0.66995,-0.12002 -0.99993,-0.27004c-0.32997,-0.14002 -0.53996,-0.40005 -0.60995,-0.7601c-0.07,-0.36005 -0.09,-1.22017 -0.06,-2.60036c0.05,-2.89039 0.23998,-5.68077 0.55996,-8.38114c0.07,-0.64009 0.1,-1.32018 0.1,-2.04028c0,-0.68009 0.02,-1.07014 0.07,-1.17016c0.03,-0.09 0.11999,-0.18002 0.24998,-0.28004c0.12999,-0.09 0.24998,-0.16002 0.35997,-0.19002z"/><path d="M158.61235,311.63572c0.55996,-0.04 1.38989,-0.06 2.50981,-0.06c1.10992,0 1.77986,0.01 2.02984,0.04c0.54996,0.09 0.91993,0.20002 1.12991,0.32004c0.09999,0.06 0.18999,0.16002 0.27998,0.29004c0.08999,0.13002 0.14999,0.25003 0.16999,0.36005c0.02,0.09 0.04,0.47006 0.06,1.14015c0.03,0.98014 0,2.37033 -0.09999,4.15058c-0.08999,1.73023 -0.11999,3.14042 -0.06999,4.24057c0.06999,1.58022 0.08999,2.64036 0.07999,3.18044c-0.01,0.55007 -0.07,0.90012 -0.15999,1.06014c-0.09999,0.14002 -0.25998,0.23003 -0.48996,0.26004c-0.21998,0.04 -0.77994,0.05 -1.67987,0.05c-4.48965,-0.02 -7.09946,-0.04 -7.8494,-0.06c-0.73994,-0.01 -1.16991,-0.05 -1.2799,-0.13002c-0.12999,-0.08 -0.21998,-0.16002 -0.26998,-0.24003c-0.06,-0.08 -0.1,-0.21003 -0.13,-0.38006c-0.05,-0.26003 -0.08999,-0.68009 -0.10999,-1.26017c-0.02,-0.57008 -0.05,-1.70023 -0.06999,-3.37046c-0.03,-2.2103 -0.02,-3.78051 0.01,-4.68064c0.03,-0.92013 0.06,-1.78024 0.06999,-2.58035c0.02,-0.66009 0.04,-1.09015 0.06999,-1.29018c0.03,-0.21003 0.08999,-0.37005 0.18999,-0.49007c0.11999,-0.13001 0.26998,-0.21002 0.46996,-0.25003c0.18998,-0.04 0.56996,-0.06 1.12991,-0.06c0.68995,0 1.40989,-0.04 2.16983,-0.10001c0.37997,-0.04 0.99992,-0.09 1.83986,-0.14002z"/><path d="M169.24154,314.50611c0.19998,0.01 0.38997,0.02 0.56995,0.03c0.31998,0.02 0.58996,0.05 0.77994,0.09c0.27998,0.04 0.46997,0.12001 0.56996,0.22003c0.08,0.07 0.15999,0.20003 0.21998,0.37005c0.03,0.12002 0.06,0.26003 0.1,0.44006c0.06,0.32004 0.12999,0.7401 0.18999,1.26017c0.10999,1.03014 0.18998,2.2003 0.24998,3.52048c0.05,1.40019 0.06,2.58036 0.01,3.52048c-0.02,0.53008 -0.07,0.95013 -0.13999,1.26018c-0.03,0.19002 -0.07,0.35004 -0.11999,0.47006c-0.09,0.20003 -0.19999,0.33005 -0.33998,0.39005c-0.21998,0.09 -0.66994,0.19003 -1.37989,0.30004c-0.69995,0.10002 -1.44989,0.18003 -2.22983,0.23004c-0.88993,0.06 -1.63987,0.08 -2.24983,0.05c-0.77994,-0.06 -1.2899,-0.20003 -1.52988,-0.42006c-0.07999,-0.08 -0.14999,-0.20003 -0.19999,-0.38005c-0.04,-0.11002 -0.06999,-0.25004 -0.08999,-0.42006c-0.05,-0.29004 -0.10999,-0.68009 -0.16999,-1.18016c-0.07999,-0.81011 -0.16999,-1.92026 -0.25998,-3.32045c-0.05,-0.78011 -0.11999,-1.77025 -0.18999,-2.97041c-0.06,-1.06015 -0.08999,-1.68023 -0.09999,-1.84025v-0.03c-0.01,-0.02 -0.02,-0.05 -0.02,-0.08v-0.03c0,-0.10002 -0.01,-0.18003 -0.02,-0.25004c0,-0.13002 0,-0.24003 0.01,-0.34004c0.02,-0.08 0.04,-0.15002 0.05,-0.21003c0.04,-0.10002 0.09999,-0.18003 0.16999,-0.25004c0.22998,-0.20002 0.55996,-0.34004 0.96992,-0.42005c0.28998,-0.05 0.64995,-0.07 1.08992,-0.06c0.14999,0.01 0.33997,0.02 0.55996,0.03c0.52996,-0.01 1.05992,-0.01 1.57988,-0.01c0.05,-0.01 0.07999,-0.02 0.08999,-0.02c0.25998,-0.03 0.48996,-0.05 0.66995,-0.06c0.31997,-0.02 0.59995,-0.02 0.82993,0.01c0.10999,0.02 0.21999,0.06 0.32998,0.10001zM164.09193,316.6564c0,-0.01 0.01,-0.02 0.01,-0.03h-0.01zM166.06178,322.43719c0,-0.02 0,-0.03 0.01,-0.04h-0.03c0.01,0.01 0.02,0.02 0.02,0.04z"/><path d="M169.27153,314.09605c0.42997,-0.03 1.3599,-0.05 2.79979,-0.05c1.43989,0 2.6398,0.02 3.59972,0.05c2.11984,0.07 3.27975,0.15002 3.47974,0.25004c0.27997,0.14002 0.44996,0.48006 0.50996,1.04014c0.49996,4.77065 0.74994,7.79106 0.74994,9.04123c0,0.52007 -0.01,0.88012 -0.03,1.07015c-0.02,0.18002 -0.06,0.33004 -0.11999,0.42005c-0.06,0.10002 -0.18999,0.19003 -0.37997,0.28004c-0.15999,0.07 -0.28998,0.12002 -0.39997,0.14002c-0.10999,0.01 -0.39997,0.02 -0.85994,0.02l-0.93992,0.02l-0.30998,0.18002c-0.22998,0.12002 -0.46996,0.23004 -0.72994,0.32005c-0.28998,0.10001 -0.62996,0.15002 -1.02992,0.15002c-0.59996,-0.01 -1.46989,0.21003 -1.25991,0.26003c0.21999,0.05 0.38997,0.19003 0.50996,0.42006c0.08,0.15002 0.12999,0.44006 0.13999,0.87012c0.01,0.47006 -0.03,0.79011 -0.11999,0.93013c-0.09,0.15002 -0.32997,0.26003 -0.71994,0.33004c-0.28998,0.07 -0.67995,0.10002 -1.16991,0.08c-0.48997,-0.02 -1.47989,-0.08 -2.94978,-0.19002c-0.31997,-0.04 -0.55995,-0.08 -0.70994,-0.14002c-0.15999,-0.05 -0.30998,-0.16003 -0.44997,-0.31005c-0.27998,-0.27003 -0.44996,-0.58007 -0.50996,-0.93012c-0.06,-0.35005 0,-0.62009 0.17999,-0.82011c0.20998,-0.25004 0.58995,-0.38006 1.15991,-0.40006l0.54996,-0.03v-0.30004v-0.30004h-0.59996c-0.98992,0 -1.55988,-0.16002 -1.70987,-0.47007c-0.05,-0.09 -0.09,-0.61008 -0.11999,-1.57021c-0.01,-0.94013 -0.06,-1.90026 -0.14999,-2.88039c-0.16998,-1.88026 -0.24998,-3.42047 -0.24998,-4.59063c0,-0.98013 0.02,-1.60021 0.07999,-1.85025c0.07999,-0.38005 0.22999,-0.63008 0.44997,-0.7601c0.21998,-0.13002 0.65995,-0.22003 1.3099,-0.28004zM184.71034,313.98604c0.1,-0.02 1.42989,-0.02 3.98969,-0.01c2.54981,0.02 4.01969,0.04 4.39966,0.07c0.88994,0.08 1.46989,0.19002 1.72987,0.33004c0.25998,0.15002 0.44997,0.49007 0.55996,1.01014c0.16999,0.7201 0.27998,1.89026 0.34997,3.53048c0.06,1.63022 0.05,3.19043 -0.03,4.66063c-0.15999,2.77038 -0.49996,4.42061 -1.02992,4.95068c-0.08,0.09 -0.14999,0.16002 -0.19998,0.20003c-0.06,0.03 -0.20999,0.06 -0.45997,0.08c-0.23998,0.01 -0.50996,0.02 -0.79994,0.01c-0.29997,0 -0.79993,-0.02 -1.51988,-0.05c-1.65987,-0.07 -3.28975,-0.09 -4.87962,-0.08c-0.84994,0.01 -1.43989,0 -1.77987,-0.03c-0.32997,-0.04 -0.65995,-0.12002 -0.99992,-0.26004c-0.32998,-0.13002 -0.53996,-0.37005 -0.60995,-0.71009c-0.07,-0.33005 -0.09,-1.14016 -0.06,-2.42033c0.05,-2.71037 0.23998,-5.32073 0.55996,-7.84108c0.07,-0.60007 0.1,-1.24016 0.1,-1.91025c0,-0.63009 0.03,-0.99014 0.07,-1.09015c0.04,-0.08 0.11998,-0.17002 0.24998,-0.26004c0.12999,-0.09 0.24998,-0.15002 0.35997,-0.18002z"/><path d="M183.17046,326.78778c-0.61995,0.06 -1.21991,0.04 -1.80986,-0.06c-0.16999,-0.03 -0.31998,-0.07 -0.46997,-0.11001h-0.10999c-0.62995,-0.06 -1.13991,-0.11002 -1.52988,-0.18003c-0.52996,-0.09 -0.87993,-0.20003 -1.05992,-0.32004c-0.15999,-0.12002 -0.27998,-0.31004 -0.34997,-0.56008c-0.06,-0.16002 -0.11,-0.36005 -0.13999,-0.60008c-0.06,-0.38005 -0.09,-0.88012 -0.10999,-1.4802v-1.59022c0,-0.02 0.01,-0.09 0.01,-0.19003c0.01,-0.10001 0.01,-0.16002 0.01,-0.17002v-0.24003v-0.52007c-0.01,-0.81011 0,-1.4502 0.03,-1.91026c0.07,-1.15016 0.27997,-2.02027 0.63995,-2.62036c0.01,-0.05 0.04,-0.10001 0.07,-0.15002c0.08,-0.28003 0.21998,-0.48006 0.41996,-0.60008c0.25998,-0.20002 0.69995,-0.33004 1.2999,-0.37005c0.38997,-0.03 0.87994,-0.03 1.48989,0c0.28998,0.01 0.63995,0.03 1.03992,0.07c0.03,0 0.13999,0.01 0.33997,0.03c0.19999,0.01 0.31998,0.02 0.36998,0.02c0.21998,0.03 0.36997,0.04 0.45996,0.04c1.07992,0.02 2.29982,0 3.67972,-0.07c0.04,0 0.15999,-0.01 0.35997,-0.02c0.19998,-0.01 0.31997,-0.02 0.34997,-0.02c0.25998,-0.01 0.47996,-0.03 0.65995,-0.04c0.45997,-0.01 0.83994,-0.01 1.12992,0c0.80993,0.05 1.42988,0.27004 1.83985,0.65009c0.37997,0.38005 0.63995,0.98013 0.76994,1.81025c0.09,0.66009 0.13999,1.72023 0.13999,3.18043c0,0.23003 0.03,0.7101 0.10999,1.4502c0.04,0.48006 0.07,0.86011 0.09,1.13015c0.02,0.63009 0.02,1.16016 -0.03,1.59022c-0.07,0.60008 -0.22998,1.08015 -0.47996,1.4502c-0.09,0.13001 -0.20998,0.23003 -0.35997,0.31004c-0.31998,0.15002 -1.20991,0.24003 -2.6598,0.27004c-1.2199,0.01 -2.65979,-0.01 -4.30967,-0.07c-0.64995,-0.04 -1.2799,-0.08 -1.88985,-0.11002z"/></g><path d="M197.03935,311.91586c0.1,-0.02 1.42989,-0.02 3.98969,-0.01c2.5498,0.02 4.01969,0.04 4.38966,0.08c0.89993,0.08 1.47989,0.19002 1.73987,0.35005c0.25998,0.16002 0.44996,0.52007 0.55995,1.08014c0.15999,0.77011 0.27998,2.02028 0.33998,3.77051c0.07,1.75024 0.06,3.41047 -0.02,4.99069c-0.15999,2.9704 -0.50996,4.73064 -1.02992,5.30072c-0.08,0.10001 -0.14999,0.17002 -0.20999,0.21003c-0.05,0.04 -0.19998,0.07 -0.44996,0.08c-0.23998,0.02 -0.50996,0.03 -0.79994,0.02c-0.29998,-0.01 -0.79994,-0.03 -1.51988,-0.06c-1.65988,-0.07 -3.28975,-0.10002 -4.88963,-0.08c-0.83993,0.01 -1.42989,0 -1.76986,-0.04c-0.32998,-0.03 -0.66995,-0.12002 -0.99993,-0.27004c-0.32997,-0.14002 -0.53996,-0.40005 -0.60995,-0.7601c-0.07,-0.36005 -0.09,-1.22017 -0.06,-2.60036c0.05,-2.89039 0.23998,-5.68077 0.55996,-8.38114c0.07,-0.64009 0.1,-1.32018 0.1,-2.04028c0,-0.68009 0.02,-1.07014 0.07,-1.17016c0.03,-0.09 0.11999,-0.18002 0.24998,-0.28004c0.12999,-0.09 0.24998,-0.16002 0.35997,-0.19002z" fill="#3fa535"/><path d="M157.86236,310.88572c0.55996,-0.04 1.38989,-0.06 2.50981,-0.06c1.10992,0 1.77986,0.01 2.02984,0.04c0.54996,0.09 0.91993,0.20002 1.12991,0.32004c0.09999,0.06 0.18999,0.16002 0.27998,0.29004c0.08999,0.13002 0.14999,0.25003 0.16999,0.36005c0.02,0.09 0.04,0.47006 0.06,1.14015c0.03,0.98014 0,2.37033 -0.09999,4.15058c-0.08999,1.73023 -0.11999,3.14042 -0.06999,4.24057c0.06999,1.58022 0.08999,2.64036 0.07999,3.18044c-0.01,0.55007 -0.07,0.90012 -0.15999,1.06014c-0.09999,0.14002 -0.25998,0.23003 -0.48996,0.26004c-0.21998,0.04 -0.77994,0.05 -1.67987,0.05c-4.48965,-0.02 -7.09946,-0.04 -7.8494,-0.06c-0.73994,-0.01 -1.16991,-0.05 -1.2799,-0.13002c-0.12999,-0.08 -0.21998,-0.16002 -0.26998,-0.24003c-0.06,-0.08 -0.1,-0.21003 -0.13,-0.38006c-0.05,-0.26003 -0.08999,-0.68009 -0.10999,-1.26017c-0.02,-0.57008 -0.05,-1.70023 -0.06999,-3.37046c-0.03,-2.2103 -0.02,-3.78051 0.01,-4.68064c0.03,-0.92013 0.06,-1.78024 0.06999,-2.58035c0.02,-0.66009 0.04,-1.09015 0.06999,-1.29018c0.03,-0.21003 0.08999,-0.37005 0.18999,-0.49007c0.11999,-0.13001 0.26998,-0.21002 0.46996,-0.25003c0.18998,-0.04 0.56996,-0.06 1.12991,-0.06c0.68995,0 1.40989,-0.04 2.16983,-0.10001c0.37997,-0.04 0.99992,-0.09 1.83986,-0.14002z" fill="#3fa535"/><path d="M168.49155,313.75611c0.19998,0.01 0.38997,0.02 0.56995,0.03c0.31998,0.02 0.58996,0.05 0.77994,0.09c0.27998,0.04 0.46997,0.12001 0.56996,0.22003c0.08,0.07 0.15999,0.20003 0.21998,0.37005c0.03,0.12002 0.06,0.26003 0.1,0.44006c0.06,0.32004 0.12999,0.7401 0.18999,1.26017c0.10999,1.03014 0.18998,2.2003 0.24998,3.52048c0.05,1.40019 0.06,2.58036 0.01,3.52048c-0.02,0.53008 -0.07,0.95013 -0.13999,1.26018c-0.03,0.19002 -0.07,0.35004 -0.11999,0.47006c-0.09,0.20003 -0.19999,0.33005 -0.33998,0.39005c-0.21998,0.09 -0.66994,0.19003 -1.37989,0.30004c-0.69995,0.10002 -1.44989,0.18003 -2.22983,0.23004c-0.88993,0.06 -1.63987,0.08 -2.24983,0.05c-0.77994,-0.06 -1.2899,-0.20003 -1.52988,-0.42006c-0.07999,-0.08 -0.14999,-0.20003 -0.19999,-0.38005c-0.04,-0.11002 -0.06999,-0.25004 -0.08999,-0.42006c-0.05,-0.29004 -0.10999,-0.68009 -0.16999,-1.18016c-0.07999,-0.81011 -0.16999,-1.92026 -0.25998,-3.32045c-0.05,-0.78011 -0.11999,-1.77025 -0.18999,-2.97041c-0.06,-1.06015 -0.08999,-1.68023 -0.09999,-1.84025v-0.03c-0.01,-0.02 -0.02,-0.05 -0.02,-0.08v-0.03c0,-0.10002 -0.01,-0.18003 -0.02,-0.25004c0,-0.13002 0,-0.24003 0.01,-0.34004c0.02,-0.08 0.04,-0.15002 0.05,-0.21003c0.04,-0.10002 0.09999,-0.18003 0.16999,-0.25004c0.22998,-0.20002 0.55996,-0.34004 0.96992,-0.42005c0.28998,-0.05 0.64995,-0.07 1.08992,-0.06c0.14999,0.01 0.33997,0.02 0.55996,0.03c0.52996,-0.01 1.05992,-0.01 1.57988,-0.01c0.05,-0.01 0.07999,-0.02 0.08999,-0.02c0.25998,-0.03 0.48996,-0.05 0.66995,-0.06c0.31997,-0.02 0.59995,-0.02 0.82993,0.01c0.10999,0.02 0.21999,0.06 0.32998,0.10001zM163.34194,315.9064c0,-0.01 0.01,-0.02 0.01,-0.03h-0.01zM165.31178,321.68719c0,-0.02 0,-0.03 0.01,-0.04h-0.03c0.01,0.01 0.02,0.02 0.02,0.04z" fill="#3fa535"/><path d="M168.52154,313.34605c0.42997,-0.03 1.3599,-0.05 2.79979,-0.05c1.43989,0 2.6398,0.02 3.59972,0.05c2.11984,0.07 3.27975,0.15002 3.47974,0.25004c0.27997,0.14002 0.44996,0.48006 0.50996,1.04014c0.49996,4.77065 0.74994,7.79106 0.74994,9.04123c0,0.52007 -0.01,0.88012 -0.03,1.07015c-0.02,0.18002 -0.06,0.33004 -0.11999,0.42005c-0.06,0.10002 -0.18999,0.19003 -0.37997,0.28004c-0.15999,0.07 -0.28998,0.12002 -0.39997,0.14002c-0.10999,0.01 -0.39997,0.02 -0.85994,0.02l-0.93992,0.02l-0.30998,0.18002c-0.22998,0.12002 -0.46996,0.23004 -0.72994,0.32005c-0.28998,0.10001 -0.62996,0.15002 -1.02992,0.15002c-0.59996,-0.01 -1.46989,0.21003 -1.25991,0.26003c0.21999,0.05 0.38997,0.19003 0.50996,0.42006c0.08,0.15002 0.12999,0.44006 0.13999,0.87012c0.01,0.47006 -0.03,0.79011 -0.11999,0.93013c-0.09,0.15002 -0.32997,0.26003 -0.71994,0.33004c-0.28998,0.07 -0.67995,0.10002 -1.16991,0.08c-0.48997,-0.02 -1.47989,-0.08 -2.94978,-0.19002c-0.31997,-0.04 -0.55995,-0.08 -0.70994,-0.14002c-0.15999,-0.05 -0.30998,-0.16003 -0.44997,-0.31005c-0.27998,-0.27003 -0.44996,-0.58007 -0.50996,-0.93012c-0.06,-0.35005 0,-0.62009 0.17999,-0.82011c0.20998,-0.25004 0.58995,-0.38006 1.15991,-0.40006l0.54996,-0.03v-0.30004v-0.30004h-0.59996c-0.98992,0 -1.55988,-0.16002 -1.70987,-0.47007c-0.05,-0.09 -0.09,-0.61008 -0.11999,-1.57021c-0.01,-0.94013 -0.06,-1.90026 -0.14999,-2.88039c-0.16998,-1.88026 -0.24998,-3.42047 -0.24998,-4.59063c0,-0.98013 0.02,-1.60021 0.07999,-1.85025c0.07999,-0.38005 0.22999,-0.63008 0.44997,-0.7601c0.21998,-0.13002 0.65995,-0.22003 1.3099,-0.28004zM183.96035,313.23604c0.1,-0.02 1.42989,-0.02 3.98969,-0.01c2.54981,0.02 4.01969,0.04 4.39966,0.07c0.88994,0.08 1.46989,0.19002 1.72987,0.33004c0.25998,0.15002 0.44997,0.49007 0.55996,1.01014c0.16999,0.7201 0.27998,1.89026 0.34997,3.53048c0.06,1.63022 0.05,3.19043 -0.03,4.66063c-0.15999,2.77038 -0.49996,4.42061 -1.02992,4.95068c-0.08,0.09 -0.14999,0.16002 -0.19998,0.20003c-0.06,0.03 -0.20999,0.06 -0.45997,0.08c-0.23998,0.01 -0.50996,0.02 -0.79994,0.01c-0.29997,0 -0.79993,-0.02 -1.51988,-0.05c-1.65987,-0.07 -3.28975,-0.09 -4.87962,-0.08c-0.84994,0.01 -1.43989,0 -1.77987,-0.03c-0.32997,-0.04 -0.65995,-0.12002 -0.99992,-0.26004c-0.32998,-0.13002 -0.53996,-0.37005 -0.60995,-0.71009c-0.07,-0.33005 -0.09,-1.14016 -0.06,-2.42033c0.05,-2.71037 0.23998,-5.32073 0.55996,-7.84108c0.07,-0.60007 0.1,-1.24016 0.1,-1.91025c0,-0.63009 0.03,-0.99014 0.07,-1.09015c0.04,-0.08 0.11998,-0.17002 0.24998,-0.26004c0.12999,-0.09 0.24998,-0.15002 0.35997,-0.18002z" fill="#3fa535"/><path d="M182.42047,326.03778c-0.61995,0.06 -1.21991,0.04 -1.80986,-0.06c-0.16999,-0.03 -0.31998,-0.07 -0.46997,-0.11001h-0.10999c-0.62995,-0.06 -1.13991,-0.11002 -1.52988,-0.18003c-0.52996,-0.09 -0.87993,-0.20003 -1.05992,-0.32004c-0.15999,-0.12002 -0.27998,-0.31004 -0.34997,-0.56008c-0.06,-0.16002 -0.11,-0.36005 -0.13999,-0.60008c-0.06,-0.38005 -0.09,-0.88012 -0.10999,-1.4802v-1.59022c0,-0.02 0.01,-0.09 0.01,-0.19003c0.01,-0.10001 0.01,-0.16002 0.01,-0.17002v-0.24003v-0.52007c-0.01,-0.81011 0,-1.4502 0.03,-1.91026c0.07,-1.15016 0.27997,-2.02027 0.63995,-2.62036c0.01,-0.05 0.04,-0.10001 0.07,-0.15002c0.08,-0.28003 0.21998,-0.48006 0.41996,-0.60008c0.25998,-0.20002 0.69995,-0.33004 1.2999,-0.37005c0.38997,-0.03 0.87994,-0.03 1.48989,0c0.28998,0.01 0.63995,0.03 1.03992,0.07c0.03,0 0.13999,0.01 0.33997,0.03c0.19999,0.01 0.31998,0.02 0.36998,0.02c0.21998,0.03 0.36997,0.04 0.45996,0.04c1.07992,0.02 2.29982,0 3.67972,-0.07c0.04,0 0.15999,-0.01 0.35997,-0.02c0.19998,-0.01 0.31997,-0.02 0.34997,-0.02c0.25998,-0.01 0.47996,-0.03 0.65995,-0.04c0.45997,-0.01 0.83994,-0.01 1.12992,0c0.80993,0.05 1.42988,0.27004 1.83985,0.65009c0.37997,0.38005 0.63995,0.98013 0.76994,1.81025c0.09,0.66009 0.13999,1.72023 0.13999,3.18043c0,0.23003 0.03,0.7101 0.10999,1.4502c0.04,0.48006 0.07,0.86011 0.09,1.13015c0.02,0.63009 0.02,1.16016 -0.03,1.59022c-0.07,0.60008 -0.22998,1.08015 -0.47996,1.4502c-0.09,0.13001 -0.20998,0.23003 -0.35997,0.31004c-0.31998,0.15002 -1.20991,0.24003 -2.6598,0.27004c-1.2199,0.01 -2.65979,-0.01 -4.30967,-0.07c-0.64995,-0.04 -1.2799,-0.08 -1.88985,-0.11002z" fill="#3fa535"/><path d="M154.49262,322.46729v-6.60089c0,-0.58008 -0.19998,-0.87012 -0.59995,-0.87012c-0.08999,0 -0.21998,0.01 -0.38997,0.03c-0.16999,0.03 -0.29998,0.03 -0.37997,0.03c-0.34997,0 -0.52996,-0.18003 -0.52996,-0.54008c0,-0.39005 0.19998,-0.59008 0.60995,-0.59008c0.18998,0 0.46996,0.02 0.84993,0.07c0.37997,0.05 0.66995,0.07 0.85993,0.07c0.19999,0 0.50996,-0.02 0.89993,-0.07c0.39997,-0.05 0.68995,-0.07 0.88993,-0.07c0.49996,0 0.73994,0.19003 0.73994,0.56008c0,0.38005 -0.16999,0.57008 -0.50996,0.57008c-0.07,0 -0.16999,0 -0.29998,-0.03c-0.12999,-0.02 -0.22998,-0.03 -0.29998,-0.03c-0.41997,0 -0.61995,0.28004 -0.61995,0.83011v3.6805c0,0.40005 0.03,0.64009 0.10999,0.7201c0.11999,-0.04 0.26998,-0.15002 0.44996,-0.32005l3.02977,-2.86039c0.35997,-0.34004 0.53996,-0.73009 0.53996,-1.16015c0,-0.30004 -0.03,-0.51007 -0.08999,-0.63009c-0.08999,-0.17002 -0.26998,-0.26003 -0.52996,-0.26003c-0.06999,0 -0.16999,0.01 -0.30998,0.03c-0.13999,0.03 -0.23998,0.03 -0.30998,0.03c-0.32997,0 -0.49996,-0.19003 -0.49996,-0.57008c0,-0.37005 0.23998,-0.56008 0.72994,-0.56008c0.19998,0 0.49996,0.02 0.90993,0.07c0.39997,0.05 0.70995,0.07 0.90993,0.07c0.18998,0 0.47996,-0.02 0.85993,-0.07c0.38997,-0.05 0.67995,-0.07 0.86993,-0.07c0.39997,0 0.59995,0.20003 0.59995,0.59008c0,0.36005 -0.17999,0.54008 -0.54996,0.54008c-0.07999,0 -0.19998,0 -0.35997,-0.03c-0.14999,-0.02 -0.26998,-0.03 -0.34997,-0.03c-0.42997,0 -0.64995,0.28004 -0.64995,0.83011v6.6309c0,0.59008 0.19998,0.88012 0.59995,0.88012c0.07999,0 0.20999,0 0.37997,-0.03c0.16999,-0.02 0.29998,-0.03 0.37997,-0.03c0.36997,0 0.54996,0.18003 0.54996,0.53008c0,0.40005 -0.19998,0.61008 -0.59995,0.61008c-0.18998,0 -0.47996,-0.03 -0.86993,-0.08c-0.37997,-0.05 -0.66995,-0.08 -0.85993,-0.08c-0.19998,0 -0.49996,0.03 -0.89993,0.08c-0.39997,0.05 -0.70995,0.08 -0.90993,0.08c-0.48996,0 -0.73994,-0.20003 -0.73994,-0.58008c0,-0.37005 0.16999,-0.56008 0.49996,-0.56008c0.07,0 0.17999,0.01 0.31998,0.03c0.13999,0.03 0.23998,0.03 0.31997,0.03c0.25998,0 0.42997,-0.09 0.51996,-0.26003c0.05,-0.13002 0.07999,-0.34005 0.07999,-0.64009v-4.03055c0,-0.23003 -0.01,-0.37005 -0.03,-0.44006c-0.19998,0.07 -0.76994,0.56008 -1.70987,1.4602c-0.56996,0.56008 -1.13991,1.12015 -1.70987,1.69023c-0.25998,0.25003 -0.42997,0.44006 -0.50996,0.59008c-0.10999,0.20003 -0.16999,0.45006 -0.16999,0.7601c0,0.29004 0.03,0.50007 0.08999,0.62009c0.08999,0.17002 0.26998,0.25003 0.52996,0.25003c0.06999,0 0.16999,0 0.29998,-0.03c0.12999,-0.02 0.22998,-0.03 0.29998,-0.03c0.33997,0 0.50996,0.20003 0.50996,0.58008c0,0.37005 -0.23998,0.56008 -0.73994,0.56008c-0.19998,0 -0.48996,-0.03 -0.88993,-0.08c-0.38997,-0.05 -0.69995,-0.08 -0.89993,-0.08c-0.18999,0 -0.47996,0.03 -0.85993,0.08c-0.37997,0.05 -0.65995,0.08 -0.84993,0.08c-0.40997,0 -0.60995,-0.20003 -0.60995,-0.59008c0,-0.37005 0.17999,-0.55008 0.52996,-0.55008c0.07999,0 0.20998,0.01 0.37997,0.03c0.16999,0.03 0.29998,0.03 0.38997,0.03c0.39997,0 0.59995,-0.29004 0.59995,-0.87012zM165.0018,318.63677c0,-0.29004 -0.01,-0.48006 -0.03,-0.57008c-0.06,-0.20002 -0.18999,-0.30004 -0.38997,-0.30004c-0.07999,0 -0.18999,0.02 -0.33997,0.06c-0.13999,0.03 -0.24998,0.05 -0.33997,0.05c-0.29998,0 -0.44996,-0.17003 -0.44996,-0.50007c0,-0.36005 0.23998,-0.54007 0.70995,-0.54007c0.16999,0 0.41997,0.02 0.75994,0.06c0.33997,0.04 0.58996,0.06 0.75994,0.06c0.32997,0 0.81994,-0.02 1.47989,-0.06c0.64995,-0.04 1.13991,-0.06 1.46988,-0.06c0.43997,0 0.66995,0.22003 0.66995,0.66009c0,0.10001 -0.02,0.25003 -0.04,0.44006c-0.03,0.19002 -0.04,0.34004 -0.04,0.44006c0,0.14002 0.01,0.34004 0.04,0.60008c0.02,0.27003 0.04,0.48006 0.04,0.62008c0,0.37005 -0.14999,0.55008 -0.42996,0.55008c-0.13999,0 -0.24999,-0.06 -0.33998,-0.17003c-0.09,-0.12001 -0.13999,-0.25003 -0.13999,-0.40005c0,-0.09 0.01,-0.23003 0.03,-0.42006c0.02,-0.20002 0.03,-0.33004 0.03,-0.42006c0,-0.45006 -0.14999,-0.7401 -0.44996,-0.86011c-0.15999,-0.07 -0.50996,-0.11002 -1.05992,-0.11002c-0.35997,0 -0.58996,0.06 -0.68995,0.18003c-0.09999,0.13001 -0.14999,0.38005 -0.14999,0.7601v3.81052c0,0.38005 0.03,0.62009 0.08999,0.7201c0.07999,0.13002 0.29998,0.19003 0.64995,0.19003c0.06,0 0.14999,-0.01 0.25998,-0.03c0.1,-0.03 0.18999,-0.04 0.24998,-0.04c0.36998,0 0.54996,0.16002 0.54996,0.48006c0,0.37005 -0.23998,0.56008 -0.70994,0.56008c-0.18999,0 -0.45997,-0.03 -0.81994,-0.08c-0.36997,-0.05 -0.63995,-0.07 -0.82994,-0.07c-0.14999,0 -0.37997,0.02 -0.67995,0.07c-0.30998,0.05 -0.53996,0.08 -0.69995,0.08c-0.46996,0 -0.70995,-0.19003 -0.70995,-0.56008c0,-0.32004 0.15999,-0.48006 0.46996,-0.48006c0.05999,0 0.13999,0.01 0.24998,0.04c0.10999,0.02 0.18998,0.03 0.24998,0.03c0.26998,0 0.44997,-0.08 0.51996,-0.24004c0.04,-0.09 0.06,-0.29004 0.06,-0.61008zM172.11126,320.05697v1.33018c0,1.45019 0.58995,2.18029 1.76986,2.18029c0.69995,0 1.21991,-0.35004 1.55988,-1.04014c0.24998,-0.52007 0.37997,-1.17016 0.37997,-1.96027c0,-0.7701 -0.12999,-1.42019 -0.39997,-1.96026c-0.33997,-0.67009 -0.84993,-1.02014 -1.53988,-1.02014c-0.61995,0 -1.07991,0.27003 -1.38989,0.82011c-0.24998,0.45006 -0.37997,1.00014 -0.37997,1.65023zM173.95112,324.57758c-0.71995,0 -1.3399,-0.26003 -1.83986,-0.7801v1.38018c0,0.54008 0.05,0.84012 0.12999,0.91013c0.09,0.07 0.37997,0.10001 0.89993,0.10001c0.39997,0 0.59995,0.18003 0.59995,0.53007c0,0.32005 -0.18998,0.48007 -0.55995,0.48007c-0.19999,0 -0.49997,-0.02 -0.88994,-0.06c-0.39996,-0.04 -0.69994,-0.06 -0.89993,-0.06c-0.13999,0 -0.34997,0.02 -0.61995,0.06c-0.26998,0.04 -0.47996,0.06 -0.61995,0.06c-0.31998,0 -0.47996,-0.15002 -0.47996,-0.45006c0,-0.29004 0.09,-0.47007 0.25998,-0.51007c0.01,0 0.20998,0 0.58995,0c0.24998,0 0.39997,-0.11002 0.45997,-0.34005c0.03,-0.08 0.05,-0.30004 0.05,-0.64008v-6.27086c0,-0.39005 -0.01,-0.64009 -0.02,-0.7301c-0.06,-0.32004 -0.18999,-0.49007 -0.38997,-0.52007c-0.22999,0 -0.45997,0 -0.67995,0c-0.25998,-0.03 -0.39997,-0.18003 -0.39997,-0.42006c0,-0.32004 0.13999,-0.48006 0.39997,-0.48006c0.05,0 0.11999,0.01 0.20998,0.03c0.09,0.02 0.15999,0.03 0.19999,0.03c0.14999,0 0.36997,-0.01 0.65995,-0.03c0.27997,-0.02 0.49996,-0.03 0.64995,-0.03c0.22998,0 0.36997,0.08 0.41996,0.26003c0.02,0.05 0.03,0.23003 0.03,0.55008c0.45997,-0.7201 1.10992,-1.08015 1.95985,-1.08015c0.98993,0 1.74987,0.45006 2.25983,1.35018c0.42997,0.75011 0.63995,1.65023 0.63995,2.71037c0,1.06015 -0.22998,1.95027 -0.69995,2.67037c-0.54995,0.85011 -1.31989,1.28017 -2.31982,1.28017zM179.05073,320.58704c0,1.96027 0.71994,2.9304 2.14983,2.9304c0.75994,0 1.3199,-0.31004 1.68987,-0.94013c0.29998,-0.52007 0.44997,-1.18016 0.44997,-1.99027c0,-0.82011 -0.13999,-1.50021 -0.42997,-2.03028c-0.36997,-0.67009 -0.93993,-1.00014 -1.70987,-1.00014c-0.75994,0 -1.3199,0.33005 -1.68987,1.00014c-0.30998,0.53007 -0.45996,1.21017 -0.45996,2.03028zM177.94081,320.58704c0,-1.13016 0.24998,-2.04028 0.76994,-2.76038c0.56996,-0.81011 1.3999,-1.22016 2.47981,-1.22016c1.08992,0 1.91985,0.41005 2.49981,1.22016c0.50996,0.7101 0.76994,1.63022 0.76994,2.76038c0,1.14015 -0.25998,2.06028 -0.76994,2.74037c-0.56996,0.77011 -1.40989,1.15016 -2.51981,1.15016c-1.07991,0 -1.90985,-0.40006 -2.47981,-1.18016c-0.49996,-0.6901 -0.74994,-1.59022 -0.74994,-2.71037z" fill="#ffffff"/><path d="M186.07019,322.38728v-3.90053c0,-0.32004 -0.02,-0.52007 -0.06,-0.62008c-0.08,-0.18003 -0.24998,-0.27004 -0.50996,-0.27004c-0.04,0 -0.09,0.01 -0.15999,0.03c-0.07,0.02 -0.12999,0.03 -0.16999,0.03c-0.39997,0 -0.59995,-0.17003 -0.59995,-0.51007c0,-0.31004 0.17998,-0.47007 0.54996,-0.47007c0.15998,0 0.39996,0.02 0.69994,0.07c0.30998,0.05 0.54996,0.07 0.69995,0.07c0.14998,0 0.34997,-0.02 0.60995,-0.07c0.25998,-0.05 0.45996,-0.07 0.59996,-0.07c0.35997,0 0.53995,0.16003 0.53995,0.47007c0,0.34004 -0.14999,0.51007 -0.43996,0.51007c-0.05,0 -0.11999,-0.01 -0.21999,-0.03c-0.1,-0.02 -0.17998,-0.03 -0.22998,-0.03c-0.17999,0 -0.26998,0.28004 -0.26998,0.83011v0.98014c0,0.38005 0.35997,0.57007 1.06992,0.57007c0.60995,0 0.99992,-0.17002 1.15991,-0.51007c0.06,-0.13001 0.1,-0.51006 0.11999,-1.15015c0.02,-0.54008 0.15999,-0.95013 0.40997,-1.23017c0.25998,-0.27004 0.60995,-0.41006 1.03992,-0.41006c1.00992,0 1.51988,0.51007 1.51988,1.52021c0,0.60008 -0.20998,0.90012 -0.62995,0.90012c-0.39997,0 -0.58995,-0.20002 -0.58995,-0.63008c0,-0.06 0.02,-0.15002 0.07,-0.26004c0.05,-0.12001 0.08,-0.21003 0.08,-0.28004c0,-0.22003 -0.11,-0.33004 -0.34998,-0.33004c-0.23998,0 -0.38997,0.16002 -0.44996,0.48006c-0.04,0.35005 -0.07,0.7101 -0.1,1.07015c-0.08,0.48007 -0.23998,0.83011 -0.48996,1.09015v0.07c0.45996,0.25003 0.75994,0.64009 0.88993,1.18016c0.02,0.09 0.05,0.51007 0.08,1.24017c0.02,0.38005 0.13999,0.57008 0.36997,0.57008c0.19998,0 0.28998,-0.15002 0.28998,-0.46007c0,-0.06 0,-0.15002 0,-0.27003c-0.01,-0.12002 -0.02,-0.22003 -0.02,-0.29004c0,-0.45006 0.16998,-0.67009 0.50996,-0.67009c0.27998,0 0.43996,0.14002 0.46996,0.43006c0,-0.01 0,0.24003 0,0.7401c0,0.99013 -0.43997,1.4902 -1.3399,1.4902c-0.70994,0 -1.12991,-0.30004 -1.2599,-0.91013c-0.05,-0.55007 -0.1,-1.11015 -0.14999,-1.66022c-0.13999,-0.61009 -0.59995,-0.91013 -1.36989,-0.91013c-0.47997,0 -0.76994,0.02 -0.86994,0.05c-0.30997,0.08 -0.45996,0.28004 -0.45996,0.60009v0.95013c0,0.36004 0.02,0.58007 0.05,0.66009c0.07,0.17002 0.23998,0.25003 0.52996,0.25003c0.06,0 0.13999,-0.01 0.24998,-0.03c0.10999,-0.03 0.19998,-0.04 0.25998,-0.04c0.35997,0 0.53996,0.16002 0.53996,0.48007c0,0.38005 -0.23998,0.56007 -0.70995,0.56007c-0.15998,0 -0.39997,-0.03 -0.70994,-0.07c-0.30998,-0.05 -0.53996,-0.08 -0.70995,-0.08c-0.14999,0 -0.37997,0.03 -0.67995,0.08c-0.30997,0.04 -0.53995,0.07 -0.69994,0.07c-0.46997,0 -0.70995,-0.18002 -0.70995,-0.56007c0,-0.32005 0.15999,-0.48007 0.46997,-0.48007c0.06,0 0.13999,0.01 0.24998,0.04c0.10999,0.02 0.18998,0.03 0.24998,0.03c0.28998,0 0.46996,-0.08 0.53996,-0.25003c0.03,-0.09 0.04,-0.31005 0.04,-0.66009z" fill="#ffffff"/><path d="M198.83921,324.82762c-0.02,-0.07 -0.03,-0.16003 -0.03,-0.25004c0,-0.10001 0.02,-0.19002 0.04,-0.30004c0.02,-0.10001 0.05,-0.20003 0.1,-0.29004c0.05,-0.10001 0.10999,-0.18002 0.19998,-0.24003c0.08,-0.06 0.17999,-0.08 0.29998,-0.07c0.05,0 0.14998,0 0.31997,-0.01c0.15999,0 0.25998,0 0.31998,0c0.22998,0 0.43996,0.01 0.63995,0.04c0.20998,0.03 0.41997,0.04 0.63995,0.05h0.33997c0.03,-0.01 0.05,-0.05 0.07,-0.12002c0.02,-0.06 0.03,-0.14002 0.05,-0.23003c0.02,-0.09 0.03,-0.18002 0.03,-0.27004c0.01,-0.08 0.02,-0.14002 0.03,-0.18002c-0.01,-0.87012 0.01,-1.72024 0.05,-2.53035c0.04,-0.82011 0.06,-1.65022 0.07,-2.49034c0,-0.04 0,-0.10001 -0.01,-0.17002c0,-0.06 0,-0.10001 0,-0.11001c0,-0.14002 0,-0.31005 -0.01,-0.52008c0,-0.21002 0,-0.41005 -0.01,-0.60007c0,-0.19003 -0.01,-0.43006 -0.03,-0.7301l-0.05,-0.09l-2.25983,-0.02c-0.17998,0 -0.32997,-0.07 -0.43996,-0.21003c-0.11999,-0.15003 -0.17999,-0.30005 -0.17999,-0.45007c0,-0.37005 0.10999,-0.59008 0.32998,-0.6901c0.20998,-0.09 0.47996,-0.13001 0.81993,-0.13001h0.03c0.09,0 0.25998,0.01 0.48997,0.01c0.23998,0.01 0.47996,0.02 0.72994,0.03c0.25998,0 0.49996,0.01 0.72994,0.03c0.22999,0.01 0.38997,0.01 0.47997,0.01c0.16998,0.05 0.30997,0.13001 0.41996,0.24003c0.11,0.12002 0.18999,0.25003 0.23999,0.41006c0.06,0.16002 0.1,0.32004 0.11999,0.49006c0.02,0.16002 0.02,0.32005 0.02,0.48007c0,0.21003 -0.01,0.41005 -0.04,0.59008c-0.03,0.19003 -0.04,0.39005 -0.05,0.60008c0,0.20003 0.01,0.40006 0.04,0.60008c0.02,0.19003 0.03,0.39006 0.03,0.60009v0.36004c0,0.11002 -0.03,0.23004 -0.08,0.34005l-0.04,4.45061l0.06,0.13002c0.01,0.02 0.03,0.05 0.06,0.09l2.07984,0.02c0.1,0 0.19998,0.03 0.28998,0.09c0.08,0.06 0.15998,0.13001 0.22998,0.21002c0.07,0.08 0.11999,0.18003 0.15998,0.28004c0.04,0.10002 0.06,0.19003 0.06,0.27004c0,0.11001 -0.04,0.22003 -0.1,0.30004c-0.07,0.09 -0.15998,0.16002 -0.25997,0.22003c-0.10999,0.05 -0.21999,0.10001 -0.32998,0.13002c-0.11999,0.03 -0.22998,0.04 -0.32997,0.04c-0.16999,0 -0.31998,-0.01 -0.46997,-0.03c-0.13999,-0.02 -0.30997,-0.04 -0.47996,-0.04c-0.12999,0 -0.26998,0 -0.42997,-0.01c-0.15999,-0.01 -0.30998,0.03 -0.42996,0.10001l-1.82986,-0.02c-0.07,0.06 -0.14999,0.12002 -0.23999,0.16002c-0.09,0.04 -0.17998,0.06 -0.27997,0.06c-0.12,0 -0.20999,-0.03 -0.26998,-0.08c-0.06,-0.06 -0.13999,-0.09 -0.25998,-0.12001c-0.02,0 -0.06,0 -0.12999,0c-0.07,-0.01 -0.13999,-0.02 -0.21999,-0.03c-0.09,-0.01 -0.16998,-0.02 -0.23998,-0.03c-0.07,0 -0.10999,0 -0.11999,0c-0.03,0 -0.08,-0.01 -0.14999,-0.03c-0.07,-0.02 -0.13999,-0.03 -0.21998,-0.06c-0.08,-0.02 -0.14999,-0.04 -0.21998,-0.05c-0.06,-0.02 -0.10999,-0.03 -0.14999,-0.04c-0.12999,-0.06 -0.20999,-0.12002 -0.22999,-0.19003z" fill="#fefefe"/></g></g></svg>