<svg version="1.1" xmlns="http://www.w3.org/2000/svg" xmlns:xlink="http://www.w3.org/1999/xlink" width="64.54854" height="97.20302" viewBox="0,0,64.54854,97.20302"><g transform="translate(-156.20676,-286.30792)"><g data-paper-data="{&quot;isPaintingLayer&quot;:true}" fill-rule="nonzero" stroke-linecap="butt" stroke-linejoin="miter" stroke-dasharray="" stroke-dashoffset="0" style="mix-blend-mode: normal"><path d="M203.42167,289.14686c9.19995,-0.07975 16.72119,7.31229 16.80094,16.50926l0.53205,60.80296c0.07975,9.19995 -7.31229,16.72119 -16.50945,16.80094l-28.75076,0.25022c-9.19604,0.08384 -16.72119,-7.30932 -16.80094,-16.50926l-0.52815,-60.80296c-0.07975,-9.19604 7.3095,-16.72119 16.50945,-16.80094z" fill-opacity="0.69804" fill="#0f150e" stroke="none" stroke-width="1" stroke-miterlimit="10"/><path d="M201.46392,286.30856c9.1993,-0.08001 16.71871,7.31099 16.79871,16.51225l0.52996,60.8083c0.08,9.20126 -7.30944,16.7323 -16.50873,16.8123l-28.74779,0.25003c-9.19929,0.08001 -16.71872,-7.311 -16.79871,-16.51225l-0.52996,-60.81831c-0.07999,-9.19125 7.30944,-16.72228 16.50873,-16.80229z" fill="#77b074" stroke="none" stroke-width="0.26458" stroke-miterlimit="10"/><path d="M212.73306,362.95904c-0.23999,2.29031 -0.66995,3.76051 -1.27991,4.4106c-0.59995,0.65009 -1.93985,1.13015 -4.02969,1.43019c-1.49988,0.17003 -5.67956,0.46007 -12.53903,0.88012c-6.85948,0.41006 -12.04908,0.6601 -15.56881,0.7301c-1.58988,0.05 -2.85978,0.07 -3.79971,0.05c-0.93993,-0.03 -1.84986,-0.14002 -2.72979,-0.33004c-0.87993,-0.20003 -1.52988,-0.43006 -1.94985,-0.7101c-0.42997,-0.27004 -0.83994,-0.7201 -1.23991,-1.37019c-0.39997,-0.64008 -0.70994,-1.33018 -0.93993,-2.06028c-0.21998,-0.7401 -0.47996,-1.76024 -0.77994,-3.06041c-0.77994,-3.6205 -1.2999,-7.52103 -1.53988,-11.6816c-0.24998,-4.16057 -0.26998,-10.10138 -0.08999,-17.82243c0.07999,-6.23085 0.04,-10.84148 -0.11999,-13.84189c-0.14999,-2.99041 -0.50996,-5.8508 -1.06992,-8.57117c-1.07992,-4.87067 -1.48989,-8.17112 -1.20991,-9.90135c0.14999,-0.6901 0.32997,-1.19017 0.53996,-1.52021c0.20998,-0.31004 0.62995,-0.63009 1.2499,-0.94013c0.75994,-0.37005 3.9197,-0.89012 9.47927,-1.58021c5.56957,-0.6801 11.00915,-1.24017 16.33874,-1.66023c3.55973,-0.18003 5.39959,-0.30005 5.53958,-0.36005c0.04,0 1.11991,0.01 3.22975,0.05c3.06976,0.18002 5.05961,0.68009 5.96954,1.5002c0.57995,0.50007 0.95993,1.24017 1.14991,2.23031c0.18999,0.99013 0.42997,3.43046 0.72995,7.30099c0.33997,4.73065 0.91993,10.45143 1.72986,17.17235c1.00992,8.53116 1.63988,14.28195 1.90986,17.23235c0.26998,2.9704 0.54995,6.75092 0.84993,11.37155c0.29998,5.82079 0.35997,9.5013 0.16999,11.05151z" fill="#fefefe" stroke="none" stroke-width="0.26458" stroke-miterlimit="10"/><path d="M170.99627,343.60638c0.98992,-1.28018 2.42981,-1.90026 4.32967,-1.89026c1.63987,0.02 2.82978,0.52007 3.58972,1.53021c0.75994,1.00014 1.12991,2.25031 1.11991,3.75051c-0.01,0.68009 -0.14999,1.27017 -0.40997,1.78024c-0.27998,0.51007 -0.45996,1.10015 -0.56996,1.78025c-0.06,0.43006 0.16999,0.86011 0.69995,1.28017c0.51996,0.41006 1.13991,0.80011 1.84986,1.14016c0.70995,0.35004 1.41989,0.63008 2.12984,0.82011c0.70994,0.20003 1.2199,0.30004 1.53988,0.30004c0.52996,0.01 0.98992,-0.14002 1.38989,-0.45006c0.39997,-0.32005 0.85993,-0.57008 1.38989,-0.76011c0.63996,-0.18002 1.3399,-0.27003 2.09984,-0.24003c0.76994,0.04 1.41989,-0.14002 1.94985,-0.52007c0.41997,-0.29004 0.93993,-0.69009 1.54989,-1.23017c0.60995,-0.53007 1.1999,-1.09015 1.75986,-1.69023c0.55996,-0.60008 1.02992,-1.24017 1.39989,-1.92026c0.37997,-0.67009 0.56996,-1.32018 0.56996,-1.96027l0.07,-7.71105c-0.25998,-0.59008 -0.48996,-1.08015 -0.69994,-1.50021c-0.20999,-0.41005 -0.39997,-0.82011 -0.57996,-1.24016c-0.17999,-0.41006 -0.34997,-0.7401 -0.50996,-0.98014c-0.14999,-0.30004 -0.43997,-0.70009 -0.85993,-1.22016c-0.41997,-0.51007 -0.87994,-1.01014 -1.3699,-1.50021c-0.49996,-0.49006 -0.99992,-0.92012 -1.48988,-1.29018c-0.49997,-0.36004 -0.90993,-0.55007 -1.22991,-0.55007l-6.4895,-0.06c-0.20999,0 -0.41997,0.10001 -0.63995,0.29004c-0.89993,0.53007 -1.78986,1.05014 -2.6598,1.58022c-0.87993,0.52007 -1.65987,1.20016 -2.35982,2.02027c-0.31998,0.38005 -0.57996,0.78011 -0.79994,1.18016c-0.20998,0.42006 -0.45996,0.82011 -0.71994,1.20017c-0.26998,0.39005 -0.58995,0.70009 -0.95993,0.94012c-0.36997,0.24004 -0.87993,0.35005 -1.50988,0.35005c-0.89993,-0.01 -1.64987,-0.35005 -2.24983,-1.04014c-0.59995,-0.68009 -0.88993,-1.39019 -0.88993,-2.12029c0.01,-1.50021 0.14999,-2.9604 0.39997,-4.36059c0.24998,-1.4102 0.37997,-2.83039 0.38997,-4.29059c0.01,-0.97013 -0.05,-1.92026 -0.16999,-2.84039c-0.12999,-0.92012 -0.18999,-1.87026 -0.17999,-2.84039c0.02,-1.65022 0.14999,-3.31045 0.39997,-4.98068c0.24998,-1.67023 0.67995,-3.28044 1.2699,-4.83066c0.47996,-0.58008 1.03992,-1.02014 1.67987,-1.33018c0.62995,-0.31004 1.3199,-0.53007 2.05984,-0.68009c0.73994,-0.13002 1.48989,-0.21003 2.25983,-0.23003c0.76994,-0.02 1.51988,-0.02 2.25983,-0.02c1.52988,0.02 3.01977,0.13002 4.46966,0.33004c1.44989,0.21003 2.93977,0.32005 4.46966,0.34005c0.78994,0 1.56988,-0.04 2.33982,-0.13002c0.75994,-0.09 1.53988,-0.13002 2.33982,-0.13002c1.68987,0.02 3.15976,0.35005 4.41966,0.99014c1.2599,0.64009 1.88985,1.89026 1.86985,3.73051c-0.01,0.7701 -0.17998,1.36018 -0.52995,1.77024c-0.34998,0.42006 -0.79994,0.7101 -1.3499,0.90012c-0.55996,0.19003 -1.17991,0.30004 -1.86986,0.31005c-0.68994,0.02 -1.34989,0.03 -1.97984,0.02c-0.62996,0 -1.3299,0 -2.09984,0.02c-0.75995,0.02 -1.45989,-0.09 -2.08984,-0.34005l-9.57927,-0.09c-0.36997,0 -0.86993,0.04 -1.50988,0.13002c-0.62995,0.10001 -1.07992,0.33004 -1.3499,0.7201c0,0.15002 -0.02,0.39005 -0.05,0.7301c-0.03,0.33004 -0.06,0.70009 -0.08999,1.09015c-0.03,0.39005 -0.06999,0.7601 -0.12999,1.12015c-0.05,0.37005 -0.07999,0.62008 -0.07999,0.7701c0,0.09 -0.05,0.37005 -0.12999,0.83012c-0.07999,0.46006 -0.14999,0.7401 -0.19998,0.84011v0.14002c-0.01,0.29004 0.08999,0.7301 0.29998,1.32018c0.20998,0.58008 0.51996,0.88012 0.93993,0.88012c1.2699,0.01 2.46981,-0.19002 3.60972,-0.59008c1.13992,-0.40005 2.36981,-0.60008 3.68972,-0.58008l1.49989,0.01c0.68994,0.01 1.05992,0.03 1.10991,0.08c0.20999,0 0.61996,0.06 1.22991,0.19003c0.59995,0.13001 1.2299,0.27003 1.88985,0.42006c0.65995,0.15002 1.2799,0.32004 1.85986,0.49006c0.57996,0.17002 0.99992,0.29004 1.2699,0.34005c1.56988,1.28017 3.08977,2.62036 4.55965,4.04055c1.02992,2.10029 2.01984,4.20057 2.94977,6.32086c0.92993,2.12029 1.3799,4.3706 1.3699,6.74092c-0.02,1.27018 -0.19999,2.68037 -0.55996,4.26058c-0.34997,1.57022 -0.86993,3.13043 -1.53988,4.67064c-0.67995,1.56021 -1.50989,3.00041 -2.49981,4.35059c-0.98992,1.35019 -2.11983,2.43034 -3.38974,3.25045c-0.10999,0.04 -0.28997,0.14002 -0.55995,0.28004c-0.25998,0.14002 -0.56996,0.29004 -0.90993,0.43006c-0.34998,0.14001 -0.66995,0.29004 -0.94993,0.43006c-0.29998,0.14001 -0.51996,0.23003 -0.67995,0.28003c-0.05,0 -0.22998,0.04 -0.51996,0.11002c-0.28998,0.07 -0.58995,0.13002 -0.90993,0.17002c-0.31997,0.05 -0.60995,0.09 -0.86993,0.14002c-0.26998,0.04 -0.42997,0.07 -0.47996,0.07c-0.83994,0.23003 -1.68987,0.53007 -2.53981,0.89012c-0.84994,0.35005 -1.71987,0.53007 -2.6198,0.52007c-0.67995,-0.01 -1.2899,-0.14002 -1.80986,-0.41005c-0.52996,-0.28004 -1.10991,-0.53007 -1.73987,-0.78011c-0.67995,-0.25003 -1.39989,-0.39005 -2.12984,-0.43006c-0.73994,-0.02 -1.44989,-0.17002 -2.13984,-0.42006c-0.94993,-0.34004 -1.92985,-0.91012 -2.94977,-1.69022c-1.02992,-0.79011 -1.95985,-1.70024 -2.78979,-2.72038c-0.83994,-1.03014 -1.52988,-2.09028 -2.06984,-3.18043c-0.54996,-1.10015 -0.80994,-2.1603 -0.80994,-3.18044c0.02,-1.70023 0.51996,-3.18043 1.50988,-4.4606z" fill="#0d6c39" stroke="none" stroke-width="0.26458" stroke-miterlimit="10"/><path d="M174.11603,341.95615c0.90993,-1.30017 2.22983,-1.93026 3.9797,-1.92026c1.49989,0.02 2.5998,0.53007 3.29975,1.54021c0.68995,1.02014 1.02992,2.29031 1.01992,3.80052c-0.01,0.6901 -0.12999,1.29018 -0.37997,1.81025c-0.24998,0.52007 -0.41997,1.11015 -0.52996,1.80024c-0.05,0.44006 0.16999,0.87012 0.64995,1.30018c0.47996,0.42006 1.04992,0.80011 1.69987,1.15016c0.64995,0.35005 1.2999,0.63008 1.95985,0.83011c0.64995,0.20003 1.11991,0.30004 1.40989,0.31004c0.48996,0 0.91993,-0.15002 1.2799,-0.47006c0.36997,-0.32004 0.78994,-0.57008 1.2799,-0.77011c0.57996,-0.18002 1.22991,-0.27003 1.92985,-0.24003c0.69995,0.04 1.2999,-0.14002 1.78987,-0.53007c0.38997,-0.29004 0.85993,-0.7101 1.42989,-1.24017c0.55995,-0.54008 1.09991,-1.11015 1.61987,-1.72024c0.50996,-0.61008 0.93993,-1.26017 1.2899,-1.94026c0.33998,-0.69009 0.50996,-1.35018 0.51996,-1.99027l0.07,-7.81107c-0.23997,-0.60008 -0.44996,-1.09015 -0.63995,-1.5202c-0.18998,-0.42006 -0.36997,-0.83012 -0.53995,-1.25018c-0.15999,-0.43006 -0.31998,-0.7601 -0.45997,-1.00013c-0.14999,-0.30005 -0.40997,-0.7101 -0.78994,-1.23017c-0.37997,-0.52007 -0.80994,-1.03014 -1.2599,-1.52021c-0.45997,-0.49006 -0.90993,-0.93012 -1.3699,-1.30018c-0.45996,-0.37005 -0.82993,-0.56007 -1.12991,-0.57007l-5.95954,-0.05c-0.19999,0 -0.38997,0.10001 -0.58996,0.29004c-0.82993,0.54007 -1.63987,1.07014 -2.44981,1.61022c-0.79994,0.53007 -1.52988,1.21016 -2.15984,2.04028c-0.29998,0.39005 -0.54996,0.7901 -0.73994,1.21016c-0.19998,0.41006 -0.41997,0.82011 -0.66995,1.21017c-0.23998,0.39005 -0.53996,0.71009 -0.87993,0.95013c-0.33997,0.24003 -0.79994,0.36005 -1.37989,0.35004c-0.82994,0 -1.51988,-0.35004 -2.06984,-1.05014c-0.54996,-0.68009 -0.81994,-1.40019 -0.81994,-2.14029c0.02,-1.52021 0.13999,-3.00041 0.36997,-4.4206c0.22998,-1.4202 0.34997,-2.8704 0.36997,-4.3406c0,-0.99013 -0.05,-1.95026 -0.15999,-2.88039c-0.11999,-0.93013 -0.16999,-1.89026 -0.15999,-2.88039c0.02,-1.66023 0.13999,-3.35046 0.36997,-5.04069c0.22998,-1.70023 0.61995,-3.32045 1.16991,-4.90067c0.43997,-0.58008 0.95993,-1.03014 1.53988,-1.34018c0.58996,-0.32005 1.21991,-0.54008 1.89985,-0.6901c0.67995,-0.13002 1.3699,-0.22003 2.07984,-0.24003c0.69995,-0.02 1.38989,-0.02 2.06984,-0.02c1.40989,0.02 2.77978,0.13002 4.10968,0.33004c1.3299,0.21003 2.6998,0.33005 4.10969,0.34005c0.72994,0.01 1.43989,-0.04 2.14983,-0.13002c0.69995,-0.09 1.41989,-0.14002 2.14984,-0.13001c1.54988,0.01 2.89977,0.35004 4.05969,0.99013c1.15991,0.65009 1.72986,1.91026 1.71986,3.78052c-0.01,0.7801 -0.17998,1.38019 -0.48996,1.80024c-0.31998,0.42006 -0.73994,0.7201 -1.2499,0.91013c-0.50997,0.19002 -1.07992,0.30004 -1.70987,0.32004c-0.62995,0.02 -1.23991,0.02 -1.81986,0.02c-0.57996,-0.01 -1.22991,0 -1.92985,0.02c-0.69995,0.02 -1.3399,-0.10001 -1.91986,-0.35005l-8.80932,-0.08c-0.33997,0 -0.79994,0.05 -1.38989,0.14002c-0.57996,0.09 -0.98992,0.33005 -1.2399,0.7201c0,0.15002 -0.01,0.40006 -0.04,0.7401c-0.03,0.34005 -0.05,0.7101 -0.07999,1.10015c-0.03,0.40006 -0.06999,0.78011 -0.11999,1.15016c-0.05,0.36005 -0.07999,0.62009 -0.07999,0.77011c0,0.10001 -0.04,0.38005 -0.11999,0.84011c-0.06999,0.47006 -0.13999,0.7501 -0.18999,0.85012v0.15002c0,0.29004 0.08999,0.7401 0.27998,1.33018c0.18999,0.59008 0.47996,0.89012 0.86993,0.89012c1.15991,0.01 2.25982,-0.19003 3.30974,-0.60008c1.04992,-0.40006 2.17983,-0.60008 3.38974,-0.59008l1.3899,0.01c0.62995,0 0.95992,0.03 1.00992,0.08c0.19998,0 0.56996,0.07 1.12991,0.20003c0.55996,0.12001 1.13991,0.26003 1.73987,0.41005c0.60995,0.16002 1.16991,0.33005 1.70987,0.50007c0.52995,0.18002 0.91993,0.29004 1.15991,0.34005c1.43989,1.29017 2.83978,2.65036 4.17968,4.09056c0.95992,2.12029 1.85985,4.25058 2.70979,6.40087c0.85993,2.15029 1.2699,4.4206 1.2499,6.83093c-0.01,1.28018 -0.17999,2.72037 -0.50996,4.31059c-0.32997,1.59022 -0.79994,3.17043 -1.41989,4.74065c-0.61995,1.57021 -1.38989,3.03041 -2.28982,4.4006c-0.90993,1.37019 -1.95985,2.46033 -3.12976,3.29045c-0.1,0.05 -0.26998,0.15002 -0.50996,0.29004c-0.23999,0.15002 -0.51996,0.29004 -0.83994,0.44006c-0.31997,0.14002 -0.60995,0.29004 -0.87993,0.43005c-0.25998,0.15003 -0.46997,0.24004 -0.61995,0.29004c-0.05,0 -0.19999,0.04 -0.46997,0.11002c-0.26998,0.07 -0.54996,0.12002 -0.83993,0.18003c-0.28998,0.04 -0.55996,0.09 -0.79994,0.13001c-0.23998,0.05 -0.38997,0.07 -0.43997,0.07c-0.77994,0.24003 -1.55988,0.55008 -2.32982,0.90012c-0.77994,0.37005 -1.58988,0.54008 -2.40982,0.54008c-0.62995,-0.01 -1.1899,-0.15002 -1.66987,-0.42006c-0.48996,-0.28004 -1.01992,-0.54007 -1.59987,-0.79011c-0.61996,-0.25003 -1.27991,-0.39005 -1.95985,-0.42005c-0.66995,-0.03 -1.3299,-0.18003 -1.95985,-0.43006c-0.86993,-0.35005 -1.76986,-0.92013 -2.70979,-1.72024c-0.93993,-0.79011 -1.79986,-1.70023 -2.5598,-2.74037c-0.76994,-1.04014 -1.39989,-2.12029 -1.89986,-3.22044c-0.49996,-1.12015 -0.73994,-2.1903 -0.73994,-3.22044c0.02,-1.72024 0.47996,-3.23044 1.38989,-4.52062z" fill="#3eb311" stroke="none" stroke-width="0.26458" stroke-miterlimit="10"/><path d="M174.11603,341.95615c0.90993,-1.30017 2.22983,-1.93026 3.9797,-1.92026c1.49989,0.02 2.5998,0.53007 3.29975,1.54021c0.68995,1.02014 1.02992,2.29031 1.01992,3.80052c-0.01,0.6901 -0.12999,1.29018 -0.37997,1.81025c-0.24998,0.52007 -0.41997,1.11015 -0.52996,1.80024c-0.05,0.44006 0.16999,0.87012 0.64995,1.30018c0.47996,0.42006 1.04992,0.80011 1.69987,1.15016c0.64995,0.35005 1.2999,0.63008 1.95985,0.83011c0.64995,0.20003 1.11991,0.30004 1.40989,0.31004c0.48996,0 0.91993,-0.15002 1.2799,-0.47006c0.36997,-0.32004 0.78994,-0.57008 1.2799,-0.77011c0.57996,-0.18002 1.22991,-0.27003 1.92985,-0.24003c0.69995,0.04 1.2999,-0.14002 1.78987,-0.53007c0.38997,-0.29004 0.85993,-0.7101 1.42989,-1.24017c0.55995,-0.54008 1.09991,-1.11015 1.61987,-1.72024c0.50996,-0.61008 0.93993,-1.26017 1.2899,-1.94026c0.33998,-0.69009 0.50996,-1.35018 0.51996,-1.99027l0.07,-7.81107c-0.23997,-0.60008 -0.44996,-1.09015 -0.63995,-1.5202c-0.18998,-0.42006 -0.36997,-0.83012 -0.53995,-1.25018c-0.15999,-0.43006 -0.31998,-0.7601 -0.45997,-1.00013c-0.14999,-0.30005 -0.40997,-0.7101 -0.78994,-1.23017c-0.37997,-0.52007 -0.80994,-1.03014 -1.2599,-1.52021c-0.45997,-0.49006 -0.90993,-0.93012 -1.3699,-1.30018c-0.45996,-0.37005 -0.82993,-0.56007 -1.12991,-0.57007l-5.95954,-0.05c-0.19999,0 -0.38997,0.10001 -0.58996,0.29004c-0.82993,0.54007 -1.63987,1.07014 -2.44981,1.61022c-0.79994,0.53007 -1.52988,1.21016 -2.15984,2.04028c-0.29998,0.39005 -0.54996,0.7901 -0.73994,1.21016c-0.19998,0.41006 -0.41997,0.82011 -0.66995,1.21017c-0.23998,0.39005 -0.53996,0.71009 -0.87993,0.95013c-0.33997,0.24003 -0.79994,0.36005 -1.37989,0.35004c-0.82994,0 -1.51988,-0.35004 -2.06984,-1.05014c-0.54996,-0.68009 -0.81994,-1.40019 -0.81994,-2.14029c0.02,-1.52021 0.13999,-3.00041 0.36997,-4.4206c0.22998,-1.4202 0.34997,-2.8704 0.36997,-4.3406c0,-0.99013 -0.05,-1.95026 -0.15999,-2.88039c-0.11999,-0.93013 -0.16999,-1.89026 -0.15999,-2.88039c0.02,-1.66023 0.13999,-3.35046 0.36997,-5.04069c0.22998,-1.70023 0.61995,-3.32045 1.16991,-4.90067c0.43997,-0.58008 0.95993,-1.03014 1.53988,-1.34018c0.58996,-0.32005 1.21991,-0.54008 1.89985,-0.6901c0.67995,-0.13002 1.3699,-0.22003 2.07984,-0.24003c0.69995,-0.02 1.38989,-0.02 2.06984,-0.02c1.40989,0.02 2.77978,0.13002 4.10968,0.33004c1.3299,0.21003 2.6998,0.33005 4.10969,0.34005c0.72994,0.01 1.43989,-0.04 2.14983,-0.13002c0.69995,-0.09 1.41989,-0.14002 2.14984,-0.13001c1.54988,0.01 2.89977,0.35004 4.05969,0.99013c1.15991,0.65009 1.72986,1.91026 1.71986,3.78052c-0.01,0.7801 -0.17998,1.38019 -0.48996,1.80024c-0.31998,0.42006 -0.73994,0.7201 -1.2499,0.91013c-0.50997,0.19002 -1.07992,0.30004 -1.70987,0.32004c-0.62995,0.02 -1.23991,0.02 -1.81986,0.02c-0.57996,-0.01 -1.22991,0 -1.92985,0.02c-0.69995,0.02 -1.3399,-0.10001 -1.91986,-0.35005l-8.80932,-0.08c-0.33997,0 -0.79994,0.05 -1.38989,0.14002c-0.57996,0.09 -0.98992,0.33005 -1.2399,0.7201c0,0.15002 -0.01,0.40006 -0.04,0.7401c-0.03,0.34005 -0.05,0.7101 -0.07999,1.10015c-0.03,0.40006 -0.06999,0.78011 -0.11999,1.15016c-0.05,0.36005 -0.07999,0.62009 -0.07999,0.77011c0,0.10001 -0.04,0.38005 -0.11999,0.84011c-0.06999,0.47006 -0.13999,0.7501 -0.18999,0.85012v0.15002c0,0.29004 0.08999,0.7401 0.27998,1.33018c0.18999,0.59008 0.47996,0.89012 0.86993,0.89012c1.15991,0.01 2.25982,-0.19003 3.30974,-0.60008c1.04992,-0.40006 2.17983,-0.60008 3.38974,-0.59008l1.3899,0.01c0.62995,0 0.95992,0.03 1.00992,0.08c0.19998,0 0.56996,0.07 1.12991,0.20003c0.55996,0.12001 1.13991,0.26003 1.73987,0.41005c0.60995,0.16002 1.16991,0.33005 1.70987,0.50007c0.52995,0.18002 0.91993,0.29004 1.15991,0.34005c1.43989,1.29017 2.83978,2.65036 4.17968,4.09056c0.95992,2.12029 1.85985,4.25058 2.70979,6.40087c0.85993,2.15029 1.2699,4.4206 1.2499,6.83093c-0.01,1.28018 -0.17999,2.72037 -0.50996,4.31059c-0.32997,1.59022 -0.79994,3.17043 -1.41989,4.74065c-0.61995,1.57021 -1.38989,3.03041 -2.28982,4.4006c-0.90993,1.37019 -1.95985,2.46033 -3.12976,3.29045c-0.1,0.05 -0.26998,0.15002 -0.50996,0.29004c-0.23999,0.15002 -0.51996,0.29004 -0.83994,0.44006c-0.31997,0.14002 -0.60995,0.29004 -0.87993,0.43005c-0.25998,0.15003 -0.46997,0.24004 -0.61995,0.29004c-0.05,0 -0.19999,0.04 -0.46997,0.11002c-0.26998,0.07 -0.54996,0.12002 -0.83993,0.18003c-0.28998,0.04 -0.55996,0.09 -0.79994,0.13001c-0.23998,0.05 -0.38997,0.07 -0.43997,0.07c-0.77994,0.24003 -1.55988,0.55008 -2.32982,0.90012c-0.77994,0.37005 -1.58988,0.54008 -2.40982,0.54008c-0.62995,-0.01 -1.1899,-0.15002 -1.66987,-0.42006c-0.48996,-0.28004 -1.01992,-0.54007 -1.59987,-0.79011c-0.61996,-0.25003 -1.27991,-0.39005 -1.95985,-0.42005c-0.66995,-0.03 -1.3299,-0.18003 -1.95985,-0.43006c-0.86993,-0.35005 -1.76986,-0.92013 -2.70979,-1.72024c-0.93993,-0.79011 -1.79986,-1.70023 -2.5598,-2.74037c-0.76994,-1.04014 -1.39989,-2.12029 -1.89986,-3.22044c-0.49996,-1.12015 -0.73994,-2.1903 -0.73994,-3.22044c0.02,-1.72024 0.47996,-3.23044 1.38989,-4.52062" fill="none" stroke="#0d6c39" stroke-width="0.10999" stroke-miterlimit="4"/></g></g></svg>